<mxfile host="Electron" agent="Mozilla/5.0 (X11; Linux x86_64) AppleWebKit/537.36 (KHTML, like Gecko) draw.io/25.0.2 Chrome/128.0.6613.186 Electron/32.2.7 Safari/537.36" version="25.0.2">
  <diagram name="第 1 页" id="-ig4m9itux4o85KxZp7f">
    <mxGraphModel dx="1733" dy="1282" grid="1" gridSize="10" guides="1" tooltips="1" connect="1" arrows="1" fold="1" page="0" pageScale="1" pageWidth="827" pageHeight="1169" math="0" shadow="0">
      <root>
        <mxCell id="0" />
        <mxCell id="1" parent="0" />
        <mxCell id="6Ha6fiWHf-EiZPGUzSEU-7" value="user" style="rounded=0;whiteSpace=wrap;html=1;" vertex="1" parent="1">
          <mxGeometry x="80" y="230" width="40" height="20" as="geometry" />
        </mxCell>
        <mxCell id="6Ha6fiWHf-EiZPGUzSEU-9" value="%d" style="rounded=0;whiteSpace=wrap;html=1;" vertex="1" parent="1">
          <mxGeometry x="120" y="230" width="40" height="20" as="geometry" />
        </mxCell>
        <mxCell id="6Ha6fiWHf-EiZPGUzSEU-10" value="name" style="rounded=0;whiteSpace=wrap;html=1;" vertex="1" parent="1">
          <mxGeometry x="160" y="230" width="40" height="20" as="geometry" />
        </mxCell>
        <mxCell id="6Ha6fiWHf-EiZPGUzSEU-16" style="edgeStyle=orthogonalEdgeStyle;rounded=0;orthogonalLoop=1;jettySize=auto;html=1;exitX=1;exitY=0.5;exitDx=0;exitDy=0;" edge="1" parent="1" source="6Ha6fiWHf-EiZPGUzSEU-11" target="6Ha6fiWHf-EiZPGUzSEU-12">
          <mxGeometry relative="1" as="geometry" />
        </mxCell>
        <mxCell id="6Ha6fiWHf-EiZPGUzSEU-11" value="%s" style="rounded=0;whiteSpace=wrap;html=1;" vertex="1" parent="1">
          <mxGeometry x="200" y="230" width="40" height="20" as="geometry" />
        </mxCell>
        <mxCell id="6Ha6fiWHf-EiZPGUzSEU-12" value="info" style="rounded=0;whiteSpace=wrap;html=1;" vertex="1" parent="1">
          <mxGeometry x="280" y="230" width="40" height="20" as="geometry" />
        </mxCell>
        <mxCell id="6Ha6fiWHf-EiZPGUzSEU-23" value="farm" style="rounded=0;whiteSpace=wrap;html=1;" vertex="1" parent="1">
          <mxGeometry x="80" y="595" width="40" height="20" as="geometry" />
        </mxCell>
        <mxCell id="6Ha6fiWHf-EiZPGUzSEU-24" value="%d" style="rounded=0;whiteSpace=wrap;html=1;" vertex="1" parent="1">
          <mxGeometry x="120" y="595" width="40" height="20" as="geometry" />
        </mxCell>
        <mxCell id="6Ha6fiWHf-EiZPGUzSEU-26" style="edgeStyle=orthogonalEdgeStyle;rounded=0;orthogonalLoop=1;jettySize=auto;html=1;exitX=1;exitY=0.5;exitDx=0;exitDy=0;" edge="1" source="6Ha6fiWHf-EiZPGUzSEU-24" target="6Ha6fiWHf-EiZPGUzSEU-28" parent="1">
          <mxGeometry relative="1" as="geometry">
            <mxPoint x="240" y="605" as="sourcePoint" />
          </mxGeometry>
        </mxCell>
        <mxCell id="6Ha6fiWHf-EiZPGUzSEU-28" value="info" style="rounded=0;whiteSpace=wrap;html=1;" vertex="1" parent="1">
          <mxGeometry x="280" y="595" width="40" height="20" as="geometry" />
        </mxCell>
        <mxCell id="6Ha6fiWHf-EiZPGUzSEU-29" value="redis-server" style="text;html=1;align=center;verticalAlign=middle;resizable=0;points=[];autosize=1;strokeColor=none;fillColor=none;" vertex="1" parent="1">
          <mxGeometry x="300" y="-130" width="90" height="30" as="geometry" />
        </mxCell>
        <mxCell id="6Ha6fiWHf-EiZPGUzSEU-30" value="miner" style="rounded=0;whiteSpace=wrap;html=1;" vertex="1" parent="1">
          <mxGeometry x="80" y="892.5" width="40" height="20" as="geometry" />
        </mxCell>
        <mxCell id="6Ha6fiWHf-EiZPGUzSEU-31" value="%d" style="rounded=0;whiteSpace=wrap;html=1;" vertex="1" parent="1">
          <mxGeometry x="120" y="892.5" width="40" height="20" as="geometry" />
        </mxCell>
        <mxCell id="6Ha6fiWHf-EiZPGUzSEU-32" style="edgeStyle=orthogonalEdgeStyle;rounded=0;orthogonalLoop=1;jettySize=auto;html=1;exitX=1;exitY=0.5;exitDx=0;exitDy=0;" edge="1" source="6Ha6fiWHf-EiZPGUzSEU-31" target="6Ha6fiWHf-EiZPGUzSEU-33" parent="1">
          <mxGeometry relative="1" as="geometry">
            <mxPoint x="240" y="902.5" as="sourcePoint" />
          </mxGeometry>
        </mxCell>
        <mxCell id="6Ha6fiWHf-EiZPGUzSEU-33" value="info" style="rounded=0;whiteSpace=wrap;html=1;" vertex="1" parent="1">
          <mxGeometry x="280" y="892.5" width="40" height="20" as="geometry" />
        </mxCell>
        <mxCell id="6Ha6fiWHf-EiZPGUzSEU-34" value="fs" style="rounded=0;whiteSpace=wrap;html=1;" vertex="1" parent="1">
          <mxGeometry x="80" y="1140" width="40" height="20" as="geometry" />
        </mxCell>
        <mxCell id="6Ha6fiWHf-EiZPGUzSEU-35" value="%d" style="rounded=0;whiteSpace=wrap;html=1;" vertex="1" parent="1">
          <mxGeometry x="120" y="1140" width="40" height="20" as="geometry" />
        </mxCell>
        <mxCell id="6Ha6fiWHf-EiZPGUzSEU-36" style="edgeStyle=orthogonalEdgeStyle;rounded=0;orthogonalLoop=1;jettySize=auto;html=1;exitX=1;exitY=0.5;exitDx=0;exitDy=0;" edge="1" source="6Ha6fiWHf-EiZPGUzSEU-35" target="6Ha6fiWHf-EiZPGUzSEU-37" parent="1">
          <mxGeometry relative="1" as="geometry">
            <mxPoint x="240" y="1150" as="sourcePoint" />
          </mxGeometry>
        </mxCell>
        <mxCell id="6Ha6fiWHf-EiZPGUzSEU-37" value="info" style="rounded=0;whiteSpace=wrap;html=1;" vertex="1" parent="1">
          <mxGeometry x="280" y="1140" width="40" height="20" as="geometry" />
        </mxCell>
        <mxCell id="6Ha6fiWHf-EiZPGUzSEU-38" value="wallet" style="rounded=0;whiteSpace=wrap;html=1;" vertex="1" parent="1">
          <mxGeometry x="80" y="1360" width="40" height="20" as="geometry" />
        </mxCell>
        <mxCell id="6Ha6fiWHf-EiZPGUzSEU-107" style="edgeStyle=orthogonalEdgeStyle;rounded=0;orthogonalLoop=1;jettySize=auto;html=1;exitX=1;exitY=0.5;exitDx=0;exitDy=0;entryX=0;entryY=0.5;entryDx=0;entryDy=0;" edge="1" parent="1" source="6Ha6fiWHf-EiZPGUzSEU-39" target="6Ha6fiWHf-EiZPGUzSEU-41">
          <mxGeometry relative="1" as="geometry" />
        </mxCell>
        <mxCell id="6Ha6fiWHf-EiZPGUzSEU-39" value="%d" style="rounded=0;whiteSpace=wrap;html=1;" vertex="1" parent="1">
          <mxGeometry x="120" y="1360" width="40" height="20" as="geometry" />
        </mxCell>
        <mxCell id="6Ha6fiWHf-EiZPGUzSEU-40" style="edgeStyle=orthogonalEdgeStyle;rounded=0;orthogonalLoop=1;jettySize=auto;html=1;exitX=1;exitY=0.5;exitDx=0;exitDy=0;" edge="1" parent="1">
          <mxGeometry relative="1" as="geometry">
            <mxPoint x="180" y="1590.72" as="sourcePoint" />
            <mxPoint x="300" y="1590.72" as="targetPoint" />
          </mxGeometry>
        </mxCell>
        <mxCell id="6Ha6fiWHf-EiZPGUzSEU-41" value="info" style="rounded=0;whiteSpace=wrap;html=1;" vertex="1" parent="1">
          <mxGeometry x="280" y="1360" width="40" height="20" as="geometry" />
        </mxCell>
        <mxCell id="6Ha6fiWHf-EiZPGUzSEU-43" style="edgeStyle=orthogonalEdgeStyle;rounded=0;orthogonalLoop=1;jettySize=auto;html=1;exitX=1;exitY=0.5;exitDx=0;exitDy=0;" edge="1" parent="1" source="6Ha6fiWHf-EiZPGUzSEU-42">
          <mxGeometry relative="1" as="geometry">
            <mxPoint x="271" y="1813.892857142857" as="targetPoint" />
          </mxGeometry>
        </mxCell>
        <mxCell id="6Ha6fiWHf-EiZPGUzSEU-42" value="system" style="rounded=0;whiteSpace=wrap;html=1;" vertex="1" parent="1">
          <mxGeometry x="71" y="1803.75" width="40" height="20" as="geometry" />
        </mxCell>
        <mxCell id="6Ha6fiWHf-EiZPGUzSEU-44" value="info" style="rounded=0;whiteSpace=wrap;html=1;" vertex="1" parent="1">
          <mxGeometry x="271" y="1803.75" width="40" height="20" as="geometry" />
        </mxCell>
        <mxCell id="6Ha6fiWHf-EiZPGUzSEU-46" value="mine_pool" style="rounded=0;whiteSpace=wrap;html=1;" vertex="1" parent="1">
          <mxGeometry x="80" y="1581.25" width="60" height="20" as="geometry" />
        </mxCell>
        <mxCell id="6Ha6fiWHf-EiZPGUzSEU-47" value="info" style="rounded=0;whiteSpace=wrap;html=1;" vertex="1" parent="1">
          <mxGeometry x="300" y="1581.25" width="40" height="20" as="geometry" />
        </mxCell>
        <mxCell id="6Ha6fiWHf-EiZPGUzSEU-48" value="%d" style="rounded=0;whiteSpace=wrap;html=1;" vertex="1" parent="1">
          <mxGeometry x="140" y="1581.25" width="40" height="20" as="geometry" />
        </mxCell>
        <mxCell id="6Ha6fiWHf-EiZPGUzSEU-50" value="操作日志，积分记录 不使用 redis" style="text;html=1;align=center;verticalAlign=middle;resizable=0;points=[];autosize=1;strokeColor=none;fillColor=none;" vertex="1" parent="1">
          <mxGeometry x="61" y="2013.75" width="200" height="30" as="geometry" />
        </mxCell>
        <mxCell id="6Ha6fiWHf-EiZPGUzSEU-88" value="" style="shape=curlyBracket;whiteSpace=wrap;html=1;rounded=1;labelPosition=left;verticalLabelPosition=middle;align=right;verticalAlign=middle;" vertex="1" parent="1">
          <mxGeometry x="320" y="30" width="20" height="420" as="geometry" />
        </mxCell>
        <mxCell id="6Ha6fiWHf-EiZPGUzSEU-89" value="" style="shape=image;verticalLabelPosition=bottom;labelBackgroundColor=default;verticalAlign=top;aspect=fixed;imageAspect=0;image=data:image/png,iVBORw0KGgoAAAANSUhEUgAAAm4AAAHZCAIAAACw7SAUAAAACXBIWXMAAA7EAAAOxAGVKw4bAAAgAElEQVR4nOzde1hTV943/F/JeRJDwEAQEiEQJAihECgFbtRi5S60HSmvtVS9tbVW53FKZ+g4HXvP1PaxHTtqx9pOndqn9KiXtp6KOCp0EFOVAbUQqBANGAiQCAmJENKkOdP3D84CCgRQ4ff5x7Cz9torGy++WWvtvdcDgYGBMC4bN268Y5m9e/eOr3KEEELofkF0Z+c9n++5zbvZL2S7UzlCCCF0X/C42w1ACCGE7m8THaUev/iwunyoE1wrQgghdM9ya4B3IJ/on/6+zvxfc50UAMW3nLSvSBNVM0IIIXQvm6AoJdv/9FLnYjbpP996HVcQ25qItompFyGEELrXTVCU+tni2AAyxstf0XUTUyNCCCF0f5iYuVKK5y8UDzB2EIwTUh1CCCF0/5ioy45+oQIAPDBBtSGEEEL3DbwZBiGEEHLLBEUpAQAAuiamMoQQQug+MjFRypzjZAJ0tmMfFyGE0Izj1hW8FHoXk/QLJ8T6u//PSukinf2BhPfAIIQQmmncidKfNrzV+ifBLwAAdlLB3tlvX52gRiGEEEL3D3eilFbwCVvh9Yunv+3ZzJ/S13X8vsFnp2LCWoYQQgjdF9yJUqKilqIAAKD+x+6QrLc+tcjxgQLHeBFCCM0sE3OhUJuaZATwZOIlvAghhGacCbrm1jWRlSGEEEL3EUw/hBBCyC0TFKX2B6wAFGoXZWKqQwghhO4bExOltlbSdStQIsy/T3AIfF249DdCCKGZY4J6pUbqJ8doOpJ1w/9qJbmth7Mc2D1FCCE0Q0zQeqXwwH8OzxafcEUGu3jMX2xqXPobIYTQTDFRUQoAAFZCzVVCzUTWiBBCCN3r8ApehBBCyC0YpQghhJBb3BrgzX4he6LagRBCCN2nxh+lGo0mLy9vApuCEEII3Y9wgBchhBByC0YpQggh5BaMUoQQQsgtGKUIIYSQW2ZwlBLSnjyi3FJwIMZzVMWpSw9sKVauzRJMcrMQQgjdZ6ZhlLJWn9xS/OOT8RQAn5gdyi0FnwvJw5UjAIkAQKASCJN/rInD/K8Vbx/d8dHRTUsx0xFC6N4woQ8OvL/YSyV/eaGS0qZpv9stGTWa+Kmc30fPJvSutY4QQugeMIOjFIyGaxLD3W7E6JHmLc7+Q6KfvU1j9vWbdbdbgxBCqNeMjNK5m9Z/mu3XPa7rkhY8u6x8mI4pk522KfXp9KAAHzApGov2SG66cURa2LLX/rQ8xF79zc6dJ5WOcdRAF/7P/z7G92gp/Ntx+9rfLsUoRQihe8aMjNJ2iWSPcRaBEpS5KdJv+CKszL1rs5OonTJ5UYGBwBM8sWOFyTjuA5KEjz4eySIBiNMeDS74tHYcw7NmxZmTP3Q2nzpxdVbauNuBEEJoEkzDKDWd23XkBsWgsAEYlV/nHDmtU9tvKSFVnJAC8AiLRohSz6zU55OoptKCl18ov2EDgKKj2Ws/3MQYx7EAAMDRXNtgfFTMBENdjXqc05xO1bGjKgAgYIcUIYTuLdMwSp3NEnlz90uboSp/HLOhxPjHBAywFu2vutG7hLlyX9nl9csXMcd5rJvF235fG+ZnV9e1mcfeHoQQQveyaXgzjPtYgTwigP66zNm/zai5rnKrUqO6FnMUIYSmI4zSoShUKgUArNbOgVutVtsI5RFCCM1oGKVD2awmGwBQqYMeg9Sdr+NH9+UH+ZLcqgIhhNC9aCZHqdVlAwAKccjziQxKhRWAHRoxYCaZ6RfKG/+hZj/66j/2/n3X3n/8LoE+/loQQgjdi2ZylBp1LTog8Hgin1vecFZ939gJ1MTV0QG9PVH+mofib73maPRIc8OELAAA33mRXDeeUzg6dPGq//vB3r3vrBWzJvtQCCGEpuUVvKNmUxce0qRlC7MPLp9fqrfYwCKrPJhvcAF0HpcceiZoQ1L6h8f4JRUGAi8oOYnaroOAW0N3lBzy4uKa2KUh9urC4oZx3gzj/dCLj0WyAIDK8wUgzIpetXq22QldxpqvT/3QOqAgTZz+axGXBJD+3OMS6cHG8R0OIYTQaBFYrHF2XcLDw+Vy+cS2ZqrdlNY1UXzCHw6OjQ8Sxc7l2+q+LTS4AMD1s6yw4Sd/zrwH54rj/b1dbaffPHaaErFYaK3YXyUb+0N7nTervz9x9NtTF+oMXeNrKsE3Yd2vF8z3C5jLZpABgMTw8w2Y6xcQOOvm+f9cG/gkJqcVeNGxAUwCgXDzx5MXb4zzgAghhEbpgcDAwPHtmZmZmZeXN7GtQRMm/MW9W2Mr3tz46bW73RKEEJruZvJc6TRGFy+O9b1ZcUlxtxuCEEIzAEbptENgiVf9JWcBXNh/tHo8D85HCCE0NjP5sqPpyTf9TznJ9sJdbx784T5aQQ4hhO5jGKXTTVvBm+tOOrA7ihBCUwYHeKcdF+YoQghNKYxShBBCyC0YpQghhJBbMEoRQgght2CUIoQQQm7BKEUIIYTcglGKEEIIuQWjFCGEEHLLNIxS1uqTW4p/fDKeAuATs0O5peBz4ZDFve85oq0vFys3bhBDT/svp8dR7rjTOM2J+ThnxYfJXgDAjU/L+0PmS24saj5FPPxfeWlFXlYoB3rbnzT+5WMRQmhiTcMoRQghhKYSRilCCCHklpn3DF6COPWLYwmu3Nw/lQVt2PRQvIBFthnqJSW736isN/aVYojWRKc9EjpfwPL2ZdDApJGpSw5LDh7Sm7rfZ8b87ccn5+YXSXweeiqWYVFU7dlcPffPmU/HMlwq+Zc5eSdkfVURAzIS1q2JiY5gMShOk0pTLflh366aAccaC7p43dacVN+OS19t213c5taJGFHsY8teD+/48vNSbWTc8ggOj06wG/TnSy9/UmfqL8TkZEQFxs714XnSWRQwm80NqsbTF+UXDa6eAn4xHz8rbCsv75gbmcj2aG+8srvUvuS/xYt8SeYb8j0nr1RY+uoihz0YtTyKJ/Si0sFuMHSU18gOSLX4MH6E0P1ipvZKvZNSt72fGNimPHe8praTEZ7x5La3gmh9b1O4mX9OSRZAm6Kx5PjFE8cbdT6CrO3r398axBhQiV9GYrROfrbCxIiIe/XYilRQFBVqXILIddnC3mLEsE2rP3o/JZFnulpYfnxfVYWKEbsm84ODyeHjmgqlidNT+XQSnZuYvmCOGx//zuiJj6X+IYLW1th0TtHhYHHSH1/0vN+AtwOFz4t5Xi6TXNlQUHG9rNXOmxe1edXip30G1SKKnkdvbSzTA0cQ93aWOLi98UyDmc6LeP7BvplO6sLHHnv70VAhob1CJs+/oqp3ei55ZPHux3msSf18CCE0caZhr9R0bteRGxSDwgZgVH6dc+S0Tm0fUogRwb6ck7st3wQAwIv868nMxJSYeErjORsAANjU+1e+u01qdfXtQPF78eT6FVkLUj9tzFP1bHPJynbmXGxmtnpfzky0NX65seCskdUpePn5CB6PIr9mA4J4wavZXJAWZa+92NsNJYZsWr0ne8Fv1tTk5PZ3vJrzC7ZJnUpFf/uv24b5bHZltcIsDqc7NNV1+vGeoPb63NN60BsBQFtXudtAUA+tyoMRRpe/sa+y2gYAwBGnfvgIOyGc/aWmp6i9sfLl/2dUD2gjnRe3a1noUw/x8k+r+p6nb1ZU7pC0OHxcwasiuMa63YUyNVFL/82ixDledDCaAVjCuA0RjPbqc68VtfSeDXJC2mOb58etkrX8s6n3F9DVfrqwpMLe0d7ffvN4Pz9CCE2waRilzmaJvLn7pc1QlT/8OKFLUfVNfu94pUpRVuNMTGLzBXCuZ2DWpJT2vElmUhmeRAKYrstMIGDzBQB9Udpm0gCAzaBrAwB9qw0ATLpOAB5jNgAAxDwTzQdD4b4aoyfDx7NnL6Pken02N+wRPiO3sm/EtFOqOCsd0v6hzVaf2Po7Kd/LrlK2jXv9F5uxoq4n1x0G7fkRBlKrK69V9yaltkGlWsgO9vak9yaY4yejuvs9DwKdQiJ5AHTq1M7Q2NlMHkBDbyUdRpMDAIzmDgCO0aQFgC5LhxlINIYXgBmoi0T+dKf2eGU70Kl93VBlg9YwP0Q0lwlNHb3brLX1qtoh7UcIoXvBNIzSUbGrWlX9PzlNRgAg/sqzf5OnOGZ1dlxirJ/foJsurLQBP9ptzu7dLQAum8Nu691IIZIBAFjhkQwASHv/lbQhDXB5UrwBTEO235HDoK6bgmlEq7bd2v+TzWEGADKJAdDbGaSKYqKWiwKE3lTSwFkCEpnkAdDV85Pd2QUA4HLaAcDVBQDQ5XJ0ARAJZADw8A72JQCRs2pN5qohLTDTaSTowAXjEEL3vpkapa6eFBweOSnl3c+TQ8Bw+bjk26sGfafVBUReRvqLKUQCEAH69u19YQPozw8AAAIAUKizmACgyXtNUjUglnro9Dr3P8ak6XI6bnuCYh9Nff1BhlmnOv0frbrTbHIBPMB+PC1C5AFjuImXSKKTAMyqA8UN6l9ufdNh1GOOIoTuCzM1Sm+LmLg6LoRiKsrJ3Z7fn4GJKb8eWzU25882AIDOGkWJ7E6FR41A5/J9TU1Kw13MGRovI4IB7fK3v66s7UtcMmnJWC9i6+pyOAGIXerGlou3S26EELqnzdQreG+LyvalAuhrSwf0JSl+MWLqGL96GGplJgD2wykTdjEqgbt0694Pdvz9453PiUgTVenY0eleHuDQ6xsG5B8pgBNChO7++Gg5O+pvAlA4sQFj2QshhO4xGKXDsOrbrABsURK1dwuRvyb1MR4AEGmet9nxFs6KwzXNQAxfn74sYmAGE/kZCZkp4xkQIPNFAjoAkAJE89jj2H+CmM0dXUDy5fQ/kZHs9UxiEAsASB5jeUqj6cyVFjNQFy2KiaUN2OxBFYmEC8f1BcQ3+cV3/rH3g9eXiejj2R0hhMYBB3iH4bx8uKo5LWHRjvXvp8mvqsA7QpCcRK0uVIvSuLN9WATQu+5cCQCAvVSyc4/ftmzBb4+9nFJ6Xa6yETxZoWJBOI9Y/mZVHox5UNMiLShShqX6dlwquDBJD2gYVTNUp+uiRPNDt6ykn2vsMD/AEIZwg7vUFzWBCb4MXwqA5c51dDPILn3CfTQ7IvT1FzjV9Vq12UWaxRTyOFyapeCQfKSri0fmm/BEelgAQMDyFSnF1SfxMQ8IoamAUToci6ToTxstG7NjYtMSwmwmjez6gY3fH1NEvpfGDRHzPEHfPtqanNd27f+NNG71izGxsaKlKWA3mnSqxlN7qoskQ69EGgWz9LM/rvlsPHtOKPvFM0W7zdHL5/svieaYzUZ5Q+XbpdfNsV4Jfl5Cf0JB/Si/awCA9fx3heqmiOUP8oSCYBERzGaLVq/OVzSeuTmOhrVJ/yNN54t9SSQvDgcAoxQhNBUeCAwMHN+emZmZeXl5E9sahCYAKSHns1e5/9r4xyN3seeOEJpBcK4UTTespEfFZLX0B8xRhNAUwShF0wnJN/nF19eJOr77NL/xbrcFITRj4FwpmkYEy/+yQaQ+vu2jb6vxEb0IoSmDUYqmEcWRP6476MCHJCGEphYO8KLpxIE5ihCaehilCCGEkFswShFCCCG3YJQihBBCbsEoRQghhNyCUYoQQgi5BaMUIYQQcgveVzolCGlPfrM3hlF68tlVlZ23vMeLe/98uqj3p878r5/NUdinuH33B05M6scpbG1l0f+R6G95KzjpiV0JzJ4fukz53/zrS81UNw8hNGNNw14pa/XJLcU/PhlPAfCJ2aHcUvC5cCxLaE4KApAIAAQqYZglrtsaj75TsOedgo/2Nd6asoOJtr5crNy4QQw9n/FyehxlcpoLMCfm45wVHyZ7AQA3Pi3vD5kv8SbrUGNABACgDPd/Vttw5ZPi8k+Ky8+03nZRGg//V15akZcVyoHez5jEvF15hBAaBeyVTgl7qeQvL1RS2jTDrM5m05fk6gGAkOSVsSaIMeVtu39oay69oSGbDR1D3zJrVAUaAICEOVFLOFPdMITQDIdROjWMhmsSXDzTXRZjteputwEhhIaYoVFKDMhIWLcmJjqCxaA4TSpNteSHfbtq6o0AAMCM+duPT87NL5L4PPRULMOiqNqzuXrunzOfjmW4VPIvc/JOyLorYYjWRKc9EjpfwPL2ZdDApJGpSw5LDh7SmwYcae6m9Z9m+3WP67qkBc8uKx/1suHjRRev25qT6ttx6attu4sncaUxMnPJw1HpYRwegwxOa7tOe6H8yuF6U8+T+/xiPn5W2FZe3jE3MpHt0d54ZXepfcl/ixf5ksw35HtOXqmwAAAAkZEQFbqIz+F7073pZHCYtC3aM9Ir+U0DV0YnJDz+1ObeYXrDj0Vri2+dK0UIobtoGs6V3hExbNPqj95PSeSZrhaWH99XVaFixK7J/OBgcviAqUe/jMRonfxshYkREffqsRWpoCgq1LgEkeuyhT1jsBRu5p9TkgXQpmgsOX7xxPFGnY8ga/v697cOGqRtl0j2vHNyz66aG1P18Wji9FQ+nUTnJqYvmDNpR6Fwns9Ke+khf3pn67kq+ZlrWsMs7tMZj215cNAItSh6Hr21sUwPHEHc21ni4PbGMw1mOi/i+Qd7ZygZgcsXhgp/ZVe3qs5Vyc8oOuy+Ic9npr8uGliPS1ld/knR5U+kWlzvBSF0D5qGvVLTuV1HblAMChuAUfl1zpHTOvXAC2IJ4gWvZnNBWpS99mJPNxSIIZtW78le8Js1NTm5PcOwLlnZzpyLzcxW78uZibbGLzcWnDWyOgUvPx/B41Hk12wANvX+le9uk1r7L3Oh+L14cv2KrAWpnzbm9Q5EmqSKE1IAHmHRpkg/9z5Yc37BNqlTqej/jNdtwxSzK6sVZnE43aGprht35629Pve0HvRGANDWVe42ENSDqiLEJsdn+DguFha9d7W3G0pmb1iZmp4cvVBecr63XWZF5Q5Ji8PHFbwqgmus210oUxO19N8sSpzjRQejGQB+bvrn5/IG44BrhWi8zWuSEx4WimTl1V0927SqpgIVAM/rGbF7E6Fd7acLSyrsHe39nxHTGSHkrmkYpc5miby5+6XNUJV/6wxlzDPRfDAU7qsxejJ8PHs2GiXX67O5YY/wGbmV3cOzrjaTBgBsBl0bAOhbbQBg0nUC8Bize3YyKaU9r8hMKsOTSADTdZkJBGy+AGAS5vQ6pYqz0iGfcQiX+sTW30n5XnaVsm3cy6TYjBV1Pd8zHAbt+VtOItl/iZABOtlplZNOp/ZuNZU1GtPFnFh/OK/s2dRhNDkAwGjuAOAYTVoA6LJ0mIFEY3gBmAHAbmro/aJDopDpRA+Azvp2SAhgcmkwCYuOWmvrVbVDPiNCCLljGkbp7bHCIxkAkPb+K2lD3nN5UrwBuqPUbnMCAIDTAuCyOey23o0UYt+tNZ7imNXZcYmxfn6Dbqiw0u72/RUOg7puMi9yms3mkwB8It5aHzH0Ta9fEQB6epl2ZxcAgMtpBwBXFwBAl8vRBUAk9J1FDj9iZVxQ1Bwma+B/xi4CnTR5HwAhhCbSTItSCnUWEwA0ea9JqqxD3tXpdf0/OHv+tQEAdA0o1X0NETkp5d3Pk0PAcPm45NurBn2n1QVEXkb6iylEAhD7d5+GSFQSwwMcKtl70mFGkDvabntn52AsYfL2NB7Loj8vrZS3mztsLgBC1MPJ6b7D3IGLEEL3ppkWpTbnzzYAgM4aRYnMnYqIiavjQiimopzc7fn9mZyY8ms3GzghCHQu39fUpDRMzjrYDnuXA4DcZa6ub3FvCJaxRMxjdekPHCo62t+LZnDj3W0hQghNpRl3Ba+hVmYCYD+cwnKvHirblwqgry0d0Lel+MWIqcN/PbG6bAADB4eHK+N0AZAp7n67IXCXbt37wY6/f7zzOdEkjZHqdfV2IPnNSaS5V48HnTMLwNJRO3DKkjJbOBtg2KcaOV22LiARCbf5WA5XF3gAGfu0CKEpNOOi1FlxuKYZiOHr05dFDAwtIj8jITNl9DFm1bdZAdiipL6rboj8NamP8QCASPMcUtyoa9EBgccT+YxYo0tl0NiAFsELc+9xgGS+SEAHAFKAaB7brZpGZFOfuW4FCu/plEDOwP9BNK8lDwUGj/7/VJfZ8BMAnR3l3beJHJscGUsGAAJp6NcOg7GtC+gcDm/kQ6gNJgBGmL+7T43yTX7xnX/s/eD1ZSK6mzUhhKa/mTbAC2Avlezc47ctW/DbYy+nlF6Xq2wET1aoWBDOI5a/WZU32jlO5+XDVc1pCYt2rH8/TX5VBd4RguQkanWhWpTGne3DIoB+0IyhTV14SJOWLcw+uHx+qd5iA4us8mC+YVAZ3bVCySPxaQlvHGScqzHYbaArK8uTDJ3RvQOLtKBIGZbq23Gp4MJkPaDBdfH70vzZyRnCpA/9QiqaOrQugpcnO4rnxfqlaUdFU8No6zGdqW5JT/V/enkav06rthM4XF7sbMvFemNCCJXD6L98qYdFdUYRJRJGbFlGLWu12gG09bKCwQ/d1cobquPZosSUt1jqBosLujrLLjfVjnni2jfhifSwAICA5StSiqtP4oOqEEK3M/OiFMB5bdf+30jjVr8YExsrWpoCdqNJp2o8tae6aCy5ZZEU/WmjZWN2TGxaQpjNpJFdP7Dx+2OKyPfSuCFinifob3mqUe2er7dRfr0uS/DEGiEBoDNfeeiWKAXruc1f77GlP50SmSkGAKi3VZ+QWMdwEU83s/SzP675bKx7jZFN++Xh7+Ti+Y8LA0QRnASwG0xmbaP8VF19dded9+6jrS55oyvm+Yd4USJhlM2kutH4yZkr534V+0lICJ/rBYpbLmuynz/zPd0V90xoSDoPAKD257pbohR+qt9xnJS9KDw2QijyAOjSaivHEaVt0v9I0/liXxLJi8MBwChFCN3OA4GBgePbMzMzMy8vb2Jbg9A9hJSQ89mr3H9t/OORSXz8IkJoGphxc6UIjRIr6VExWS39AXMUIXQHGKUIDUXyTX7x9XWiju8+zW+8221BCN3zZuJcKUJ3IFj+lw0i9fFtH307Cc8uRAhNOxilCA2hOPLHdQcdk/OAC4TQ9IMDvAgN5cAcRQiNHkYpQggh5BaMUoQQQsgtGKUIIYSQWzBKEUIIIbdglCKEEEJuwShFCCGE3IJROuPN3bT+38otf83CW4zvE4SEx5fl5Tzx/Mjr9SGEptg0jFLW6pNbin98Mp4C4BOzQ7ml4HPh7RbcRsMRbX25WLlxgxh6zufl9Dj3VlG9DQ//V15akZcVygGAOTEf56z4MIk5WceatsjpmSvycpIXEnvP5/JQNxe3RwiN3jSMUoQQQmgqYZQihBBCbpl5E2SElPQDn8cZ9+Tu0sVsfDEyjEe06/RVhyR79yg0tr5SDNGa6LRHQucLWN6+DBqYNDJ1yWHJwUN606DKqNHrU1Y8IxTyGDRwmoyG5gpFUa7klNQ5ujLUzAOvZMeq9yzYn6cb2lJi2uevvpqi+TT1i68VAAA+KQnrsmNiI1ieFDCpNBX5F77co7hhG7AHhfv7C2ufaCt6cVnN3E3pa54SBPkQXUZDfYHkr6/VaHrbE75+yYurw+fziC6d/vKhotPunE26eN3WnFTfjktfbdtdPEmrkbEeXPzFo17nT3x3nh29UuQfTAezQV9WUflldUf/s+aJjISo0EV8Dt+b7k0ng8OkbdGekV7Jbxq8mjuRsTA+6nEhJ5hJJTnthp/N9arGgovyip9GV8aDveGF1PQHrr/xWfkwK5x7eD2/Ji2DVv/X3MsVTgAgBM+PWhnNFbIZdLAbOvRlVVcODGwzANBC3vpNfLD83NqzliULYjLmsTkUgsNilFdeevuyvufZhR6MhITo5REcHp1gN+jPX66UT9ipRQhNjJkXpd04Gcv/5kvUlNackhACUsKTs1cIeF//NkfR2f02hZv555TYNrVc0Xi11GQBBj9JmLVdED//65w3G/vSNPzPq/+23s+laiw7XqOzEX147LCkuHRZ2Slpf+Detoz1iszgSvILiyVCofPWJlK48yOJoFLXqAAAfLIyP9we6WMzVEmqlJ1UfpJwcfaK6IiTOS9U3hi8H4HJXrxj7coM6g1pY1kNMHh+YUlzvCg1GhsAEMM3rX4324+gU5cdUndS2bHrV/zR6CSM9zTSxOmpfDoJ6InpC74pPtY63nrujByVnJLIAPn16wV2WrAgcEnqYh6p6DWpsed9RuDyhaHeN/X1re3VJoeDQg8LCnk+M0BUXPTX6r7fBnVhWuor86hmjepcg9H8AJXD8haGhSfUDYzS25bp6pBrXOkCrzAGVBtvbSJQ2MEscDTdlDsBgBCWsPjtJDbJ0lFxTd7WRQ8T8NJTOSLW2T9c0N/yfF86nf1MZujTPvaG1paLDoIvmy2cQwfQ97dHSDXrW8oURjudnbjkEbFl3L8whNCkmIZRajq368gNikFhAzAqv845clqntg8pxOARS17LffOQCQDgnfINJ9dnZaSuOqz4qBQAAGzq/Svf3Sa1uvp2oPi9eHL9iqwFqZ825qm6t3D/+yk/slG+fdmRor4+JYUR4DugH3SnMiqpqhNiBGIWoVDff6xuPD+BD5gKVbU2AGbQ85sifUB/7IXcj0qdAABMvxcPrl2RsmRdxrW38gf3vHiiLKpiz5N5J2Q98ewTwbZ3d14F0b9Z70fT1Wx7Iu+sDgCAlpT64YGEodeCNucXbJM6lYr+83ndNqQQgF1ZrTCLw+kOTXWdfpj3R6Wr/XRhSYW9ox0A2utzT+tBP8zKZiymI/9w0ZcaFwDA5Rub/ycpISlmybVzZywAAPBz0z8/lzcYB5xEGm/zmuSEh4UiWW8PkhawJJgKOtkb31xp6OtTUhicgYe5QxlXbUsHzPMK8SOA8dZfGMnPK9gDVK06MwAwQ9fGs0mWlk8OnCvoDt3LgZtXJiXExj1zrfDALecqQJiuv/7Xzyoruj8LELhsUnfckniRa4VUh+bKG4dlDU4AAM785BqAv1wAACAASURBVF1pPLi1T2yXXizZXW254gSA9tOFJRXWDlweDqEpMw3nSp3NEvnZQk07ANgMVfnyc6WmYUqpqr453rvdpjl6uNEO7ITH/Hq/7puUvTlKZlK9eQwfX9N1mQkobL6grwoimQIATvvAjLGZbqgG9i/vUMZecUNhg4AIHgMAgJi8ff2nJ59c7AMAQIvlzQVQStV2AHJSZKIPWEovHijtrdyo+Wa/wgTU2LSgIdcnOyt2/asvRwFAJ9N397Z9UsLnU+BGQdm53ly3lF44VTqkQwzQKVWczW9UGvvPZ+cwJxFc6hNbf/f7//3j7zZ/VT3+pVSstfWq8yqTAwBsxoo6VUX7rSkFAI6ma0c0vdvNTafrTEDmJPB7P7zd1JejJAqZRaeyPDrr2wEYTC6ttwqiB9kDwOWyD8whm0k78JdzpzLaFr22i8D39wIAAGZGRtquTGGwBwAAb44PHawNN4wAwBHwwoigrblS0Nd5/anpSHUHeHglCIZcn+xhLijqy1EAcKn1Pd+OhPN4LHBd+fF6Q+8vSSuXnx/aIQbQtqrOK/QGgJ7zecOEa9sgNGWmYa90VCyy1voBf0E7ZZp2CPIRsMmg6f6L5imOWZ0dlxjr5zfoD5+V1vejTV0iMaVlRL56kpEouV4tVV8t1Sh1g2PpjmV0yqsKiA8NCKNUXoag5HQ/PpO1KKnwbL5TMN+PBvqrFSYA8Bb4MACaZaqBXwpMFaobIBQI2AEAysEHLTs7uJ/aKzCETQBn89WBPWCrXGGCpPHfOOEwqOsM49579LTaQd2sBr0RgMGdTQfoGXPg8CNWxgVFzWGyBv6n7iLQSb2vf2otb3WFBUS9vdKrrEErb9XXtnZobxmxuGMZvbbWIVzI8WKB3sD0X8j3CgZIZMkb2slhHDrYW6q1AABcHwaAS6kdFHqq1nYzeHHYniQwDso5Y0v5zWE/NDXYmwpdRmXbgBZ0dTTcdAHjTucLITSFZmyU2gaHjdVpASBQqTQACwA5KeXdz5NDwHD5uOTbqwZ9p9UFRF5G+ospRAIQAbqz0Fm2+Ys3VSnPZggWrwlKXQMATo20/JPNRecUffXesYyhusYAWXPmC6DCN1REUZdL/eancMn5+vmRLDBWVssAAGgUIgBYjc5BvbVOmwWAQKFRKQCDer0/tQ/XbQEAqicRwGnqHJT3VqN1mE7gPcdsHxR6dofLAUAh9wwjsITJ29N4LIv+vLRS3m7usLkACFEPJ6f7DpxWNB09XmROinp8nn96Ei8dALrs6rore85cr7WPuoxTL9e4Fvr5CInX5YH+PJO22skWBVHB4BnsS4Cb+lo7ABDoJBKAy+4YdGYd9i4TAIc0ZCjIYjEMvYgJAIBIIgGA3TZ4cB37mwjda2ZqlNIo1EE/U4k0AFen1QIAQExcHRdCMRXl5G4fMA2ZmPLrW2uxGUp25ZXsArIPa36ScPGaxDRxwqtbO2pXlWtGXaa2UmPJEggiqYKQIG/ZD38tdL67OjSMSQ0TgL3mxlUbAIDF5gQAKpNIAOj/4+xJoQG4bBbrkFnMkaLR2ukEoDI8+74NAABQmVR3rmIh0Ll8X1OT0jDJf9/pZDJA/2+DTCKQAGz27o/KWCLmsbr0Bw4VHe3vITO48UNqsXUUSM4VSIBEZ0YFBaU/JIwVxr1i6XhZMuBSoDuUsde2moHnJWSTyXwvc1PZEUfslsAAViM1mAbaWr0WAMBldrgACGTSoF8YiUpmADgcQ2Kza6RfmN3sAAAyZfDjMRik4UsjhO6WaThXOiq0CF7IgL9PnhF+3gAald4OAEBl+1IB9LWlAy8g8osRU0f66mHXGaryL7638l9ndUCL5IUN92CgkcpYKlSNQBTEhMcnsVSlijrJ9UbfoIef4vGZoJL2jOi2K3QmgIAInueAChmxvAAAu0qvGXKskTTU6+1AnDufPSA7qaGC8Q8WErhLt+79YMffP975nGiS/75zOF70AT8Gs5kALvVNIwCAB50zC8DSUTuwN06ZLZwNAEAZ7v+4w2yskF3567ErtV3AmcPhDFNkxDKqGzqDBzPYf07sHLjSoJUrtWZ/TiKPzfOwK9Ud3WXUOiNA35RqDx6HSQfQ6jtH/a3DrtabwIPO9x0wH+7hFTwbr+BF6N4yU6MUeJGrshg9f5Eofk8/E0QG/Q/fdV/XYtW3WQHYoqS+niuRvyb1MR4AEGn9acYSpbBog+qc5cUE6DQNuL9yFGVUjVdV4J2UsFhgKJcYXApFuYK9cLUgAExyac+kpr1UflkH5KSElSm9Wc70e3a1gAHWiu8aLTBa7YXXrtogID1xEa9nCy0pcWns+IcmyHyRgA4ApADRPPa4axkVUmD48jm9EUIPfHweA2wtF5UuAIAus+EnADo7yru/ZbHJkbFkACCQ+mKIxhSxB12jRWLSWAAOi6kDxlDGodHWOyE4KjKKqK1Quxw31PKuOY8/6E3q6pC39vQvtQ2qWidwwiPS++bW6bzlIi/o6rioGGH4fThyRasWCFEPhgb3/pJYQuFCd56rOPfRnB179+56NT0I+7YITZiZOsBr0Tnnb13/4SPyqypCQFJ4vAA0+UUHuu+EAeflw1XNaQmLdqx/P01+VQXeEYLkJGp1oVqUxp3twyKA3gUAFG7W3sxoo6a6Qq1SWT18/aJSBCEUa/n+H+r6RlxHU8aml8msy9LYc3XlH8gAQF9Wali9ng02eXVFbxmj4rNd8tjtwsy9G/kShbKTwEsSxfGInaWFnxwa/gqj4amqvtwXs3N95KvHWMln1Z1UdmxaELSZgDfOjqlFWlCkDEv17bhUcGGSHtDQy/Az6fFljwdfV6vttGBBYBjdXvv9lZ47YcB0prolPdX/6eVp/Dqt2k7gcHmxsy0X640JIVQOo3eUlRG0YVWEl0FbfaNDa3GRGWyxgMPpMhaUq/svaBpNGdtNuR5i/ZiOJvkVGwDoK1oICSFkaK+v7itkuP5FedDbCf4bVqXFKrTd95UG011qaeXxsdw15FDVHFXwXhJEvbWSXdZsBAY7LphhMrjo401T/qKlCwS+AL7PPZNwZucFnHVFaEIQWKxxXrwZHh4ul9+Hz13x4Icuy/B3nfnX1m8hNiXi4YVzvF3tl7/417Z3FDd7p6ycjQ2ltV0+gjnzkwSRkSxqh/L4W99+dMrj4TUhQU7tqW81FgBw2V0UAt3TO+jBoNikoDA+2Vpbd2rHsfcPGvrnIUdTBrp+8g95agGr88y5/3eq3QVgcPmkLvOn1VZ++oW679EBP8uuXqjtYvJ8IuMFogd9Zhk1lw6f2vba1RsDp9mIzIQXYsKImuLcuhvDT791tV24KnN5hjwYFB0/lzfbLss9tv17z18vYbeeKTkrG/7al9txtFb+O+9oXuFFpfmXMe88SlQ//lPBjKays1/oZsWHBcVymbSfdedLyv7xY/9IqblNXWUk+/vOjgj0C51Ncd1sPlRY9s1Nz9T5PrPMLScbfwYAcNnBg8RgzArh+kUHcoKYoG9pyv932cEbA34ZoykDdgKbnzKHrKi6fLLVCeBqJ3OeCGFYG67tq/+p9xz+clOlrDAS2CwvYaD/fF/aAz9pSy6W/f3S4HtmSd4pcQEcU8tJWfsIt4E6G+rVraRZwf6caO5sjofxP+dKv7HMWeIPtdXXq34e88k0O7xF4lA2lUCwNlw4c20MHWSE0MgeCAwMHN+emZmZeXl5E9uaqdD94EDCof3PvtZ4P1y5ilgPLv7iUU6tJO+1yrH0wNGI6OlvfPYc5K57qxgf44DQhJixc6UIzVQBjy6YB/LyasxRhCYKRilCMwg96NGczSu5qiNfFU3y5DZCM8lMvewIoRmIJH5u83Pca1+9+VmBEq84QmjizLy5UoRmMBKJ5HBgiiI0wXCAF6EZBHMUocmAUYoQQgi5BaMUIYQQcgtGKUIIIeQWjFKEEELILRilCCGEkFswShFCCCG3YJTeZ6j8DGE0787lkJtoXgsFg1ZIRQihkUzDKGWtPrml+Mcn4ykAPjE7lFsKPheS77zX/SHx/Y2fvp8S7zNiAdHWl4uVGzeIoec8XE6PG24d8gkxJ+bjnBUfJnsBADc+Le8PmS9Nm4inBL6+Lu2VWPbIa8+R0zNX5OUkLyQCePi/8tKKvOWh41xiCSF0/5uGUTqNEckU6p1LIbd5EMn4SE2E0KhhlCKEEEJumaHfvanR61NWPCMU8hg0cJqMhuYKRVGu5JR04PrOxICMhHVrYqIjWAyK06TSVEt+2Lerpn7wYskEXtDTLyU+upjL86ESbFaNTFGSX3Zon6azr0BE8t6TKfR9X6zdA5l/SV2a4ufDBItOX5Wb91auvm/BVIY4ck124n/Fsn2YYNcZFBXVR3ddLFH0tCd6+8u7svrGD9lZx7Zk9bw2FW7c/W7h2E8AXbxua06qb8elr7btLp7EJUKIjIXxUY8LOcFMKslpN/xsrlc1FlyUV/w0sBA57MGo5VE8oReVDnaDoaO8RnZAqjUMronkzXsmQZjA8+LSCA6HVduiOlclz1ea+p6DRxIkHVgaKP/u2NutnFULIhbxvFhEl9mgP3Ou5EulfVTHIvI2/5/khL7pgIC4j/8Q1/NaL9u070rDhJ8fhNC0MCOjNPzPq/+23s+laiw7XqOzEX147LCkuHRZ2SmpqbcIMWzT6p3ZXLJOXVGoaOkEL4EgcU1mbCzr1WUl12w9hcgRcW8fTI9jOnUyxdkCg4VC8YsMzfwzUXHoyFnboCMyfEM3HExY6muqq1EobNQ5kVxRBIsAPVHqmZK6a28CHwzVkuqyNhvZlxufkrI1ib9n5f48GQBA84mi967SAEDwTNrSCOvl3O9L1N0VW5pl4zkDNHF6Kp9OAnpi+oJvio+1jqeOUaAuTEt9ZR7VrFGdazCaH6ByWN7CsPCEuoFRSl34WGp2BMPe3lIhM3a4SFz/gCWPLI7zK3nltKovTen8uO1PhHKJdrVKfeamxUGgBQcGrkq2SJWyW+KN7hu6OTkqCjrkKpUcaFx/tohNhp4ovdOxnLrTZ0srHiACeXbGohCusenApd6UtbZrJ+kkIYTuf9MwSk3ndh25QTEobABG5dc5R07r1PaB71O4//2UH9ko377sSJGubyMjwNfaV4QgXvBqNhekRdlrL/Z2Q4khm1bvyV7wmzU1Obndf17ZWTtS45jW8l1f/N89ekvPrsSANC55cI4CACMlYZHswu+XlVzrqY3KjyD2tIoZtG5HAt8of3flkUJFb/mk1A8PJDy/KfLsCzWdAO2l8lOlAEBclJi2NMKqLKw8JR3+wzfnF2yTOpWK/vNwfUhjAMCurFaYxeF0h6a6Tn/bs3kb7fW5p/WgNwKAtq5yt4GgvqUqWsCSYCroZG98c6Whq3cjhcEZUIQljNsQwWivPvdaUUtvcJIT0h7bPD9ulazln00uAACK/4b/DuV6GM/kF/9T2fdbIofxme1DGsUTCcm1JS8XqbTdRyQyghmWUR/LWn21qRoAaLBwUQjXrLsgqx8hQe3SiyW7qy1XnADQfrqwpMLagStpIzRjTcModTZL5M3dL22GqnzDkAJEMgUAnPaBGWMz3VD1/xTzTDQfDIX7aoyeDB/Pno1GyfX6bG7YI3xGbqUJgJAUkxpBdMkk/+jPUQBw3ihsHK5VmqOb+3IUAKzK3t4kLf2hRT6gzC2rsDF8+i6BVV2vUCRkxoaKKDUlw2XhSDqlirM9KTvgPAzhUp/Y+jsp38uuUraNe6UQm7GirucTOQza88OcaA+yB4DLZe8auJdpQDhRF4n86U7t8cp2oFP7RrCVDVrD/BDRXCY0dQAAXRCaSAeDrPKT/hwFAHutcphvASRL05fFvTkKAE5Tg2EMxxo9bauq94NYa+tVtWPaGSE0vUzDKL0Tm7pEYkrLiHz1JCNRcr1aqr5aqlHqBs6SssIjGQCQ9v4raUP2dnlSvAFMAN4Rfn4AN0obNaM4pktxrUQx/FuC+X4MAMb6td+sH/om1ZMCMJYoHT2HQV03NP0m1E+t5a2usICot1d6lTVo5a362tYO7cARAg/vYF8CEDmr1mSuGrK3mU4jQYcDINjPmwSuepV2NKFvVrVccQ73xuiOhRBC4zADoxScZZu/eFOV8myGYPGaoNQ1AODUSMs/2Vx0rjvtKNRZTADQ5L0mqbIO2Vun7x4VZjCpAGA2Wl1Digyj0zR0LLKbpycVwFmVm5cnGxIBNlPt5OToFDEdPV5kTop6fJ5/ehIvHQC67Oq6K3vOXK/tDlQiiU4CMKsOFDeof7l1Z4dR7wAAINApHgAus2VUJ9pktgyfiKM6FkIIjcdMjFIAm6FkV17JLiD7sOYnCRevSUwTJ7y6taN2VbkGAGzOn20AAJ01ipKRL+oxGa0AQGdSCQB3/iNvG7GMyWoFYDjVjSX5Q3N7EhHoXL6vqUlpmNQMsXUUSM4VSIBEZ0YFBaU/JIwVxr1i6XhZoncAQFeXwwlA7FI3tlwctisJAOAy27oASHTaqE60Y0hM9hjVsRBCaDxm9n2ldp2hKv/ieyv/dVYHtEheWM+DgQy1MhMA++GU2z2/pl2m0QAEJAUFuNcG5VW9BYjCRwSedy7rdMHEpACBu3Tr3g92/P3jnc+JSBNS4x04zMYK2ZW/HrtS2wWcOZyeK4+cHfU3ASic2ADCbfZt0LQ7gBAyl+NWS0d3rB7dU60eoyiJEEIzM0pZohQWbeAG3iwvJkCnqff+SmfF4ZpmIIavT18WMbDbTuRnJGSm9GxxlVYWyZyEiAUvZbMHPpjQLyWIP5bWdB7/oUQHjJSU32exBv7p9hRHrl7jd8sf8842KwBrbqi7zzwi80UCOgCQAkTz2G7WNTIaUzTo1ACJSWMBOCym3it8TGeutJiBumhRTOzA34gHVSQSLuz9ImNWXC8zA2tezAb+wNoIwYFeY3lW36iO1cNh6XAAMJhc90dt5j6as2Pv3l2vpgdNyXcWhNDdMAMHeCncrL2Z0UZNdYVapbJ6+PpFpQhCKNby/T/U9U5M2kslO/f4bcsW/PbYyyml1+UqG8GTFSoWhPOI5W9W5fV0DfWH3pBEf5Eat2n9vjRFRYXBTKH4R4bGCtTvPtioHP0cp1Gxd/PF4L0Ji7ZvDHtGXlFjslMYAZFB0REMe+HXh/YNGtSs/V6hWxMX/+cVr4VcUxqdTpurqbCyXDVi3SOxSAuKlGGpvh2XCi5M3gMaGEEbVkV4GbTVNzq0FheZwRYLOJwuY0G5uu++EYPs0ifcR7MjQl9/gVNdr1WbXaRZTCGPw6VZCg7Je64KtrV8ceZ68BOhSzJ+LWxqrdZbgEzj8uYIXfLX9neM/tKpUR2rW5e+osm+cF5IdkbXGWWn6RcAi/6MfDy3u/AXLV0g8AXwfe6ZhDM7L+CMLELTEoHFGudTuMPDw+Vy+cS2Zkq47C4Kge7pHfRgUGxSUBifbK2tO7Xj2PsHDQMGT7v0ZVfOXvmZNmd2cDRfHO8f5E926FpKDp87fqqlrfeeFleruvhUs8V7Fk8498GkoPmhXuT2lnNf/Offl419t8d4+M59ciWf1Sg/mN820kyfrbHhu8IWp6dnQOTc6KSgeXN/RbYZqk9eOnSwTtE6aETX1dhY/TODFxYgTglPSAp9aIG/6/LF0hGuDb4dR2vlv/OO5hVeVJpHmlx0n8sOHiQGY1YI1y86kBPEBH1LU/6/yw7eGPiZnE31DRUd4Mn0DOFxRNzZHCrBeFN7Xnrtu+afjL1nzNrRcr7+J8KvGIFzONFzfYNmU10dmuKKurKb/TfaELx5y8JY5huKguaRJp1HdazupjepdC66ZyDXPz6UG833j/ay/edH7dhulwEAALPDWyQOZVMJBGvDhTPXjHfeAyF0/3kgMDBwfHtmZmbm5eVNbGsQmo7o6W989hzkrnurGB/jgNC0NBPnShGaUgGPLpgH8vJqzFGEpiuMUoQmET3o0ZzNK7mqI18VTeKqAQihu2sGXnaE0FQhiZ/b/Bz32ldvflagxCuOEJq+MEoRmjQOae7v1jkcmKIITXM4wIvQJMIcRWgmwChFCCGE3IJRihBCCLkFoxQhhBByC0YpQggh5BaMUoQQQsgtGKUIIYSQW/C+0vEiZy3P3y7sW/Xr8pt/+999uKT0QMFJT+xKYPb80GXK/+ZfX2ruaoMQQmhyTMNeKWv1yS3FPz4ZTwHwidmh3FLwuZB8573GzF7xw953Cva8U7BfMvp1vkYk2vpysXLjBjH0tP9yehzF/VqHNyfm45wVHyZ7AQA3Pi3vD5kv8SblONqGK58Ul39SXH6mdaQ1cUbNw/+Vl1bkZYVyoLf9Scw77oQQQlMDe6Xjpmg8oWgEgABmzMqUu92Ye5FZoyrQAAAkzIlawrnbrUEIoUkzDXulCCGE0FSakb1SQkTy3pMp9H1frN0DmX9JXZri58MEi05flZv3Vq6+dzCSKlqf8j/PCIU8Bg2sOkXjuf2S/Yf0ltvWPBxiQEbCujUx0REsBsVpUmmqJT/s21VTP75FoOnidVtzUn07Ln21bXfx5C01Ikr59VsPWg98efaCl/D5xHmxvlRSl12razp4qvx8X8PpnKeTIxYFsTk0AliMDarG4yWyi+P5WOSwB6OWR/GEXlQ62A2GjvIa2QGpdgKGzRFCaErMyCjtxvAN3XAwYamvqa5GobBR50RyRREsAnRHKTV++9qtWWyCTl1yvKadyo5OEWZtD5rvs/9PezT2MRyEGLZp9c5sLlmnrihUtHSCl0CQuCYzNpb16rKSa7Yxt5kmTk/l00lAT0xf8E3xsdYxVzAWVI4wdmtCCMOgvdKgAwojhMMJ/hX0RCmdt3llcsIsl1alPqOz02fPSRRGbeZ5/fPrkjNjS1PqwsdSsyMY9vaWCpmxw0Xi+gcseWRxnF/JK6dVmKYIofvCNIxS07ldR25QDAobgFH5dc6R0zr1sOHHSElYJLvw+2Ul13r+9lP5EcTukgRx4sYsNllX+eYTJ0t0AACEiLidB9Ojs1OfyN+fpxptUwjiBa9mc0FalL32Ym83lBiyafWe7AW/WVOTk9sfFc35BdukTqWiv/3Xhwtau7JaYRaH0x2a6jr9aFtxq/b63NN60BsBQFtXudtAUA9blQdjUTxcKT61o9rY80R2OpPb1fPBYpPiEmaB+oezr13QmwEACKeTUt9O4D2fzCs7rRr9GtcsYdyGCEZ79bnXilp6zwY5Ie2xzfPjVsla/tnUO0TQ1X66sKTC3tHe335cSBshdK+YhlHqbJbIm7tf2gxV+bfp2WiObu7LUQCwKmU9rwQZwrkAtYdKunMUAFyy8q8LFkRncZPTqHm51lE2JeaZaD4YCvfVGD0ZPp49G42S6/XZ3LBH+IzcSlNvyU6p4qx0SPuHcKlPbP2dlO9lVynbxr3iiM1YUdfzqR0G7fmRT5C98cruvhwFALNR3f3Cg70wmAr2lvzyvkBz1ZbLKmKSE/i8WKLq/GjvCqIuEvnTndrjle1Ap7J6tyobtIb5IaK5TGjq6N1mra1X1Q5pP0II3QumYZSOlktxrUQx7DtEPo8FYFJIB6WM/KrGDoKAEDYB1KO7uYMVHskAgLT3X0kbenRPijeAaehOd+IwqOumZuDT1VDfOnzXj+7FoQG0dzQMnDm2d9S3QwKHyWMCtI/uCB7ewb4EIHJWrclcNeRNM51Ggg5cogwhdO+bwVEKnaYR/uITaZ5EAKt18BCrvdPqAiBTqQSAUUUphTqLCQCavNckVUP7sTq9bugu9xRXx88jTAuTCHQAcNgHB63dbAcAEmn0d/ESSXQSgFl1oLhB/cutbzqMesxRhNB9YSZHqW2kRHRaOp0AVOrghySQPakEALvVOdrnDdicP9sAADprFCWyOxUeNQKdy/c1NSkNk54zXfauEd5xuswAQCLTB20l08kA4HCM/rKsri6HE4DYpW5suYhPikII3bfwvtJhOJtUBgCGQMwauFU4348McKNef0uUumxOACBThn4rMdTKTADsh1NYQ94aJwJ36da9H+z4+8c7nxORJqrSsTMZtTYAplcYbcBGsleIN4DTpBoyj+lwdYEHkAlD6nF21N8EoHBiA4a+hxBC9w2M0uHUfae4ARCWlbLIp2cLISJuRToDbI2lhbfOb7YrDCaAuWIu49ZqnBWHa5qBGL4+fVnEwKAl8jMSMlPGMyBA5osEdAAgBYjmscex/wTp0p5vsALZ//GH2b0dU0JYXEQsBcyNTRVD+pdqgwmAEeY/5ASB6cyVFjNQFy2KiR2Yyh5UkUi4cFxfQHyTX3znH3s/eH2ZiH7nwgghNCFm8gDvyFylF/YeEryRFfmXU6xFZ9XtVHZ0ioDPtF7bU/SvIXfC2CU/nFVFZqZlvre3pkpldYLl6uGL3Rc02UslO/f4bcsW/PbYyyml1+UqG8GTFSoWhPOI5W9W5cGYBzUt0oIiZViqb8elgguT94CGO3NVlEovzk1KEC/e5aOW6iz02dzEQAbJ3PJFyTB3wmjlDdXxbFFiylssdYPFBV2dZZebap0AAAbZpU+4j2ZHhL7+Aqe6Xqs2u0izmEIeh0uzFByS3+bq4hH4JjyRHhYAELB8RUpx9Um8MRUhNBUILNY4Rx/Dw8PlcvnEtmaKePjOfXIln9UoP5jfNtJ0qfpMjexnClvAjXk4eL7gV/ZGxXfv5e3MbRvmbk+XsepyOzNozvwkQUz83MjY2T99f/lSY/d7XfqyK2ev/EybMzs4mi+O9w/yJzt0LSWHzx0/1dI2jjs6HK2V/847mld4UWkecp3OBOLww1LmeDRck//QOUIJe+d/rutcNEbwHL9onq8/1d5QL/+sUPq9Ybhm2Tsutzj9fTlRfL/5XF+hP7mhUqno+R7hbKpvqOgAT6ZnCI8j4s7mUAnGm9rz0mvfNf9kHPNj8M1mWmhs5Bw6gdDVeulU5c2x7o8QQuPwQGBg4Pj2zMzMzMvL8erVOQAAIABJREFUm9jWIDQBSAk5n73K/dfGPx65mz13hNDMgXOlaLphJT0qJqulP2COIoSmCEYpmk5Ivskvvr5O1PHdp/mNd7stCKEZAy87QtOIYPlfNojUx7d99G01PqIXITRlMErRNKI48sd1Bx34kCSE0NTCAV40nTgwRxFCUw+jFCGEEHILRilCCCHkFoxShBBCyC0YpQghhJBbMEoRQgght2CUIoQQQm7BKHUbIe3JI8otBQdiPN2ticrPEEbzJqJNCCGEps40jFLW6pNbin98Mp4C4BOzQ7ml4HMheTKPRwASAYBAJbi5fHXi+xs/fT8l3ufOJW9DtPXlYuXGDWLoOQ+X0+Mo7jXrDpj/teLtozs+OrppqWBSj4MQQvcufNqR2+ylkr+8UElp07S7VQ2RTKECWCeoUVODJn4q5/fRswkAY14NDSGEpg+MUvcZDdckM3CNadK8xdl/SPSzt2nMvn6z7nZrEELo7pl5UUpIST/weZxxT+4uXczGFyPDeES7Tl91SLJ3j0IzaF1vqmh9yv88IxTyGDSw6hSN5/ZL9h/SWwaUmLtp/afZft3jui5pwbPLym/pmBLEqV8cS3Dl5v6pLGjDpofiBSyyzVAvKdn9RmV977rf0dtf3pXVt/w6O+vYlqye16bCjbvfLeyvzS8t+fn1otgIlicFLEaTtkZdfljyWb5hPD1Cunjd1pxU345LX23bXTye1cjowv/538f4Hi2FfztuX/vbpRilCKEZbOZFaTdOxvK/+RI1pTWnJISAlPDk7BUC3te/zVF09rxPjd++dmsWm6BTlxyvaaeyo1OEWduD5vvs/9Mejb23knaJZI9xFoESlLkp0m/kY3knpW7LYkPF9XM1pLlJQlHGk9ugY21OY3cqN58oeu8qDQAEz6QtjbBezv2+RN29n6VZ1l8JIy191944P6P+cmG5qhPovuzACGFmxvUvxxWlNHF6Kp9OAnpi+oJvio+1jr0Gs+LMyR86m0+duDorbex7I4TQdDINo9R0bteRGxSDwgZgVH6dc+S0Tm0fUojBI5a8lvvmIRMAwDvlG06uz8pIXXVY8VEpAABBnLgxi03WVb75xMkSHQAAISJu58H06OzUJ/L356l6jyRVnJAC8AiLbhuljAj25ZzcbfkmAABe5F9PZiamxMRTGs/ZAADaS+WnSgGAuCgxbWmEVVlYeUo6tA5ibEakHxhO5eS+J3H2bQwQEG/5aM35BdukTqWi/zxct8FQdmW1wiwOpzs01XX6kVt+O07VsaMqACBghxQhNNNNwyh1Nkvkzd0vbYaq/BFmMVVV3xw39by2aY4ebsz8c1DCY37/r1TjAhBkCOcC1B4q6c5RAHDJyr8uWBCdxU1Oo+blju3iIJei6pv83mOpFGU1zsQkNl8A52S33W0wMoUIt17d47yhcN5SrFOqONuTxAPOw9AmqU9s/Z2U72VXKdtwKRWEEHLPNLwZZlQsstb6Ad21TpmmHcBHwCYDABD5PBaASSEdFMPyqxo7EANC2GO96cWualX1/+Q0GQGA+Kux3YXqrPq+sRNYT7y//m/bU5ZlCcIFVDfvvXEY1HXKNsudCyKEELq9adgrHRWLbXDP0uq0ABCoVBqABYg0TyKA1Tp4aNTeaXUBkKnUsd774bLd2nccB92+I6/aUtasFsZmJcdnAQBYVIqjb+Z9Kbm/7p9BCKHpZ6ZGKY1CHfQzlUgDcHVaLQAATkunE4BKHfxwA7InlQBgtzrv0j2UzvpDRW8eKgIKlZ8kSH4m8ek0wer305sX5J013nnnoQh0Lt/X1KQ04AAvQgi5Z6YO8NIieCEDktIzws8bQKPS2wEAnE0qAwBDIGYN3EU4348McKNef2uUWl02AKAQ3XumktMFo+u82qxKSc3+jfv3SpzA5M6PHM/BCNylW/d+sOPvH+98TkQaTwUIIfT/s3fnYU1eecP4v82eJoaAIWFJIECQIIkCoTRkQBqVFlpbymuVqi8+ti4zzjDP2NqOTqe1VxdbfFprO7V1frWLT33VsWiR1gUHlSIMUGSxhmCAAMFEJSRCSJOShCT9/cEiS0ASQC2cz8UfkJz7nJOQ3N/7LPc5yKDZGkqBI1iTSe0fbiT6PbOSSwD9pbPtfWGy8azyOkBEpjR5YBk/bFTcqjQqWFVlBaaRWRl1N3SA5XCEk1vzr7vDAkAPCie5ehIXIvHzHdpKJlL9mDgA0y1PbgoFQoiQRwEAfKBwHsOTDNzCTNzwzj/2ffTqciFl2stCEAS5+2ZrB2+Pzj7/jY0fP6KoV2MDJZHxPGjPLzxU1v+so6xk31HejkzB30/Rky9oOkmMaCkvhGa5urfwe/WovKyagqPtqdn87MMr5pfpe6zQI6897P7tng0/KHVr4+JfWbU97Gqr0W63OtoKaqv6iyPFb924nmdorG5tUpt7gBImjYzjgK6g/KzSo5dfc6awNSKF2fXjmRKPYjGAz0MbHhPQAYDEYQJg50SvyZprtoPTWHfk1KVhN6oyxU+kRQQCBK5YJT0vOzkLF4ZCEGSGm7WhtKzwTTnv91mCJ6Q4m05furdo397B9RkAwFK+/au/NUtXreTHP80mgEWnVBw/WPTVUf3oW1QBoGHvkZ3EJ9dn8p5Yy8cCdOe3HnU/lNqKCl9/B7spKzxxY0oKAICpQD0YSi1V35SGPMaNEESmSklYq6Vb3V64u+TAfpWHC/+aa754ae0Xnh0LAADYOZzY6If8B/8m+0X33Vvb2X1yRCjtqPlPTVpILBOP92axAFAoRRBkpnkgODjYsyMzMjLy8vKmtjZ3Q9/CgdijB5/drkKLsN81ePGWL15mf7/5pVwPW8EIgiD3rVk7VorcVXTJkliCpuYSiqMIgsxAKJQi0w3PTNzw6nph19nP81X3ui4IgiDTYLaOlSJ3DW/F3zcJNSd2fvqtzHyv64IgCDIdZt9YKXK34fH43l60EASCIDMX6uBFphuKowiCzHAolCIIgiDIpKBQiiAIgiCTgkIpgiAIgkwKCqUIgiAIMikolCIIgiDIpKBQiiAIgiCTgkLp+Gj0+Exu4P2TD4IgCHLfmYGhlJ518rXzPy2LJwL4xuxqfe3Ml3wPN+Um+m06+ed3XxEEEu+c9m7kMwHCN/58vnXzpljofx8q0+Kmt1Da71a9dWzXp8e2PsWb1nIQBEHuXzMwlE4hHNnlPtz3LJ/7DTn26S1/iZ6Lvdf1QBAEuadQKEU8hJ+3OPvFBD9bRzvagRRBkNltli5nT4reKF21ks/nUMlgNxkN16qVhfuLTtXYAQCAsa5wc9bt/sqYdxUx/b9aFTkLcwutfX9QhWujUx8Jn8+j+zCpZDC1yzWl3xQdPqo39aeeWD5E3vbKVSndFVtSCmX9OYPXxqzcV7jK3R//ce/tOOWXmrhuo1AURfciQo/RpK3TVH1T9IX7e4wDAFBi17+xJYXZ9eP/7txz3pOdzyj8//u3x0IwNwrePWF77o9PzfEgCwRBkBliVobSyFey3t3o51Cryk/U6aw4Xw4jQhKXJi8/VdMXBA0le0/qvACAvnhrYjRRk/fO5db+Q7sGox0Q2RmvSEUdGoVSVV9m6gFqiISfmcOLn39ky+sq08TzmRhqatrufXF+Rn1lQZW6GyhMRnAUPyO96YBHoZQcm5YSQsEDJSEt6V/nj990Pwez8tzJS93XTn1XPyfV/aMRBEFmkhkYSk3Fu3OvEw1KK4Cx9ciW3NM6jW3o80T2o0/7EYyKnOW5hbrBB6mBTMvAH/bm/NpmACCyedmJ0aCrPFpbOTryWTUHV7+3s8ZyO5IR/Tac3LgqMynlc1WeesL5TAhOlC7wA8OpLfs/KLIPPhjIw9mGp7uWf2Znjb1Veft9aHJVoq1VpjTHRlJ622WNes9qZFcfP6YGACxqkCIIMtvNwFBqv1akuNb3q9VwOX/0QB6OQAQAu21ojLGarqvdLcjUWtP/G4FGonrhsGBqkpuAxwjhAbid2x0QiDgAGN4AtV9X2kck665RXuiv1ZD3YRSH5rs3/rsmxNumbu1A27YgCIJMzgwMpXdi1ZQWmVLTBS+fpCYUNclqNPVl7a26kTFpIrxiY7Ky4xJEfn60oQ9byLSxjvCY/fIPqm4p74kPN/qdUVTVquurNY1KiyejpAN6DZpGNF8IQRBkCszCUAr28m1fva6WPpvOW7yWm7IWAOztNVWfbSssVrqRC0Eife/LxDAwVJ4o+rbeoO+2OADHSU/bIMVhAQfgSWweh+7r3Jet0rVZfFFmYnwmAECPWnns9bwDRZY7HYogCIJMq9kYSgGshtLdeaW7geBLny/hL16bkBorfvmNroY1Ve0TzQKXkBUXRjQVbtmfk387mCVIn/S4UkPvziS4+MfYm48Wvn60EIikEAkvcWXCM6m8rA/TriXlXTB6VByFHcI0tbUaUAcvgiDI5Mzu+0ptOsPl/IoPVn9/QQdkASdi1MJADgvA8CA3gMRgkgD0DWVDGoVEv5hYksvLk7HzAQBLjxXAi0od8lBwGH3MdQ+sltaiuoObD+4rsgONPV8wVrrxYNlPvbHvo13v//N//kuI9yQDBEEQZNBsDKV0oZROHvoAZ443DaDbNPL+Squp2whA8w1ijs7Eou+wADCEksF1jHAha1Me4wAAjuw18XwArPprTXagcRNT+7PC8uJWpFGHJ8KFSPx8h0Z6ItWPiQMw3fLkplAghAh5FADABwrnMTzJwC3MxA3v/GPfR68uF1KmvSwEQZC7bxZ28BLZmfsyoo3tsmqNWm3BMP0WSHlhREvVwUuNI+8bMVSWtWdFsVd/mTG34KbWageroWK/8joAgL3ym8vXUsXJuzZ+mKqoV4NPFC9RQpIVaISp7Lm+dCzoHRPKBwAsxd8psyT8lF0bfVOV1630+VK/7rp2h8RvSE1I8Vs3rucZGqtbm9TmHqCESSPjOKArKD/rzvjuoJ6aM4WtESnMrh/PlHgUiwF8HtrwmIAOACQOEwA7J3pN1lyzHZzGuiOnLg27UZUpfiItIhAgcMUq6XnZSTTXCUGQmQZLp9M9OzIyMlKhUExtbe4Kh81BxFK8fLgLuSIJNyKEYGloPLXr+IeHDaNnCt2qbGmnzQ0RcOOkEWJJ+EPx+Ib99S0OAAC7qqWswenL858v4QkEdFJX64k3v/30FObhtWFcu/bUt+09E8sHAHrkLQ2OuTy+X8RCPz+KqfqT/A/LaY8t8/+lvPJUZV8HstPywAMPPvigvyA4WhIq4Hs/2Nle+tX3Oe8odZ7N4u29WfvvvGN5BRWt5l89ygDLFK9/Mmm+X2AQg0oAADzVjxkY5BcYPOfWxf9cvTU0qdlMDhcJ/ClYrPPmj6dqb42RI4IgyG/VA8HBwZ4dmZGRkZeXN7W1QWYsvHjLFy+zv9/8Uq6HrWAEQZD71mwcK0XuPrpkSSxBU3MJxVEEQWYgFEqR6YZnJm54db2w6+zn+ap7XRcEQZBpMAunHSF3F2/F3zcJNSd2fvqtzHyv64IgCDIdUChFppky96X1h3vRQhAIgsxcqIMXmW69KI4iCDKzoVCKIAiCIJOCQimCIAiCTAoKpQiCIAgyKSiUIgiCIMikoFCKIAiCIJOCQimCIAiCTMrsu6+UkLkiP4dPGPiz8vV3//b16HXspxqNHp9Gv35Udf3OSV3hxH14MU048Fd3/pFntyhtU1W3sdAEb1dmJEDdmwvzikfumXNv+MTyhSRlcdn0/78QBEHcMANDKT3r5J/XcWr/Fn+ykhazq3LZgqLc9OcVg4HHVn1p3zutWACvhIQsqYfb4riH6Lfp5MZMr9q/nVBd9ywmdaiOvXOmGADDjlyzlju1tRsHlghgxY25CfndRc1c9XUOT7V7T3GZyWUCQnpG7ocC9e492XtNwjf+/OFa+5Hl+z6vmZ7aENIylm8KVu/ZW3rRGfDC5uRFHVXP5Tbd3kCOQBWGhy6dFxDKoLAoBLCa1DduXqypy1dbRmRED+Y/Jw4T+dIoYNPqbp6rrDnWOiTNhPMZFCpOzZF4451dx74uONTp4asTJi1+7SFvvLnp7f1V1c5hT7FDgpdGcoR+XiwqieK0aG/paq7ID8m73FzKyu18KJy43cvDWRiQnT++4ycPLyTpvPicZWEsMB47dOqQbsgTPlEfr13AdtlJ57zxyafF59wvcMyyAFghUc9EsUKZXiwqiYJxmM3Glmvq0z8qKgyebfQEQA97NTNeRIGGorzttWN8NsZPgwl4YXPyIn3VH442af1j/pnJ76089ecyo4f1mX1mYCi9E6XqO6UKAAJpMauld6dIHJl050TjsepL9+sBACvxTl/Lpd4x/ZQwKvetOXgcDIr7o0mKpeEId051n6BHxr+5hAV2m1bXdUXrIHj58MPC14VwhIWFb8tvXwnQw+JzngxjOU0NyiY10IShwWvS54adLtzVaHErn0F436g/xXvjnaOfmThsRHzytoe88S6f9Anflr6AjXEY9F0tbTobwYsfyEl7jBPLLt1+Vu3GVrTu5kNgrUsJZ3n4ivpRgmPeSg1jYQBGvz/WrmpFm2ZEKKXMFXGooNXK3I+j45UFEBLBX8oD7S1jS5vOBljvuQxh1AIhL+DQNxeOebBt4hzOC/8nXkSZdBpkEmZhKEUmynKtTHXtXlfit6nXpD1TpDgtv6EZOAuz5ifmpHJEj0QvUpZe7Ls4wTFWSsNYYDqXf/aTNhsA4P1jPljBFycvEKkqq20TzmcQzntlahSrTXHRm7/I0/4W9sLE7YkMQqfRQKe5yMNuqq6u/OwnlczYf8bHM/ivZcYIo+LW1N/4RD3hMOBePlhRUnwypjlfGZg+z8OrUrxf1GvL+OxfjRozjU0e9bT5xoGCGyMei0h6QsxxyOpU2qktC0BWdva5c6YhGyT3dQMwnk4IOPOd2r32PZm1KSNhEc2i6cSwfca42JxIGmRyUCh1jSpcG536SPh8Ht2HSSWDqV2uKf2m6PBR/fCWACl6o3TVSj6fQyWD3WQ0XKtWFu4vOlXT9x1hrCvcnMUbTBzzriKm/1erImdhbuE0tPZ8peL12TGiKLoXEUzq9ur8kgN7lSN6lb0k4uxXHoqPohOMhuai8k/2w4aTabyCIys294+/YiVpXx+K8xuo6s6FuRdGVJXI2165arHyzNpthmWvSJdKGD5gb6++fOD1wgtK9ypMjuI9tVIYL2EHMqk+NOjR6RVlsuO7KyrV/QkI6Su+/ZA/eD6K3PrC+a39v1/bv3/DO+3uX8Qzk7f8fb3YW3fu07c+r3CjJeUGc7P8s+GPaBXyYjEnne7NZ8JFNQAAnhOaQINeteJQmy1UnLIJqrZXyPPbwv8UxlnKra5udEwwnwHYiPiH02nar75XsZ7ie1ZtvH/Mq9IASmfTB991Pb423kUoNbYdKBn2QK++6XRzlHA+iR9IAfWE+wPdyYcSHLNRiCs/eUUWEpjuzsu5jRCQnb4g4gH9sbwqWJz6jKvwNhKO9fh8GvS0nWsc3V9KED2S/IKA1qWserugbWSgnUBZZuOIHgWbTHFDK/JmU2neAMND6bhlAWnpo4lpDIes6Id8euKrrsPkRNIgk4VCqUtEdsYrUlGHRqFU1ZeZeoAaIuFn5vDi5x/Z8rpq8FsQ+UrWuxv9HGpV+Yk6nRXny2FESOLS5OWnavqSGEr2ntR5AQB98dbEaKIm753Lrf2HdsmmI45mZnycI/C1Gi4XXW7tJoVI+IuzV0VHndzyfO3gdCeyRLr7y8QQMF0tqFJ0k0IkKTs/HDlA42iSHXi9nUykJ2xMjKeNWRyWE/nyl+xAo7L6xE2qIDxBIt6+z35zWdFVd16ab6p0fSb1mry9Xq7s7AYqhy1KT3lXGvLR8iPfKQEAbDXle19XYgFIseLfpzPaCwqPlVv7Kmyq82hoiSlOTWJTAChLUx86UlF4t7arcfb9OG0DKxJz/H3pAJrrWgNQl4YwIh4IYFfIZeouCGOEBHhDo36C+fTB+0VtiqO1lJSeMeDXeVrHXm1TvgxrvlRV0Rv2+EQPcvQ6nABgtk1yItwY+RBY65aEU1vKvlJawkI8zdumza9p7tJfPnSdtGZiR1DmhYsoYJA1l4/+OOP80xYwKDig8OclVbQdG3E15n5ZANiIiAAWBgxa/chgOX5ZYCmvaYq4eeNAbVfomKNVE0mDTNYMDKWm4t2514kGpRXA2HpkS+5pncbt77hVc3D1eztrLLfP1ES/DSc3rspMSvlcldfXFiCyH33aj2BU5CzPLRycVECkBjIHL2Ltzfm1zQBAZPOyE6NBV3m0tnL6xh1p3HVbBb6gP/78/k/75rjS/DYcfm6VdOn69Ktv5vfViv70K+IQounCln07+x6hcV88mfUEwLCrZJ2m8GsNAIO5crxQCr5cn68Pbui/tqBnHt+8KVbwqKToapEbtdbl5z23X399SCvEJ3PF5zn81RvYp7ZrHACg1hR8rQEAL6Lg9+kMo7zuu69dTzuy1ZS/t+WqRW4BgGv5Z3bW2FtdNpG7Guo1vfPY+B6NrMnjOGqrqSjdI+u5YgeAztMFpdWWO827YQSI6ADGG+X9259jmXQSgENrMAOGwaIBYCgsDFwxmnuB4eNFwYPe9S4AI/MBAACc98oUPkd3ZftPJgBvT18UgNN05nwVAMBE2m39RbPEwSSw66tUY86EmkQ+WFFS/FLyjc+K2ibXfeBouVTZAgAwwf5h6lJhAMVpzJdpXfwX7F0yrU0USOg16BtcfBYnWhZr3oLVISTAElhMVgQdq1XW7ikdVdwdygKz+sonahePu5sGnJ2nC0qrbV2dANDZvP+0HvRoU0Q3zMBQar9WpOgf4bMaLud79g00tQ7M/CTQSFQvHBZMTXIT8BghPID+TyWOQAQAu21odLSart/xMzs9CBJBgi/0lFUcGrxXxNj+r4PKJ3P4olQuIV9hAwAePykK51BeOpw/cLoyqo5+o0ndyvaoTNXJzwfb6IbyMv36WL8gHgmK3Din9ij1/S1mIs6LRiKQAOrU14A/P9zPCzTuTUBVt5eq2/t+7a5RXhhr7m5vw8GX/lAe6t3V0nrLrfyH0d5UDzQgLA3N6obxU+NozyyJYoPpYrG8YWAeChVPALD12gAAS8AA4AkUDECv3QxAJxAoAC4+uq7y6e/a9TbmH1G0TGrCkQewwsS4ZJpDc6k238PZwuPlQwmO2SgkyIqrz/w82Yq6xzd0qT8WOlTn2l0+bczP/b6aSenVd2kncWMWPSB4UVT/HEKzru3cT6oGF1faU1PWBAz5GFuN1Y1o7q57ZmAonRpesTFZ2XEJIj+/Yc0yC3nwT6umtMiUmi54+SQ1oahJVqOpL2tv1d2zWx59eL5UgGty9dBLV1O1+jrweTxGIEArACHKPxDAJG8fentru1LXDWxPBlB0+rYhLaNuowUAiEQSgDvNEyI9MVv6TDo3gkMdWgcHETfxhpHbeg3KhukZJHWJtOjR5DWBjobS0r3NLntIerqsAGAz3yEQus4H7xeVHeetrS38Rjf2oRjvtOTw0NFfd2fXueKmBk8/teyFidtiaebmyl3/GdqGxgpjYxbNHX1nSW9Dbe05V/3WrvMhstalhPtoa9/+yXU3xLTBChcEszEOmbxZM1YSp03TPtk7uxt++D7jBwAcKZTDXZG8YM1yFr+w8G3ZqBc7FWUh0w2FUlcIEul7XyaGgaHyRNG39QZ9t8UBOE562gYpDgs4gL4zj71821evq6XPpvMWr+WmrAUAe3tN1WfbCovdnHozJchEHABYjPZhw4fd1h4ALJFMIgJYAetFIgN0WizD0hitPQCehFKLffRFtJvLZ1FT9j23XUrtlNfl7VZf0xlMFgBSyNocMRful/tZJ4skTlmSzSe3XLrwVmXX0O47U68NAIsnADjNmlsOoJi1TgA8jgLQa7ON6lwbKx/vlSl8tqlpx49jdAj3wVAXCMPELkLpjYZSD0MpKyrxLWkAqGvfOtWsGXYRgA8NC1/KGX2EjdDiIpSOkQ9WmBi/9MGuY/kKzV1uahMDHp9HBav6oosJR9PAbmlpVey65chZFyeSzBddraxGS5D8BqFQ6gIuISsujGgq3LI/J//2lylB+uTIhFZD6e680t1A8KXPl/AXr01IjRW//EZXw5oq1/1C06nHagcAEg2HBbgdKb2IZACHtcdiBQBwdFt6AMhepGFpiMRpbP+NLyp6hZRqkxduXV5xbTAs8xirp7tcPD2ITTVqNIbp3pScJF6y5EUhRV1TvKNkxNCTo8NgAaCx6BQAY/kVeSi5TQPAolHwANpuc+8E88HRQuZiARP+Znb48KK9n1m36hmn/sAXhfk/A9jVu/5xZApfGGu+5I0UDv7mlbfyFS0jT/2W/Nwj+ZPNBx/KoAIOnsla9czwQ4RLluctcVSfPv62wtMFDcZF54eLyGCobynuGTsRhsCeSzJ1GQ1TFfaMWpkBInx8+DSoHtFVPuVlIdNgFodSh9UOAATiYCtzEInBJAGoGsqGXJQS/WJiSaNS9rPpDJfzKy4X6Aklq1IEnAhiVfvw9prDAkCEKWhmWeyO/jqP1KnUmYAdGMXxAv3gV5Eq4gQC2NT6vtBuk9+8DgIej8MBZfNAGr8oXy8AV2cNu9UK/UPC0zNbCsuc4w3QXdc+9HYdL0lIELh6u6x9b/6kP7L4iDXvv/F/2Hhzw+FXXzk+jTfOEkTSR15cSFJXXthR6mIKh/qmzgA0ViCLDkZDa99NLwQhxxvA1nqja6L5OI3VsuauYZ0BhNB5nFCiraVR3dJjbJmGfx2LL3nj0WCiunbH94qWSXQ9jpuPs6Wp6VznsBfmHcgV+WAN19uqOm0tHi8MdAe0Jxaw8E5TuezG2NdZ1PTlj63jEHr18rcOX5FNSYTDUZlkAHCYRpY6DWUh02AWh9JOpcEE7KBYNhWUw4cnLPoOCwBDKCHl9bdKcSFrUx7jAACO7DWYjC63BlLzAAAgAElEQVSUgrLIcDsIceZ40wA6TB0wnNXUbQTg+AYxoXxyk5IcakO7FYKiOBFExYjbaWxlikpdTIpEvFoq21vUP4P32SweFSylZ1X9lVQqSuTSiKjoZ9PLB2fwPrOSPUaMN11TWyDKTyjBFRRMz1e44+cuAK6AzSWqmvteji93/QYeGQAGOqUH9XRbegBYPDoBDJMaOfKOELDxAEAJFUZQjl+bpmmKBJF08baFFEXphV2Vrif39qrbqoxhSwP5a4LbBpZo4KcHY+Fn1TmVY6L5OLvOnK8c/pD3On9OKN5cU1bp6cKB42HxJW+kBhNbKl873ayZxMfiTvnYZDVVsuEPiVICRT5YtaLqE08XDrwjfGBY0lyAzrZz4yyXjZsr9CcAAN6HFUEFmbuj7gTG0gisokF7+84CDEmctCCBAqC7IRsxwWqSZU0DZuKGLStFlI5zn+85LkOTfAfM4lBqK7p0QS3ISM34YF/dZbXFDj3131SUKgHAXvnN5Wup4uRdGz9MVdSrwSeKlyghyQo0wlT2XF86FvQOACCyM/dlRBvbZdUatdqCYfotkPLCiJaqg5caRzYEDJVl7VlR7NVfZswtuKm12sFqqNiv9GRpe93VgqJH4lPFOw5Ti+sMNivoysvz+mbMGpVf7FaIcvgZ+zaHFClbu7EciTCOg+suK/js6GDz2nBid9WSfeLFuzb7Suvqu3EhUkGEVd8NDFfR1F75TV17alzKrufIj6jajXYwtubtVY0zt8VdDnndybKEv0ik7530Ly3TW4gMwWJeUHdduVqQwKQyAa4OSWwru3rZKEhMf/JdS22VxmIDMNbUFZa5P5zVUVFQsiRQ7K07V3Bpus4ErIWJ22K88eYuGyMye/gdmorasvybAABg1x76oVm4LGxp+mMc5U21kybksVgYS0XJlWqbO/lMIXLAmmQuGwOAo3AwAET/9MclS50AVm1uUXOLE8A36tVHg1lganCy1jw6bCE/k7ruE9mEp31OVT4TRV30yIKEBwEAz6YBYEjiRAnbCuDsKS+rvXi7NKxIGMrCOBrqWlrGycx+88wVPV9A62ppLHER2+5UFtZr0ZL4P0ltWn2XxmQDLIHFZLApWLB15V9QjCz3DmVBqDBuBYcAABQmGQDYkXHb/J0AoLladajVNvE0E8YUP5EWEQgQuGKV9Lzs5H0Q2+8PsziUglXz2eY87CtJydK45UQAMHxX3hdKoaeo8K+bezZnx4hSxRFWU7u86dDmH44rBR+kssNiB3pQrZrC/VUg4YZIokU0HFhN7fK6I18XfZ3vouepYXfue8S0zDTek9kCAgBYFcavRy5CNDGW4m1H9lrTnpEKMmIBAJqtsu+K+qcR6Y7m/rk7cd1GYbw0Tki0m9TtxftLvtg9LGb3FBX+dfPP2VsT4tPFEUZDc1HR6wXeL+9jUF1Vpqeo8NXtkP0nQUKmmAAAaijer9JNZY+h4bvNBx2vpDyTxktdy+tR62VnCj7aLfN6k5uQzhaKoLhsSFqd4oMthbbsh0RPS6OJAADX9msulHmw2lFH8Yd/KZ6qV+AanUbGAwDFW8QfeZcnXvVj/s3+ShuUldvzjM+Jw0Wh4REYm1bXdqyi5tCQ5ewnmM+UIdJi+cGhg72qOKpwHhUAoMdeXNTcAoCnUrxxAECNmDdyJWizQ/WZzDjBweepymeiMHh+aLD49upNBHZIMBsAnCbt5SGhlMJdyiOA7ca5q+PPGbZV/1D4f3/wtCyr9vR/msxBjBCG9wImAQ8Os8kok4+1nP24ZQEwA4PFtze6AoofR+wHANCiuzIYJieSZsI6av5TkxYSy8TjvVksl3dszU4PBAcHe3ZkRkZGXl7e1NYGuQf6NlTR7d33+936aRp+QhBkJsGLt3zxMvv7zS/ljhzNmrXQ1t+zDRFHJQ79m5SYyqWCvqYcxVEEQSaCLlkSS9DUXEJx9LbZ3MF7PyByXyzJesJ3rKcthZvfyymYygKxPPH/HI6xVbcqlYZbRrx/giBFQtUVnPlX2Z2PdcNdf13IbERbs/aJZxhjPeuoPnv8bTm6QpxaeGbif/11vbDr7M581b2uy/0EdfDeYzjfKPrY+4/aTWqDbmqnYPhys95MSopisJhUMti7OzSX88u/2Ktsn+J7Ju7660JmIwqN5j12c6DXZNSiZYKmFm/1Rzse1pz4/NNv0ezdYVAoRRAEQSYIj8f39k730ia/QWisFEEQBJkgFEddQ6EUQRAEQSYFhVIEQRAEmRQUShEEQRBkUlAoRRAEQZBJQaEUQRAEQSYFhVIEQRAEmZTZt9oRIXNFfs7ttZ0rX3/3b19P/yaANHp8Gv36UZUnu8EAACfuw4tpwoG/uvOPPLtFOe33ntMEb1dmJEDdmwvziqdnv9IhqJnHX9gUa/huzccfTe26SwiCINNuBoZSetbJP6/j1P4t/mQlLWZX5bIFRbnpzysGA4+t+tK+d1qxAF4JCVlS+ng5TRWi36aTGzO9av92QuXRbjAAHapj75wpBsCwI9es5U5t7caBJQJYcVOwY/md4TBEAMBhiXdMOaa+dfnVu/dk7zUJ3/jzh2vtR5bv+7xmyqo4vLC0jOWbgtV79pZedAa8sDl5UUfVc7lNLrbJwHk/s3zxmkBCr7J0zXfqYbfkEajC8NCl8wJCGRQWhQBWk/rGzYs1dfnqwZ1hsIuWLX9hnut/gLam4A8/dLl8aiz0YP5z4jCRL40CNq3u5rnKmmOt7m9SB4CnBaxcFJXE8WbhwWDUV/105UCti73NJ4YgTFr82kPeeHPT2/urqp0jn2bHp36cSD53PO+TNkJaxvJNHPWeT0svoh2wkfvMDAyld6JUfadUAUAgLWa19O4UiSOTJpeBVV+6Xw8AWIl3+lru2AvyTSmjct+ag8fBoJj2JikAGM5u+6qJadfMrCYphpr2xCNrAgkun6RHxr+5hAV2m1bXdUXrIHj58MPC14VwhIWFb8v7NvlyaK+rKpwjvqQYJocTSrE0tLm38iI9LD7nyTCW09SgbFIDTRgavCZ9btjpwl2NbkZTWti2VfEiikPbpjlnBA6XvVS6mE8v3l6kdT+aYiPik7c95I13+0AEub/MwlCKTJTlWpnq2t0qrFOu6ZTfrcLuDtKiR6WbwvDaTpOPj4vLn16T9kyR4rT8hmZwo+/5iTmpHNEj0YuUpRetAAANtZW7aocfRg5+dT0HDKpzbe4s1I5jrJSGscB0Lv/sJ202AMD7x3ywgi9OXiBSVVa7MVhAWJQYLaI4WioKt5d19QIAOeCFNcmLFsatuHrqQLsbNQIA9sLE7YkMQqfRQKfdlf4hBJkuKJS6RhWujU59JHw+j+7DpJLB1C7XlH5TdPiofviWwKTojdJVK/l8DpUMdpPRcK1aWbi/6FRNX/8TY13h5izeYOKYdxUx/b9aFTkLcwunobXnKxWvz44RRdG9iGBSt1fnlxzYO3KPcS+JOPuVh+Kj6ASjobmo/JP9sOFkGq/gyIrN/eOvWEna14fi/AaqunNh7oURVSXytleuWqw8s3abYdkr0qUShg/Y26svH3i98ILSzRoT+Tt+WpHc369rOvX8ng+KRqQgZRx/OZtX9+ZyWfgr0sckfl5gul6tyNtd+F2NZ/18zOQtf18v9tad+/Stzyumbeti9kNJ2fOphsaytxsDP1jmIpSam+WfDX9Eq5AXiznpdG8+Ey6qXWfLipy3gACammbZqL7QceA5oQk06FUrDrXZQsUpm6Bqe4U8vy38T2Gcpdzq6sYJR2Wi/6JQAljV+dVdwInZHWf6n7ymwz/pFyUxkiMZB9r1blTJP+ZVaQCls+mD77oeXxuPQinym4ZCqUtEdsYrUlGHRqFU1ZeZeoAaIuFn5vDi5x/Z8rpqMJpGvpL17kY/h1pVfqJOZ8X5chgRkrg0efmpmr4khpK9J3VeAEBfvDUxmqjJe+dya/+hXbLpiKOZGR/nCHythstFl1u7SSES/uLsVdFRJ7c8Xzs43Ykske7+MjEETFcLqhTdpBBJys4PDSNOpI4m2YHX28lEesLGxHjamMVhOZEvf8kONCqrT9ykCsITJOLt++w3lxVddeulWTWn3zl5mYgNSpVmxI6djMZd/yXfBzSlJyp6vNiJqXF/EfhRVn91xIOGLFOcmsSmAFCWpj50pKJwuva30NQrztFJ54ratNzAiR7j7Ptx2sZa5hTjnbaAgbfrz9W517vL8felA2iuaw1AXRrCiHgggF0hl6m7IIwREuANjRMOgX6+YQQAtfaKFUK57FCOMZbcdEat1zoZLH8GG/SaCVepV9uUL8OaL1VV9IY97taLQZD7zwwMpabi3bnXiQalFcDYemRL7mmdxu3JrlbNwdXv7ayx3I4xRL8NJzeuykxK+VyV19deILIffdqPYFTkLM8t1A0mowYyB4ee7M35tc0AQGTzshOjQVd5tLZy+sYdadx1WwW+oD/+/P5Py+wAADS/DYefWyVduj796pv5fbWiP/2KOIRourBl386+R2jcF09mPQEwrLWt0xR+rQFgMFeOF0rBl+vz9cEN/dcW9MzjmzfFCh6VFF0d2awcn6nq61oAiAtLGi+UAtXXWvri8qKrRgCAw5kr/r8c/pqtgrPP13UOpLDVlL+35apFbgGAa/lndtbYW102kbsa6jW989j4Ho2syeM4aqupKN0j67liB4DO0wWl1ZaukXmZ1Z8VAgC4MRDICBDRAYw3ysfYUxnPCU/2gd7mxmL3IimWSScBOLQGM2AYLBoAhsLCwBWjuRcYPl4UPOgnuEQ5hUajA5iNZjNgWd5kwADLC6Db2AHAmkNjYUAz8bay03TmfBUAAHm8VNrG2j0GrKYDBt5z0xU05wi5/8zAUGq/VqToH+GzGi7ne9aBZ2odmPlJoJGoXjgsmJrkJuAxQngA/V1vOAIRAOy2odHRaro+RsfcdCNIBAm+0FNWcahs4FRjbP/XQeWTOXxRKpeQr7ABAI+fFIVzKC8dzh+I90bV0W80qVvZHpWpOvn5YBvdUF6mXx/rF8QjQZEns0LvxF79efnVgQCiO1FevJX/lEQYT6srGIwq6vZSdf9oXXeN8sJYc3d7Gw6+9IfyUO+ultZbntdHe1Ot7f/V0tCsbvA8pwE42jNLothgulgsb3AdkAgJCzl0sF2Ua9z9VFPxBABbrw0AsAQMAJ5AwQD02s0AdAKBAjDBDKl4LACYbLZeAAIWCxgchQjQa7c5B/J0p9t5InoN2osDlRvyniPI/WUGhtKp4RUbk5UdlyDy8xvWLLOQB/+0akqLTKnpgpdPUhOKmmQ1mvqy9lbdPbti9uH5UgGuydVD25emavV14PN4jECAVgBClH8ggEnePvT21nalrhvYrieZjk+nbxvSeuo2WgCASCQBTEco1SvrhmRr1bc2AUjooQIADyb99hqUDdM2SOoZ0qJHk9cEOhpKS/c2j9GLMif4cS4BjE3nVO5MOBqpp8sKADbzZGOew9RjA6fNfDfmdyPI/Q6FUlcIEul7XyaGgaHyRNG39QZ9t8UBOE562gYpDgs4gL54aS/f9tXraumz6bzFa7kpawHA3l5T9dm2wmJ3p95MBTIRBwAWo33Yabbb2gOAJZJJRAArYL1IZIBOi2VYGqO1B8CTUGqxjz6NTtvyWfYe4/A/rXYAEmkS96HeR0jilCXZfHLLpQtvVXaN1dcaGhUWgQONolnm/vWaqdcGgMUTAJxmzS0HUMxaJwAeRwHotdkm3s1t6nUAAJVAwAO0dhhhnkPbDYDHETAA1smHZwT5rUKh1AVcQlZcGNFUuGV/Tv7tllCC9MmRCa2G0t15pbuB4EufL+EvXpuQGit++Y2uhjVVbt4VMAV6rHYAINFwWIDbkdKLSAZwWHssVgAAR7elB4DsRRqWhkgcd7DqPoEj04b/ScQBWCzdHmWGpwexqUaNxnA/7GJMEi9Z8qKQoq4p3lEy9kIHOMZSgTc49cV17i3LAAAAjg6DBYDGolMAjOVX5KHkNg0Ai0bBA2i7zRN/F8xGowFYdBqFAqBVNuaTest7APxoTAD42axFoRSZrWbxGrwOqx0ACMTRVxMkBpMEoG8oG9KjSPSLiSWNdelh0xku51d8sPr7CzogCzgRo5pKDgsAwBQsG2SxO1zXGTqVOhNAYBTHa8iDVBEnEMCm1veFdpv85nUAMo/DGZLGL8rXC1yyW60wMCQ87exW+7hlMSJEQ9a5IDJCwgGshhYPOgDwEWve/+ee9z/6xxvLgzyp6ZQiiKSPvLiQpK68sOOH8ZY4oHDnLaJBr7rl3Lgd0xS6dwTNxedMfVNnAGAFsugA5lb5Z/UmAIKQ4w1ga73hKjaTaRG+JBcTptp1zTYAJmsBEcDYdqDshgGAFcBgYcCg1bqYvjtWPggys8ziUNqpNJgAgmLZo275s+g7LAAMoWTw3I0LWZvyGAcAcOTbYYculNKHtec4c7xpAN2mkdMvraZuIwDNN4g52To71IZ2K5CjXERrW5miUgcEiXi1dCDQ0vyezeJRwVJ9VtXT94hSUSK3Y3nRz6YPvDQa95mV7DFivOma2gJEP6HkbvRdXNMYbEDixfqNURlcdFaCcKBh6vt0QrIvmMpkle7NZAUAAO8IARsPAJRQYQTF0+pOCYJIunjbQoqi9MKO0vEX3iMtWsimgK1aph4nktL5kr3rUnOef+oF3sj++l51W5UR8IH8NcH9T+H9+enBWPhZ7WLklR7+5vNP5GQ99cEjjJFR0HrzosoGxIB00cASReSA1bEMcBqL5aPuqBknnylHjnjqr+/v2/v+H5Mn/S1DEPfN4g5eW9GlC2pBRmrGB/vqLqstduip/6aiVAkA9spvLl9LFSfv2vhhqqJeDT5RvEQJSVagEaay5/rSsaB3AACRnbkvI9rYLqvWqNUWDNNvgZQXRrRUHbzUOHII0VBZ1p4VxV79Zcbcgptaqx2shor9Sk+WttddLSh6JD5VvOMwtbjOYLOCrrw8r2/GrFH5xW6FKIefsW9zSJGytRvLkQjjOLjusoLPjg42rw0ndlct2SdevGuzr7SuvhsXIhVEWPXdwHAVwOyV39S1p8al7HqO/Iiq3WgHY2veXpXORcop0HniUnk2N3njqt3MuvoOO4ChfG+t7HakNHV6id89yS4ta+/xYiemsr2Mqs92374Txg0dFQUlSwLF3rpzBZem66ZSAMAH8rMX+hAAYM5cPACw+C8+zgEAW3vj3hp9LwBrYeK2GG+8ucvGiMwefmelorYs/+aQv33ClnKwYFadaxnvvi5OIIuOAQBSBJsGyuGBza499EOzcFnY0vTHOMqbaidNyGOxMJaKkiujlzrCM1l8IgBg2QEM1shbRW0XSy8vCowXiVM+ZqlkJhyHy46Y49DUVuWOGtQYNx8AcsCaZC4bA4CjcDAARP/0xyVLnQBWbW5Rc4ubfcV4wZL0h0PoAEvWPlNS+qlsMhOzEMR9WDrdw2VGIiMjFQrF1Nbm7nIYL1d20rj+8yW8mPgggWjuzz9U/qgCALCrWsoanL48//kSnkBAJ3W1nnjz209PYR5eG8a1a099294DAA6bg4ilePlwF3JFEm5ECMHS0Hhq1/EPDxtGzwq5VdnSTpsbIuDGSSPEkvCH4vEN++tbPPm629tKVD8HsCJEvIfigwSioLnqK6fLf/kVAAB+kdeXNDhpHF9BPE+40HeOsf3Hb07t3F5/fUhBdlVLqdzG4nOESaHzQx40l5e8f7DnoWVsvLzuWEHniBrZVaradjJ3QVCshLtQFCTg/HzhsOqWAwDnk7hRGGbVFBxs6Rg4hiRauDKJ3lleearSoxm8v+irK39hCAKjk3jRoiCB6MFr316WdwIALjLzd/H+HYc3nWnlRialzBOGEG5VXj6wLf/bK56NzZnbKgryjuX9u0YzHVONB5CDol4Qc9gMOptGAAAgPshm0NkMevCv2lxFtxOAPW/+Y4FEIJADGHT28B/H9asXdb8OZhXxsHhFAEFbV7m/Zbwad/UAn8v0sbZ/W9LY8MuvI561dF4vvWn38Z7LZ/vzGQSzXlNwvmSf0kWGTpOVwvEPI/xy6UfZGd2oSGvpKm/ufmAONZjtv8CPRv5FX/FjxQflup/dzYcauG4pX+hLZ/s8SAIADIE1l85m0NlelsvV1zUjq38HTpODGS3i0glYvLn+1A+t98MgODKbPBAcHOzZkRkZGXl5eVNbG+Qe6NtQRbd33+936+/La3lSxvGXs2M1ny766vg9umcX+Y1gr3j/oyc1763/sAKFUuTumsVjpbMUEUcdNs5KSkzlUkFfU35/xlEEmSh8xBJJiPmnahmKo8hdN4vHSu8LRO6LJVlP+I71tKVw83s5BVNZIJYn/p/DMbbqVqXScMuI908QpEiouoIz/5ra3c3u+utCZjlaxFN//GsareZ/D5dM4wA4gowBhdJ7y6o5+Ny+sbvJ7aap7tJ0dGjKy0KSosJTJFQy2Ls7NKV7z3yxV+nJ/J1x3PXXhcxqlKQ//DWdWv7Jjv8tuXnn1Agy5dBYKYIgv314PPSijl3knkFjpQiC/PahOIrcUyiUIgiCIMikoFCKIAiCIJOCQimCIAiCTAoKpQiCIAgyKSiUIgiCIMikoFCKIAiCIJMyi0MpNnVZbutrZw7FjLFb590vixSSzo/mjJfifha0deO/W197O3NmrPrBiknJe3HVP6WMu1GY74KPt6zKWx3FHicNjiScHxD6m/2+UoTJeS+uyokl3TkpgvwG/Wa/mmOjZ5187fxPy+KJAL4xu1pfO/Mlf+TujQAAgAU8FgBLwk7Bjtx3MpGyEj7c/PmH0vgxF9ubsQjpGfmtr+3NpgKA8I0/n2/dvCF2usrCBLzwp1V5meEsAPCP+eeWVR9LaK5T4gAAiHfn+4HF4gEACy4/pwAAQE1f/tSbj4ayZ+D39Q7Y8al5L2b8KRgACGkZq/L+O3HRzLhYQ2aWWfyptJUV/f35WmJH+xSvmedhWTgCkQQwnbt+IW7Q1v24o51gNnTdjcL0V/8nV02xmlrGTIGhEu7CFR+CIB6axaEUjIarRYYZWBYyFXqMsru2TrDd0nIdXUQhyG/YrAylQVs3fp7t13eV76g58+zyqhGNRWxsylfHxY79+/9azt209aF4Hp1gNTQXle7ZUdtsBAAAIm97yaoUYu2r8SfLrUOO5MTtLkwTqot+n1LaOrGyonP+vDtzcPt1Rubx1zL7fzcVbN7z3pDtU6ixgrXZCb8TMXxpYNMZlNWyY7srSpWjNxq/EyI9MTsxIzWcx6FSifZOtaY6/1LufkX/SwMAAF+peH12jCiK7kUEk7q9Or/kwF7l9aGvFEiRG5duyIqcz8E5dPrKo4WnXRU1ZXUGAGAmb/n7erG37tynb31eMV0XJljx409vGxgSMPxU+Nx5/cgkNH7O8zEs+YXsy9R1j/ATWDQKWFparh44r5D1vUMY73VrU9OpNz75ovhcz5ADCZxtGxPF1qYdX1bJnAAAFGHy/0sJ6H9Wf2Xr1/LhDVNC2vLlm24vks154b9XvdD3q1N/4IvC/CHbbdM5/DXxYXH+NDrOYTYZFc1NuWXNDcP+YxODIQkXClYI/EO9qRSMw2zskjU2nqhuaxjyQij+4evEYXEBNDoezKYumUJxqFKtGba3N5Y9f8G6OO4COgmsXVfk8tyfXbSq8fSAlZKopGBvFhHbazWpr7fll8kvot3+kN+gWRlKO4uK9hrnYIncjK0Cv7GT+UhSdmYyoLqpuA4fJOEL05fthK7ntqh6AMCqOnfBlJIZnizFlRfcDgy+qZHziaAsqGudcFnXviv8oJ4MALyVqU9FWSr3/1Cq6Xum55r8djIvacrufeIQMMiKZOUdVgKTHS+VviEJ2bv6YJ7cVb5jobHXHV6VFUXqUasqT9TprThvHjc+O81Wo/igaOBVZGZ8nCPwtRouF11u7SaFSPiLs1dFR53c8nzt9f4kuMitWe9l+2F1mvKjmm4SQ7Rx1UtG+4iz5ZTVuQ9TnJrEpgBQlqY+dKSicJq20nK0yqo+U+NgbvCaWNY46eh+Ua89401pV5df1bE4HCE/ZhuuJ/u7NgMAOLsuNhrTxSxxKOGc/HaEoXCDhUTQylV9cRQAbGrFZ4UawHgvlYaHuqqMrKrsEwUOMCTxwwtE1K5z55sa+o791aQYEtvYwsS3lnDoPV3VTU0dvzgoPgGihfFvBXvvOlJV7VY0xdDS05esCyH1/qy/clWj6cV6ezEWxD78dIdmV2N/hKMEx+Wkh7MxlhZlS7kJwwziiOMThYG1O3IVLQOvi70wMWdJAKWnq1qu6sBQhMKE7aPWyMX78t9aGROBtbSoVGe6eoHiHcuLeiGIxTl24VA7iqbIb8wMDKWm4t2514kGpRXA2HpkS+5p3fDrZQBTjfK7GgAONnncUEqNYlRu2b8z3wQAwBG8fTIjQRoTT1QVWwHAfuWsoj0zLj6dSy5QDpzUqItS2QTQlOTfbjLdsazOMsWpMgDAJSekPhVlaS2oPVUzKhGNu36XOMSoeG91boFyoDBJyseHxOu2Ci48X9c90TcHF701Y3UUSVeQt3VL3WArkxrF4w+ecWncdVsFvqA//vz+T8vsAAA0vw2Hn1slXbo+/eqb+RYAAF707zf6kXV1O5/Iu6ADACBLUj4+JB42ZWrCdbbVlL+35apFbgGAa/lndtbYW5XgQldDvaZ3Hhvfo5E1eRpHnZ2nC0qrbV2dANDZvP+0HvQjs9Kq286oATjeK8cNpeDrbSs8u11mAgAgaP70X8lLuWEJlLYzZgCAFoWqJX7Bgnkcurx54MNAEPFZFKfxnOJ2M7fXoD1j0AKOsyDZdSjVtLVpAABorOgFIqpJdrX54ugWPS08O5lD6ZDvOH6lv1kMtSxh8u6U8HWixuoy46gDxsSOe3hNCMncWrXj+6aWgYLw9IAFmIHYhvFeIQ1nY0wXv2mfvyAAACAASURBVD+7p9kGAICpT894bF3wgnVC1Y6fLAAARM6axACKVfvZoQtnjAAA+Gr+W6tj6ENLwnivTIuJAO2Bw8X5A81QPIP/1rMx6Umh53KbtAMJtY21ewxYTQcA2GoqSvfITFc869NAkOk0A2cE2q8VKS4UtHcCgNVwOV9RXGbyLCOH8vK/8geOVSvL6+xAY4Tw+h+wlcnK1eAlEcYPTgHlCaSxOFuNrMhlJJgEctpDyb7QeqK82kr15fT/kNVN1UqgisKFxAlnROSmPk3HWpUHd9QN7a01yZVVA3UmSAQJvtBTVnGobOCUZWz/10GlCUiiVG5fx6evNHI+Ea6fKS/W9SfpKSs5VTbsFOdGndXtpfmKKqUdALprlBfyVa0uz/69DQdf+sO2V176y9+Oqyb8ikeyNDSrL6pNvQBgNVY3qqs7PW0A/dyWKx/4dNhuVKttgKNwBsNFZ1t5B+A5wQmUgUeI/ouCCNCpvtjuceVdCxWERRBs1T+1qHEkOqX/x9qmUdiAHRww7uXAcBjvpQIG3qk/UXQ7jgJAr+FG9eCoxFyOiA7Q0XS4eeD61Gk6XdlmACyfF9j36vEhwSIimJsV5wb+jb2dTSdahl/PBoYtZYChUVHRgx+sM6XnRtUtwPsHDP109Bq0FxtvtPQAAGhvqi8qu9CcA+Q+NANbpVPGpr45ZOKJ3WQEANyDg3eGWjXni/QZa3nJUlxxvh0AAlMj54FdVqCY6nMl8Ob7UQGoG5/718bRT5K8iAAT68XDRnF4NHDUtFbrxkzjw/OlAlyTq4degJiq1deBz+MxAgFaAYLDGFiwX6sfOqplUShNILnd8piqOg/Ta1A23C9nUkO32nn7L7PVBkCg3L6dxVTSpF/jx0jgkc78ZAEAShh3AQE0jaqxp+l6hhDKogFgxY89KR79JJlMx4DWOfoJV8gMPg3AoK0Zux2L96WxMGDQdmmHPNir1TXbw0U+3hwMGJzA8fHCA7RoO4d06TpadUbg375Jl+3vTQcAYfI/haPKcBLoZI8+HQhy76BQOjaH9Q49SY35imtrE0XpPGq+wgT0xalsrFVZfMLDRvA4vLxIAPbL+/Py5KOqZDW5MbeERCIDQLdpnA5hMhEHABajfVhrrdvaA4AlkklEACuQvHAAdlP3sMpYjJahh0xZne9Xduf4O2RqFaqGBAZ/Hof+U5MBCIsiWHhnV7HCje7WiSHQSVhwGi+ery3/ZdSTNpNmgnEUAIgEPABYbeaxD6HgCXgAq214E9Pp7HUC4DB9LXA8AQMAJuuwt8c07MMBFCIJAFpqSnPVo3oFnLbWqf8KIcj0QqF0Ehw1sv8oE1dJhAk0xQWOICkKeopkxWM3+DxmslgAqHaNqjR/cvdMWCw9AOBF9QLoGSNJj9UOACQaDgtw+yznRSQDOKw9FisAgKXbDkCieuEAbodJEo00dNrRlNV5KDw9iE01ajSG38I+zz+ri2/GRPhzkuc05Ts5CYFY0KpKpr5NbTPbAABj1t+ouDm5nKy2XgAgEigYgDGiqbnX0QtAJAxfTAKDwWMArM6+YWezpRcAqET80A8QddiHA8x9s5B+6apoRmETmQlm4FjphFkcVgAg4sZeY+aO9OcL2h1EXnIaKSg1kguWy2eVrht8dy7L7oAxG8Gt9foewPEf4U1yjUOHXN1qBGxUiGjsNZU6lToTQGAUZ2hZVBEnEMCm1vf1Xbc0622AC5rPGHJ6JIXzqNNR59vwEWve/+ee9z/6xxvLg6Yqz7HZHVYn4HFYvOdZWMoV2l4cIyGcSucF8wmOBoVK6zKh02FzAGCw+DG/jk6rAwCwrj4+tpYOI2CowjBvz2vap0ffYgSgs2LHWAAKAHo7uzqdQGd5D13jEM/yDcPd7vHW6o1mADbLZ8hbhw3xHZapVttpBuCE+LsxlIsg97HZHEqNuhs6wHI4wkms1deaL1MCLvqppKdS/bBG1YUzY7TAJlBWd4cFgB4U7mKV0u4Tl0p1QJVK/5JJH3px7xUryFrr58YyOFbVqRMGB5GX9aYgcMjUDkIUN/r2dCpFpQ4IEvFq6UCXBc3v2SweFSzVZ1V9bdnOgqv1VghMS0geWDGYLEl4SjSsi2PK6jzIO0LAxgMAJVQYQblj6skyGDucQGGxOJP4ihiUqis2bERE+NN8Bt6uL24c49PhNHUYAWgsPtX18wA2Q48DgMp2FS4b5M0tdmBHx63xH/q2Ylkh4ekh7qx56+w6XdfVi2E8vSQ8dMj/Ej+HJfQZ+KNDXWEAYIav4A2EdQz18fhgOjhkjeq+JnevWi3rAUoY//GBkXO8T/jTocMuA3rVLec6AR+44E8xtKEXKxQfzjNChieXL+SIp/76/r697/8xmenB0QgySVg6nX7nVK5ERkYqFIqprc3d5TAaaBEpSVyRlMXisRZKQub7GOQNll8BMP5hT2eyScq63FODEzwx3GW/S+ZZrn5bdWnoKjidJuoikTg+iOcDPxcVfvRtp+um5dhlDTI8MPexdDYvPjjQhxS40I+/kEXRtd/oG1qzdsqUxLhUXkyqKGWRLzeKI0pdmLElLTt7YYS18dipic9CdbbX3CAuEj4siUpND+ZFsKKSIpZslGZvWYgvqShX9ZfVYGQtXhoUmypcGDV3XhJ/+bbHHuPhussK3n5T078mgLHjJi18cVLo75aFhYX5Ri97eNNWAbbjF5oXQXOu9ILcOaV1HmDusgdECwKwN84dOfKjZrpXB7KbHXNDE4ICHg58kOUzVxjE8u/VK02/AgAQGUtj/Bnd179VdA12NLNCIqT+2DbF1WFrR9h7CP68+CAWn4bpbavfd6VrjFpbOx5gSnnMmNC5TKpXVBAritoj0w0dTnaYyazHQueGc+Z6E8hspjefRem9Zezq64bt0df/Qpfw/GMFYfEsGpfJFEXwViyKWxfLod1S/vu6zXWZrhi1HTY/bnwwZ/F8/9C5XuGB/tJo4QYp3/uG4j+3fgUA+NXS1E363Tz/qIjQeAaVG8BOS4p9PIBgvvnTnh/a++vjMLY5mck8Vvw8Npc+J4rHW7uIR/nlFyqZcEulOHfTDgDg/EXebufz2MLwsBSuN5sxNyYkKC0h9ve/40Vjb+UPeWMnCB+T+dKzsXPneIdGkK+eutTx650PQZApNJtDKcCtmsY2om/kw6GieK5QFBRibfy2wOBwK5SCpcMr5KkkOh5MJbv//YNyzBkbY5U1yKFSyX6hciICY6WRYkn4Q0kBjsqKsoF7VKyqlrMFN+xeXoGCoGgJd17QgwSrQXbyx6OHG5U33bnRzmqsOV7XBhRWSIBwUeiChUwGGOUnS7493nFr4Nz9i7y+pMFJ4/gK4nnChb5zjO0/fnNq5/b667er6+woqZc7vMIWcqPjgzhzbfL9x3N+8HpyKePmYCidwjr3M7dVFOQdy/t3zbTHUQAAR1ub1kihRwWxhUFMfiCTequxPwxMPJSCQ/vr3MfmeRHAcfnHyn/rxrx8MGuvNznmhAb6i7gsfiBz/gP6bxu6h36WzO031Q9Q2SxmTBhbFBoQzX3wpqylYSBKGjuuFbf1EB+kBPv7RwUxQ72wtl+6Ltdd/bZe32F1J6o4rQ0NrUoLgeHD4HP8hIHeDLylSaE4Wa/vGPiH9RpulGqsVBo9jMMSBtC9HCbZldp/FDa3DIl+xpvXLptIXD9GVBArdI6z5cql3XXYxEgf82AoBXCa9EUNOguOzGQyFwSxQhkP4u2/NCmVebVtDSa3Px1Ok4MZLeLSCVi8uf7UD62/hcF0ZCZ5IDg4+M6pXMnIyMjLy5va2iAIgniMveL9j57UvLf+wwoUSpG7azaPlSIIMoPgI5ZIQsw/VctQHEXuOnQzzMxA5L5YkvXEmHOaLIWb38spGOtZZIajhOesj4sY67tu1x86UHhsyu93vctoEU/98a9ptJr/PVwyTaszI8g4UCidGayag8/tG7u73W66axuGIfcfc9ue/6cde1qss+s3f28nJekPf02nln+y439LJnlzLYJ4BIXSGcKuk+unYXEIZEawaTvdmMf7G2Qu2fOHklGbzyDIXYPGShEE+e1DcRS5p1AoRRAEQZBJQaEUQRAEQSYFhVIEQRAEmRQUShEEQRBkUlAoRRAEQZBJQaEUQRAEQSZlFodSbOqy3NbXzhyKmbINNSdbFikknR/NGS/FZBF5f//ptfMXUyKJd06LIAjy/7d3r2FNXekewF9NAskkBBSMUQgxEgUl6cFoHKA4FFrGcGxRjrbUtmipYAcfnHKmtba21XFOdbQdWp32yIy3turUorUIyhAHJaVSsCCBHoIGjQ2QKBlADDE0FxJ7PiAalFsuCIT39/ghyV5ZeyWPD/+svdcFDY0bLtHgk3x6/cus6rcXnq6gz9tZ8fRjkuNLX5E/PEOdACQCAIFMcGTvTDsN5VwRu9LfX2rMWS6vGSMrE/G3rt+1ypKzPHuv1Cf59PqXGRc3Liq8aBr8jXYi+bHDYoVCIXsaY7IvFQy32ptk1eeOfSdzZHcZhBByPTeM0qEyl0neeaXas0XTPirORfTwJAM8it3DxhhiaOralF8TobNd9ZOi2UjyZrODn1gcLAzJ/+NesQLTFCE08sZxlIJOe1miHbzYmDuXm7EYrlbmny8rudBi6N7uk+DFW7duXSw7/hVh5abymyPcPIQQGp9RGvh62v4MZve1Vqu08PnlFx/oLBIEcZ+dCLfu2/dm+Yy1rwsXcn08TNprktKPN1df695Bw5P71vmVcZ7V7y48XW57SZO1IKsonq+SvBpXqhzaucJ2rM9Kurf9ul/SifeS7j7Wi9M//tBmOxeagLcqI+Lx+X5T6GBu1Sqqar/OulDqUL/MJ3LBWxkRC0N9aKBvKqs5sEVSfveqMjE6+783iyzFmZ9sy7OtmRx3cP1bMZaCVz75SGLvGRnRme+sCZ/UenbP/+y/YP8PivoTJ+ttn1tvy74uV0Yv4czgskjlN3HBOITQSBuXUdoukXyq8yJ4zkh8ncfsv9jkyLhtSX5QdbVERgqMDOEvfXob3ErJbDAAgKnhbLE+LmlWdAyxXHw/WqaI5sz1BIVYphzyuZryiz66RAEA7nOihFBjxb5vS9XdRwxNdfeLecfEZWWHc0BbK6ktbzF5MAIWxsRsjeR8+sLh3Lq+6h2AN+8P2WRznbwkR07hhkTFRG3lkrcsLyxvBQBL+TFZq2jBwqUh3nmyjntvYc15KpIMqguFZfYnNyNctCiACkB9SiQ8eqHIFVtgdcdnlwEv7yKERgM3jFJ9Sdbx655ahQlApzyaefyfreoHxhzppYp8KQCLED1glNJC/Soy923L0wMAsHjvn06MiJm30LOhxAQAlv87I9ckLVi4dAZFrDD0vOM3ogAPUJ/Pu9/1GvRc7WXygjIAIEZHiBJCjUpxdYH0oUL0GWt2hnN08g9fOC5W9JwsMu6Tf4S//Dqv+BWbzBsKOs2Qc3jdWw16AIDzETvS3k9akLKqsiKrzQpgllQXKxYkRfKjWbL8ngFQzKVhj3lCfV7lFZsueFNe4TapRamAe9/51T7HHN2qv6Tumh1AMqhrr7pmK0nfiJAAAuh+lNVjlxQhNAq44WQYS5NEXizWtAOASVuTJy8pc3A3Rqui5qu8nveqFOUyC9D9ONy7L5jLastV4B3JX0jveQOXFyMgmqW1EsXDlTmFEi+MngLKk+VVJtoU1t1/FNXVKgXQ5s/i2z2zRV24v6HngxkrDldfA5gRE+J/9xVNQZ7a6jnjt0vvX3aOEwV4mBqKjmmtNrV0SBXFeQ1KHdz7zvtO9K76w2/8buOmN157+0SDvS3tyzRh0oogkk6ef0SOSYoQGg3csFfqMmZVs820FIteBwDEX92bGWpSn5O0Ja7iRscQS/IsAOAvmjMbLLViucbVLeHOZdIAaGkpX6U9fJDs7Qlg1xSU1tZrNh/MqtD8pIMg7hSOJzSZAACu59VUZzw9bymP82mpEoAg4MeGgl5SXezwLJ0uraLeNaOu6CFJG5fxKC1nt39V1uKSGhFCyFkYpf2zmga5FXclT960Kmr+Ui4tT64Hn1hRAMGkKDnpYCd4AN7eZABLzb7c3LqHmmTS19s7ldNoMvR+bugAYJEp9yJZdfmM5KkFIn6coHSvFPjP8QJBX5Qnt+8y8jCgByW8lxw9vb1s995vagyDl0cIoUcCo9QJVmnt94qolZH8CLq8mMVbFAoGSW1Jq+tPpDcaAWgWdUNpnismnpI9Kb2fU7wBdEbD/Ug2luZdbhfNi31uxud1EBfrA6qLYrETY3xIPoEBNJ1arXXiiiyVnfBesoitq/xk75HvbzteD0IIuZob3isdMqPVBACeRA/Hq2g7J9ZYPbnR8eRA0ZwZYKw5o+i76zb4uSxW6DerlJfaDEAMeYLrmjUOp0wLslmekMBlzqSDVdWqtOndmiUXJSqYEsuLXjYvYgooxdW1Di9jRAp+8S9/+/gvu/+6dXmgo3VQ2aLNKSL27bLdez47jzmKEBpdxnOU6lpvtAKBxeJPcbwOZV6tAohhCYsSREyCrqG4sJ9e4xDO1dFiBPAJnEXu49DJytJWoMXEvJbkY7v0oLeAl7yKaf/Ch8z41Bm0u4/J85PnBQE0SOTXbYuYNIV5GusUfvqmEG9QnzumsfZRz9BMCuYFkACAOpMfTHWkAio7YXNKAuvW2R17Bu2PMqJSt/81e/e7y/kOnQohhBwwni/wmtTiHI0oIyTjy2fnlrUZTGCoq/4yT2tfZijkJdKYtZHhSwA6xNXlOsfPVf+tonXVgoWbVr4VdFmps1hM1kZx9cXukT46RfbGCzOzw6N3pAc/J6+S6c2eNH/ejLBQmll8NOcQ2NdmnRbiV/59lrxCpqdwQ6Iifayqi/v3tT1QifJY9aW0eD4dzNLas86MSW65ID7/pH/4pNaz4koHJsNQwtaniGZTDI2NfrHLUmJtjtxpr9x/RtbrK2eEL4kP9gfwf3ZlzLna07jAFELoURjPUQpQ/+nRbZ7PrEniLlkVQgDoyFPm2BuloC0Wq18WzPAAfUVewwBDYQY9l1lStGU7YW3yrKi0uDgAAL1Y1ROlAB2SooynlUkZEdGR3DgBGXT69hZtxaHykrwHZ80OyqoofzcLXng9IjbJhwL6JonkwJbSiod/BKhkxVVx/EioyZM5d/+3pWTXayUOv5vi50sBAAo7JIzd+4i1UXUEekdpi/R7aTxHwCCRJk2dCoBRihB6FCaw2ezBS/UlMTExNzfXta1Bo4nnjD+cT17iKd+26Hhxf73tUYkUnnlgQ8Cp9DeO43QZhNCjMJ7vlaIBMZMioqdAa2Fl6ZjKUQCfyCcFHmppJeYoQugRGd8XeN1Hdw+y3zFNxqL0D3eI+zv6QFXMuAwuewrr8WVcmq7h8/0N9l5AHkkkRtTqN9fwb53Zltcw0m1BCI0bGKXuwaQ+nJLd/+V2i37oCxXRpz2VEbMALO0K+efbT+W6ehHEYcV99p21fPXJbXu+qXXNar8IITQEeK8UuRMSidTVhSvzIoQeLbxXitwJ5ihCaARglCKEEEJOwShFCCGEnIJRihBCCDkFoxQhhBByCk6GQX0hUCeTeu9iY+1s7xpLM0xH3kQPGolq+yWa73Tq8TtEyB1hlKI+eEzbmCMU9nrp5v7k705oRqg9Y5JPavaiZ5i2130MZzb8a1fNnRFrEUJomIzrKCVykuIyUkOCuTQKAIDio/84WjDGFskbVprGPX9vbr/7xHStfcDC6EG6U1nllR4TAABgYtDSeasXjnCDEELDxQ2j1Cf59PqXWdVvLzxdQZ+3s+LpxyTHl74if/i6GiFy0eYdC/xb1cWHajS6LgCt3OHdrR8J/tb1u1ZZcpZn75X6JJ9e/zLj4sZFhReHsc16fU1p8yDLJNEfX7nhv8N8oUX8VlZ+HysjUThLliTEh8xkeIG5XXOppvCLczXX+9rj3F+47v0VPB9QHnz/w1PDsrk3yY8dFisUCtnTGJN9qWC41d4kqz537DtZ8wPtGazNlMnBi4SRESGsgEm+kyjQ2a5R1FeeOne2pnezLaqalp5vbyJEYWcUIfflhlE6VIERXH+wVGQd3pHT1592NDiKYFnma2G+BOhnw1Qi55V1mc8wSNobNeflXT5snjB2bTA7Z9Pekuu9C/rxUjav4PkMa2OJoalrU35NhM521U+KZiPJm80OfmJxsDAk/497xYp7/wUGbzM9dsVrqUHQZdA03qhXdpH8/GcKIv5LwJv99z17xNh1R2g8GsdRSqOTCWDRd2COOoY0OzbjDxFMc4umk8H06qsE58nn/5NB0so+23C4sg0AiMzla99+KShhtbB6e+X9K+n0kKR3Vwp9b2uaicxplGFrr8VwtTL/fFnJhRZDd/ATvHjr1q2LZce/IqzcVH5zyG3uamssOfRdyb/kmp51fn1jkzes5/FeWiIsO1yJtwgQGn/GX5QGvp62P4NJ6Hkal/1e3N2HtvdKafxVYaInZs3l+kxm0Cig19SpS49Jvsxp09tURQiNyj4dQz30WcqnkPhOXEIMcwodDK1tNfty/7SvzUqf9+cfnw7MK5JMES6bTzMoaj7dWBu4KXHFfJpVJf88Mze/7n5VTFHUy2n8+aE+3p5g0On/LVNfPCY5YPc+5AAAQBWs2ZoZx7j1wxfbPj43XDuNUUNeensxZ+IN8Z9PmlPWJfQVpawYHosAmnPnKtsmR7+XzDz1vzn5xTVPpwjD5s3zqyxp6y7lFfna89HsrvpDB88xktcNY5RC/YmT9bbPrbdlX5cro5dwZnBZpPKbXUNts+GHMzm9a75Z8l3FCt5T09gzZ0JlzfB9AoTQKDX+orRdLNnd6gUA/oufSookXj4kLrzWfeRWzb37jp4BiZti5reo5YqGS2V6A9A4kSFJO7gL5x7N3NKg710hjTFr7ZfhCQz9FZlCYSJP4wXwQ30I0NadgsylEWF5suKqkLjIBRtO8NqrZEViZvRS3pqMy8Xp8u6qaKL4rOwFTF1bhfiiqgOoDD92aEji0qufOxSlFEF8HIdKAmpE/KKvzp1oduhbGlSn4uzpyo6mgvxLXqK+S3jN5DIAbv8kuwF0YSh/+rRm/5yaxvqfLELB9JlBxJK27ssBt6tPlc+sl+fk3gh4dXiaOoDuBXu7DD1XJobY5j4qstwBAEPXz4+i1Qih0cYNo1RfknX8uqdWYQLQKY9mHv9nq9p2zJG+TlFQBwDAD4pKiiSry6sLHt7I06Q+/MKH26TG+0nmyUw9nbYyaVHc/obc3iNxaDHh0XXnX1teevluj5bMCSXeO6O1rvyDzAtN9ObJFYkRpobP0wuLdT4d3PUvh7JYnvLLJgAgzl/KY4K2IHPfR5L7t+z8ucQHhko15RVuk1qUivuf8WpfY47MylpFp2AOtUtTe6VtiN+ZAyyqE1+rAIDQ57VdAMJkpi+AtV3zbwDGZL+JQJ/GIEHjzRYDgJffdDrA3duKhpozR0aoJ+cbERJAAN2Psvou+9r8oEB+GBOgWV597RG2HiE0arhhlFqaJPKm7ocmbU2e1qFK9Erp3UcedDLNm0gA/dU6PXD9OFyABwe1ar7eeC9HAcCotLlya23RawDApG1tAYC2ZhMA6Fs7AFg0354yHp5EeHDkjuW64sEeUIdUUSx96DM+xKrO3/p7KWeSWaVsGcFtUiZSfkUGAEtXJ4AXkUQAEoVIAfjZYADwolBHwX+8acKkFUEknTzniPzu9+RYm0nTRb/7DRPay74oVjpyQR4hNOaNgr9oo5O3YF5yxoKI+Uwm3fZlI4X+YEmr4nJp//tjm03diWgxAFhNXWZTz4uexJ6FcCw13zZ0xHCX7EpjFsovVqsuVamvKIzO/FHu0qqvOPYTYnjcvq2zAt1gMQB4j3Rb7qKHJG1cxqO0nN3+VVmf95OH2GaCl3B9csLsLuXRwzk/GIapsQihUQ6jtC8ekTEfHowKAm3FSck3l7RtHUYrEFlL41NjiAQgAvTuL3boB5wB0VPYBABgO7nw3tCn1kPHN5hiViWHzE+KWpgEAGBQKb7ekvu5xOiSjzMi7hh+NgJQiSQqQFtLWyfQW1q6AH5FoQCAoXNEx03TgxLeS46e3l62e+83NTb5Z3ebvcLWrX1pEV116uCnx27gTqkIjVsYpX0gRiQvCPLUF2Xu25F3P8wiYp7pu7ipn1mVdrBcyynaklMEnmROJDfquYgVIm7yrvimRbnFDk2tIFADOAx9o1I7gn/dre2amwCMycypAM2Kb/PLf5I2AlB8GRQAQ9uNkZsyQmUnvJcsYusqP9l75PveiyrY12YvXvralNjJmoKDuw5eww4pQuMZ7gzTB7IfgwzQVl9m0yn0ZM4TkIf9p4fJqJTIDqcfzpZYgB4wl+dIHYSAhK3Zu3f+5W8frOaTXN1AO9z+SdEC4DWTNx3AojxxskQJQGLPnEmErhs/XRuhXimVLdqcImLfLtu957PzD6+pNPQ2U3ivrk37rZc69+Cu/ZijCI13GKV9MLa1GAH8+JHknleInFVxi1kAQKS4/mYfkRPJnOJp84InjckgAuhvOjQp1IPD51IBgOTPn+3nmhY6RiWRaazAfPJJ4d1mEJkJsUIfMNRWVzs0tJgRlbr9r9m7313OpzrUICo7YXNKAuvW2R17HuyP2tdmL96r69JEXj8d/WzXIVfkaOCTmTuzs7M2xM8Yyd8+CCGH4QXePlgqjtU0icKjd6btEskvqWByKDcqklwrVvNFAb5T7s8ZdRHywtfT1nC1V6qUV1WdBqAGxcxZwIJWcfmZ/kczDcAgLSxSBscxbv1QeH64FmgAgMnC1MU8HwAgsxgABK+wF5N9Oy1wRyc7WlDZPZlV+V2OmLduCS/lw9fmSa93+bB5AgZJd+2bQ71WBGItWfHUHBIAkT6TDgDMmBUpwUYAuFlyMr/SNqcY4Uvig/0B/J9dGXOu9rS9fodVIAAAFkNJREFU46ooYetTRLMphsZGv9hlKbE2R+60V+4/I9MNtc2+S1amiRgk3Y2uwMiX3oi0PYeq4OjZy3a2C4ATnbCIywBgrH4u/OwH5/GeK0JjDkZpXwySojfTDekZ8+aLwoNNek3d1X+kf3tCwftIFBAkYHlDm0tXWjVePFbKWTwjmDdHFEMmmIwdKk1R1vnP9zU4eJZO6YE3Vh1wZQv7QPBiCcKE0+49pzDDeEwAgPaO0z1RCob6/Xt2/XtJwuKQ0GghGNs1ld+d/ceZysZeNXkH84SP31/kiMIJEXIAAJTKM9ArSluk30vjOQIGiTRp6lQAu6PUz5cCABR2SBi79xFro+oI3I3SIbSZPnUSCQDo03mPT3/wHNLjZy/bfe1affGH+iemBvuQSL6MqQBqe9+PEBppE9hs9uCl+pKYmJibm+va1qBRwiPgTwVCYdOVtzZc65m+Okq2/iaFZx7YEHAq/Y3jw9jjdo2JHpM9eq5ETwh79Yk3Y38ZYL9SavzmA6th35o/nevs8zhCaBTDXinqV+DsHTmze56Mjq2/fSKfFHioxZWjPkcBwCd194Nbf/df2P/JRbNB/mUt5ihCYxFGKeqDue3oOxfOeNi+NPJbf5MYUavfXMO/dWZbXsMIN2VIbp/KuvAjzTZKLU2Kvrqk1BlPpv3hhQDV8S1FY+EnAkLoIRilqC/GyxXDtA6+w7jPvrOWrz65bc83Y6Tr1qWq+fcgG6cDAJAEqzeuDrj8xZYDhUoccYTQ2IT3StFYQSKRurrcMWzc9oMhNG7gvFI0Vrht3LjtB0No3MAoRQghhJyCUYoQQgg5BaMUIYQQcgpGKUIIIeQUnAzjXgjUyaRe00FHyypFAyBQaUQPm0abzdYuvWV0txkhhGxglLoVj2kbc4TCXi+NjlWKBhAYtPNAaJDtK2b1B4mVEsxShNBYMa6jlMhJistIDQnm0igAAIqP/uNowchtSe06msY9f2/uWZto5FcpGoRG/b/vdNC6H3v8avGrjz0+eWQbhBBCdnLDKPVJPr3+ZVb12wtPV9Dn7ax4+jHJ8aWvyB/u4xAiF23escC/VV18qEaj6wLQyk0j2R7X0etrSpsHWWeH/vjKDf8d5gst4rey8h3azG1QJD92WKxQKGRPY0z2pYLhVnuTrPrcse9kzb32TjH/fLni53vNmpsyLG1BCKFh5IZROlSBEVx/sFRkHd6RY/e2WGMcRbAs87UwXwKASzde7Y0Ymro25ddE6GxX/aRoNpK82ezgJxYHC0Py/7hXrBhvXzlCyJ2N4yil0ckEsOg7xtsfddLs2Iw/RDDNLZpOBtNr+M5jMVytzD9fVnKhxdAd2AQv3rp162LZ8a8IKzeV3xy+MyOE0KM1/qI08PW0/RlMQs/TuOz34u4+fOBeKTksLWblcyEhLBoFLHqdtqlKUbRPUiC1jd6hlBkyqmDN1sw4xq0fvtj28bnh2iKEGvLS24s5E2+I/3zSnLIuYRijFOpPnKy3fW69Lfu6XBm9hDODyyKV38TF8hBC7mL8RWm7WLK71QsA/Bc/lRRJvHxIXHit+8itGpt7pXM2Jf85jWlVNZSflLWaiFNYfsGRC+LrygukervKDB1FEB/HoZKAGhG/6KtzJ4ZpY5ZOxdnTlR1NBfmXvETDc4aBdMdnl2G8XQlACLk3N4xSfUnW8eueWoUJQKc8mnn8n61q2zE++jpFQR0AAD8oKimSrC6vLhA/VIdnwG+XMT108h3Ljxe13nuR5s8w2ldmCO25x6ysVXQK5lC7NLVX2hz76ENhUZ34WgUAhOHskPbDNyIkgAC6H2X12CVFCLkRN4xSS5NE3tT90KStydM6VAnRwxMALGbbMb0m/XWVvWXsaI9Vnb/191LOJLNK2eKWSTNNmLQiiKST5xyRu+XnQwiNW24Ypa5gUpdK9KKlvA2naRGSq7VS9aUyjbLVYncZO3Vp1Vcci/5Rjx6StHEZj9JydvtXZcN1HxghhEYGRmnfLOUbP9uiinl+KTd21Yy4VQBg0Ugv7t1YVKKwqwwCAKAHJbyXHD29vWz33m9qDCPdGoQQcjGM0v6YtKVZuaVZ4DHFZ25kSOyqCJEgfMPWW/UvXtTYVcYeBGoAh6FvVGrd6QIolZ3wXrKIrav8ZO+R72+PdGsQQsj1cGeYwZhbtTV5Fz564VRxK1B4rGBPB8sMihCQsDV7986//O2D1XySk40eNahs0eYUEft22e49n53HHEUIuSeM0r758GN8KLYvsLwm0QE69C32lbGDB4fPpQIAyZ8/28+hGlyMKnjxj7uzs7enCHwcrICdsDklgXXr7I49LumPMqJSt/81e/e7y/lU5ytDCCGXwQu8ffIMSMpODNNpaqvUKpVxIoP5WAw3yNN48XDlFZM9ZexhkBYWKYPjGLd+KDw/jANzJgtTF/N8AIDMYgAQvMJeTPbttMAdnexoQaXtZFaKIP4ZfgAJIH71f0qkXzbYeyJK2PoU0WyKobHRL3ZZSqzNkTvtlfvPyOzeOIARviQ+2B/A/9mVMedqT7vp+CyE0BiEUdonk7po30WInMGJDJtPJ4JJr6mTHT0kOZSntdpVxi6d0gNvrDrgok/QH4IXSxAmnHbvOYUZxmMCALR3nO4dpYb6735Q8yMCSIRJjKkkaLD3/i3Fz5cCABR2SBi79xFro+oI2B+lLdLvpfEcAYNEmjR1KgBGKUJotJjAZrMHL9WXxMTE3Nxc17YGOckj4E8FQmHTlbc2XLs7ldXZrb/npGZvnV+1JX3/ZZc0sC8225V7eK3cFvkM80b/+5WSwjMPbAg4lf7GcZxSgxAaLbBX6oYCZ+/Imd3zxKmtv6mC2PmMm1U/DOfsnj62/u6/sE/kkwIPtbgScxQhNIpglLoVc9vRdy6c8bB9yeGtvwk+guffzFwE5//6de1wTs7RqPdtvU2zfcX886W+0pTEiFr95hr+rTPb8hqGsT0IIWQvjFL3Yrxc4aJ18Bnxb2ZGmcVZW76sHN67kuaffyz9efBiwH32nbV89clte76p7RzWBiGEkJ3wXinqB4FEsnaNprUiSCRS16hqEEIIdcN5pagfoytHAQBzFCE0SmGUIoQQQk7BKEUIIYScglGKEEIIOQWjFCGEEHIKToZBjrJZpeguJ1dWGocmetBIVNsv0XynU4/fIUJjDUYpcpDHtI05QmGvl5xaWWlc8knNXvQM0/bakOHMhn/tqrkzYi1CCDkAo9RRHknP5u0IudehqNjy57cPWRwoYycyZ+kMb6m8RuVcNS6jadzz9+ae9ZQcXllp3NKdyiqv9JgAAAATg5bOW71whBuEEHKEG0apT/Lp9S+zqt9eeLqCPm9nxdOPSY4vfUXu8mtm5qrK7O1KAoB3RERyTN87eg6ljF0idqW/v9SYs7zfKOVvXb9rlSVnefZeqU/y6fUvMy5uXFR40aFN34ZGr68pbR4s1/2F695fwfMB5cH3PzzVz8alrirjHJIfOyxWKBSypzEm+1LBcKu9SVZ97th3smabn0CUycGLhJERIayASb6TKNDZrlHUV546d7bmtn1lAMCiqmnp+fYmQhR2RhEam9wwSh8VRUO+ogEA/OnzXohxoowdiB6eZACj8xU9Sn68lM0reAP/jnBVGWcRQ1PXpvyaCJ3tqp8UzUaSN5sd/MTiYGFI/h/3ihV305Qeu+K11CDoMmgab9Qru0h+/jMFEf8l4M3++5494vahl0EIuQ2MUjSc6CFJ764U+t7WNBOZ0yjDW8YFLIarlfnny0outBi6N50lePHWrVsXy45/RVi5qfwmAAB0tTWWHPqu5F9yTc9awL6xyRvW83gvLRGWHa7UDbUMQshtjKsopYdsPv9sVIvk1bhS5cNHPblvVayM67iQEVd02UTjrwoTPTFrLtdnMoNGAb2mTl16TPJlTpt+eJpGE/BWZUQ8Pt9vCh3MrVpFVe3XWRdKe/pBYTvWZyXd64/5JZ14L+nuY704/eMPxfafjypYszUzjnHrhy+2fXxu2HYs84p87flodlf9oYPnGMnr+o5AV5VxjfoTJ+ttn1tvy74uV0Yv4czgskjlN7sAAAw/nMnp/a6bJd9VrOA9NY09cyZU1gy1DELIbYyrKNWp6xQQHcqaSwflQ/0CApfJpYO+THnNBOAZkLgpZn6LWq5ouFSmNwCNExmStIO7cO7RzC0NLk9T75i4rOxwDmhrJbXlLSYPRsDCmJitkZxPXzicWwcA0JRf9NElCgBwnxMlhBor9n1bqu5+q6GpzpEzUgTxcRwqCagR8Yu+OnfCRZvJPOR29anymfXynNwbAa8Od5lh073wb5dhwPFiXZY7AGDoGmiLm6GUQQiNSW4YpfqSrOPXPbUKE4BOeTTz+D9b1T1jjvSyqjYQMIPnQ4HkwbfR5rP8wXJJqjYDgEl9+IUPt0mN1nuHPZmpp9NWJi2K29+Q69rRs/QZa3aGc3TyD184Lu7ZYpsWGffJP8Jffp1X/IqsA6C9TF5QBgDE6AhRQqhRKa4ukPZdWVNe4TapRamAe9/D1b7GHJmVtYpOwRxql6b2SptLP01vhpozRwbrgbmqzDDxjQgJIIDuR1n9AIvpB/LDmADN8uprzpVBCI1NbhilliaJvKn7oUlbk9drs02lVNUB87gCH5BowTMg9cv4hS0Xt6ZXXweYNZfpAdrLZd2DevTKnqzyoJNp3kQC6K/W6YHrx+ECuDRKKfHC6Cmg3FdeZaJNYfW8qrpapQhPnD+L7ykrtWf8bYdUUXy35Tbfw0Os6vytv5dyJplVyhbcbmUA04RJK4JIOnnOEXm/3xNpuuh3v2FCe9kXxUqrE2UQQmOWG0bpQMxV16+a5oWGBlBAa54/5zcCpr+Jt5BVnavymcOjQevV/+vpF3oL5iVnLIiYz2TSbSswUuh9VOsM7lwmDYCWlvJV2sMHyd6eAMMzlaVLq74yvHt6j3n0kKSNy3iUlrPbvyrr734ywUu4Pjlhdpfy6OGcHwyOl0EIjWXjLEqhVXVZBQu4rGBPWUfEjCkKRQ0jYH4kObcwIJgL5qqGSyYAAI/ImA8PRgWBtuKk5JtL2rYOoxWIrKXxqTFEAhABnFxmoRdvbzKApWZfbm7dQ9Wa9PXDOCUUDYQelPBecvT09rLde7+p6S//vMLWrX1pEV116uCnx270020dShmE0Ng23qIU2mRVekhiBrNolki/65LCAtbKjCcCaC0sjicopWo9AAAxInlBkKe+KHPfjrz7kzgjYp4ZjgbpjUYAmkXdUJr3SCeMEqgBHIa+UanFv+4Po7IT3ksWsXWVn+w98n1/a0F48dLXpsRO1hQc3HXwWj9hO5QyCKExb/ztDCOv1hjAb25kyIJQfc236opvGwjzZ0UJmFNAWy/tvuJJ9mOQAdrqy2yyzZM5T0Du86eH1WQBAA/PgX6VDFBGeanNAMSQJ7jeg7fdYnVRh5gQkLA1e/fOv/ztg9V8kktqdCNUtmhzioh9u2z3ns/O95ejFN6ra9N+66XOPbhrf38ZOZQyCCF3MP6iVF+lbAJycLJwrk5ZUQX6YoWCzl2xlEkwaWqruosY21qMAH78SHLPm4icVXGLWQBApDyUeO0KrR4gUBBA6/+kA5TpOFlZ2gq0mJjXknwINq97C3jJq5iEBwq3GAF8AmeRwTkeHD6XCgAkf/5sPyfrGl0YUanb/5q9+93lfKpD76eyEzanJLBund2xZ6D+6Kvr0kRePx39bNeh/vujg5dBCLmJcXeBF0ClvqSCRK6fXiypNQG0Kivqnl4rAKtUdenuZFNLxbGaJlF49M60XSL5JRVMDuVGRZJrxWq+KMB3ig8B2mwHYZollcUqXqIo8aNsWY3KaAHDpWMXShW9zjlQGZ0ie+OFmdnh0TvSg5+TV8n0Zk+aP29GWCjNLD6acwhsz1X/raJ11YKFm1a+FXRZqbNYTNZGcfVF+0cUG6SFRcrgOMatHwrPD9sCDQDAWrLiqTkkACJ9Jh0AmDErUoKNAHCz5GR+pcG1ZQAAgBG+JD7YH8D/2ZUx52pP2zuuihK2PkU0m2JobPSLXZYSa3PkTnvl/jMyHQCA75KVaSIGSXejKzDypTcibd+vKjh69vJQyyCE3MY4jFKT5lKdMZFFrP22wQAAoK0o06wRMDWyhtaeIgZJ0ZvphvSMefNF4cEmvabu6j/Svz2h4H0kCggSsLyhrdcqqib13vRcwqZF0TELlnsCgDa//MEoHbhMh6Qo42llUkZEdCQ3TkAGnb69RVtxqLwkT/3AKvxmSdGW7YS1ybOi0uLiAAD0YpUjUQqd0gNvrDpg//vs5B3MEz5+f3EiCidEyAEAUCrPQE8EuqoMAAC0SL+XxnMEDBJp0tSpAHZHqZ8vBQAo7JAwdu8j1kbVEeiOUvrUSSQAoE/nPT79wfdLj5+9bBliGYSQ25jAZrMHL9WXxMTE3Nxc17YGjSEeAX8qEAqbrry14VrP9NVRsvU3KTzzwIaAU+lvHB/OHrdLTPSY7NFzJXpC2KtPvBn7C+5XitDYMw57pciVAmfvyJnd82R0bP3tE/mkwEMtrhz1OQoAPqm7H9z6e8TaghByGEYpcpC57eg7F8542L408lt/kxhRq99cw791Zltewwg3ZUhun8q68CPNNkotTQrskiI01mCUIkcZL1cM1zr4juI++85avvrktj3f1HYOXnoU6FLV/Nu1SzojhEYARilyI4rjb6z5sgsXnUAIPVrjb14pcmddmKMIoUcPoxQhhBByiuMXeJlMZnp6+sBlPv/8c4frRwghhMYEp+6V7v9y/wBHU19IdaZyhBBCaExwdtiR0TjQdiYGA86SQwgh5OacvldKvsPyuUPHW64IIYTGK2d7pbyEtsIXzQATdE2ULz73+aAKQxUhhND44mzyXT0/af0Hvv/zNaWD+fP6dbdjPQZ/C0IIIeROnO2VmppJJ5tJ8D1ZF2j8cIHpcX8oVrqkYQghhNDY4KrrsRNatBNh4i/0hzbGRgghhNyba29t/uLS2hBCCKExAEcJIYQQQk5xXZRaJwAAGYcdIYQQGmdcFqUttycAWHmzcDVxhBBC44vLolRWRpGZf+Eua9/7nPHxQCvL5xfcvw0hhNB44LoLvEqvtZ/QFHe64l9s++qT5rIdt/0nuKxuhBBCaNRyXdcxsPOT3+m5HkTZt9TcWlJLGzFI4LK6EUIIoVHLZVHKW9Q5nzpB8Y3vsi9IJgAAyMAoRQghNA647AIvw+cXAILs8t0cRQghhMYJF84r/QUAjGbX1YcQQgiNBbhEA0IIIeQUl0UpnfwLwAQT9koRQgiNM04POyLf4U66M5VteD7MCmaPq2pXNAohhBAaO1y19TeAmfj9cXquzgVtQgghhMYQZ6P06vlJa5vumHQTr/5EUhld0iSEEEJoLHHB1t+FzS5pCUIIITQm4QhehBBCyCnO9krJZPIARykUipP1I4QQQqOcU1Ga+kKqq9qBEEIIjVET2Gz2SLcBIYQQGsPwXilCCCHkFIxShBBCyCkYpQghhJBTMEoRQgghp2CUIoQQQk7BKEUIIYScglGKEEIIOQWjFCGEEHIKRilCCCHkFIxShBBCyCkYpQghhJBTMEoRQgghp2CUIoQQQk75f1ueD6LwAbn8AAAAAElFTkSuQmCC;" vertex="1" parent="1">
          <mxGeometry x="350" y="30" width="552.3" height="420" as="geometry" />
        </mxCell>
        <mxCell id="6Ha6fiWHf-EiZPGUzSEU-90" value="" style="shape=curlyBracket;whiteSpace=wrap;html=1;rounded=1;labelPosition=left;verticalLabelPosition=middle;align=right;verticalAlign=middle;" vertex="1" parent="1">
          <mxGeometry x="320" y="815" width="20" height="175" as="geometry" />
        </mxCell>
        <mxCell id="6Ha6fiWHf-EiZPGUzSEU-91" value="" style="shape=image;verticalLabelPosition=bottom;labelBackgroundColor=default;verticalAlign=top;aspect=fixed;imageAspect=0;image=data:image/png,iVBORw0KGgoAAAANSUhEUgAAAgwAAADaCAIAAABFHI1DAAAACXBIWXMAAA7EAAAOxAGVKw4bAAAgAElEQVR4nO3deVxTZ74/8G/J3sSQYCAsOSIQJAhRIUiBQSkqU2itlFFrrVdHa3XGDt6xdVo7M12udZxb23q1t7bOT9uptWM7Vh2kY4VeVApSoMiiBjRA2EwEApGEmDQ7/f3BFpYoBKiI3/fLP0hy8pwnEc7nPMs5z0P+/v6Ahuchig2y1ckabxkZPhHJK9JCO07sO1pxexQlkCPWvZVm++KtLypto9s1eRqXYQW/lI3r/K8e2P9/zaN7N3pgMT084Ef6/F//NsGY8d7RCsO9rg+6/5HvdQUmNQbxiydT0lh0sk3f1lSV8fGZUSXEWLAjV2x7LMDWVnnmqwuYEGikyDMWb3424uEfm374KgMTAo2Lh7AlgRBCyBm3e10BhBBCkxeGBEIIIadGPSaxZcuWu25z8OBBlyqDEEJocnFl4PrA3w/c4dX059JdrQxCCKHJBbubEEIIOTVOIeH2kyeny5M+PoUhhBCaJMZ6nYTnvNvvbTT8YoaNBiD/Fz/5M8q4VAshhNBkMLaQoFpe+V3nIh7l+39xT8vJbU1k8zhVCyGE0GQwtpDwNkfxAKpYWz9jto9ThRBCCE0eYxqToLn/RHMDnYakG6/qIIQQmkzGOHD9Ex0A4KHxqAlCCKFJB6fAIoQQcmpsIUECAICu8agIQgihyWdMIcH2sbEBOjuwOYIQQlOTK7ObaMwuNuUnfpDpP39lonVRLlyi4MxXhBCaklwIidub32p5RfgTAICFknVw+q5r410phBBCk4MLIcHIOsSTc39y9zU/k3Y7ZaPm9/We78jHv2YIIYTuORdCgiyvpskBAOjfW6y5m0xPJVjfl2OPE0IITUFjGnNuU1J0AO5snN6EEEJT09gmJtnHoQyEEEKTFh7gEUIIOTW2kLA8ZAKg0bto41QbhBBCk8qYQsLcQqk1AS3M8PsYq9DLjosOIYTQFDO2loSOfugUo51i2vxHVe7hlq9WWbFJgRBCU8kYV6Z76Puvpkd+bQ8PtBPsn8xKXHQIIYSmlLEuXwoAYCJVXiNVjkNBCCGEJhec3YQQQsgpDAmEEEJOudLdlP5c+rjXAyGE0CQ06pBobW3NyMiYiKoghBCabLC7CSGEkFMYEgghhJzCkEAIIeQUhgRCCCGnHryQICUvPdHwetaxCPcRbU5fduz18w0bVgknuFoIITQZTZ2Q4Kw98/r5K0ujaQCeEXsaXs/6u4g63HYkoJAASHQSaeL3NX7Yv1i96+Sej05uXzZsWjG85j+/4Y+H/+v9k7v3frr9hd/MJ5gulYMQQgONx2057i+Wwtw/P1dBa2vtuNc1GTFG5FPbfj9vOql3ladBKL5LXt/8q1CGsUl2qfw2Ozg8PHlFiHDae3+6oLCOphyEEBriwQsJ0Gmv52rvdSVGjjJrUfpLsd6WtlaDl/e0YTaY/sulT4YyjNJv3t2Z32oHIF2I2/Gf/zF/8TPLLr97qmPk5SCE0FBTp7vp7mZs3/R/Da+fb3j9fMPr/3cqymPYjdi85J2rPy75Y1bDH0/krN6cyqGMYY+MkOU7P/nnPw7+eWmAi8UwRf/xx8cC3Jqz95ws0Qy7hUfEwiAK3K74V2ErM3zD/tXzmR2FJy+1AjngF/O8SSMvByGEhvEgtSQ6cnMP6KaRaDPTtod7D78JJ+3ghvQ4emeVLCdLSyKET+xZrde5vEOKaPHj4RwKQGTy4sCsj6td6OQxyM+dudR545uvr01LHnYDxoxAAsDYVFltgznicP8QEJMvldQpdAu9Bf6BTGjVjawchBAaztQJCX3e3hM3aVq5GUDX8OW2E2fblZZBW5TLvy4HIEgJTkLCfVXS+ji6vjBr63OlN80AkHMyfcMH21ku7AsAAKw3qut1iyPZoK2pVLo4DGBTnDqpAACSkx4iL4/pVIC2jk4LsL24DGDwvNnQ1dFyCyDAw9sLQDeychBCaDhTJyRsN3JlN7p/NGsvZ7ow6kCOfkzIAlPO55dv9i6e1HC0qGTTygS2i/u6dX7376tDvC3KmjbD6OszIjQGhQRgMhoBKFQAAAaDDvbbNisAMChD8w0hhEbjQRqTuBuOP0EGUNdW2fqf07XWKsZUqE5ZPXEJAQAAfaMdP942WgGMRtNE7g0h9GDBkOhDo9NpAGAydTo+azJN7iVZzcYf7QB0BgPA2Nh2y25Ut+qAxCBTAMBo1d/r6iGE7nMYEn3MJr0ZAOj0AZdidyeH65heATO9xjJD6i7aOm5ZADge7lSAukt5OfnfldvAzcNnOoD1dmvbxO0YIfRAeABDwmQ3AwCNPOQaaW2D3ATACw5zGKhhewcTru9q+uKX//fge3sP/u9/xji5AnrMjDfqFQAM//AQMtjb8v7fhQYjQEAQwQZobqqf0H4uhNAD4AEMCV17czuQCELsOegF2+XvGjuBHrt2nl9v6yFg3fzowaPWI0eZESLiAAB4zQoXjOEuIHfUUVFQZ4VpEb+K8+5usJA84lbM9wZbw8VLra5MqWJGrvmv9w8e/OuGSM741hQhdB+aOrObRsyszD7empwuSv9i5exCtdEMxqqKLzK1doDO07nHn565OS7lg1MBBWVaEjEzPo7e0Q5+g+NkhKyy8+crJcuCLNLs8/UuToH1mP/8Y+EcAKATXgCkafPWrJ1usEGXrvLLby61AADcyj6TFb95mfiJl98Nqqi+/XBw+LwAhlV+4eTXHaMqpwcjMuVJsYACkPLrx3PLv2h0rdoIoSmCxOGM7nwxNDRUJpNNUG1+JrfKa5ponqGPBEqiZ4olMwLMNf/K1toBwP5jVXb9bV/+rLkzIqN9PextZ988dZYWtkhkKvv8ctXob/ZkuyX97uuT//rmYo22y7WqkrxiNj65YLa33wweiwoAFJa3l98Mbz//abfyv79+CwAAum7Li2o0NI5fsL9Q5Ofl1nn9u6wj/5vfZBplOT11NgExT+LHJpFIt66cKb7pYsURQlPDQ/7+/qN6Q1paGq5xPfWFPn9wp6TszS0fX7/XNUEI3VMP4JgEuitm5CKJ162yH+T3uiIIoXsNQwINROJErvnztgVw8fOTUuvdN0cITW0P4MA1uhOvlFe2xVuy9775xaX76H7qCKGJgiGBBmjLenPjGSs2IRBC3bC7CQ1kx4RACPXDkEAIIeQUhgRCCCGnMCQQQgg5hSGBEELIKQwJhBBCTmFIIIQQcgpDAiGEkFNTJyQ4a8+8fv7K0mgagGfEnobXs/4uGrKs0KQj3rn1fMOWzZHQU/+SlKixLYR3Bz4Rf9u2+oN4LgAIopMzXkr73RiWU/qZuPm++LvVGauC+dBb/zjXl/dACLlg6oQEQgihcYchgRBCyKkH5t5NpMikT0/F2A8ffqVo5ubt86OFHKpZW5dbsO+Nijpd31Ys8bp5yY8GzxZyPLxYDNC3VikLvsr94rha3/06O+K/ryydkZmT6zn/KQnLKL98YId0xp/SVkhYdoXsyLaMr6v6iiL7pcZsXBcxL4zDotn0ilZp7qWjeysd9jUazMiNO7cleWl++Gz3vvNtY/oinJI8tvy1UM2RvxeqwqNWhvEJJsmiVecXlhyq0fdvxOanzvGXzPAk3JkcGhgMhnpF49liWbG2d+E974i/PSNqKy3VzAiP5bl1NF7dV2hZ8svIBC+K4abswJmrZca+sqghc+esnEOIuHQmWLRaTWll1bFyFd5WEKFJ5QFrSXjEJe3eH+vf1pB3urK6kxWaunT3WzMZfS/TBGl/SowXQpu8seB08denG9s9have3rR/50yWQyHeqbHz2mUXyvSssKiXT61OAnlOdqtdGL4xXdS7GTlk+9qP9ifGEvpr2aWnj14uU7Ak69Le/yI+1KUhB0ZkSlIAk8IUxKYs8BnDx787ZuxjSS+FMdoam/LkGiuHn/J4wnpvh5f9ResjCa5dL2uozyqrLWqxELPm7FizaMXABV7F82YxWxqL1MAXRu1aFRnY0Xiu3sAkwtbP7RtRoC987LFdi4NFpI6yKlnmVUWdzX3Jo4v2PU7gwtoITSpTpyWhz9t74iZNKzcD6Bq+3HbibLvSMmQjVhivZNvh3Zl6AAAi/C9n0mITI6JpjXlmAAAwKz9/9t3d5ab+9ahp3s+f2bR61YKkjxszFD3P2auK3tlWfIPd4lGSFmtuPLIl64KO0yncuj6MIGiy62YgRS54OV0A5TnpG4p7mw7koO1rD6Qv+M26ym2H+0+Wb2Rm7S63Ncj7619rHuazWRqkckNkKNPaKq1Ru/oFddQdPqsGtQ4AVDUV+7Qk5dCi3FghTNkbRyukZgAAfmTSB4/yYkJ5R1p7NrU0Vmz9fzqlQx2ZRNTe5cFPzScyzyr67gxokFfsyW22etoD14QJdDX7squUZBXzNwmxPlwm6AwAHFHU5jBWhzTv1Zzm3m+DGpP82I7ZUWuqmj9s6v0P6Oo4m11QZtF09Nff4OrnRwi5YuqEhO1GruxG949m7eXM4Xst7PLL/8zs7T1RyIsqbbFxvAAh5PV0E+kbyntepLLpLHcyCfS1VXoQ8gKEAH0h0aZvBQCztr0NANQtZgDQt3cCEKzpAAAQ8fS8ANBmH63UubM83XvepcutrUsXhDwawDpc0dd/01kuv1A+pP5Dq638eud/lgdwLYqGNpfv0WrWldX0JJZVq8p30q0jrbgu7c0AVb1CsZAX6OHO7D02W2/rlN2vuZGYNArFDaCzXWkLlkxnEwD1vYVodHorAOgMGgC+Tq8CgC6jxgAUBosLYAB6gtiXaVOdrugAJr2v6dBQr9LODhLPYEOTpvc5U3WdonpI/RFCP5upExIjYlG0KPof2fQ6ACA/7N7/lHtkxNr0qFiJt/eAqZYmhsNDi9nW/XYjgN1stZh7n6SRqQAAnNBwFgAk738xeUgF7O40DwD9kOfvyqpV1vwM3fUmVYep/5HZagAAKoUF0HsCTxdHzFkp9hN50CmOXZUUKsUNoKvnkcXWBQBgt1kAwN4FANBlt3YBkElUAHDzCPQiAZm/Zl3amiE1MDAZFNDg7coRmiQesJCw9xzfh0eNS3z37/FBoC05nfuva1p1p8kOZCI15flEMgnIAH3v7f3BDNB/ZAQAIAEAjT6NDQCtGa/mXnY44PZoV7eP/WNMmC6b9Y5fkGRx0mtzWYZ2xdnvVcpOg94O8BDv8eQwsRuM4qIUMoVJATAojp2vV/40+EWrTo0JgdDk8YCFxB2RY9dGBdH0OdsOv53Zf3SPTXxydMWYbT+aAQA6K+UFVXfbeMRITEGAl76pQXsPj6AMIjWMBR2yXV9WVPdlCZWyZLSzH7q6rDYAcpeysbn4TpmEELr3HrDZTXdE53nRAdTVhQ7n/zTviEj6KLNUW12lB+A9kjhuE3VIgmU7D76/572/vfNrMWW8Ch09JpPrBla1ut7hyE7x4weRobsNNVI2Td0tABpf4jeadyGE7gUMiX4mdZsJgCeOo/c+Qw5Yl/QYAQBkhvsd3jiIreyryhtADt2UsjzMMV3IAakxaYmutN2oAWIhEwAofuJZPBfeP04MBk0XULz4/fc7oXKfjp3JAQCK22jugaI/d7XZAPSEhAgJw+FpN7pYLFroUrR6xT//1/89+P5ry8VMV96OEHIGu5v62Uq+unwjOSZhz6b9ybJrCvAIE8bH0aXZSnGyYLonhwRq+90LAQCwFOa+c8B7d7rwhVNbEwtrZQozyZ0THCkMJcilb17OgFF3sRjLs3IaQpK8ND9kXZygS+lGVA3F2Zo54tnBrz/LzGvUGB5iiYIEgV3K4lb/GC+WFw3AePcyummrfjgkWJweFvzac3xpnUppsFOmsUUEX8AwZh2XOZt55ZxXzBMpIX4AfitXJ56XnsEL8hAaNxgSDoy5Oa9sMW5Jj5Akx4SY9a1Vtce2fHdKHv4/yYKgSMId1B0jLcl2fe/nvymPWvt8hEQiXpYIFp2+XdH4zQFpTu7QsewRMJR/8od1n7jyznFlKT6Xs88wb+Vs3yXz+AaDTlZfsauw1iDhxnhzRb6krLoRpigAmPK/zVY2ha2cS4iEgWIyGAxGlVqZKW88d8uFirWVf1+eEhDpRaFw+XwADAmExs1D/v7+o3pDWlpaRkbGBNUGIddRYrZ98rLg31v+cOIetrYQmmpwTAJNEZy4xZFUZfklTAiExhOGBJoCKF7xz7+2Uaz59uPMxntdF4SmFhyTQPc/4co/bxYrT+/+6F9SvLUTQuMLQwLd/+Qn/rDxCyteqI3QBMDuJjQFWDEhEJogGBIIIYScwpBACCHkFIYEQgghpzAkEEIIOYUhgRBCyCkMCYQQQk49gCHB5kSvmul3x01IyUtPNLyedSxiFDcIRwihKWjqXEzHWXtm63qi4o/RZ0rYEXtKls7JPZH6nMwyaCua9+Yzm1a5V/zxdONNs9OySEAhAZDoJFwUZyjxzq3719mOLz94qJyz9szW9V6lOxZklTr/MsfCzffFLQkL1aW/PV6r8on42yqRteSbrYW6IduRJEnLXhPToUtz8mj2saE362XwUh4RLQnkE2wq2CwGva6uRVVWWZN1s+eevJSguE9T/YdZikJ9dfvRqvqBzzFF8Z8+TlDALs35+g3pXe/qSxInPv5WBDn/62/2yXt/Hd3oknnhqWE+gVwWEyzaH02q9nZpbe3paxoDAABp4bLlLwqh7Oypv8j6b6zbU8mGkv/IqHO8sNx5fUgLly5/cRYJbKojRy5k9n1tflGfrgrmNBQ+ndHUf3mJG10yLzxF5CPyYDHJdoNOI62pOX2pqdoMAMCJWPRpIl8rvbAhR9VfPC3orS3RYmvTnoOFxY6L+E4LfntjVIgbGGQFG84qBl7Bwlrx7JNrvId+S/biM6f21PR/WEF08gfxjHOnMj5soqakLd9MKPZ9VJCP6xjeC1MnJEaIzKDffSNLYe6fn6ugtbWO+N7g6F5y48XMpIPNbiVzI4NYxzr0A16d5r/jmbiYaWDQqq/WdBq6qFwP7pzQsDkUzbmbPYcwq05VJAMWADCnSwgWxagpa9JZASw63ZBfAZJEyKd02a1AEgn9ONK6u9yXnDlzZRgL2q9m1vclBDs1LWm9PxWMOmljk8YCzGnsICIoxKvrqqxU2nXH0oYxgvqQ+UvmcDMLNE7LoPHW/CphhQ8VjDrpjSaNxY3r4SmJjgsgG377nXq0FeIIiUA3u9VGYvoTErJi4Aq1FmVjU7EWANy8CCKQaVcplA0GALDJdCO/zzz6WT1wITEyOu31XFyU4L7hQ0RNA2V5lTJ0ToxQwL8kczjdJcXERcZMsyvL8179TtV3Ak6Zxk/gG/tPctvrPjxbBwBARH1KBHM66g6frXUoxAHVN9afam2pyrSJVvgJohh15+641FJIpEhMtZRdqq3vPfpzQiPW+FMNN6/uyqiq7mvpUlmSYHbbqBNiRPWxWkAQFiwpLikb/kycujBpwQofqlZesiu7ri/LmJ7+KdMHt8RHgB4byKNYmk9eYa2Yz48lSMUNjkd/S3FhYTEAAD11JRHItEpLCj9sGv1O0M/oQQkJ3vqcLWuFfQ8j/lsW0fOjWfb23BM5vb0lM7Zv+jjdu7uXyV6e9czy0gFnkuyI/76ydEZmTq7n/KckLKP88oEd0hl/SlshYdkVsiPbMr6u6tuU7Jcas3FdxLwwDotm0ytapbmXju6trBvaVXJH8Qdf3pk8tO1jK3r13deO9//JeybGbEyPkIRx3GmgV7SWZV48ckDe359GE75asnqRPGvdDu3SPyUuieN5gK217PKRN3MuyAeUy4oMX5ce+wsJz5MNlnatvEx6cm9xgdy1Vr5XwrY/b4zhtp/7aNfHxRMZueJgH06XPq+6tp4tigkkYtiy/q4VN7bIhw5dqrM/qBy7aKy3Veduu7IvCkGIaaCorz9n46X682MCqOeuOT+SMvxXhrOhQ3aipn+bIAGPApayMlm14/ss+rIq/dACxqM+lqvVKpGYSAm5XFY1XFU9RSuFdDA0ffptf0IAgKG96WT76CvE8Iv1I1mbFN/I3GMkYXOEPEqDCu+Zcl97UEJCe/HAmXZ3AOAs2h4/j6bM+Ovlhp6XNFKH/vSO3NwDumkk2sy07eHD9JwCAIB3auy8zMoLZaKkuKiXT4V3lFXmZHsnpIZvTL9+YYtMDwBADtm+9p10AbVdWZYtb+4ErlAYuy5NIuG8vLzg+mi67xsycw9VOf4nTYtcFxPladN3OiTEqrQP3g73NGsv515u6KQHxIkWpa+eF3Zm23MVNx3eSSJCX/67wE8nLzvdwgoPjo2LefWgrWVpbl993BOT9h6MCQCtNFda1GamegmiExN3xgUcePbzjCoYNa+Y5AUCJgBzSfL8L4tzJuz2rG5cSSAL9LVlKkt9ndoq5McG0TMrervme87NqR6MUayu6hxJEuzD7NKU1+lVtmZFAl8k5DOvKZx9tsC5oRKGXVpwvdqxidDVBUBhMikAY+9gGVF9DA21+QSRMjdQUCVTDilCEOQrcANDY2PReIwrMQMFIrJd1qjS3tKV6cJSZxIiN9Xo+9DQJDJ1QkKft/fETZpWbgbQNXy57cTZdqXDaZGtLrOiDgBoAmF6/DxoLzleUTLc34S+XP51OQBBSnAeEvaqone2Fd9gt3iUpMWaG49sybqg43QKt64PIwia7LoZSJELXk4XQHlO+obi3qYDOWj72gPpC36zrnLb4VGcVd/MLj3u8DAgfe2zntCe/e9PsnufYs9cvz3cE9Snnjv8UaENAIDt/fwXG1YnLtmYev2tTIdxTM+ZHkc/f/7NRj0AAGfVqS2bI8N/GZd7PbennI17YgJ0snefPZHd27xgxSV9cCxm/fbwC89VdvYWcyMza3e5rUEOfd957bBHF031NaV1loBiVEprXU2Iro6z2QVlFk0HAHTUHT6rBvWQorwICRu0VQpZF1gblTKbr0hIcCpqe79kTZFclxrNTf1VAuUHWb5cXW8cw6GZzI/1p4K2tqgDAJrLb0WsIAgJVZE/bFuC6ps6lwu62hPXBwxuX5Xf1IYFiRcs3sGoPFvTIuuwODnRJgVFxO4QOjzB5A4eWh9hfezqs1J1yi+CH/eRHWoZvJdALzYAKNs67nq+zyTCdiwN7n/sxiAGz46kxgr5lC5NWb0JukxlDfrUCJ9YP5Aq7lb0EKqain1akrINACzlxQX7pPqrOGp9j0ydkLDdyJXd6P7RrL2cOYHdG/Y2fSsAmLXtbQCgbjEDgL69E4BgTQcAgIin5wWANvtopc6d5dk7i1aXW1uXLgh5NIB1uMKVfgUAVmLKG+kzqfKCN3fI+voBqHHhsZ5gLCw+Vtj7R6Rr/efn8iffFkmSZ1IzHed3NZ75uLF319qiQvXGSO8ZQjrkmgCAkTI/wRMaDheVmVmeRO87FLVl8pg0SbCYVlnQmwSd5fIL5d0/OnznQ1mrP//Db4sCuZr6BleWre5mqq5TVHf/aNaV1QzTWRcoJARulvx6tRUADDfLVCD28Y1l1mb1pkl1Yd4+RvzmMN/UJN/UJLDqNDJFc/4V2bnWUXe4U/wEc5igqm6uBwDQFTXoVkT7xM4g5cuHCR7B3LBYpr36O5l04NHN2lC2K5f84gL/mLi4mDgAs75e2VJ0vSarRjcoADk+RIzPuNTHrqysKYuOWxhBHGsZ1M6gcGkkALu+b4DGjZuSGCzqPjB0ac7l1vbVn8Lhx3DuVB+g+cQQJGhTlN0GAJDVq7QRQZFCHihGPfpt1arye/+GVS2K4ceH0M9i6oTEz8di7v6rsRkB7Garxdz7JI1MBQDghIazACB5/4vJQ95rd6d5ALgSEsLwV/dEzTDLD2zJvexwrPQQerIAblQpHMvUlylugkgo5PkBNPQ9265ucljas1NnAgAajQ5gAgDhbG8WAGvThn9uGrpvujsNwIXOCKtWXj3B4//s2EA2mJvKFN2HRVNZvXq9Hz92JjWrr/+9S5+fk11UzIsV8sU+/EBfrjgsTBwWvKQwb1fx0IbJnYiEfhzQn6vrOeTV1zWrokRiIZ8ibx58Gk7lp87jUQx1pyuH/mfb668Ubr1+VRwokBA8kY9nYEBwYFDwE3Wlu76pre9PFPvwU2Bdq49RmVVjkoQEL5ymyLrzh3RjzQkNiqECAEBXszS/PySGnwLr8FamPyGigrK+ubtTy3pTedUYtDCACMlTV2OP030LQ8IVvX81ZoC+Xm8AACABAI0+jQ0ArRmv5l4eOom+Xe3CYCDQvNfvfzLWU5u9JSNj4FAzg0YGAJPONuDcsdNsBCDRGHTHg7vJNvQ439dd4O5OB7BdPpyRUTWkWW/WV0/MZRBj50FEegAYmZJfRIkAAIAyjWQFkkjow6xqGjhSrc6vUOdXVAEAhwh7aekcccwjK+u+OTLy/w43XmwAHbr0/FlRm7t7gdyYAMD0F8whNw+aOMQPDUuYBvUFsmJnzRWLXiqTSWUAABS274al8SlBEZvFLa+OvJk5mvoA2Msu1ynDwh4Xs88NmE1k1ZjtACQWo3eMxKbYc+BLcONuXp+cwh5pXQCgezIuE+wa/qzNiT1V5NoA2L6xXhXVraMqCk0iGBLjzmz70QwA0FkpL3BhvHcY9Pg9K58Ng+oDJ97PHhw7RrMNAOhsMslxHNSdxgCwm42mER/c9SYTAMumbCzIvOvlYSNG4cwQsHRKpXaiprcIhESgGwCTtzCCN+AFgpDQmvKdfHqtourIlZl7Y9gigg7tI/64fCKSBeDGEs8Ndjx9BqZfjB+prMkhpcm8VAmfYmzKvDKiyWxWXfOn39fHLg8OnDGdUqEf6Zc18vp0a685d1O0PkwkaXE8r7HXt+lAyOXz3ClgGtP/E5kv8acCgCAoWDDgBbZEyD3S6vwqDTS5PXghYTcB0OAul1Kb7GaA3u6j0dJWV+lByHskkfN51Th0tszYlPZSKqcz98xbe4fpRe+Qt+tB4BdGuIO6b7YuS0L4AVgU6pGfvjVcU7Ca8V4AACAASURBVBuBI3pU6H60f4x6TCgha97b+SsBxVD9xWt/OuV06GIsWDFBXOhSHTl8IdOh1SBOfPKtCH5sAClf5nSM2tJlBwAKaRS//yFCAd/NUnz29B7HLqBZcZ8u9Y8S8ihN/RM9OSFhCzmgLLnuLKWGstoAAChuQAUY4ZF65PXpZTp3RblyKbFEOGDwWlnXrIzhCgL9JVSV03bPCFAIgYQB2isXNpx36JJiBr21MVocSAQWaOqdvxdNZg/avZvM+k4dANtzhtcdN9O1N7cDiSDEni7sw1b2VeUNIIduSlke5ngQIgekxqQlji6WGXGJr20XshSl726rGPaIbymUlbQDNS7m2b6S2d7PrBWywFT2bePIJ312nr5U0A6sxMTfr+I4Jqh7ZPjadd6u3J6EGxIuoAAAM1AcMswNL8YBWxDFB7ilKhs4sCC7ccsAVLHQlwIAQJJER6QQdIrjFtOIlbO5AKb61pH37XBjg1hg01xVDAgeq0JVbwNOACFy69/yqfm+THNzZsXw5878WWFrZnM5jn95ZFZKFMEBUKo0Ix0jGXl9HBjkNfk6qiREMOD/o70ms94CzKD1S/z5/b+dpFEeG0hzZvkxwSIbNEZtUF1VA3j4xnqMqrQRY4Qse+W9gwfeeyHhzn/RyHUPXEtCW1LYujZM8Ozf06Znt6jMNjBriw/Lbw7ayqzMPt6anC5K/2Ll7EK10QzGqoovMrUjnDxpKcx954D37nThC6e2JhbWyhRmkjsnOFIYSpBL37ycASOfy8dbtTM+iGarLr8dtCkmqL96oMgt7unL0sk/2SuTvC1KO7glIFfe0Eki4sRRBLmzMPvQ8dF0HOnkB3cUBx6MSXh7S8jTsrJKvYXG8gufOS+MZcn+8vjR0c/pbyvOvrjYL4bbfi770oRcJMEPIkLcQKVUDZr7b1XelFn8JQQhoSqKLSQvP9HmeNGG2xqZSqcx26gPu4v8eBwqaGvKT/ZNzfQM+t18fvdtOZgA4BG06XFPK4BFp/i0QKEFgOmEhANwSyUd9FGMqqvtIOb7xPJB2gIAwJwVtsQDVOVVeU4+NIVDrIifs2KRvr5Fo9RbgMIK9OMJmCRrR+2RshFfazni+gzQpT57VZMSzx0QmWA6l1MgYCWkiuI+IEJlN3Uamxvflx/CBqvWoBnh/zu5+84oqkGhBaCXKnTgzY0Uso6V6AGoMXFRCRwAcPPyAACKODpuRxgA2GTlJZmjH7eghC9OfSSAA7B43YqLBR9J8dYeE+CBCwmo3nviXVrKqhThk+nhVAAwy3RH5UNv9ld94MvdtCc3rhI+sU5EAujMbDg+4pAAsF3f+/lvyqPWPh8hkYiXJYJFp29XNH5zQJqTO5oDN438MA0AyCGpiSEDyy9qLy3oHWFuP35ia2f8+k3i6MQoMc2mV7TmHb74yd4hyXc3nbk56UsbVqXHJsQJkyLpoNN3tGlLjhblZSpd6oVoy9v/+zxX3jgy9BghF8BSfWPICbtZJW0HiZ9PLEEqrrPkFxRQ1YSE4BJ+PiIaFWymjluKrGuyr66o+zoDKWx+rMhh4hCDKxFxAQDUnZkFoAUIDPYVuIFKMTiQAPTlCt0aH3ZkCBdaNADsp+YTTIvqWJnaWa+Rqqp0309E7Ex+gAc/lqBSuixanbq4qu7Epab6EXdPjaw+w0SOsqq2LDpaMqgf1ag68tVZWcTsx0X8wJn+TDe7VqcpLqk5campfmRnNBQfIooJ0KqSDmm81t9o185nBwoFghKZEqiCmf4x/VcgkfiEPx8AwA7ysszWUR/jrdXFRY0xS2YyKdO8vOgAE3bJ5oPsIX9//1G9IS0tLSMjY4Jqg9B9jRkUdyDVH6QXNufgvSh+PoKV773/pPLdjfuL8UufAA/amARCE4eVEi3g2NTfXMKE+BlRQhbHBRiulEnxS58YD15306RAm/nSxbVPOB0VN+VsefftbGevoslKf/LLr07e60o8WNghy154JYVd/tkXF7GraYJgSNwTZuXnGw4677Sz6Ud/sxuEHjjMBb99JZVV9OEbn10cOkqPxgmGxL1ha69y6dJrhFAfw8V9v71oxW6miYVjEgih+xYmxMTDkEAIIeQUhgRCCCGnMCQQQgg5hSGBEELIKQwJhBBCTmFIIIQQcuqBCQlSZNLRhtczDwpdWiJi8u7r3uHMXZTx0uq/JfKcb0IVR8ftfX75V9tWZ7y0OuO5iJD74teNN+eDbaszng0T3H3T+4fnOH4o0sKlT2e8tHyHcBzKQpPf1LmYjrP2zNb1RMUfo8+UsCP2lCydk3si9TnZGBZR+TmId27dv852fPnBQ+WctWe2rvcq3bEgq3Ri1gr1ifjbKpG1NHtrgUYQnfxBPOPciYwPx3BlN41EAgCa8+M+Z3b0jniC2qE4V6ox2ACMatXwCx2zUpc/tt6fCrdr3/ikVOqwDYVDPB0nWkBw+QyS1apXNDWdKKgqHnwzXmrI3Dlr5hIiDh3seoWiKTO/Kn/kN+wd6iEAACDB4Iincpc8Ehzj6xnkweTQSFabqeNWe3ll1TGpwyIQVJY4OHDJLN9AHpPPpIJZr2huyS+vzFSMfrk/KndJXFiKkE+wqBSbRdXecq64/GSTQzmj2heJRBn2Q7mGRAIAcBuwGiIAVRDgvySUEHu781l0ZpdJdau9/GrVsaoRL5LhoOdX9FTGh03UlLTlmwnFvo8K8kd+k300fqZOSKCfmer6D2+0Uw1aZ8tSkkQz+cwuXWZ2wZE7rhPAnxu9khju2OUR/PqqKDHDrmpSnuuwUDl8iTBsB8E99GVeVv+CfyTxgkWvz+dSDOri6woLiy8JDHvRj8scsM0o3arZd6KZadYPXkntYX6KJIgw6hRqVZ3ZDjRWkA+RkkRE+ua9+m1z9944odFvLeaDzaJq11xV2anuHqKg4PUBhDgn5y9VI17gCADI3DUrklZ4kwzq5qIrOguNKxb6r0mbHnQ2Z09NTwaMbl/q6++cUAzzoVxhL8vLeaPc3qYamMQewTtS5wjc7Fq1pr6p3UJ1F/kRKY8RkYKCV79VjMMSjegewZBArjLqpHdqiJC4NCqATvPjHQvhBP8unqe8XAvzggcumUFdGDdHzLDXF2a/WqzrvqyWPzv+7WRiTYJ/UWZTz0GHJ1ov4VIMin3/KMg3AAApcP6itxf4DthmtLpM9TeHOxnXN+77e71S59A4Zfu/tjpOEhrxRHnzsXYAAKtelZUrO1vV3LcCR3edJY/OWygvGPlqpnxxRKo3ydBQsj2zrrv5RfEQ7VodEZM4J6axpHuR0dHty+bkQ7nEoFVLh365Nn1ZWcmhK41SXU94UHii11dFiMOi1lxr/nDwYkTovvHAhQTZPTFm8/b50UIOA/Ty3Isf7Ci93r82C0u8bl7yo8GzhRwPLxYD9K1VyoKvcr84rh54Zkaftylx9dMiEcFigE2v094ok+cczv2m3DaafY0GM3Ljzm1JXpofPtu973ybS0WMCJW95JE5KSF8gkUFm6mjXXWx9OpXdfoBtz4goj5dGczpe1hX+HRmk8MGpJjHn9oh6msZ8NY/v3p9949a2atHKqoH9DixUpPmiDRVr5ZbNs8bWBM3rtiPCl2qc1d0fYWrZLKiGCLFPyiW0ZRlBAAICZ0Z6AZK6dV8Az0l7VGiNOdQRVVRZMJC/6BYZlNWbzcHRRh3bJm/7NtTu1r4axaEJRBcDtlu0KrP5RUcaeg9xJKJHS/Ex/T9QRjq/nK4pMyxtjaTctD/nk6Z32qXBNG92ADt3W+qOjRwE5WsKi+GSOVwRV6Q35epjKC3fhMdKMvbcMG4ZEFE6iwen0ayGnWyih92laitQAqZwaOApUza2NdBZ+2oPV0XtmM2kTCjrFhuH/m+mOKEfyT59jxQX91+tGrYxgSF4/t0XNgCfy6fRrKa9YqbTZmFVfnqAUf2wLgn9saw+x5Wf5fxarlD8OiajlwcUKZVXXu2Lkw8my7yY4Ki/7vj+ASviQmK8mVzKGA1G1XqW9Jr1z+t0uAdNianBywkSMLY3fs5lrLaC5WUgEUicXLKm2bt89vkPRlAE6T9KVHSppTJG68V6o3ACogTrXpbGD37y21vNvblROif1v73Jm+7orHodGW7mexJ8ELiolKqir4p149iX6PBiExJCmBSgBmbsuCf509N0A0vafz1TyekeoJKocyTG60kRmCAYEWqT8j5b9+44lDpjrpPv9VQAShMn9Q4gj+4FLvsSumHTWQAN7EkaqGHvvj7a2XdjQlzh3LgmIQgInqlj+HsV7L6nwIHF+NG59IArCaN4xlxl15lAOC4B3oBNAEAXeTLBjDJFDqg+UsIrkDDBYVK2mpfGMQVeZOy6gYc45hewTvi58wBjUyhkAFD4MsT86jQFxK29rPnCsseIoMbc2F8mHgk39g0Qaw3CWzq+jvcq7Gr+1+XZcghkMnkPZ0WvMLTUt/SXGwlefF4Ih8mgBqAwqWToMuoMTjW396mNwGwBd5skDvp4htuXxaF7FCOEty4SxKDh3zLPSieol1PR4SQTPWNjVkaKzC5kcKwF2fwiZMXjjmsFqeqrfiwkwEATIFofRjbSWGO7FZ7FwAYLP3NL4r3nF0rwwRdeqm8Pk9vZ7KYhLfPkvD2zCqNagQlop/f1AkJfd7eEzdpWrkZQNfw5bYTZ9uHWXSTIeQ0bTu4O9MEAECE/+VMWmyiWEKT53UfiszKz599d3e5qf/vgub9/JlNq1ctSPq4MaP73Iwm+OVT3lSd7O3lJ3L6jg00lp/X4Mb8XfYFAAA3MrN2l9sa5P31rx2uS8LSIJUbIkOZ1lZpjXqY10eko+7wWTWodQCgqqnYpyUpBxRFksRHp3pai7Nz/udab9OBytv8bFJK/LyFMofuC4Mmv0oDAMChL4kjhu5He7Pp3E0AoFJmRS30MMmq684N23ziBG+O42uu5hxrtcO0Ia92mQxmABqdSwPoWxHTjcVnAgCdz6YCWMCNxZ8G0KVXdQKw3flu4OHOZIJapTMCsPjulIHDqkCIRdTqgq05ip7TczIrkOW42KZJeq1JCgBuvMBHwsQkJ18jmZeaGBjoRqY+zBT58ThWdVZ2SeYd2oc8XwkHQNdcNLQB6CdKUdf+5ZOKsp5akAQ8ihUAwGow2cGNymU6jgyTvFh0AOCyGRRwctI93L6sWlWWVgVkYk6Ck5Bw4z6dEhECqiNf5GWq+3uKdj0Tkbog8NyJ2r5jt6G9+Vw7AADTTTCikCDzY/zpYFOXNvb/cYhC/QVkS/HZb/f0zyohcdiUQYPbPb+ibQBgKS8u2CfVX8VR63tk6oSE7Uau7Eb3j2bt5czh+6Pt8ssnM3t/YRXyokpbbBxvhhCgqvspfUN5z4tUNp3lTiaBvrZKD0JegBCgpwFPptIAwGZxPJqb9TeHdM/fbV8AAJ3l8gvlQ+o/tNrKr3f+Z3kA16JoaHO5TW7WldX0HMysWlX+oC+I6rtExIL2qrMKG5NJ731WX9SoS4nkS3whv8HV/Q6PlZo0R2yu/Uuhk7WguzRlLZaFQt6SuexzfWMSIlEsBwCASumeU0VlUgDAbrACPEyiAFDoVAqAwdoFAEwqFWBAcFOMTUfOK/pnWNn09S6MWpDcJWFBYreeEqTVNecanbcNyewVi8MEoM/Pq6oeOrPLzZCV05cQAGBX9hyj7dIbamsQXyyeya/vG5MIfiqICgBUCsWVfd2BX9ASHmilsmIjhcPsLdzYXHorIsTHV0yrVbk4244kjo9KYNuVlyoyO/qfpZLJAAC2AY0krW7wiIXjr6iqRYGNjHto6oTEiNgVLQ4HO5teBwDkae79T7lHRqxNj4qVeHsPOFEyMfoempUFufrk1PCXz7Bic2ul5cprha0N7cOc5dx1X6Ni1SprJnKGyHReAAXAM+ytTWFDX+Q+PGiy41gJIqPX+HXl//tqmdM5ypb8gqrHiYiQuKQP/FrKb1mY7jxJAFPVouf4sIbZ/EejAcBqshgAPJyUaFA0j8PZqLnujf11AMBk82LnzlkjiXt7hseuf1ZIh/kg9IW/TFjjZ68uKDhQN9zn1DWX3hp+J6qqq2fDF6UGRO9dIyhT6gw0dqTQl3ZLrfXhMYd/x9325ZzAh8sBAHHC34Z2sXVROQwAl0JCMDd+RyTbUFey5/sB5wEy+U1tWFBM8uNv1TZdVaqrW9SyjqFdcWgSecBCwmK+01GCGpf47t/jg0Bbcjr3X9e06k6THchEasrziWQSkAG632sr2vHpm4rEZ1KFi9bNTFoHALbW8tJDO3Ly5KPY1yRDoVNYbmBVVP1P+TD9WZq2cZ2awg7eHMc3yAs+vfPhrEP2+peGNfFhCYQghQCDVp3/f4V5nAVv+9j1pu6jisVgBaCRmBSAH3VKMzB1BisAk+IGA/vBu+kNxnE8GBl06nMX8zT0x18Ti9aE175aPqg9QY9JWpwuYtRfurCrxEnvkNGodXbKb1Ef+SpHFTfn8Vn8hXN9rUbd1ct5R24KdqXxLKahk5RGsC/nmDQ6ANSXF5wYOgGpy9LgwhAaAD8sfleiLygqdn1TN2ggytBQ9uq/Dc9GBUpCw8RhAABWnepsbuGRunGbfIXG1wMWEndEjl0bFUTT52w7/HZm/y9sbOKTgzc0awv2ZhTsBaonZ3acaNG62OTImJd3aqrXlN7xgoAxITEFAV76pgbtxJx0WS1dVgBql0Fa1zzRawVTuFyCCpxZ8Z++NPCFacFvbQsGddX2o1e7Z+BYOxRHvlYc6d+CuiSVCV1GZYcdAKBLr7oNwGbx3QF0qnOltbIGNQCJz2YAWFSdg78p60/j/lHsVxUaq5gV6M2mgOMcMHrM4sUviZmK8rw3Lqqdfp9dd4xesyYrNy8rt/8J/vwwDkB9h2HgBxvZvpwzdK/b86OmuM6lQBiCPztuZxJBabm6K1NWP1wTW1VXta+uCtyoAj5fMlv0lJifmhKn+uxC1u1x2T8aZxgS/eg8LzpAY3WhwykNzTsikt7bhhjM0q69nFl8OVtNvbg6KZwIoZW2TszF0iTBsp1//XUo03rj692vfCadiJxQt9dZgiXePrGMunPGu28+FtbbqjwpDOg2obhHiXgci66stl3Tqe5w9k62/0KCBEaVtKe1Y5I168CPLSLYoNBJL5VKAYDMF3uTwKaWtf4cE/M9pjEoAFr7gAuPJYmPvjSXrii58EaBK0ft4bmxl4h40KWTKhwP5SPeV5fdYgdwI1HcAAae2qtUHQbgEgE+/JLasXf980VxO3/pT1NUvPFvWf2d+726LMoWhbKlWUle9loYV+QFGBKT031xM52fiUndZgLgieP6xm3JAeuSHiMAgMzoH0vgiBM5DMf3EdO4bIBO/cRdv0ANEAuZAEDxE8+6w62SxsKsPFdrAhqxItGf7/hLweAume8fOL6/Jh1NR3JKPnT8d7FR1QVgVmXmlHxY3Nw79kLlcxyuxGby1z8xR0wFpbS2rDe0q683KrtAIJ6zsCdzSIIIUSwTDE11RePdIOIHBS30pjuOGlM8gzdF8gAssoa+Th6qJHHRjrlMWcFYE4LDYfXnqBs9JnFBqidYb9Zk9bdWR7OvLn2bDoDNFw0Z0LEq6s91AMVvzu8i2I6fjulBrBDznIySD48vituZ7E+rL3k902lC8H14/AGnphSvh92gy+LKvTsAgBGy7JX3Dh5474UEL5fej+4OWxL9bCVfXb6RHJOwZ9P+ZNk1BXiECePj6NJspThZMN2TQwK1HQBoglUH0+bpWqVlSoXC5OblPSdRGEQzlX5+qWZimhEAYCzPymkISfLS/JB1caKiyF78XWHm9PhUUdwH3kFlTRqVncR1580huJyfmvaUNY3H7RxGyY337Op4iVFTrzFaqKwgPpdDBW1D6b4Sh6sE1LJDl2e+Hkm8+B9JsfUay8N8SQCbYlQdu+jq5dbOec2Y/WJEdPptTX2HUW+1U1ncQC8W0w20NaVHanqOiPy58TsiuBSDxsILTX98wNtlFYWZo7jAhRSV+PhmL0O9Wq+3kfjePAGTBLqmfd/2n+yPcl+6c1dVKYv5a1YkCGo1hp/A2tF47JoOAMCmPpZdEZgWIU5MPiRqLm0xWB+ieHnz5/BZlKaSLKmT6WdDeYa99kt/Puiru/hrfjng+hm9ovJDaffMOpI4etHvCGP9zVv1ar2BRBcQhMSTami4nOVSVy0lfHHqIwEcgMXrVlws+EiKl3VPAAwJB8bcnFe2GLekR0iSY0LM+taq2mNbvjslD/+fZEFQJOEO6g4AMCtzDpdC3MyAuHkSNhnM+taqyi+P5h7NHMs95e7GUP7JH9Z9MnHlAwCAWXXkq29lkbMfF/mJw/gxYNHqDapG2Tc1ddJRTakcL126MplKEMQTBfAoNou2s/lcZdWxK+qBg7126Xc5r3fOWzPXTxLGA6teUV+VWVCV77THynX1169lUgUiPlvgw2VSwWoxdagU+ZWyY9L+s3gOm0EBACZXIuIOejul8YfMlpH/itjr5Y2yaX6Bfr5MN7tBpykrrz/xQ121Q0/gaPelulKwhxa9PsJ3yXxfAIC6zq+u9cwttrbK3viHJjVatDCAnzCPCjZTh05/VVpffO3myM/vKSwmlwwArJBZg1srBnvjIWn3vuzSyqpzP/FFXj4J/lQK2LVaTXGx7FiJi5NcrdXFRY0xS2YyKdO8vOgAEz2e9kB6yN/ff1RvSEtLy8jImKDaoPsJb84H/xHGlxesOaOYUlMY3fi/27hoCQy+JS3qw4lY9GkiX3r+1BtXJsVtlgUr33v/SeW7G/cXT6lfxMkCxySQizg+XL4bqDqGzCK633F4gUwAXacCE2J4JJEPF8Ck0k6KhABKyOK4AMOVsgmZ0IGwuwmNDpOfOpfPAqDQ2JIwX4pFfe6aa7csnGxYMfMDgygAJGpIcGCgm6VMine3HoDpHfRUIBMAmBzfhSIqqKvOjWExknHDDln2wisp7PLPvriIXU0TBEMCjcbD/CXRYQI3gC679pbiZH6pk/uf3G/cmLGRYd1TpKy31fm5pYeu4bVdA7B8A1fE8AAAbBZlg+zA+auju/nHhGAu+O0rqayiD9/47OIE3fUS4ZgEQug+RqGAFbuZJhaOSSCE7luYEBMPQwIhhJBTGBIIIYScwpBACCHkFIYEQgghp3AKLBolEtODQh3wjN3QYZ0c11U5Q2KyyFSHSlssdqveNrnrjNDkgCGBRofqs+P4/PkDnrr18dr8UxO3lMbYzQja80lYkOMzFuU7aZdyMSUQuisMieGQkpf+82AEq/DMM2sqOu91ZSal1qaP/l9L7130zHUTcD+98dSq/PDPnT13naM+/Nhv5vzC2RKnCKFBpk5IcNae2bqeqPhj9JkSdsSekqVzck+kPidz7VyRBBQSAIlOIo1zJSeKeOfW/etsx5cfPFTOWXtm63qv0h0Lskon7NblAHr95YKWu92WwW/+C39ZEc6Bhr//5d1/T8iCMhSe/7xF8+fP9/fx8pjOBKOm40Zlxfmv8itbBiwTZfnxesmPvQ/YszdMRFUQmqKmTkiMJ0th7p+fq6C1tU7yM+TJjBe+4Y0V4ZwJ3Qc57PnNGx4hg6FDUS9vMVHc/f1DHn0sZL7o6/86lC2/j5YYR2jywpAYlk57PXdq3JTo3mCLVr22ev70260tZG8fxt23d5HNWHvp64uFecVtxu7VE0jTwl944YVF/inPzb/0p6JbE7ZjhB4cD0hIsCP++8rSGZk5uZ7zn5KwjPLLB3ZIZ/wpbYWEZVfIjmzL+LqqZ8MZ2zd9nO7d3ctkL896ZnnpoMYEKTLp01Mx9sOHXymauXn7/Gghh2rW1uUW7Hujom7A/VDJfqkxG9dFzAvjsGg2vaJVmnvp6N7KAdvQBL+/uOGJtpznl1fO2J6y7inhTE+yXaety8r9y6uVfQPB3snx6zeJJWEcdxoYdXpVpbL0q9xPXFvjiBm5cee2JC/ND5/t3nd+wpZbnRb3+2cS/K3VR/9+3mvtCxMYElB96nS142P77cqTRQ0JTwTMFBKUolt4ywaExuxBuk7COzV2XrvsQpmeFRb18qnVSSDPyW61C8M3pvcv/NuRm3vgr2cO7K28eceiPOKSdu+P9W9ryDtdWd3JCk1duvutmQ4HQ3LI9rUf7U+MJfTXsktPH71cpmBJ1qW9/0V8KG1wUSQ2b9GeDW9smklRNBblyq+1kWfG+XB7N2Mlp+w9mJgkBHl26emjpQWFagshSksVuDZYwohMSQpgUpiC2JQFPi6VMCK3K/5dVPjlpx9lNN+Duzf3rLVmxM4mhMbF1GlJ6PP2nrhJ08rNALqGL7edONuuHDRqba8qemdb8Q12i0dJWqy58ciWrAs6Tqdw6/owgqDJrpsBAPTl8q/LAQhSwvZwb+c7Y4XxSrYd3p2pBwAgwv9yJi02MSKa1phnBgAgRS54OV0A5TnpG4p7mw7koO1rD6Qv+M26ym2HB3ZkEeJVdPmBpRlfV/Uc1zzDeJaeMWeyJDXcG7TfbDv8P7l9Rz2yn5A86KPdyMzaXW5rkPd/D7XDjVpbGqRyQ2Qo09oqrVHf8dscG+Plb/9xeQLLv4PpsSIBCXRXKquxGYHQeJg6IWG7kSu70f2jWXt5uGUO7G36VgAwa9vbAEDdYgYAfXsnAMGaPsqd2eWX/9mdEACgkBdV2mLjeAFCyKsCAIh4el4AaLOPVurcWZ7uPVvpcmvr0gUhjwawDlfoBxRmK9v7776EAID2qv4DOJVGBoCBPUu2m0PGZDvL5RfKe17t/x6GVlv59c7/LA/gWhQNbVPyGOozf9WKIIpOdvwfsin5+RD6+U2dkLg7i7n72GozAtjN1u6zdYvZBjQy9Y5vHKYoheP8T5teBwDkh3vygBMazgKA5P0vJg95o92d5gEwICTMyqILzha4sV3+rrEzUfjE/k3eWbLSCsW1MmWN3OTKaEQvq1ZZM0WHf14GFAAABnhJREFU5NmiVTueCme0nfvrPwsnbLwFoQfNgxQSAL0n4GYAAMd1tUbbxW83O+/yptGnsQGgNePV3MtDD/7t6vZBz5hvdzhfAbT96ImXzYnr1ookq+KjVwEAGBXyk29mHMnFhdMGYActe31tgm9H4fuH/nXZeK9rg9DU8WCFxM/CbPvRDADQWSkvqLrbxgAwuDdpEFvd8Zw3j+cAjR4QJ4x/OnZFsnDt/pQbCzIuuLS4NIkpCPDSNzVop1J3DNN/2etrk/11lz449I/vJ+SqPYQeWA/S7KZRMNnNAC50QwEAgLa6Sg/AeyRxXK8kM5sacis/3/L5wVwbsAWzw10pgyRYtvPg+3ve+9s7vxZTxrNy9xLTP/mNDcn+twvf/+jTi5gQCI0zDIlh6dqb24FEEGJPF95sK/uq8gaQQzelLA9zbKmRA1Jj0hJH1XYjB8R5ezrOmqWxvL3IAPpbLnW6UwPEQiYAUPzEs3iuFDDuvOKf/+v/Hnz/teVipkvvZ/ove2PDMkJz7u2PsA2B0ETA7qZhmZXZx1uT00XpX6ycXag2msFYVfHFiK9fsxTmvnPAe3e68IVTWxMLa2UKM8mdExwpDCXIpW9ezoCRT+GnR2/ftFGorSlrqFUYjMAMSgyNIqA9u+hbuSsfy1ieldMQkuSl+SHr4kQO7RJPrFgSSgEgswPZAOCduGJDiAkAbuWd/vqS44CBV8wTKSF+AH4rVyeel54Z7Yg6Y97WDcmzGMamJt6ipzYscnilq+PSx99WutQhhxByhCHhRPWBL3fTnty4SvjEOhEJoDOz4fgoLnK2Xd/7+W/Ko9Y+HyGRiJclgkWnb1c0fnNAmjO6AWdT6VcFAY/NDAkPTU6kk8ymTkVrzt6LRw43unhTKUP5J39Y94lr7x0F95Dw+b/ov7aQESCaHwAA0NDwLQwIibby78tTAiK9KBQunw8w6pDgTWcAAMNfNM9/4Cv2JsU/AEMCobF7yN/f/+5bOUhLS8vIyJig2qDJjyp465v582/UvPpyXe/lGGNcdIgSs+2TlwX/3vKHExPWunFYKIk6bfXuuCe9m3E9CYRGBFsSyBUzZr19fFbvg7EtOsSJWxxJVWZfmsD+r2EWHZq4nSE0tWBIoNGxqL/8c/G3A6Z9ub7oEMUr/tevbBRrvt2d2Tj2qjnVqjy88zbL8RnLj9cwJxAaCQwJNEqm6yUt41SUcOWfN4uVp3d/9C/phN4K0PLjlYIf774ZQmgoDAl078hP/GHjF9apdFkfQlMOXieB7iErJgRCkxyGBEIIIadG3d3k7e29ZcuWO2wwKyQYAP70xz+7XimEEEKTgytjEh9/8fEdXn1n5x5XK4MQQmhycXHg2mS6y4XDRiPerhkhhO57ro5J0LsIThcbRzQQQmhKc7ElEb5MnbXGAvCQ7gbjsyOcd8owLhBCaApy8eBee5G79Z3pu04yOr1/3PrC7UUurbuAEEJoknOxJWFuoZxuocD3dN0M07tR5l/4wYWG8a0YQgihe2+M3UQPtWndwO0ntvv41AYhhNCkMi5jCT+NRyEIIYQmHRxwRggh5NSYQ8L+EADQceAaIYSmorGGRNvthwDs4cF4nzaEEJqCxhoSlYWMSstPwqc6Dj1t+sUMO8HB8QmEEJo6xtzd1DBt8wcseZc1ZY36nx+0FL59ezxqhRBCaFIY86JDMwwf/FYvpJIrv2NmSCltavKi1eNRL4QQQpPAWEMifIFBwnxI/q/pT31GMQMAAIYEQghNGWPtbvLi/ARAqrzekxAIIYSmkrFfJ/ETAJgsY68JQgihSQcvpkMIIeTUWEOCTf8J4CEztiQQQmgqcnXgmt4l5Hbx/Y3PzLODhVqrHNdKIYQQmhzGuOgQgIX8/Ql2hm4864QQQmiScDEkai9yN9/oMuvcauspirssd40QQuh+5fqiQ1kt41sThBBCkw7ObkIIIeSUiy0JOp1+5w0YDIZrJSOEEJo8XAmJ5599ftzrgRBCaBJ6yN/f/17XASGE0CSFYxIIIYScwpBACCHkFIYEQgghpzAkEEIIOYUhgRBCyCkMCYQQQk5hSCCEEHIKQwIhhJBTGBIIIYScwpBACCHkFIYEQgghpzAkEEIIOYUhgRBCyCkMCYQQQk5hSCCEEHIKQwIhhJBTGBIIIYScwpBACCHkFIYEQgghpzAkEEIIOYUhgRBCyCkMCYQQQk5hSCCEEHLq/wN2Bb6S9bPTFwAAAABJRU5ErkJggg==;" vertex="1" parent="1">
          <mxGeometry x="350" y="500" width="524" height="218" as="geometry" />
        </mxCell>
        <mxCell id="6Ha6fiWHf-EiZPGUzSEU-92" value="" style="shape=curlyBracket;whiteSpace=wrap;html=1;rounded=1;labelPosition=left;verticalLabelPosition=middle;align=right;verticalAlign=middle;" vertex="1" parent="1">
          <mxGeometry x="330" y="500" width="20" height="210" as="geometry" />
        </mxCell>
        <mxCell id="6Ha6fiWHf-EiZPGUzSEU-93" value="" style="shape=image;verticalLabelPosition=bottom;labelBackgroundColor=default;verticalAlign=top;aspect=fixed;imageAspect=0;image=data:image/png,iVBORw0KGgoAAAANSUhEUgAAAegAAACuCAIAAAByRAmeAAAACXBIWXMAAA7EAAAOxAGVKw4bAAAgAElEQVR4nO3deXwT550w8J9HGo0uZMmyDsuWhWwZ38YHuMblCFeANBelbJZkkzRtkn2zS1q2adrubrPdtm96ZJvtsX2bbpMemzRJU0IDCQRvCDgQ6jg2tsEXPmTLsnzIErJkIUsajTS8f9jG8i0ZDAj/vh/+QKNnZh6NrN8883ueeSZOp9MBGpdQ9DeP3JOnFPO5QY/N3HL6vaO1A3RUW+AWPfK93cE3vvdGczDKXW964sAOfdDW/OGf/1w1EOXKCF3Fzd779QeLhF7zp4ffOHbx8s2uDloScRi4EUIothA3uwIIIYSig4EbIYRiDAZuhBCKMRi4EUIoxmDgRgihGLPYwM25opCxCsF1rQtCCKEIcKNdQVHsfuHJy+UrgxSA8aDmc78loxvojBBC6NpEGbh59Ne/6tycSFYdlB/p5NpMXIzaCCF0g0UZuDV0SSJAs+SrvxXbl6ZCCCGE5hddjpuKZykOuJ0c9xJVByGE0EKi7Zy8wgcAiFuCmiCEEIoIDgdECKEYE2Xg5gAAQGgJKoIQQigy0QVuiSYoARgZxnY6QgjdNBGNKqFErIR3RWnwPb3XR4V4lZ/ycBQgQgjdLJEE7tATP+z/+qorAAABsuKXiuebl7hSCCGE5saRSqULlYkbNvGrakQfGznyVb4NpUxcg7jKcSMqhxBCaKbIAvclrtFCtrQKqpjAQ+v8Wr/wjToO9lAihNBNEV03o81CugHiJewS1QYhhNCCohwfMtbM5ixBRRBCCEUGB/YhhFCMiTJw03F+AIrPUktTG4QQQguKpHNyUohhN97tNSivcPt4gwHgsIQ3uHR1QwghNIvoAjfQXDuH2bjat2HL5Ud2u7dwRG814PAShBC6oeJ0Ol3UKwlCuelBreQKbaEqLThTIEII3VCLCtwIIYRuHhxVghBCMQYDN0IIxRgM3AghFGMWDtx6vf4G1AMhhFCEsMWNEEIxBgM3QgjFGAzcCCEUYzBwI4RQjFkGgZuz8+6DpueOv14UH1Fx/r2vP3fS9NgDhiWuFkIILVIMB27pw0efO3nh7lIKQFH0Y9Nzx3+XxZutHAdIDgCHz7mGacQj3df1I/nsvu+//eNfvf3MvXgGQQhNFdFT3mNboKryX7/UQNmswze7JhETFN9/4KuFcs7EkysQQijMMgjc4HZdrHTd7EpEjly1Zf/X1qkDNuuoUr3iZtcGIXTrua0Dd+ozT7yyXz2WIQnVH//bPedmaXRLEnc+s/0Lu1YmK8Bj7Dnxy8preYC9IHPPt76xNz3Q9KcXXjhqYhaxBVHW3/3zDj0xUPHDw4HH/uFeDNwIoRlu68A9XFn5S/cKDrVy9zN56tmLSHe/9Nj+cv5IS9uJ4y6O1vC5H+/zuBe9QzJr6115UhKgeOfWtOOvtC8i0TFq/PBo7UjvsXdbV+xcdD0QQre1GA7cntMvHuynXEYawG1688DB9+19gWkl6o3v1gNoOZvmCNzxD2z/YjnfU3X86S+d66cB4MTb+x/7r2fEi9gXAAAwve3d7q3FEnB1NPctMj0dtBx62wIAHGxsI4RmF8OBO9hb2dY79l/adf7IIrLY3NIdBjH4T7x2vp8eX2R69ZOaJ/ZukixyX46Tz3+1PVMd6OuwjUZfH4QQikQMDwe8dlKdlgtwqbMl7MGZbmun5Zo26u5rx6iNEFpKyzlwU3w+BQB+/0j4Ur+fnqM8QgjdEpZz4Kb9HhoA+Pwpt1SORfPFEyn1K5XkNW0CIYTmsxwCtz9EAwDFnXGvo8tk9AMkZuSGZfol6gzt4ncl3/rsL176yYsv/eIrZaLFbwUhhOazHAK32z5gB45Wm6+Y9kbw/Ec9I8Bf93Bh8kQrW//I2tLpPZORI1Mzs6QAAMpVeSnXcId9ZETFD/37z1966QePFUuXelcIoVsJRypd4Fcvk8lcrhi68XCmkNslydy+YWXJZpXKoFpdrs9JcLW0+68A0EYblOevK83eslmVnJm8/pGtT+4Ru5x8ichd99r5lqjvkWdH3OJVJRkr3BcO//Fou4tdTG0T1j5+/44t+UXrcnLSE8UUIVZq09bmFpXpyJ7OAU9YQUHZl75xX6ZElJieFqytaIrprwghFI3lELgBHPUdZkqR/Zm0ktKV+SWperrjLxWuEACEvC0V3Zc1qlWrU4tLNQkh2/vfOfQ+lbsly7+owA1BR9NH7779l2MfdywuagNwlGVfvmdDjjo5NVHMAwBSrFYmp6qTdSscZ/56MfyuzqAftIUlyRIOh+O4cLS6f5E7RAjFnDidTjd/Cb1ebzKZbkxtUNSyH3/puyV133nqlYs3uyYIoRtlOeS4b2Oi4i0lSkfdp8abXRGE0A2EgTtmcaTFD/3rgQ3w8WtvNy1mOiuEUKyK4Vvelznlrm8cWB+oePE7b9TGeA8EQihKmOOOWRySDDHY1EZoGcJUSczCqI3QcoWBGyGEYgwGboQQijEYuBFCKMZg4EYIoRiDgRshhGIMBm6EEIoxGLgRQijGxHDglj589LmTF+4upQAURT82PXf8d1kzHpVwy8n/7tMnTU89WQzj9a/ZtebaHrgzj6SiXx/Y91/rZQCQUrrzna/t/sdreETEDUJo/ukf973zQIYKJupfvvjp0RG6XcVw4EYIoeUJAzdCCMWY23eSKU7x9t8fKgu9/PI3Pln55DNrSw1SHu3qqjz7039r6HJfLSXOf6Rw5x0ZOQZpglIsAI+1pe/snyvfeOvS+LNmJEU/vHB36pETlYq195eIfcbzv/xmU+q/7P5CiThkafvDgXfebbm6KW7yfWVffqSoMFcqpoIei7WpsvbVF5vD9hUNUfGXv3tgu9L56f88/9OTtms6EHMq2bHn29nOP/yuaihvzd5clVbECbgunamq+U1H2IN2JKr7CnQlqQptvEhKwejoaLel5/3qtmpXaLyAuujXf5tlO3fOmZq3LpEY7mn8aVVg253Fm5TkaH/bL4821vmubouXubpgb4E2S8YXQcDlcp5rbnm9fginyEIoWrd7izuhfPvzP1uns5lOH25uHxFn33f3899bKbj6NpWy+182rzeAzdhz9nD1u4d77ArDAz964mffXSkO24j6vnWF9rZTdR5x7ppnD+3bDsYTFdaQIe/L+7MminEzn3n4Vz/bvE7raa04d/jV83UWcckju3/+xvrsRaWwBcW7tutFpChl3a4NSdfw8RcmWrdj+9dyBbYe82mjk5Gqdt216YvqsLd1WV8s1spCnjZT9/G6zk8GA9pVBd98aMsXpj6/M79wlWiw55NLoDKs+f4DxWnDPR92j4q0uV9cfTVDzd+4Y8f3t2ZkcYbrWtqONFq6gvHb7tjy07u0+MBMhKIVwy1uz+kXD/ZTLiMN4Da9eeDg+/a+wIxC4tzEmgMvP3/EAwCgzfu/R3ev21xUSvWcpgEAgO577cH/eL7eH7q6AqV+/OgT+x7YsP2Vnncs48tCLZ+8cKC6VzKYULN7Hd3zh6eOn3JLRwxPfzFXq6XaLtLAKd7w7P4UqD+x/7HqiSY2N/2Zh3+5f8PfP9J84OXJRmXvkePP1wdNxsn6d9KzfLaAqck4WpwtYqxNHZcWe4CGu15+/xJccgPAUEfDT12cvpmbIsSZorZ/e7WhiQYAUBVv/687EsuyE/9gHS8a6Gl4+r/dfWF1FGnXvLgn4/612iPvW67OcjVqbPhx5QCjCKU9lJvi7vhpRUsfd0j095vWJclE4B4FkGateTJXPNx0+lsnBiaOBq9s545v5qx5qGXg/5knvgB2+P2Ks3UB5/Bk/UcX+/kRum3FcOAO9la29Y79l3adPzL7FXfIeP5PRyau/C3GT5qD68oT9QY4PZ7i8Jjqx9/kSfjieC4HPJ0tHjAk6g0AVwO3zWMFANpltwHApUEaADz2EQCtWA4AAEV/U6gHV8Wrze54sSJ+fC13ZWfX/pTMO/Tilxuu5h5G6o2n6mfUf2a1+9797lfq9bKAxWRb9ByAtLuuY/wswriGzsyRkmhquNg0EZeHui2WjYlpCfGiiXjJXHb3jb1HcEQUSRIAI/a+YEaJXKIF6J7YiNPtYQDAPeoEULk9QwDA+pyjQArEMoBR4G/K14iCQ4cbhkHEv9rENnUPuXLS81MlYHZOLPO3d1naZ9QfIRQuhgN3RAKWQcvkq6DHDQBcYfzkovjioof3r1lXolZPGXbmF4S9DNDBsdV9ACGaCdATCykuDwBAmp0nBoCdP/unnTMqEIqnEgA8M5YviHH1ddyA9K9/aNg/+YpmRgGAR4oBJhq6/Pyigr35yVkJfDI8r0bySAJg4gHFgSALABAKBgAgxAIAsCGGBeByeABAJKQpOcBVPfTI7odm1GBUJCDBiVPUIhS52z1wh8Zj7ux45Zv/43fr08FVc7jyL62uSyP+EHC19+16fDOXA1yAq+tO/IcGmIxWAAAcAKD4KyQAYH3nW5Xnw4LgOPsl+7V/jCXDBpl5D1DJ1u3fXi0etVve/+tQ38ioJwQQl3jXztx8AqIYNM8lRSTAqOX1k919V6a/ybgvYdRGKCq3e+CeF3fdw2vSKc+JAy//6MhkxF23+Z7oNkMHvTQAwEiz8WzLQoUjxhGl6JUes8l1E6OaQHtfrhiG277/ZkP71fjOI7dF26XNskwQgMv29QxUz3eeQAhF5HYfVTIvfqKSD3CpvSqsnUypi4r5UZ7QXO0tHoDEz2y+bgMkOCn3fveln//4J79+4dF88nptNHoikYwA5tKl7rBoSyar0rkwdq0RqaCzywFAqUqSo1kLITSHZR24/ZdsfoDE/HL+xBKu/pHtO7QAwBXEz7PiNMG6Pzf3Ajf7iV17csMjPld/X9nuzYu5qOHp8w0iACCT81clLmL962R01MkCqVRNziXAk/3NupVSACCJaOYX8HzYODAK/E2bikoEYYsJfn5+1sZFne6U6x//wS9e+vm39+SLFrM6QjFtWadKgjV/Pt+7s2zTj5/42c62Vgsk5BrWl/ObKvryd6bIFVIOXAotvBEAgEBV5Qu/VD+/3/APh57eXNXZZqE58dKMYkO2lnvuO+ffgajTA7764ydMmduVzk+Pf7xEt99EVA3L+x0F+TkZzz0oOt3jHI0TZ6WnpLF91VZdmVKspAB8C29jjKvl09+kbN2fm/HtL6mauob6RkPkCkmWVpUi8B1/q22uES9zU5Z9bldmMkDy3n2bTzYdxZt40PKyrAM3+CpPfOMp31P7i0p2lmXSHmtL5+tPfXTImPefO1PSi7XxcGk40i0FL7742t/Xr3n48aKSkvx7N0PA7bFbeo79sulE5cz+ygiM1v/264/8djFrXleB6g9P/HS0cG+OZluhanTU3dbd8P2qztESWZlalqXhHO+K8MwGAP4z/1vRZ87du1qbZUjL58LoqG/oUt8RY8+HjkVUzFb/1/pd+mIlScpUKgAM3Gh5idPpdPOX0Ov1JpPpxtQGoSiQZQd++2zKe099/eBNvCpB6CZY1jluFNOk5VuLeX31tRi10bKDgRvFIlK5/vFvfznf+b+vHOm52XVB6IZb3jluFKMMe//1yfy+w8//6i9NOJUJWoYwx41iEUmSDIM3XKLlClMlKBZh1EbLGgZuhBCKMRi4EUIoxmDgRgihGIOBGyGEYgwGboQQijEYuBFCKMYsixtwuPoHtu9/PCvTIBYAABj/c/Wbx/BhhgihWBXDgVv68NGnv6ht+OfSozWSoh/X3F1QefC+L7XNfNA7p3zDv/1oTbK979Sr561uBsDVNtuD1a/Lvq4fyWf3PftPhXKwVXzrxXeNM94WKNc+9Lltn9GpZWTw8nBX9Zn3/lhrme0mwgW2gxCKQTEcuCOVus6QDMGaF1/70Vux8tgsQfH9B75aKOcAzDptKqnZ9tyTn88W+MxttfWXJRl5eTu/kGlY8ZN/OWVhotkOQig2LYMct1jC50DQMxIrUZtctWX/19apAzbrHLNMy++8+55sga/p2H888/s/vvT2r579xR9rfaRh69/emxDVdhBCMer2bXGnPvPEK/vVV59xuP2l57aP/3dajptf+MTmfX+TlaUVCyDocbt664wnXq48Vr+YQC/I3POtb+xNDzT96YUXjpoWc1e2KOvv/nmHnhio+OHhwGP/cO+KmSUSijamk3C59i9VVlHeY9/Lb/63N6vert22dqP+s4Xqw6esoQi3gxCKVbdv4B6uqPy5fQUAJO/Y9kA59+KrFce7xt5xng/LcWf/y8M/fEIdsvR8crjZTnMV2sTM8jW7Wj45Vu+Jfp9k1ta78qQkQPHOrWnHX2lfRIJi1Pjh0dqR3mPvtq7YOWsBQWqaFsBnbm4PQkF+ni4T8rm1NV0W90Z1ii5NBFZ3ZNtBCMWsGA7cntMvHuynXEYawG1688DB9+194b2FnhbjsRYAgPz09Q+U8/s+aThWMWMbVMqd96t57rYf7Tl4wn51oThZOe15YwvsawLT297t3losAVdHc98i08pBy6G3LQDAmaORrEyQ8wBswyMBkChlAhAkqiXADg86APQJaiWAO7LtIIRiVgwH7mBvZVvv2H9p1/kji0vkcnkUAAQD4eNMaE+/ZZH7cpx8/qvtmepAX4dtqeaJpgQkB8Dv8wGQPAAAgYAPoctBBgAEpHiJ9ooQuoXEcOC+Hui+s5WenfflPXtUvK6ys6m+r7XKarJfUzemu699iceIkxP/8V72MQA+36IeR4wQilnLPHBD8JNv/v47ls1/e59hyyMrtz8CAEFr/bnffPPE6Vt1zDPt84ZAzhcIAKw9NkdId8nqBk4ClwQAH7OIxDxCKNYs98ANQLvOvvjO2ReBp5DmlGdteWTdzuKyZ7/rbH/onHVR2xMp9Qro67Et1UT/tmFHALTShHgeQFft6RO+3vogEAlJcgDmshUfnIvQMrAMxnFHKGB3nT9S/Z8PvnfKDoI8bSa1mI3Itz77i5d+8uJLv/hKmeh6V3Ccr7fbAiDQ5WVyIWQ7/d+nTD4AfbpWAjBg7sYnMCK0DCz3wC3N3ywVhC/QrpBJAEY8i2q6kqmZWVIAAOWqvBTOQqUXabjhbBcDK4o+X64ey3ZzEsq/sFYNQdPHtdbFDGURFT/07z9/6aUfPFYsvb41RQgtjWWeKqFSHnhpd6Hb2lTXZ7H4CaW6YLMhnfKfe622I+r5TACAaTt5srnk3vRAU8XJ7kUOB0xY+/iOPCkA8LVKAM6Kwocelo8GgXU3v3msdhAAwFFx9Pj6J+/N/9yz/5He0H5ZmJFXqBcwxlNvvzsc1XbGCYp33ZOfQgLsevSuyvo3ehZXbYTQjbPMAzfdd+Llc1C+Ul9eWCLhAu2xtjS/+Wrlq0dciwu7vvY3vvPlN66lRpwV2uLCtUlXXwvUhXlqAIDhkaMTAZcZqPjeb9z7dmz7rG7tVhIuDzdXHHvvj7VTJiqJZDsTdT7zaV/+uhSSI1OqSOjBp/AidKuL0+l085fQ6/Umk+nG1AbdNNmPv/TdkrrvPPXKxZtdE4TQQpZ7jhsBAICoeEuJ0lH36a06BhIhFA4D97LHkRY/9K8HNsDHr73dhGkShGLBMs9xI1Du+saB9YGKF7/zRi1O/4pQbMDAvUxJuVxXMAgA22p+kW9WCHyS97nDY0seTEz8ZlJSh8+314ipE4RuRZgqWabOZGdLudwHExP3SSX3d3ScdLsnlyQk3NvRcdKNj+VE6BaFLe5l6ldDQ2eyswHgno4OM03/2mYDgJlLEEK3IBwOiBBCMQZTJQghFGMwcCOEUIzBwH29cTmUhEPMe1yFGerMO1J0usimoRKJddtSNPHXUidSkkRO1IgQZqizS8X4xd9ERLLCsEYmEU5fLinQpBWIqWi+GzJJpi2SSfiR7ZfPGXtq0q1CJNGVy2WSm12NGISdkwsgRIL4BA7BJThcguDGESR37D8kj+DwuCTFgaGh5nrv5Ara1A0PiC2/b2ofmmOD2pSS3RoJFxgVbbfYvexCNeAKkgo1YvGo/bAz7P4YQlasUc+YzY82D3V3Tb+LhirSl+1a4TzeWNvAAIA4Kykt2+dtbzOPzPOpKXGCQJwkTNCIJSqR2NV3+i37YqbdQrMglKWpmRk+ttvp9oYvFqduSNEF+myNnsgPtSA7paAUjANO94LPQSKEGY/maXvbPjzuHn+tk4jnjuOMzeWc+y8kAhxJviJxjtmNvSabdYilMjU5G8kek8OJI5iihIF7Iakpa++L5wSvhIIsGwRCSJJB2u1kmEAwFLjCMkGGzyUBxGXpK2HoQrVn/jhMqNSlezSSgKu7ntCW6tbuYKqPuxb4lY7YW+vVn82WyHhO2+QTijmSXE1aMssErkxsmkPywAPD0wO3RJ63SUoOW40tY8tZW/WQOzslY4ts4B3n9BgvV5V8Xi2Pp8bbZSxLO70jQ8PmPhoASLlYPOszLYPMSD+94Aloop7CzCfyDCJH7c+6bAuvQ2j2FBdlXhk4VNfQHuEObnlCmTadw5iGLMNTlycnKOLB/ZHjBj3FiODrdq1KS5jzfeeHDVU113IrLTexOCVTBQBAEAQQAEF24gu/4gw6rEMcda4YBvvMg/NsBM3u9gncZHb65t1y5lzr6Q/mjJ6RlJmGvdj5weS8S2Tao0XZ3r6/HnRMXZ0QaGUawnWher4fHZmsKdmbIud6jG91tVvAymaXlRnKuF21x5zT290KzYbHUiRTLpkFa7+mmqgTYznUOgIAFsvp14fG4r5s2+ryUq7HOvUsQAh096xU82nLe33Oq0Hfbm1tVJQVrywweuqm3eQ+cvmShe+56PcOs7KNeq3DdGrykxKabVlF6bNdxruHqn5ldkYauaNEAEDc/KmnWEEopMlaktSoEnmsx8fVFCsAAK4wjhaXJ0AoV8uFEHJI5IbyKYfS3Wa1Dc++wWvHXOysPDYyfSpMsaL0Sd01H3K6+3/OdQMAT1LwZJZ6sKvykGPKX5tck5oMI9VerkowpT3ABmk7g5MvzO+2CdyUtkxGBtztn84TkSMpM5VIKFdzw1LRpJgPAILE9ClpOa91wUYSIS7QlexUiIMe48H2dksIAJynLtawmSXlGeulA+f/0jflsfAjztajPopLrZCELg9ffXYxwU+RUMPuEW/IY2Vl4ZsXytIKKHAMdLaF/wYJ2RZDji7OU93V3BX+iVnHRybzyizdjozM4bb2/rC3gl5zhRkAAATUutk+x6ij+fCQe3INQnlHluGa8u/zY+0n26pqWPq2aJSRek3BtvEYJSnQ5RUAAADruWh2efwy7SoSAOTFKfIpK4UG7FbbMABBKQulghnRVKjiAgGyXJVOO/0t1j5sMTMAHFl+ooQCIEgZHwilLG2NIARA9/sAAK5cCQXY6T+HiC+fIiEs0CSLvd1nHYxIkrZR4j3TZx0FAJCVKCQEAeVZG8qn1dvV+LMOCz4Be163SeAm0jVpSQTdMGCZJ28bQZnpq6Qll90jm7FYs/YBTdhL1nq4Yb7Awhfqdqbn5Ahg2NF4yGSxX/1VhBwftVV70ku2adY+ITGf6mlv9I43NAI+RyutvGe1Qeeu+12XdSwTypMUbFEkj/pO/97hBTK8WsLCJDU/ZD0xGB5SJWWr1pYKQmZz3UczTlR+d+uRPslDKYYHsmDiRBKRIOO2eMIa14TAz8ISBm5ghj3OJWtv3gSsr/v1NuPEZYygNHtDGQCAuDhJzaPNbzY1mycPLlWYtW2nKDS2gCfW3alTztEMlpfp5DMW0g0+i5kBglKu0ejiCQDgCIGgEg0yAGCdZ3tuRE6GLzWUSZiWju4hACEpy9boQi7bBx5WKE/Lo6B/oPqUa+zzEdqU0jsEtorO7qGQB6P2Qm6PwE1py+VU0HPxU/d8ze2Fy0zHtvdU9vdOvo6jtPdnGfy9p49PSQyEPFfkubNugCPOTy7YopaJALxu8zlXSC3TqKcWoYfN50lDsVh3d56mxG48O9DTOdbgYW1/HXBm6vK2OhzvuRgA8ZqUZLHP8p7NO20nPImhWMwO9rW3XI2/hKR0VdkWCccxVPfO0KzXF+zgQO07ZPkelWFfnvhUZ+M5LwMg2ZhTWjzequPwART6bQdWjhW3Hm+8FNExixQhFqdtStVlCIU8oIecnRUm8yAb/nb2Uzlp46cE1vrOubqpE4WT+Rmb75HR1c2nT005HuL1eZs28h0VF6rrJ662eQLN+pSV2ZL4FRwIMt4hd391X3fn1FalSJK2WaNNFwsFAD56xOwwVg7Ypp3gJZK0TRptmkgo4ECA8Y+Murrs7R85p38dC7jCeBlmYh1yLH8lkGeuEbL95m7TzK+KDW8P040dpyqmdOTF35Fbvga6X2uZ0hnOk5d8RT9x8Lztv29oBwCJquz/6MRNneOdk4Qwew1wBPz4ZOG08zaHT5EAi3yC0xSEbL1Wy3M1nnYxAOB1dJ7XbChO0X7a4SzSqPkALOOxjPfEEtIQsEFPv8c5R68+Cnc7BG5Cp05LJuiWgZ65m2aRlJlFgPEOAwCI1+dtyHP/9ZVBJggQYLwuKufpVZJPmmrbSUWmKNhin2WPKsXqu1I1SRzweiw1jHyNTHenZK67VFnTQKNDklmsyN6rMHR2nT7ooAFgeKi5RrY6gaS4wFDyzFKx/3xbq3n6b1tYqEkW05Zj1vEATVDqOzMKioXksL3uTfOMMD+J6TJXvRVau0ejvjNPlmlt/bDfYRrq9HM5AJAgMxRLCLvTeGG8WeaxX9e/FUKQtjdTGHTZmkddKqlaK8/bw/p+Y5rsfWV9/ZUmDwWUISUzY5Zxk0znJYdfpl6VKPmoN+xULFBnCyHg6m+biNp8SfZDq9JU4DU7Le1MiEvK0mWZe6Wyiuba+on+AJGs6LEMjYT1mp2WIYZQyJJzUtbqRI1/6Jy8OONJ8h7M0klDnq7hHgcDFCVUitWliUNnnd4gXCNhhlzOp3s+sk//rggAYCF8+yGWDU75Axhrj7NBlg0vRsxyrqZWyWRcmJY7JtMdIY8AABLvSURBVPSp5frZa+WMrPJzIyRrDCVrBOC7knxPlpbHJXkcUkACT5C2TmHVUrSboUQURYwnZkgBSQDjv0E9szHvNgjcZHKZQgje9mrX3E3pSMrMJkN/5x7F+BDo4WlDloj4jfl3biOYEY/FMTwz+8JeZkDIOht6L562O/0cqnYyV87NT9+wnrS802a0TixiGK+3r79BlrExEWqc4jtXbykkJ94Tb/iaDgiCIAAKVu0oAABgWs3d4+9yxEqKAEKg4BMmLwtAFeoLioUwaK091GtbaJQVY+6r/sNozn1pOp06p3z043ccZgsAgGybmgQAl6unJqxzMrJjFhGeUGjrOP2eiwEAGNDsLSjKSEjWm23tk3kkd6vdDSBeoZo1cIN/pL87pM6SJSf1uvsnFqrkyXJguxzjySUg5Hfo01Qh63utdU0TYZonzn4sJ+2OVHVrp9UPAIR840qNhPVUt318auzc19ezMeez62XZm2XWiSGYhF6hSQBvfefHFZOnCSKe4lxz1AYAb2NHZYNAnK5bm+tqrHBO9i8TBLBs6HrsAkCgXS0hAEAoSSsj+qvHxzIx7V2nj8/4UQgUa59IBQAgxGm7k+SL6qZ0n+/u53JJlvF6WYIN0Zdot4/xe4OkLiktR+J5q6VGnvLZnXwxF9wBAAChlISAx4djTiMT+4E7SZWmJ5jOQfMsrd5oysyq31p30MEBgsrRFSRPf9Pfbjp/xkXkrlTyZjuMXlfDfzdMNJdCdFjXPellAVjGTXunxnvW7mw/5AQAKth7YXC+nws77BNuGd+y7WhrHWQVbcss8bfWNtJ0fdd5QuJthcyvlK5d8CcXcNT9rKv59+f7CySh1omQwZOuzKUAAPjilWWhqz/y64n1WWpcE60/xt5+mc2QiuUkQOS7Ym0tw0yOQp0rvtg/3k6TZMvERMjaMrFlXnxqDgVDA91mlhJdPRHSti5fWqlEmQzWLgBCnLyKhICrc3IoJ+uu7retyVCnJci5TuvYN8ghOADM1G48dmQRvXhx/EShmDs2iDNOKI4bPwQjdEgsSixOKHG1Vlf7xjbL4QIAzOg6XAxCr9QqQkyAQypkaRlqrdRY/UEAACAUYryh6XuIC7FjzX2ClGXI5kqsz480E+01bf9bw7IsAE+SeZ+K7OoztjJgIoTlBH3Z5w6MeglFggoGLADAEctJcI56rs9Z6vYX64GboylXicHXXeWYe/xQJGXm4PU5TDQlEyrHX4f/CbO03eMc4RmyZcrOwVn7O0mRgJrtAJNiAgiClAnEgZlvsswITQ86BxYYR0GGZV0Y6/sdrfF5edtSNV2dA6OM7ZwDQND/Ue/IWH0TEjMKhN7Wvv4pA6eJFbkajWgshRpyNk5eGQsLNWqK8Y6SQnlCWrJCpzZ9+q5j4RuFohL0jzgmX4XoEAAQ/MhuJZ3AmpzWUYU2Qy770ONkAQhhcqYAvI5+48Q5UrFCygNQacr3z7xaYCkRAcCCWCAWADg8U+6FCXidDlAnCcTxAA4AANY8bPPK1MWZG+IvWU0eZ7/HOUQzizgmhEC3J29KxowdO+uw7rOdrdq8vDsMOUOtzaYQjA1/hivXo8VNrdyo4Jvt/RKVstdSc05ddqehNGBZOBkSdDb857lF7jPIAgvjR4hLydJl1FAfAAODA3WHxhZ6nX5KphOAxQfcFTIVQbd5ouwwWL5iPHArVOkZHNZk7Z4nzEVSZg5U8apNd0pJAtgggBs4MplaBWAmOMD4PYTuMxllGRyZgu553w+qmWuTmrvz8+aee1F7f/6MEVwAwJhfb2g2A/CFylUCapYCrKfL6Rydtow2nxpa+ahmZT41UD3WaPVZq31jbxL5kowC0nFhwDhlkkdCk6TRUOz0kxlfmrlOHOrqs0pT0tx9NV2y0jvTy0mi+h0HXEcsO60huZiusKC7v4PRFkmTtWanGSApUS0DpsUxmSjnc0gCWHNfQ80s5x3/0FhulcMBgMC04xBkAgAQN3mD+Kij4XU2Y2OSRq8yZKgAAAI+a5WpscoTXWuApS3vmywj490Rghxd0erJt8zv9Sq/pNfdmzb8SufAKBDcOIBQePKaKsr6XNEsWzV8udQwY+HVixeqINWQxPQfdNDbVACs+1xHLS9FZvZRq4BDUWKVYNrBIfiTd92zgcWfsUm5WDJ2MwJfQAIQ8WK5fuy6J+jr93oDbps5pM2Wic/6PMnxSn7IYcK4HamYDtwc9WdVEoI2VzvmvsCOpMycaONA4+UBT7+XNegLM1n1lmQZFyA9de0dnY0fmPmFYpLDdr9r7RwE9SxrM/aPOupmu9WQ0KcUFZPWUz39zisz3mQ9Y/mc+ITsuzRimBbgCIIbsrxV5+yasd6Q2+HRaJOExIxRuGKVgGB9l6cH3jgOFyAYmhoxCdl6rUbgM1Y5Q3elALCeemMNf1VZqVweP3zr3RPBOlqHvUUqdY6k1eyOz5YJCcbSGtZVGWAZAA7LODpdc1Z+7AjwiKlpGi7JA4ArTNgl0Vgiqx0IUi5UZCrSyxTqOzJZ5/mGi1GddELefrdz4rugk6f+Abjtjadkm+6SpGZTA+doDpcAYMJb3Gz/UGf7lO9XmJ6k04Hj3OCU/gyuSLtePp4b4kozN8s4FrPRxE40FFhnVa+TEGYDEOm6DemzV/SaOydBtiFzbU7YVVS+vix/bP++7v9pujjI2lpdzG5VWrrdlpNA+Yb7ZxlUg2YXy4E7QZG2imQt5u4ZAy2iKzMPt8c69nto7DrPWbV+a9A7yhGGAtSaVWvjzbXvdU2k5GbPAnr7XROdZAJNucRXPzQ2dowUqYGN85qd1kGAeFlaJmOpmbXhFrIcrGsMj9FJqZsfVcxRVzZ0ZdaKCJQ6CpwO5/T+eoLgEcBMOTEQ2pSCNQK6paN7CCYuFVh3VcfpC0CPwvXsnIzYWHuT4BIAs32DFod1RJW2Si47ySZlUuAe6g//ou0eT0AlTJIqhPaBuRpzl30eP8jixTIhTF6o84QyOUDQ55klBcYyDs9Alcd+mbvtHpk0WQAXr+dICLrRVG0H9yADE5+aHTsvBH39VQOOQXt355QWiESo0GnBecHaHT6KjhD4CZo/SAMABEdHBtzeM0NemDGpFQDbafr4gxkDZIXywkdTrv2zXDrRXHkGAAAoeeGjKWR9R925sfQ9y7jH9j5occrTduXIxaSnesg2S+YQzS52byUm5J9JknGZ/qoZg6iiKxPZzpJTSrZKPFVmiwtgaODTd+xshr58n0Y2y29hlrVlG9NXb9QWlAlnHG5CtjYle1vW+t0K8bWdQwmVNHEF+Gd0lxE6pVYF3s7hGb9OLskHCITCTxhCvUTsd7aedk3N3rL06E1rCvkdPgaI+JQ5pjNkPf0XfSCSppYr1PHg7XA4wjPCfqe5jQG+LPNO2ZRDLxRqyuTjMwqwHquRAZ40rfzqLghJWbKSD0zX8NWtEXKxZOp8SdQKkgCgo8yURIAZi9oAwCEJYK8wY3UIegfO9E2L2nNifWGFGcuRDuMcg6NDDOMdoaf/cy8mez9LLUZp7zDtHaa9IwwLAH7aM/ZymBn/UKzXeMZBSyhhwNlZg3mSKMRsiztekZFLsoO93V1z/41FUiYChEJV8gWNwGI6Wz2qzgAA8Heaq9+Bst0pZQ9TDX8yWUfYgUPnrLO3CYHK15eUCUOW3rozMzOtrPPDtlpuZkmxvlwqOP/nXtvobJuYs2ZU2qNFyeIgEyAoGUWy3vamqX/9fEnmToUw4G6um/GrIDh8Clh3MDzweM73N9s9A/MMIuSSEq047HMSK/hLe+5nu4YGhuW61elllMPhYgGYS7VDjrCj5G5xeko1mjIFsHR3y7TGL2v7sKtbkZGWk7FJ7bb2eP3BOL5MJNeJKdZRW+MYa/bZzvRaV6arS7M2qRz2oRChiE/WC4hRV/PpyUm4yPTUDVsE3kG3Y9BHBwhKFa9OF4Db0d20dOPXCC4/DoLTOwMW4Vry1EuBEFFkiKb9AFyBOk9CAQA/PmOj1FGxBOOXblMxGrgJ2WfUcl5ooNo+92VqJGUWRmo1JXtS5L6h2vfsXvbqkDKgx2O3qmCnx/mWnWZnj9pkuq5sl5xy2WsPWecY6sTYKi5WezLWblSXPExeONg1MJmMjhPr5JrwRn381IEXbGDE4kvMIAkIeUxD1pqBKdfLIknmFzLS5FecH5pnzuBKJCXIxeBv802d0Mhpnn/ot0ie99CMm6uXdE7OoKf1YBfsTNGsUsu4AKwPLk4J3DDksDo0BgWAw9E/s//Z7774WrOjVJOWK1EUSEgI0W7a02XtbrNP3vzqdtS9yhg2aZLT5DotwfrpkdY+45mB8KmdGNOgsTlRnixUF8pIgmV8tLuxt/OM1RHViRYACGHml9dkTL4kAOb48+SKE5QEeJd2uiUOSfIl5PQkvYC8HmdjQpgkFEhIoYiiEiQCAH6BYVMOl5KQJBccHzRUd4gyd6cbklnbqU6bdmVesaF8Rd/5Y9Zob0VdnmIzcIvkhgIK7ANd7XP3C0VSZiFEckrZPo2EdjYenOUWRLrTXH3IG39pykTVlIIi4cpYFKcydKX3qcS0q/HPpvDVKSEXpozPDTnPdlQHV5VtkRf9HYf8k9E8ND7qQFaWPmOqlPCPc8XxUdvARzMrzpEUJOdtVstEIXd1Z22NDwAgWVVQzGd9ISYIwKOUOXIxeI1NUf5KRh2Nbw+OhE8ytS0nM6q5Slhv+3/XTJuilW3v+uAHM/tbJ951OJpfdzTPuUVf+8vTNzhFkLZVmWxV89bK7Ta+5zbO/T5rd7YfvfbuOgBgnK2OidkgCTJZrr16fwBfmrlLTvkYJsCyLCHUyzXxQDe6RpayuUxk6DdnzP7WtX5aQpj2+Rzd2N9GMES7vCMjtM9Fe0dorysICSkbHldIuPTA8Y4LDT72nJe5O2t1Tmr5E1Lzmd72C97rk6y5fcVk4JasVSt5Idung/NMOxJJmQWx/fauRpJTa54+dfIEustuAwBCaNiXnsQLhViOOElA+OxOJwCQMoNEHHRf/JPRMgwglBo2Skh/kAFKWSgEv2Nkyi+DdVd3VLOGktW07/Lk3YOWgw2NYXkeIil108NzdU5eLSRI25eTreOA12N+z9TaNNGmDnLis1WSiS+cHXGbPzDN9bSHOQUZz6A3fCor8RJPMnW7YRnbJ73GiYsqYblkMnAHWCpVrr2aSWdD3q6+86eu5e83guqYemvOzpjMhp+Qt2e2cVLRbdrT/W7HIEv7XLR3Sh8JR3lP3tp8inU4mt/tMQ+GAACC9MDhZk/fyqI75Lqtqd6+tu5o75VbZmIycLs/ajr20XUoEwF6oCKCJ9yztMfOhJIIIEKeLru1utcWBADGerzl1BkY79kLxMXnqdU8AAB21GP+oNc6vQ+dddd0nK4fH0cBbJD2BJjAlBQMGwz4LtPM/HdksL6eD3rIDLb/nNMTvouhgY9fGAACCIKYOYw6AuzAW+cGZi48OHMhmh19vrPSCIxrcom3qvnY1UsB1t3485pmHsHhxkEcAB1a4IteBJYNTR1/GPL5nZYZgVskYK7HuAWvxTXbBV3I9tc+oyNkqXFNneYl5D7X9XGnXSkZtWLUXkicTjf3LSIAAKDX602mCIIXigQBxHW6iRkhtGzF3nBAKXf8KuHBxMQL+fkHDYZYWpKQ2JB7K9UHl+CSW3IJml/sBe4z2dlSLvfBxMR9CQn3dnScdLtxCS7BJbfTkpsdY2JA7B2jXw0NncnOBoB7OjrMNP1rmw0AcAkuwSW3zZKCpqbZfvpo0sI5boQQQreU2EuVIITQMoeBGyGEYkzEgVvAamWsJLqZ7hFCCF1/kXZO5u62HXuEBohz9whf/W3CT2qxqY4QQjcHRyqVRlLO7eAZWwT1A5BVOrq9EC4cE/QsfgoQhBBCixdp4A5d5rSbyfrzAm/m5e2GK/a/ij++LlPuIIQQilK0GY84m5MADiuJKNojhBC6/haXqp75pESEEEI3CPYxIoRQjIk+cIfiAIDPu/5VQQghFImoA7fNTQCEclct6QOVEEIIzSnSUSVX2S+z27f7snLorDju8GUC4uJofxyODEQIoRtmMZNMae8Y/v1XLxsEAAAwEP/gE9IqjNwIIXSjRD+t60rPz5++bOBxW06uOHyBtF0imzFqI4TQDRR14M7d6CkWxRkPKj//W5JeuDhCCKHrLOrOSaWMBeC0tGDURgihm2MR47ivAIB/+hPKEUII3SB4Aw5CCMWYqAO3RHAFII7GFjdCCN0kEXdOCliDjFWu9D5QFIIAZbQsZaUQQgjNLdoHKQAEuFV/ij88soR1QgghNI9Ib8ChNIHNK1nazTF2kRbfUtcKIYTQnBZz5yRCCKGbCEeVIIRQjMHAjRBCMQYDN0IIxZiFR5UIBIIbUA+EEEIRwhY3QgjFmEjHcft8OAYQIYRuCdjiRgihGIOBGyGEYgwGboQQijEYuBFCKMZg4EYIoRjz/wEn0clp2PnqHgAAAABJRU5ErkJggg==;" vertex="1" parent="1">
          <mxGeometry x="340" y="815" width="488" height="174" as="geometry" />
        </mxCell>
        <mxCell id="6Ha6fiWHf-EiZPGUzSEU-94" value="" style="shape=curlyBracket;whiteSpace=wrap;html=1;rounded=1;labelPosition=left;verticalLabelPosition=middle;align=right;verticalAlign=middle;" vertex="1" parent="1">
          <mxGeometry x="320" y="1062.5" width="20" height="175" as="geometry" />
        </mxCell>
        <mxCell id="6Ha6fiWHf-EiZPGUzSEU-96" value="" style="shape=image;verticalLabelPosition=bottom;labelBackgroundColor=default;verticalAlign=top;aspect=fixed;imageAspect=0;image=data:image/png,iVBORw0KGgoAAAANSUhEUgAAAfYAAACjCAIAAAD3vasbAAAACXBIWXMAAA7EAAAOxAGVKw4bAAAgAElEQVR4nO3df1xT1/0/8Lfc/GxiCBgIQtIQCBKFIL9kwBCKygRtS/2oda3Talvd1xU3u26126qdbf18ajdnu9q5j7arq9PWUqd0KvSDSkUKFvlVgRogEDARCUQSYtL8Tr9/8Cv80hBBJb6fD/8wybk3h0Be99xzzz1nmkAgAIQQQp7I615XACGE0GTBiEcIIY+FEY8QQh7rziKe+MHPx+FHn6C6IIQQmlAk9zbzi9W9vfFmcrCNCiDLDVz6Idk8sfVCCCF0x9yKeIr5N7/SpHPIpbkz8ppInXIS5jtCCN2H3Ir4QHMcB6CO9asPmV0TXSGEEEITxZ2+eKq3g0qATkPoJrw6CCGEJo57l1t/oAEATJvQmiCEEJpgOGgSIYQ8llsRTwAAgH1CK4IQQmiiuRPxrEAbC6CnG88AEELovjaOETVUhoNF+cFfZNy80ki1U4q+oeBYSYQQup+5HvH2Df9z7TezfgAAsJAL9vrtrJu0SiGEEJoIBJvNdq3ktG45rbSccUFGzJhlnJ9gnVbNLL0xuZVDCCF0J8YT8WqSTEGu/45earWsTjLxTQ8dqSTwmitCCN233Llk2qkg6wC8WY4Jrw1CCKEJ5NaomN6mOzGhFUEIITTRcOAjQgh5LLci3jzNBEClOagTXRuEEEITyPXLrYPsVkfqo9+L/H8gKSnXLUA4vL63TUbdEEII3RF3Ih7MpC7CmjrXOH/BzbXLdAsIxtFqHFqDEEL3nWkCgcDNTen2iFAbn/WDWUEtUuCskwghdN+5g4hHCCF0f8MRNQgh5LEw4hFCyGNhxCOEkMdyNeKFQuGk1gMhhNCEw1Y8Qgh5LIx4hBDyWBjxCCHksTDiEULIYz0wEU9kPpor35Z/OMbbpeK0xw9vOytfv0o0ydVCCKFJNI7lue9P7DUnN6/jV/8u4WQ5K2ZX+aNRRbnZz0otI8oRQCYACBpxB9Pcu/peE4f146d++2L0DOgseGX3F7KhL4kiExbGxMwOnMFhsSig67zWcLE0/1hNh3GwzIwfLVg0XxQS4s/hTKd72Yya7qt11Wc/K667jvPGIfRAmPIR7ypLadEfnq2mdnZ03+uauIwe+8SWX0XPIPrXYHFGhGZtXZPGAau6U9kkuwr0mWGCecsF0fFBf/vDqQZDX6mZP05NS4QbVzuv1rYZ7XRvXmD4I4vD54m/+OP+AhmmPEKe74GJeNBprxRp73UlXEeetSDn10kBls4Og3/A9JGvGzu+OfdRcWlN401r7xMMwX+9sXGRMHXVsurX/9Xe+1zzJ3975b1OnXVgK7rw2Y1bHhNkrIg8/1aNceReEUKe5QGI+Idf2vBBTkBv/4y9Kv+nyytGacizOJkvZazICg7yA72stXBv0Y07eEd6+PJXXl4Zaqn99O23T8qtt99gBIb4Z79bLPRqL/ifE5b1v3h8ZMTb289/0D7kGUNbfoEsbZM4YJaADu298W283jk0x43yYtmNxwID/H0fAsCIR8jjPQAR311UtFc3naAGL3spMmD0Iuxl+9bnJNN66qWF+VqCL1q66ym9zu03JIsXLolkkwFiMxeG5H/Q4MZU+gbZmZOXeq6e+uK76Zkub2SzAABYTcaxu2BIwmTRDABdU5v7Px5CaOqY8hGvP7879xpVKzMD6OSfbMk93aUcdv1TXyX7ogqAT6SNEfHeqzLWJdP0pfmbn624ZgaAws9z1r/3EtON9wIAAOvVhhbdwlgWaBvrlG4ulWJTHPtcAQDEKH00Y6BHJwrIYKurah523jBj/tKsWBaZTGMFC8KDyDcunfrHx8PLIIQ80pSPeNvVIunV3v+atTV5bvS2kxIWi5hgKjxUc83c95T847LyDSvTWG6+142zO3/VEB5gUTZ2GsYqM9FYP37i8Xi6tfHUvwtvDn8pPDL5Ed/e/xvbar4uqJPftWohhO6pKR/xd44t4JMAOprqnfo3dB1NCkiLcH+nOmXDXewKIc9a8PMXomfcqNn/p+KOEecN8g92/eIDAPr0gMiYrGcWP74tNOR///a3gqkztAgh5K4H5tanMVFpNCoAmEw9zs+aTOYxyt93yKLUX/xhsdBQ96/XP6lRj13OeLPjUvFHO7+UW6dHrloQSb57NUQI3SsY8WaT3gwANNqQ2157c999DH9hsP9dSFGyMPUX25aGO6RH3/yk9JoLG3TKGtoBpgfxAie9bgihe+7BiXiT3QwAVBJl+AtaucwEwAmLcOq0YgWE8d1/qxkLf/vXfX/eve+vv0xkuL+X2yMLkjZsXxpuqvvXqx+db3PtViYv1gxvALDacMgkQg+AByfidV3tXUDw+RK/YS/Yar5q7QFa0prooP6Wu3DtvITh11pdR344XMwGAPCfFcm7g/kSbvMuwqQNf3wi3Fizf9uh0dvvdMG8peIZdKdniOmRzy6NZgMomxuGD/xnxK7+47v79v33+lj2ZFUZIXS3PTiXW83KgqMdmTninCMr55SqjWYw1lcfydPaAXpOFB19MnhjctZ7x4QllVqCH5ySTOvugqDhBwMXWaVnz9bFPR5qqS042+LmoEnfec8vjmQDAI3vD0BMj169ZobBBg5d3SenLl0HIIf+1++fiGTbbihIMWufinHetPvKF/+ouQEA5MDk9U+sf8Z4o639usYIxHROSFAAmwTG9oIPzyqGVYwem/WYhEcGyHpmSVHVkVb3qo0Qur88OBEP0LD3k53Ux55bJVq6VkwA9OTJj+Zp7QBgVh9df8jyetaKdNHSCOiWtf5nS2595vo3s918I2PDkdeeO3InVSWm82Oj580ceEwPiO4d09/dc/LUpesAJN8ZPgBAmiGJnDFs2+u6M/+suWEHMDSc/azMGCng8wPDhXQy2Iya7oavqs9/XlxzbUSvjrGh+BulJIlHJnz8uWRoxXHzCHmCaQKBwJVyQqFQLpdPdm3QPTb7+X074ipf2/TBlXtdE4TQRHhw+uLRbTFiF8T536j8Rnb7ogihKQEjHgEAAMGOXf2HLfPhwqHPa7GTBiFP8SD1xaOx+We9vCXFUrD7tSOXptCMywih28C+eAQAAASZbLdi8x0hD4MdNQgAADDfEfJEGPEIIeSxMOIRQshjYcQjhJDHwohHCCGPhRGPEEIeCyMeIYQ8FkY8Qgh5rCkf8ew1J7ed/fbRBCqAX8wu+bb8f4hHLPpx35Hs2HxWvmljLPTVvzwr/s4WmbqFmTF/3/LUeyk+AMBLyDz+62Uv3MFiJ3eJV+CLLzx1fFUYF/rrn+z+9P0IPcimfMQjhBAaC0Y8Qgh5LE+fhoyIzfjoWKL9wIGXy4I3vjQvQcSmmLXNRSV7tlc36wZKMSVrozMfCZsjYvv6M+mg76hXlnxWdOSoWt/7Oivmf7599OG8wiK/eU/EMY2ymr1bax/+/bIVcUy7Qnpwy/Ev6gd2RQrKTnxubUx0BJtJtekVHbVFlz7eXef0XuPBiH1ux5YMf803/9y552znHX0QY4pbvPzV2ZqD/yhVRcavjODyGYRFqy4uLd/fqB8sxOJmRwniHvbjezPYVDAYDC2K1tMXpRe1/WtHBcT8/afizooKzcORSRyv7tbLe0oti34Sm+ZPNlyT7j15uXJwqVhK+NyolVF8sQ+NARatVlNRV3+4SoWTnyE0GR6MVrxvcsbOd5IEnfLzJ+oaepizsx/d+Xrw4KKmVN6y36eniKBT1lpy4uIXJ1q7/ESr3trwzo5gptNOArKToruk5yr1zIj43x57KgNkhQUddlHkczni/mKk8JfW/O2d9CS+/ruCihMf11QqmHFrl717JGW2W13t9NisDCGDzOAlZc2fefvid4CRtDjj1xH0zta28zKNlc3NWpK2LsDpZYF4XSzfx66XylvyK5vKrlv4s6K2rl6wYujSh5LoWYzrrWVq4Iri31gVG9LdeqbFwOBHrJs70JNOS128+I2FYWKiu7JemndZ0WzzXvTIgj1L+LhgLEKTYcq34vXnd+deo2plZgCd/JMtuae7lJYRhZgRnPItB3bm6QEA+JFvnlyWlB6TQG09bwYAALPy0NN/2lllGlzOlBrw/MkNT62an/FB63FF33P2+rK3t1y8yrruW74sydx6cFP+OR27R7R5XQSfT5VeMQMRO/+3OTyoKsxZf7G/2U4KfWnN3pz5P19bt+XAYEP1al7+ziqbXDZY/ybzKD+bRV4rM8TOZlg7ahvV7n5A3c0HTqtBrQMAVWP1Hi2hHLkrL2Y4Q7r94+paMwAANzbjvUc4ibM5Bzv6ilpaqzf/r07pVEcGP3738rAn5vHzTisG5i8zyKp3FbVb/ewhqyN4usY9BfVKkorx87SkmT4M0BkA2OL4jRHM7trzrxS2938alMTMxVvnxK+ub3+/rf8X4Og+XVBSadF0D9bf4O7Pj9ADbcpHvO1qkfRq73/N2pq80c/37bKaT/P6+x0UsrI6W1IyRyiC830dLHp5Vd+LFBaN6U0iQN9UrwcRRygCGIj4Tn0HAJi1XZ0AoL5uBgB9Vw8An9m7fGrMk9FC0BZ8XKfzZvp5922lK2pqzuGFPyJkHqge6PnoqZKdqxpR/5HVVn6x45dVQh+LQt7p9jyQZl1lY9/xxqpVFY/RIVJbfaW2P8FVLQpFKifE15vRn6zWmzpl72teBINKJnsB9HQpbWFxM1h8gJb+nWh0eisA6AwaAK5OrwIAh1FjADKd6QNgAFqaJJBhU52o7gYGbaDZLm9RaeeESh5mQZum/zlTQ7OiYUT9EULjNeUj3iUWxXXF4CObXgcApIe8B5/yjo1ZkxOfFBcQMGRwnonu9NBi7l3T2mYEsJutFnP/k1QSBQCAPTuSCQCZ77yYOaICdm+qL4B+xPO3ZdUqG+9CN7VJ1W0afGS2GgCAQmYC9DeeaZKYqJWSILEvjezct0emkL0AHH2PLDYHAIDdZgEAuwMAwGG3OgBIBAUAvHxD/AkgcVevXbZ6RA0MDDoZNDihMUIT68GIeHtfOo+Okpz+p3+khIK2/ETRv7/TqntMdiDxs7OeTycRQAIY2Lb/P2aAwVwDACAAgEqbzgKAjuOvFNU4xWWfLnXXnf8Yk8Zhs97yA4pbmPHqXKahS3H6a5Wyx6C3A0zjLMmMkHjBOG5CIJEZZACD4vDZFuUPw1+06tSY7whNuAcj4m+JlLQmPpSqL9xy4K28wWxOSn9sfLsx2743AwD01MlK6m9X2GUEgyf017fJtfcw/+j87AgmdEvf+KS6YeBIQCEvGu+leofDagMgOZSt7RdvdURBCE2YB2NEzS3ROP40AHVDqVPbmxoQE0sb5wFQ21CvB+D8KH3CBocQvMd37Ht315///vYzEvJE7XT8GAwfL7Cq1S1OuUwO4oaSoPf8xVU2TfMNACo3Lmg8WyGE7gBGPJjUnSYAjiSZ1v8MSbg2YzEfAEh071tsOIyt8rO6q0CavSFreYTzsYEkzE5clu7O6RJFKBExAIAcJJnFcWP7CWIwaBxA9ucOzgxB8XkyKZgNAGSv8cwWoT9zud0AtLS0mDi609NeNIlEnOrWgdE/5fn//uu+d19dLmG4szlCHg87asBW/lnN1czEtF0b3smUfqcA3whRSjKttkApyeTN8GMToLbfficAAJbSorf3BuzMEf3i2Ob00iapwkx4s8NiRbP5pIrXao7DuDsnjFX5hfLwDH/NN/kXJunGJ5eqoTjdGCWZE7btacb5Vo1hGlMcygtxKC92CBL9mf5UAOPt99FLW//Nft7CnIiwV5/l1jarlAY7eTpLzOfy6Mb8o9KxRvuMzT9xaVZ4EEDQyqfSz9aexNunEBoOIx7AWFT48ibjppyYuMzEcLO+o77p8Kavjski/5LJC43le4O629U92a7sPvTzqvg1z8fExUkeTweLTt+laD21t7awaOQVWBcYqj78zdoP3dlyQlkunincY4heOSdwUTTXYNBJW6rfKG0yxPkkBviIA4n8ZhePgQBgKv6yQNkWsXIuXywKkZDAYDCq1Mo8WeuZG25UrLPq66osYaw/mezD5QJgxCM03DSBQOBKOaFQKJfLJ7s2CI0bOXHLh7/l/WfTb3Lv4ZkOQvcp7ItHUxs7eWEsRVl1CfMdoVFgxKOpi+yf8vyrz0k0X36Q13qv64LQfQn74tGUJVr5h40S5Ymdf/t3LU5hg9CosC8eTV1kMtlqxZtiERobdtSgqQvzHaHbwIhHCCGPhRGPEEIeCyMeIYQ8FkY8Qgh5LIx4hBDyWBjxCCHksTDiR0d7/PC2s/L1q0R3WAZ5IiJxyfLjW5au87vXFbkzkvTHjv/6ya2zJnD6fiL10SeP/3r51rG+E17cF37+1PFfpmXRxyhwn2NH7N7y1PFswT1cvmG8pvzdrew1Jzev41f/LuFkOStmV/mjUUW52c9KLfe6WvcPyY7N76y1HV2+b38Ve83Jzev8K7bOz68w335DN3gFvrgpLVVd8f+ONqlmxvx9ldhafmpz6bDFtSnhc6NWz+WL2TSw6xWKtrzi+mKt63NVTihf/uo4QXiAT4g3nUEirGa9ov16cVVdnsKtiUHvHIUpCQtZNCswhMPgMihwz+sDFJ5QsGg2XxLgzWXSGA6T6kZX1eX6w/WaMW8nJggAAC8CYNTfKUHxAvAibtm2pEjmL9g2z4dsaHrzQEWlY9xl2H78tEhBEt+HO53OJuxanUba2JRboWiZpFjo/VOvKNhcouElZL6XQj+Te/x9xe23uzumfMSjKYXo/2aqL15RWJjcuJCIF4N8GJ+cz78XMwEzZoaskHAN3TrlNY3eDhSmjzg0bJ2QLyksfLPejcXU7xR7dsLrC7lgs6i6NJdVdoq3772tD/iGbc2O4nnZtWpNS1uXheItDuJnLebH8kpe+VIx2m/MXnm+cHuVvVM1xjHboTpyvPAMYWkZ+xARnpC2dZ7PLZvJtyzjxVn9RMqi6WC9qWlp1zQDnRfITUzkxoVK3zhaXfvgNf4w4tFdxBGvi/MhGxR7/lVSbAAAImTegrfmB65OE5Tltd39kDe0VG7ep1c6LWnCDk1467HQuBRx3JWx2o+TyKpX5RdJT9e3K/uTiDsn5a1Mftwj0amykuLJOfW6FZu+srJ8/7ettbq+yCZzxNtWxUgi4ld/1/6+YpQcN2jVtbf6RdpVHWrV2C/z5qa8ksKhdOu0bNZY64Ddroy9pan+fWnj+Q5T373PVM665QuyA8Qb45tHnFN6Ps+PeKZkbXTmI2FzRGxffyYd9B31ypLPio4cVQ9pFbE4mS9lrMgKDvIDvay1cG/RKCtUuFCGiEjZdzKd8fFH6/fCsj9kPJ4e4McCY5e65sDx1w8Mrh7FjI1cm5P04ziOHwssXVpZZe3nuy+WyIYsCxWQmbJugyQugu1NBaNOr6pTVnxW9GHekC4NV8q4ihH73I4tGf6ab/65c8/ZSZqZN3x2cIgXKGsvFxtoWcse4VcU7q+uL4tNSxWEJjHa8g0AXqzs5Rnrgkz5xwv2tw1+XlnLF2/kOy6ezt/V2N9lQWImJkQ9IZ4ZwqKAzaS6fu1M+eVhHRpkUfLhxwXSL4+9cZ27en5EGt+HTbIbtOoz50sOyi0AAEa9cmgNtfK2WmMol87wJwMMRKoXMzExemUEl88gLFp1cXm1dGADL87GZzOypjVt/7CiduQhwctn3drMbHrzmwfKK20AQJHERK+O4YewCIteU1lVnWuPem+hz8UvTuyS2QHA0Fy/f+gOVNL684n8bLaP2B+Ke8/9WeK3no3h1p/LqWGue0ScxGUxwNTScuXgWWntkGMAERIR9fRcntiXySDZDQaDUqUqq7ycd+0W7ViKJDltayLH2ly+7VSz0gagazt4YUgJq7rpdHOEZA5NHMQAxWBchiQv3Z3IGnjY8NXxV6qGdi6xI3aviwrp7Z9xqPYfOJc/oiFPnhnzanogo7vpL19olqxNGDXib1/Gocn/SjPkGbM691vVkoBA3kw/Nuh6D0Bxi5e/Oltz8B+lqsj4wd9safn+xiG5wAgIWzd/VhKXRQG9oqXlSO1odbq/eXzEU3nLfp8e16mUylq/K9UbgSlMFq96S5Qw55Mtr7X2/zbZy/atz0mm9dRLC/O1BF+0dNdT+uFHe1fK9GH6h208kvi4v76xTiYz02ZG8iQRgwsEeqdn7N6XKARtbVFtWaeZ4s9LSE/fkSzc+/Sh4/X9e8jM2r0vPkCnLi+oUPQAw58jiBAvy2466BTfrpRxHT02K0PIIAMjKWv+p2ePXR//Hm6PJg5kAZikCh1QBXF8H57GBxSq2g57aqiPOIDIb7aDQ5dXUCF5OjnrJz+6/K/Si0YAgJB5SesFFFX1ub0D+e7FzHps8UYhxdDdXvatzkLnxItC1y3nhvznyz3NwyOM4R+2NSUqCjRShUIKdF4gR8KhgHz0pGMI+BI6QLemYTAuaamZGS+KaQZ1e5lMZ2FwkhY9Emvsv0Tp0Eg77Fkin3Am1I78c6ByQthgbbshtQEAEZ6yYFuCD9xUl32rNlB8YpPTXv3+dp+Zo/efwzJ0Nh52QMS2FT6MDkXZlS4uny8Rx2wlGXO+GDwT4sWkvZ7OpdxUV15RqiyEjzcrhB+yqLt57IinxM1fsHWeT3dj6Zun25RjnsHYrXYHABgsQ/ajaqp+v4cOAAyeeF0Ea5TtvlfknjX5ADkqLiZxjPa5VdWUV0sYLlVctIYuGePtXSkzksVuBwCrzTb0U2QkLc4IYZsqW9taqD7xIm7WkjSL7tTBjr6XyQERr6+ICvEyNciaWoxePIF4a6bFMtVGqEz5iNef3517jaqVmQF08k+25J7uUg752zMrDz39p51VpsHUowY8f3LDU6vmZ3zQelwBAOC9KmNdMk1fmr/52YprZgAo/Dxn/XsvMZ1340qZAcz0xLT6C79aXnKl70tPE0aQ+mrFCn5uV6JQJ/3T07kFsv7yyRnvHU5c91LkuWfregAASHHZkQGgPbXlwF+KBpr2pCARyelHc6UMAMDVvPydVTa5bPCzahrthN8ir5UZYmczrB21jepRfyoXOLpPF5RUWjTdANDdfOC0GtROTTUvJnc6gEOv6gFgeXO9wNebwQC1SmcEYHK9yX0X6G627TnD3f1YaM5Prsnz2roDol5M4kDH5T0XVAP7YoijVwsp1mvV249JW2wAAAxB/O5lYanpUWfaKmqHLpLLl4gpDSWbCxWq3tgiMUOYQ1eb5YRujJvBmEZieM8Qz2TCjbb9+fUt/S+S+ZHrxTRrx+Xtn9X3vhd3TsruTD70haC9oV0Ds3xCAwjQDT+0kgN8QrxAcb3LAACssPWxPmRD254jpcUGAACGNH73sjCAW3YPcwLj2AC69rJhJ1Z+PpbCL1+p1QMAUJQvPJO2KLj/TAgAgJkWyWXYVAc/PZd3c+Dzp3AZYx38aXHpj2yNYXV/V/La//V/UKMicRMFNLCpK1qHNNINXe1nugAAGF680SPeortYqwOgUcRjRjw49PlnKwAAbjHexpUyw1GSRFwyWCplqiFnDl7McIZ0+8fVvWc/3NiM9x7hJM7mHOzo/QLQlsyPCKGYLp48tavRAgBAaVn304zs6SN23/enrgMAVWP1Hi2hdPsbNAmm2iFpBNvVIum5go5uADBra/Kk50uHXZbSy/vzncKi+fKZfv76pno9UDnCvoFdpITFIiaYyg7VXOvPPvnHZeVDmmSulHHW8fnWgXwHAJO8/2IZPWtemh/IT5RVmpl+/L5/dEVTpQyYcWESat8GFCoJhg9JsF2TDflWuVIGAHqqZOfyWuW6wc+qZ7Qa25Vf7Pjlr373m19u/Wet+9M3mhqaFcUKvRUAzLrKRkVlt3P9KAwyANgNVgCCIAOQaRQygMHqAAAGhTJQztBc+X6ljhIa/2Ji2MbMCJ5ddfh0fcNgcBNJYYEMsJRVNLX0P2loq8u/ZgfWzKSZw+tENrYdPOsUWzZ9y9DTHLI3NzUiNHWOIC6IyTCqyy43ljmtyC6exWeD/fK3g++lkkqLnX7zqna1ykEIA30AAICVnZ25e5m4t0eCP9OPAaaWazoA4Ir44SRQfXeluD9mDG3SM7folgYAEmvFwgge6IvP1zcMi92bbbkDF2At7ZUKC5AY/IHo9CKTCQAAi/NWDovq5mgR70VPzFi4NYal+rbklYJb5jsQkpT4NJZdWV2d5/KCxvccWxT9tIhivVZ/5MrwL0dt9ZWB3i1Vi0LhAK6vN6P3MYOfFESAtvWErP8YbFGfqFaN8uVw+lO3alXFje0tLi9YfxdM+Vb87XnHxqzJiU+KCwgY0rgw0fsesgV8EkBHU71T40/X0aSAtIiBx66UGWSXXSmRjfI8AIjmBDABmBvWf7ph5Is0b2pvB7Ct5qvWnnTR0nc2BORLK6oV31UqG2WmYWnuQpnxsWqVjXfrkuf3RgOA1WQxAPiO8rK99usLn/EyVyfHh4Pp4unSPOd6ebF4PgQ41C0dzj+tSdphBD6T50sBxZB2sUHRfnlou34Ya3Ppz/5SCl4Ee0bg0uToFQszJDNLXinoHTFCC/GlgUMn73Tap0PTcsMOA2dwalWDVZzK9WGDWssKTBX6hAAksaUt3ZRwLgMs7bUqAACeHxPALlc5Nwv0DZ0mmDlWM4uW+pO01UH2hpKSvSN6n0Dbo3DKYoPZAkBhDBwlHZoymS47gbv+qQyxTCFVqhuua1oMo49iFCenx7GZZIeu8jvVrX/9vLkpW2NZhubyXV+rp8oszuSAiFcyQ7m65j0npS3Dj14mVbdT6JutBgCgkJkABgDw9eZ6gVWtdt5K26XpdnC5d6HeE8fTI56SnP6nf6SEgrb8RNG/v9Oqe0x2IPGzs55PJxFAArABlUajAoDJNKRxazI592a4UsZZj36sNo63Nw3AVnPg+PH6EbFj1g90AHd9nPtbc/raNeK4VSkJqwAAjArZ568dP1g0+CfpSpn7i8VgBaASDDLA9zqlGRg6gxWAQfaCEZ+nboUAABMvSURBVH274NBdlGmenMkhG1RlbcN+IKLvbGDox2+wWqHvbGDIrvQGo0t55LBruxSH/6Mn/ywzWxz1RI3iYAcAkMhkALCYh76X3nmPNrW0w54a4CcmNUkFgXy9qtbGkQTTQOsd4k/ADXWDpbfOZAC7xTokZy0WCwBttNrQEjMW5ojpLZfOvVGuGaX+Nsetf6iG0rPbv49aGcVPio1JjQUAu/Z6y+Evq890Dw96NpvSIm1nzArMzoqp/VdF5Rj9RtyIlDfSA0FR/cap5rF76u8vZD/xtmVR4WbF+/8uLx45TNNhs4597CdTKGQAi2Xox2WxTLn1xTw84klJa+JDqfrCLQfeyhvMiaT0xwaLmE16MwDQaN4Agy2s3kwfTxln5tFv+wAAvckEwLQpW0vybh3Etuajha8dLQQqTZgsSnkyaUWmaM07WVfnHz+nG1eZcSAYPKG/vk2unaQWmkOvugnAYnK9AXSqMxVNUrkagOCy6AAWVc+QdyX7Rbz4Iw7ZYDIwBOszrjV80ebUpWE3WAGAYFABnL6iDDIZRh4qAKw/jKuSmtrrpmwOK8SPAh2WvsMSUKhDf9XMIUOyLQ3XDcD3EXMoFKGPoa0s1xq3TRDEbqWF0EHV0DtG0G6w2gEICnnIPUEUp+4pJ7TEhQt/LWEoqs5vv6B2M1Mcptqq8tqqcqDQwvn8tGjxIkHYC0uNLYcGLzP0aik/90qJLuRm5hvzwnIWqF4sGGXAO3dO8o4MPvn65TfypC23PCW6f5A5Ydv+K0biUOw/VnZm/GenVovFCsCgDL31l0JhTFT97pYp3xd/azSOPw1A3VDqlKfUgJhYmtPBTSuXmQA4YRFOhztWQBjfeT+ulHGJ/Du1EUjiR0TeLm5gNsmL6g5tOrSvyAYs3pxId8vcDsF7fMe+d3f9+e9vPyOZrLuzTdJ2HQBNzGcB2GsvVeSrAUhcSQABNo3UudeFwl2/NCoE1If/nb+nVs8Wxb8Y69TJ5tApNXbw8gkJcP760cQBdACTqvsOb26h+DxEBrD3jsEAsCjVevBiCP2dstjLJ2TGkG++4lqX1osVEjgzbiZcblFJ5SpDIDeJz+F7WeTKvgF8yi4dACHkOvcWMsP9RzbhKXHpj/x6Lk1Rfm77V6oJaDNaTA3NTfuPl5zuBpjBCR/eLLF3duqsYG8oK83rsLPnJOTMGV4lrjh5x08EVEX19uP1DXd665DD4gAAgjKBkyaMhuwbtnV5vMTe9v7RkvwRJy4u6dYobEDmcEKcMpLt5+M71SJzqtV3nEzqThMAR5I88GdLEq7NWMwHABK9L2VtNV+19gAtaU10UP+fv3DtvIQhHfeulHFJz4lLJV3ATE//1Sq281+5d2zkmrUDkUUSJgf4OX8XqcwAfxKA/sbguApXyowDRSgRMQCAHCSZxXFnB65ouNKqdABPEpXa1xYieDHiJAYY2prLBsOMlrooOcvXUnuh7PMuU+X5sjw1EZ6SvG7mwOdlr2hSWYGSlCAO6T/kMgSRWUEE6BTF4xjuSYuLEEimO/8aCJ44foWQAIu6tv++HqnsugqIqLlhA+/FFotTh/7mrR2qZhuEREVGkVSVSrv1mlLqmLlkri/ZoZFe79uPqkXRYgPunNn9PzswBOJFw7t1KXHpC7bOZUhLzm0vcbf9DgBACw9iDmlvUplcKoDZqBkr7myawwWXGyyUuPTkbKcRL1xx8o5MAbWlfFuedCImALAou/XgxZIEjnr6MjHInLCtK+OjzM17jpa60X7vY7hWdt0O7OAnRP3hQfF5IppzB+0fRuzqP767b99/r48da0jRZPDwjhpb+Wc1VzMT03ZteCdT+p0CfCNEKcm02gKlJJM3w69vrHrPiaKjTwZvTM5675iwpFJL8INTkmndXRDkNMuUK2VcopPt23oxZF9i2lubwp+UVtbpLVRmUGRwdATTUvDJ0Y97T+JpCS9teE6kbayUNykMRmCEps+O50NXQdmXg1dxXSkzDsaq/EJ5eIa/5pv8C5N04xMAqKX7a4K3xfJf/FlGUovG8hA3TsgiG1WHLwwO6OZKfrRRTNPKSv/yrR4AwKI+nF8vWRWVnRUn/aS8d6S8Vlp9eDZnnSDqrZ9xylp1hoc4SSIOG/TFX9XVjqMbgSKOTV6x2K7t1ig0RgsQTB9OuC8FwFJbWnG6f6yhVVH3uYz/gijq9ac5ZVd1wOTEhzD1WjvDOeXNN6RqiAtgWdukl80AoK5sJxJDKdDdXDuQ09qmg5dDt8UKcp5mxDWpDFRObJgP6C3gtB/u3JStMT5kg8bCmZ0zdNS3tLo0z/Wjl5f3kkcXJIFGqlArdRYLlSkJ4YUw7C2lTZW3+Hy6pXsucHcvDFy9JKK2d4SoX8SrPxFwQd/g4K7+yZDDkV5R9/4oNwLcXm1dS4skKm5hxqsz25VWO1jU+eXtfb1w9MDVacE8LwASg+8FQJ2ZvSR5kQPArMotau677HnbMl7cjcvi4xh2VTcpaX5yktNbW24qjlxQ3HoQkxPTmRLpkpURiZlZb4kULUYvnoAv9jJoYczbbm+DHpv1mIRHBsh6ZklR1ZFW9/Yybh4e8WAsKnx5k3FTTkxcZmK4Wd9R33R401fHZJF/yeSFxvK9Qd0NAGb10fWHLK9nrUgXLY2Ablnrf7bk1meufzPbaUeulHFNT1FhzqPyVTlJacmijFga6PTdndryj8vO5w2M6DdVfFYiXBwcHjk7M51GmE09io7C3RcOHmh1uorrSpnxMFR9+Ju1H7q3revstV8VbuuJXj03KC6CA1a9oqU+r6S+uL/OZL+Il9MCGbrmXYWDoW/tqt/zNfet9NCfZ6jkvZ3yDl1e3peahKhs8cyk6ECyzaS83nzq4uXPxzddl6Hs0mX2LK6Y4x0i4DC8wGrWtzS3FdfU5Q25wGs6c7rQkhK3cjZ3UTTXoFUV/9/Z85z5b8U770rfcF0PAcwW+TUtAIClokVtDeVarqudZqOy13519o3vY9fN5aVG+xj0msrS88UP/ejVhMGOETaLTgYAhk+c2GdYXcmt3+Rdd7nDwdFTfElKEXKF/BAJnQCbRdXdnvf15dzvdLe+zqL69puDgqwXRBEvpqh+/ZUamAwfEgAww2cNvwPEYG/dX3ubvY2uq/7tU8SGH4dGzRXHeQEYmmsr2vtGalJZsWLBYMcIiSnpfV+j7XxRc98lhNuWIdF8GABAcPmC4edI3frTX996VOgQ1uuXXzlmyUkLi5sVFm7Vt8jr3ygxZq9LjnPjpwYAY0PxN0pJEo9M+PhzydB6lwYlTRMIBK6UEwqFcrl8smuD0AMlJGXp7gTawAQGHoAds+CjdG7t2WPbv33wZvxyxezn9+2Iq3xt0wdX7tIbenhfPELoLiLEM30ATCot5vuoGLEL4vxvVH7jVmeqezy9owYhNMkYAaFPhDAAgMEOTBVTQF1/5r6ZLf0+QrBjf/rylvlw4a+f38EN5OOGEY8QuiPMwJAViRwAAJtFKZfuPXt5+HQLCMA/6+UtKZaC3a8duXRXp83GvniEEJp8BJlst979iR+wLx4hhCbfvch3wIhHCCEPhhGPEEIeCyMeIYQ8FkY8Qgh5LIx4hBDyWBjxCCHksTDix4nIfDRXvi3/cIyrE74jhNA9M+XvbmWvObl5Hb/6dwkny1kxu8ofjSrKzX5WOnkzZBBAJgAIGnEnaxpIdmx+Z63t6PJ9+6vYa05uXudfsXV+fsVYywTemZkxf18ltlYUbC7R8BIy30uhn8k9/r7T/eVxGctelYy2tpxDffDDwjxb6Os/T5DcoiXQW6x/6l2gsFLjI5fM4oawaGQvu0GrqZU1nrjUNrBkIXgFvrgpLVVd8f+ONql661Z+anOpW8tUIYRuZ8pH/N1mKS36w7PV1M6OqbMCvSu0HQqpduhd544epQXgh57L0jZDf8STZ8yM86NYu9srO61DivViCV5c8aNUNmHVqS/LrhmAzvXnJCbE6tvaGnDSEoTuBYz48dJprxTd1Tkm7gpFffmu0Wd/VX9eoB54wEvIjPOjdDdf3nVBM6Ika8XSH6WyoaXq/BvF7f3HC4LN54lvjiiLELorHoyIJ/jBK15IWriAx/ejEWZTR72sJK/s6McdPYNFaJIN6T97UizmM+lg6pK1nj9UdOio2ui0k4df2vBBTt/ae/aq/J8urxjWkCdiMz46lmg/cODlsuCNL81LELEpZm1zUcme7dXN7nVEMGKf27Elw1/zzT937jk7eWsxTQhyqHjpTALU9e8P5jsA2LWKtov3sFoIPdgegIinRMS/cSQrnmXrqpedy9caqdSAyLBlvyfJjuae6+shpiW8tX7HKg7RpSw5UddN40Sni1e9FTzH79DLezsGmrbdRUV7ddMJavCylyIDxn473+SMnas4UNl0vo78cLJYkv3oTtCs39JqHHuTsdBjszKEDDIwkrLmf3r22DhWJb37iCgRnw3QIm1pwVkGEbpvTPmI15/fnXuNqpWZAXTyT7bknu5SDu1v4KzalRHPMlXs/uiPewda5aSgTB6l/wogEZu0aRWH0lX92tKTJV0AAERE/NtHsqJzMpbmHTre34usr5J9UQXAJ9JuGfHMCE75lgM78/QAAPzIN08uS0qPSaC2nne6mno1L39nlU0uG6x/02jXWi3yWpkhdjbD2lHbqB7ldZd0Nx84rQa1DgBUjdV7tIRytF2FRCRs5Q99StvyvyXtLndJ0YUzKAAWZZf+NgUd3acLSiotmu7But3BMtQIoVua8hFvu1okvdr7X7O2Jm94JBHJMRkRJHt90V/3Ove62K4VtA48EGWLHwZoOFrSm+8AYK+v+CR/fvQqXkom7fiBca0HCnZZzad5/TmnkJXV2ZKSOUIRnK8fLNNTJTtXNaL+I3el/GLHL6uEPhaFvNPtSerMusrGvm4iq1ZVPEZmMwL4icOOWx3qw+ByxHvRfB8CcFgMt/+wTA3NioYRdUMITYYpH/G34RsREABwrbS1Y8wiJCGfDaCXVQ2JM+l3HRYQBYVyCFCOa1lNi+K60+gRm14HAKSH3B1Fb9UqG+/GxV1cbBMhj+Tptz4xWTQAMOhMY8c0ie5NAjCZhnaVWHpMdgAKjTbe8e92s2381ZzyHCbD9wBeFMZoI+wRQveKp0e8XmcCAAbrFkltM/bYAGg06pBnKd40AsBiso2rCT/hCAZPJGST72kdXGJs7rYAUHh+zHtdE4TQIE+P+O76jg6AoOTgoDGL2NoUWgCmKJbt/Kx4TgAF4FqzenjEm+xmAKCSKJNQ22EI3uM79r27689/f/sZyf2e8vbalusGgBBxSIin/00hNIV4+tfRXlpdWG8jIua/kMNxDuWA9GBh//8bv5RdAwhflZ7m1/cMERH/VBYTzK2lBSMGiOi62ruA4PMlfsNfmXAUoUTEAABykGQWZ9Lf7Q4ZZHX5HXbgiF9MC2Q7/Vmx+YJE9tibIYQmk6dfbgVQH91eFP1RRvxLGz7OlFVWag1UamBkWJxI+ae5rXIzAIC99MK+o6LtqyL/cIqddk7ZTeNEp4uELNOVvYX/GXnfvVlZcLQjM0ecc2TlnFK10QzG+uojedrJ6M8xVuUXysMz/DXf5F+Y5Buf+BEJW4OGDWi3XC6vyHd9sKZDd/jkN7wVyYkxaftD1ZfbewxA4fpzw30dZ3LbLnreDcEITQWeH/Fgqbr48qMdK15KykgOXrCWRphNXTJlwe6ymsHrq6ayVz76XXP6U0+KE57gUcDUJZMeO1T00VH1qGNMGvZ+spP62HOrREvXigmAnjz50cmJeDBUffibtR9Oxp6HY48cNAkWy5XxRDwA6Np2HdYsmhe5SMQVizgML7tBq7l4sTH/Pr8xFyHPNU0gELhSTigUyuXyya4NQgihCeTpffEIIfQAw4hHCCGPhRGPEEIeCyMeIYQ8FkY8Qgh5LIx4hBDyWK4OmkQIITTlYCseIYQ8FkY8Qgh5rHFGPN3B93GwxjuFOkIIoXthfHPURCzrPLXWDDBN1/rQxx/6/vkSngQghND9i2CzxzHTq+4GRVZPr2oHcYIhIxq+PUVvvbcrZiCEEBrb+CLefpNoaCNX1dC/D7+ZIfqh62vmBc3k1Q0hhNAdca+nZVqnxgsIBwuXekAIofvYnXSm/zBhtUAIITQJ8HopQgh5LHcj3j4NAGh3YYlqhBBC7nIz4jt1XgD2iFnWia0NQgihCTS+ETUDum46MjKM4jlm8TRS900vmDbNbJqG4ycRQui+4v40ZPxHuj/61U0RHQAA2r2f3sAuxYxHCKH7yfjubh0UrH93800RhVR/dvqJb8mdanId5jtCCN1n3Iz4iFR9LGOaLNf/vz4kmye2RgghhCaIm5db/X0cAER9PeY7Qgjdv9weF/8DAJgsE1gThBBCEwxvfUIIIY/lZsSz6D8ATDNjKx4hhO5j47zcSneIfBz+wd+virGDhSpTTE6lEEIITQT3lgQBsJBKP/U+0TMpdUIIITQhxnfrEzXQkh7sMOsIWTNZYZy8WiGEEJoA7t/dihBC6D6HI2oQQshjYcQjhJDHwohHCCGP9f8Bg7cqe8892+cAAAAASUVORK5CYII=;" vertex="1" parent="1">
          <mxGeometry x="350" y="1288.5" width="502" height="163" as="geometry" />
        </mxCell>
        <mxCell id="6Ha6fiWHf-EiZPGUzSEU-97" value="" style="shape=curlyBracket;whiteSpace=wrap;html=1;rounded=1;labelPosition=left;verticalLabelPosition=middle;align=right;verticalAlign=middle;" vertex="1" parent="1">
          <mxGeometry x="330" y="1282.5" width="20" height="175" as="geometry" />
        </mxCell>
        <mxCell id="6Ha6fiWHf-EiZPGUzSEU-98" value="" style="shape=curlyBracket;whiteSpace=wrap;html=1;rounded=1;labelPosition=left;verticalLabelPosition=middle;align=right;verticalAlign=middle;" vertex="1" parent="1">
          <mxGeometry x="316" y="1740" width="20" height="147.5" as="geometry" />
        </mxCell>
        <mxCell id="6Ha6fiWHf-EiZPGUzSEU-102" value="" style="shape=curlyBracket;whiteSpace=wrap;html=1;rounded=1;labelPosition=left;verticalLabelPosition=middle;align=right;verticalAlign=middle;" vertex="1" parent="1">
          <mxGeometry x="340" y="1522.5" width="20" height="137.5" as="geometry" />
        </mxCell>
        <mxCell id="6Ha6fiWHf-EiZPGUzSEU-104" value="" style="shape=image;verticalLabelPosition=bottom;labelBackgroundColor=default;verticalAlign=top;aspect=fixed;imageAspect=0;image=data:image/png,iVBORw0KGgoAAAANSUhEUgAAAhoAAAD1CAIAAACZVssPAAAACXBIWXMAAA7EAAAOxAGVKw4bAAAgAElEQVR4nOzdfVzT5f44/pe8d8dhDqQBSzfYdMiAUdzJgR0UV/EJjh6RY8TBgrSic+zQyTLL6pTfOumxDNNPFOccrPzoUQ+hB2ca64e5SA4YMqDGYMhwwEYOtmDMcdjGRr8/GDruxrgTh9fz4R9su3Zd1wZer/d1876uRQEBAYAgCIIgM+M23xVAEARBFgIUThAEQZBZgMIJgiAIMgucCyfYzz5LBn3c57guCIIgiMvCOX7ZJ1L/3jM3eEwLEUBetHTdJ3jT7akXgiAI4lIchhOC6aXne/hUfEXRPYJmXJcCh2IJgiAIMi6H4WSpKYoKUE95/hOy5nZVCEEQBHFFjuZOiJ6DRAz0PZj+tlUHQRAEcU2Op+J/JgEALLotNUEQBEFcGFoojCAIgswCh+EEAwAA622pCIIgCOLKHIUTylILBaC3G/VgEARBkEmMs7KL6DFIIfzsy+5/Lq2faCWIviOg9cEIgiCIY2PDiTX7rx0vrfwZAMCMF+b57Km/7ZVCEARBXA3m5eU18plF3QpSRZXHJTl2z8r+1TEDi2rJFT/NT+UQBEEQVzFeONHi5Eq8tMG9YsD8WJyRYfzFCTGG5uMRBEEQBxxNs3cp8XoAT8rgbasNgiAI4qIcrtoa6pJgt6UiCIIgiCtDi4ARBEGQWeAwnJgWGQGIpEHi7aoNgiAI4qLGTsXfYh0YXLP+v2zfn3EqwnUzYINu/7XczrohCIIgLsNROAETToMNrLm/f/UDN7JS9Q9gHoW1aIkXgiAIMo5FAQEBkyRxt4ausDAoP5uURJES7S6MIAiCjMOJcIIgCIIgk0EruxAEQZBZgMIJgiAIMgtQOEEQBEFmwehwwmKx5qUeCIIgiEtDvRMEQRBkFqBwgiAIgswCFE4QBEGQWYDCCYIgCDILUDiZAJa0vkjxRsnxCM+Z5kRipXDCGbNRp4UO4yUfV7zx74NMwnzXBEGQqXOZcOKVee6Nr79fH0ME8Il4V/FGyaecOW10MMBjABgJm+FxL3EHtx0+yI/xmZ1a3YUIKakCxRt5OWQACHvrua8V256OnNsS3Zcm7f1/Hxe/e+i1cPzcloQgCwpuvitwpzJXiF5/spbYpe6eUTY4ApEEYJylSiFzDu+b8NKTG4Ld57seCOJ6UDiZiF7XKNLNdyWQ2wpbvOq5remR7j91dFOWec93bRDExSyUcILxk49/Gq3PK8jVRGx7mhvEwJk12rpCUX6eXG2yT0gKy+Y//iiHwyC7g1Ejby07JjpWqO23S+G/I/twDm1ojMtaU/K7TdWjOihYZOJnp2OtBQUvVzKf2bEqhu1FMOlaROUfvFnborelCd/3XG76za3/qemn30i3/WwQbvtgv/BWbrSk+C3ZYVGhXp5E6NcbOutV1Z+LPhHopnYSAJH+/KWt67pKn95U778jOWsjm+mDs+p1LSWid3bVq4dTkSO5WTlxv4qi+lDArNHJxZJTuZfL5RYAUurxF3KiVHmrjxVrxuaOS/p0506++nDiZyflQEuK3pAUGB5Jpfl6kcHYq1TXCa8cy5O1j/iecQn5O99Maj1wf1FDMv+Zp7lhbDLBZFBL6/P/UFo5XIQ3P3bbrS+w8rBoSp95FN+E7a8/FbtEc+Hjvxy+PK0LAdqmzMdXe+u/O/nRf8JefRGFEwSZmoUSTob4paT91Renrqg/L8KW8YPjczLYjJPPbpf32l4nxezb+lY6FdOoys/Ud5Oo4XxO+j5miM+xl/PU5uFMukWiPP1ijMhM3cGlTVyWNy9xTzoVxM1l9Xh/HicsZf0e6Nm6vXUoMrWfLT3Q4A4A7EeTNoQaqwq+KVcNva+/XXorE3JScm5+NE2vrRJWK3vBw5caEMpJTWk+MtVwAgAAGIX6wLtbN6eQOmpaK+uBzKAF8e5dQqwfCqie/MTc/FgW6CQiSWWXieBLj+Hz3+Kx8jYfK5Yaf5DqrDxaUBQOhGPOSCPSQ7g4UKrqlQBAislMTuVqW+rV4gpZj4noxw2Mz0mL4Ze+vOlyk2nUO8ns7LQtOUyQq+pEKsyTGhRKZ3rCUDgh85Nz86P9QVcnqlb0ktgPJL7FMwLANE/U8Y1NWk33APB4KGnVyculfdPIQn3x2zK/xRV/q/spJmx6lUCQu5nLhBNDWW5RB1EnNwHoFSe3F32pUZnHJCIzcOW7CnYXGgAA9lY/cy47PSXxsc/lH1cAAGCRcdvSqQRN7e5158o1AABYaPR7J5LDcxLXCY4VK4dLqpGfrQFgYAkOwwk5lFq1vWCPwAAAwOC+cy41jh8RQ2wtMwEAdFfIzlcAAC4hLmlDqFEhrD1fMzYPXFQKlwa689sLDohuNuK4ZWzc2I/mFEZYOkmet774rNSWm08o1TzUxFOYT70by9LL9m8uEsqHPwIv8cPjsVt2cC8+Wa+sUfZCBDvSCxNqRzfoDBrbBwxCZZMJAIxVe/PLpNreWy/jovdtezd9dXpS9duCUaGImpSNK9uef0CgG/pEBDaV1jX0Eu13r0X7E7Vnnyw4NPTZfdi7TmckAvSOzMJcU7l/e6NRagSAdkHJnhqLQg7j6GlqUA2spOP7VZLm6cQSAABt/b8/BABAM/AIMg0us7LL0i6SXRSquwHApKsTyMoqDOOkUtb968zw8yb1qc9bzUCNfdg2csVO4fgDNBWWlw8Ptlil1SdLDECkxyeRplohq7zuX4LhspTyynoLUKgs9tQyIRBxMPp63NIhn/bUvUWc+8XNWAIAmuF23z15VYIPKM5Uik1kH4btn7uyWSwHclRgGBHM4g65CZaFMsgAALj4fdmHz61/wAcAwD2K4Q+gqLHFb/VwnhgR58kg+zBI1xvU/UDyD/UaswoO13um5NBwLAEAs1zbrgcAwCKDY9lgldaeuhlHNfJCgXqcrolSXS6QVcstANBbI78oaFXoxyYCGGg69tIfXnntpedfPd06xW8NQZDZ4DK9E6f0S6+32I239ErV3cD0YVMJoO4HHIvhBWCQ14wYV5c1qM3AXraCioFqSsMsZuV15a1HFoMeAHC/mNpdKpa6b1p7+ex1B7NpJbLqWmWDWHVVbpz++ckmVeXF8UMRO4RGBiBnb/1X9tgXSZ5EAI2iQQ4xgcuCiLVVwIxPprEoXgk84UWBhR1Ccwdtg9gWOzEG/ZEd/EQe3d8HZx8/3IljQ7JR8o2qf8yzAIAFUpcB9Nar1XZPdki1BnDQIZzMgE7ehFZPIMh8WWDhxDSyMTVa+gEwEskdoB9w7p44AKNx5Pi+uddoBSCQSNgUR+2tpjFzDFOnOVq008TPyuREpcfHpAMA9Cvlp3YXHxFNq4NiutE97pU7gKcnCcBSV1BcLB1TbZOhyQQAOkm9DtLvDWGD2DcwjKiqrqGF8OkEgTaE6wX6WsnQlA+F/fzxjHUMo0JUfaxS29F1wwyAhcbtzGYCcWyxhh79+N8SgYjDxvy+rCajGQDdw4ggrmlhhZPRF8gknDuAtdfYDwBg6e+1AJBII1s9gicJAzAbLdPvE8yIpaWwdHdhKRBJLB47/tG4R5LYmQeT21cXX5wgMDg20acwGI0AZIuqtVwwYaBqqlX3p7PZXBJ7BdNbeuUdoWV/ZmAQhRTEBnN9R4MJAMB7Y1wiA9qPnnx29625K7Lnqolu9rRMUJq512IGcPcc8fvCiKQZxRK8lz+drFepdAMzyQVBkOlxmbkTp7iHMlbYRQvPUJo3gFqpNQMAWNqUOgAyO9LL/i2cEBoBoKNlzPyz0WoCACJuZhfLFis414kxGRWi+mPbjuWLLEChh3BnVOpYigZtP+A4a9kORuP6xcpWwLEjgmN4XsoK+VVRc6sv85cbGSwKKGuUQ0NdS+hkDCztNWq7xQK4sEgaAWBK2wdY5dd/BPBk0+zHtpaFUslTyWQEfNBj7//tg/cP/e9bm/ynnQmCINO3sMIJMLiPpZNt7RqR9sijTAJor3xlm+C9+pW8AyAonZ8wvOUJFhqdkUwGU2uFcMzEvl7zowYwBiNsZvuj9HYZAbz8A8ed6sexeDQf+94SkUzzxQEYfuqaUaHjVOPMlXINkPn859NHTJh7RnIzs2xLFUDZ2qAEb17sA2xdtUhnlcur5dQ1mexlYJDV2MJtj8ZgBRwrjn7ztnF33urMJDIMDxg6ySqVVckBC131CH+4g+zDfiSFNv0tbZYEcel4APBYHhbkMe1cnOX/4PZ38/NzdyYz0SowBLFZWINd/RpLyFvZH66VNSixZbzgGDaoBaXHK2yvWisu5Rey30znvn7eK+GiqptEDeezWRRjY17pF8oxeZlUwkJ1Ug4n50RaSIW23wT90toTU78dpOkbuSYrOua1jF0rGhV6i8VkbRPWVtuKI8XsyH6KrbsqVjQr+/rBYwU/OJoBGmHlV+OuhZ0JvTz/lcvL82MT9m0LelQmrjeYieRlXGZ4KNksPFl4FKwAYNJKpcZNSVR/TfUhKQBoKyt0mdlUMMkkYls23WeulGczH0jP+DtDUiXtwxj0GD7dKpI1JXHYPovdAZxe4qwtyq3l50dsyN/mL5QrjCT2AxyWUdcLXpO/dVxdl4WXHlwWu0RzQXhlmguF8WFrHn94GQDgvZfiAYDF2/pS8AAAKCr+ebrNfgSNlbBhNdsXwPeJR2MvvHcJDa4hCCy4cFJR+raU/ftM7jo+zqzRlueJ8vPkdvcxGCt3ffZqCz/jUU7MRjoBjBq57PQx0WeF2nEbwaa8k3uIv3kqnb0ui4MB9AoUhVMPJ2ZR6e692DOZgfHZiYkAAAah8mY4MVZ/Xs56mBnEDU7ikzCTsVepLs29dKSgdWYbhY2vV1Sas16RnhOXwGMnRpJAb+ju0lUdrSwT3JwFsUhq1OYkpqGieWimRP5Nqzqb6iNXNtycyNHI9m8u6nltNZ8XsSHK2K1UVeUeO3LU8sg5ThCXGUapLXd6yqdXeG7Htr6cHeHhKdEhel2TSLirAPv9ueTpDlV1lR18vmya77W5d8WqX3FuPaQGhFMDAADc5f883WafUFX9XdNavyAvPP4eXz8A1cyKRZCFYVFAQID9YxaLpVAo5qs20ze0yQpWeOx3u1rnaVIduct4JL/5yRNQ8NTbX0/3tkkEWVAW2NwJgtwuyx5cvRJk1RIUSxBkyMIa7FpoiMwXL2Wum3AtgLF02/59woleReaOB/PB7Bc305VFu0tne9EEgrgsFE7uZCbVsa35xRO+bDGMXUGAzD185BOvPEFv/L/dn5Qo0Cw8ggxbKHMnCHIb4fH4gQEUSRBkBDR3giBThmIJgoyFwgmCIAgyC1A4QRAEQWYBCicIgiDILEDhBEEQBJkFKJwgCIIgswCFEwRBEGQWLLhwgiWtL1K8UXI8YmrH7M5hWSRWCiecMfe1cX0YL/m44o1/H2SiAxkRxAW5TDjxyjz3xtffr48hAvhEvKt4o+RTzriNDgZ4DAAjYdM/OcNpzpQVd3Db4YP8mJkdmnI3I6SkChRv5OWQASDsree+Vmx7OnJuS3RfmrT3/31c/O6h18LRYSYI4rwFt8mKuUL0+pO1xC71XOzxPvWycAQiCWBaB78j8wHvm/DSkxuC3SdPiSDISAsunIBe1yjSLcCykLmHLV713Nb0SPefOropy7znuzYI4mIWUDjx35F9OMd2Oqy1puR3m6pHdRqwyMTPTsdaCwpermQ+s2NVDNuLYNK1iMo/eLO2ZejQJyJ716WMRGLtn2POVZrs3smIzi1NDlOKfp9YrnCurPB9z+Wm3zxYkJp++o10288G4bYP9tttA0yO5GblxP0qiupDAbNGJxdLTuVeLpc7d8L8TUT685e2rusqfXpTvf+O5KyNbKYPzqrXtZSI3tlVr568LFLq8RdyolR5q48Va8bmjkv6dOdOvvpw4mcn5UBLit6QFBgeSaX5epHB2KtU1wmvHMuTtZtGvCUhf+ebSa0H7i9qSOY/8zQ3jE0mmAxqaX3+H0orh4vw5sduu/WLqDwsmtqHHsk3YfvrT8Uu0Vz4+C+HL08ryNM2ZT6+2lv/3cmP/hP26osonCDI1CygcNItEuXpF2NEZuoOLm3iZN68xD3pVBA3l9Xj/XmcsJT1e6Bn6/bWfgAwtV64aEhMD0zg4yqFtxp0n6TgECLIhfU398actKz2s6UHGtwBgP1o0oZQY1XBN+W2I/v626W3knnyE3PzY1mgk4gklV0mgi89hs9/i8fK23ysWDpevg5hFOoD727dnELqqGmtrAcygxbEu3cJsV5tmrQs4w9SnZVHC4rCgXBMJCPSQ7g4UKrqlQBAislMTuVqW+rV4gpZj4noxw2Mz0mL4Ze+vOlyk2nUO8ns7LQtOUyQq+pEKsyTGhRKZ3rCUDgh85Nz86P9QVcnqlb0ktgPJL7FMwLANE8/841NWk33APB4KGnVycul0zmFRH3x2zK/xRV/q/spJmx6lUCQu5nLhBNDWW5RB1EnNwHoFSe3F32pUY06kddQIz9bA8DAEhyGE3IotWp7wR6BAQCAwX3nXGocPyKG2FpmAgDLD1/J1OnRMSlMd6G8f/gda5LoBFBdEty65J20rO4K2fkKAMAlxCVtCDUqhLXna8YkojCfejeWpZft31wkHD4cnsxL/PB47JYd3ItP1veOecckGGHpJHne+uKzUltI8Amlmk1OlaWsUfZCBDvSCxNqRzfoDBrbBwxCZZMJAIxVe/PLpFq7uuGi9217N311elL124JRoYialI0r255/QKAb+mUR2FSa7YAQ2u9ei/Ynas8+WXBIZAEA8GHvOp2RCDDqU5trKvdvbzRKjQDQLijZU2NRyGEcPU0NqoGVdHy/StI83ROttPX//hAAAM3AI8g0uMzKLku7SHZRqO4GAJOuTiArqzBMLyOrvO5fguH3KuWV9RagUFls2xPmCkmlEjx5YTGU4TewufxInLlGIhq3FZsB9+RVCT6gOFMpNpF9GLZ/7spmsRzIUYFhxGlkaRHnfnEzlgCAZrjdn7Qss7hDboJloQwyAAAufl/24XPrH/ABAHCPYvgDKGps8Vs9nCdGxHkyyD4M0vUGdT+Q/EO9xqxww/WeKTk0HEsAwCzXtusBALDI4Fg2WKW1p0TDtdXICwXqcbomSnW5QFYttwBAb438oqBVMe5x9ANNx176wyuvvfT8q6dbp/itIQgyG1ymdzJrzMrrdodOWQx6AMD94uadIybV1yJtahY7gY8rE1gAYFlS8EqwSIQy9di8ZoYdQiMDkLO3/it77IskTyLA6LGjyZhUlRfHX0U2eVkaRYMcYgKXBRFrq4AZn0xjUbwSeMKLAgs7hOYO2gaxLQZjDPojO/iJPLq/D84+frgTSWNyNkq+UfWPeRYAsEDqMoDeerX9t9oh1RrAQcdyMgM6eRNaGYEg8+XuCydW0ySz3FcFsvas+KgUNlkgM4DXA0l0zCQvOzPNzpADnp4kAEtdQXGxdEyVTIYx8xBOMN3oHvfK3amydJJ6HaTfG8IGsW9gGFFVXUML4dMJAm0I1wv0tZKhuRwK+/njGesYRoWo+liltqPrhhkAC43bmc2EcbpThh79+N82gYjDAPpNI4Kf1WQ0A6B7GBHENd194WRS1hrJf+TxGbywOIrsIoO7OhT6RZKycdY7zZTBaAQgW1St5YJZuzFlonlsZ8pqqlX3p7PZXBJ7BdNbeuUdoWV/ZmAQhRTEBnN9R4MJAMB7Y1wiA9qPnnx29625K7Lnqolu5LRMUJq512IGcPcc0aHBiKQZxRK8lz+drFepdOhsKwSZBy4zd+I0o9UEAETcDBom7ddCtZXITkgm+ScFM8FY95V8/FnxycuyWGHCzpCiQdsPOM5a9m3YD8aZsvrFylbAsSOCY3heygr5VVFzqy/zlxsZLAooa5RDvbMldDIGlvYatd06CFxYJI0AMKVtCKzy6z8CeLJp9mNby0Kp5KlkMgI+6LH3//bB+4f+961N/tPOBEGQ6Vt44USv+VEDGIMRNoN9TRQCiRxw4RtWb0iiYfrWiyUTXGM7UVZvlxHAyz9w7LwC9J65Uq4BMp//fPqISWzPSG5mFm12N4lxqixla4MSvHmxD7B11SKdVS6vllPXZLKXgUFWY1vu1aMxWAHHiqPfvG3cnbc6M4kMAAQSyfk6W6WyKjlgoase4Q93kH3Yj6TM4FMvCeLS8QDgsTwsyGPauTjL/8Ht7+bn5+5MZqJVYAhis/AGu0wqYaE6KYeTcyItpELbb4J+ae0JgW5qdzPIZWU1/Gd4sesAeoW1lRNMSDhTVtM3ck1WdMxrGbtWNCr0FovJ2iasrR5aDKCX579yeXl+bMK+bUGPysT1BjORvIzLDA8lm4UnC49O9w6McTlTlkkrlRo3JVH9NdWHpACgrazQZWZTwSSTiG3ZdJ+5Up7NfCA94+8MSZW0D2PQY/h0q0jWlMRh+yx2BzA7qMMI2qLcWn5+xIb8bf5CucJIYj/AYRl1veA1+VvH1XVZeOnBZbFLNBeEV6a5UBgftubxh5cBAN57KR4AWLytLwUPAICi4p+n2+xH0FgJG1azfQF8n3g09sJ7l9DgGoLAQgwnAE15J/cQf/NUOntdFgcD6BUoCqcaTkB3UajaEskkgKFK0Dru2iQnyzKLSnfvxZ7JDIzPTkwEADAIlcPhBKBXVJqzXpGeE5fAYydGkkBv6O7SVR2tLBOMvqtm5pwoyyKpUZuTmIaK5qGZEvk3repsqo9c2XAzoGpk+zcX9by2ms+L2BBl7FaqqnKPHTlqeeQcJ4jLDKPUlk8UesfWR3hux7a+nB3h4SnRIXpdk0i4qwD7/bnk6Q5VdZUdfL5smu+1uXfFql9xbj2kBoRTAwAA3OX/PN1mn1BV/V3TWr8gLzz+Hl8/ANXMikWQhWFRQECA/WMWi6VQKCZKjSDIMI/kNz95Agqeevvr6d42iSALysKbO0GQ22LZg6tXgqxagmIJggxZiINdCweR+eKlzHUTzvMbS7ft3yec6FVk7ngwH8x+cTNdWbS7tGu+64IgdwoUTu5kJtWxrfnFE75sMSgnfA2ZO/jIJ155gt74f7s/KVGgWXgEGYbmThBkyvB4/MAAiiQIMgKaO0GQKUOxBEHGQuEEQRAEmQUonCAIgiCzAIUTBEEQZBagcIIgCILMAhROEARBkFmAwgmCIAgyC1A4mQEsaX2R4o2S4xEzPrCExErhhDNmo053FnL66Te+Vjz3PM9RIu9ITgJv2vfT4pI+feNrRXZm6HQzQBBkdrhMOPHKPPfG19+vjyEC+ES8q3ij5FPOvJ8CiwEeA8BI2AzPJok7uO3wQX7MDA5ouVPh3IgAgMPGOffXhpyecfR0WlrkOOfBzC5CSqpA8UZeDhkAwt567mvFtqcj57ZE96VJe//fx8XvHnotHB2KgtwN0CYrM2CuEL3+ZC2xS909o2xwBCIJYNbO972T6L565bNmX4uqYsIUGGUm52beufC+CS89uSHYffKUCLJQoHAyE3pdo0g335W4o3VLVd3S+a7EbYctXvXc1vRI9586uinLvOe7NghymyygcIKFxuef43sc/WxrHqS+nriBT/OhQL9GW1dQ/HaBdvhIK9yylNinsiLCQ73IRItBqZaIrhzNrW8ZcegTLigrcdvT3CAGyapRiwtL81WrDu/jSHfvf+WorQ/hvyP7cI7tJFprTcnvNlWP20GhJcVvyQ6LCvXyJEK/3tBZr6r+XPTJ8Pla4fuey02/efggNf30G+m2nw3CbR/st9sqmBzJzcqJ+1UU1YcCZo1OLpacyr1cLrc7hZ5If/7S1nVdpU9vqvffkZy1kc30wVn1upYS0Tu76tVT+RonrjMp9fgLOVGqvNXHijVj34dL+nTnTr76cOJnJ+UARM6b36cl2Ma4DOef/OCAaERqQkravw9ybl67B+944esdtp/bCwqe3qu2O4IMx0pfnfkoJyyU6km09Gu0souSM4erK+0/PgAQqYlvJaYnM/19wKBsvZD7xd8FhukdZ+mf/PqrT4QRrp39YPeJ+ulspkLblPn4am/9dyc/+k/Yqy+icILcLRZQOBlC9g185kTsBl/D1Xq53ES6l0sPC/XCYCic4IJ2ZL6XQydoVGKh/MdeWMJmx2WlRkV57dxU3miy5bAiJ/O9HXR3vbqqsFVDooZnZfy1yzBq0KJbJMrTL8aIzNQdXNpENUlKzs2Ppum1VcJqZS94+FIDQjmpKc1HhsNJ+9nSAw3uAMB+NGlDqLGq4Jty27F+/e12V/Se/MTc/FgW6CQiSWWXieBLj+Hz3+Kx8jYfKx554Y9RqA+8u3VzCqmjprWyHsgMWhDv3iXEerUJnOSwzsYfpDorjxYUhQOhZfQ7ifQQLg6UqvqhTY5Nqi/3nqsjYv5J/NTxpijMNZV5u+UYACky9vcpVLWw9FSlaehrMdTbH2dJitu39c10KkGvrRNVK7osBF9a+MbEp/Tyqr1a+2S/fDuTQVRXXqyT+zLj+OxN76b1yD87OZ2OESshKdIXDxCUlBhVVH95GvFEffHbMr/FFX+r+ykmbBoVQBAX5TLhxFCWW9RB1MlNAHrFye1FX2rGP/6WzI9NkF56flN5o63DQWKF4oZSYpGrd+bQoaY0Z+vl4e4IbsWOzLyc1b/Pqt9eoAMA8Il4OodO1ssPbTp5Vg4AQIjk552IH12bGvnZGgAGljBhOMFFpXBpoDu/veCA6Gbji1vGxt2sdneF7HwFAOAS4pI2hBoVwtrzNWOyoTCfejeWpZft31wklA9/Rl7ih8djt+zgXnyyvtc+MSMsnSTPW198Vmor0SeUanY6lkxaZ2WNshci2JFemFA7+sKfQWP7gEGobLIVZ6g+WgsA0StWjxtOQKkSHlUBgCeR+/sUql5af/aoYWwqckryi+lUkFf/+cmSypu78fvQ4gKNIyvgtQJEOevLW0wAgAt+K/tQFp2f5PW59FZkMtdU7t/eaJQaAaBdULKnxqKQw3i6rjZ1Wem+WG4H8wQAACAASURBVF9Tw7VpbvSorf/3hwAAaAYeuau4TDixtItk7UM/mnR1AgczFupTr9yMJQBgVAxfokY8Gs4CnfBovd6T7DO8tlcvam7JoQetZZELag0AnsmccCKoz1w6P9zWmGsqBeLYF6e+kpVAxAHAyFbP0iEfc13vkHvyqgQfUBRUik1kn5sriZXNYnlsalRgGLG+fES0sIhzv7gZSwBAI9XOYp3N4g65KSI8lEEGbS/g4vdt3cK9fmLruYsacI9i+APIa2b3iHtSwqMcbzCU5pZW2p/solFXjh5ts1Qdu9xi+yosV7+Sa7KofmwaBnYdHaW6XGkb9uutkV8cG7lt+r77+E/Plyx362rqQActIsgUuEw4cZZV3lg+/lWnVzCXDABJB19IGvsuT6I3gAGAFUIlgKW9wX7s3iiX6qw86hQrYqn7prWXz153MJtWIquuVTaIVVflxqmO5rNDaGQAcvbWf2WPfZHkSQSwDycmVeXFmawQm6zOGkWDHGIClwURa6uAGZ9MY1G8EnjCiwILO4TmDtoG8Tg9jOkj0oICcWBS11VMGoN1yma7NL39fQA+FNx0F3APXFc0TfOtCHL3WnDhBHoN4y/bJZIWUwBAXbxLVDe2ydVoh6533UkkAOgfMYQEBv102mjN0aKdJn5WJicqPT4mHQCgXyk/tbv4iGgKuXl6kgAsdQXFxdIxTarJ0DRqIMt0o1s/OtWs1lknqddB+r0hbBD7BoYRVdU1tBA+nSDQhnC9QF8rmeVFXCQyBcB0o3fy8TqLaQpjegiCzIWFF05MMH4PwGT5rwkAoLdeXj5xq9dvNAJ4eYy8zZ1Mmd5NdpaWwtLdhaVAJLF47PhH4x5JYmceTG5fXXzR6UbfYDQCkC2q1nKBU0FoemuZ7ExS56ZadX86m80lsVcwvaVX3hFa9mcGBlFIQWww13c0zHKbbjToASiLR3fC5hzel0XHuhTX0WAXgkyBy9wVP3O6JqkBgPpLvpeDRIoGrRkgIIRud28dicX2Gn/YxGg1AQBxshvxTEaFqP7YtmP5IgtQ6CHcUS9brDDhYI6iQdsPOM5a9oz3cZmiCercL1a2Ao4dERzD81JWyK+Kmlt9mb/cyGBRQFmjHDvUZTFZAHCEie+KB9PQZx/vusakbmq2AJEWzr+dVz0eq57937z338/Lfz3R9zYWiyAu7y4KJxbx5/XtgAvOTt4Uat884VgpsanDDVavSFZnAp/kuHVs28uEyOgNE83D6zU/agBjMMLG2R8Fx+LRfOybUSKZ5osDMPzUNTppb5cRwMs/cJw+UO+ZK+UaIPP5z6ePCGmekdzMLNoMN3eZTp2VrQ1K8ObFPsDWVYt0Vrm8Wk5dk8leBgZZzZjlXgDtKp0ZSOzICava32vsB/Bje40Xko3ln8u6gZywIzHO/hum0GJ45Gl9QGf4coJ8MQDwCOIun/OlWf4Pbn83Pz93ZzITrQJDXN7CG+yamLlC9F4ebU8O+9nTz/ErmmVKE+bpFRjJDmbgqnfXFQ91EZS1hwvCw3LY205nh52Rq4nUmGQmptQBe7w+jUklLFQn5XByTqSFVGj7TdAvrT1hu62EFLMj+ym27qpY0azs6wePFfzgaAZohJVfjVkp0PSNXJMVHfNaxq4VjQq9xWKytglrq4fWMunl+a9cXp4fm7BvW9CjMnG9wUwkL+Myw0PJZuHJwqMzH92y50SdTVqp1LgpieqvqT4kBQBtZYUuM5sKJplEPE6O3WeuVOYwE7Izcn3rG7osALrKvFqJ3VifuaKxTs+NT/nNX4211SqjGUBfU19aYRvZ6xWUHIqjvZ4e/dYFZm1Fa1uXheRLC+PRrYUF4opp3qU4GUWZsIb3RBjhmrBUMr2FwviwNY8/vAwA8N5L8QDA4m19KXgAABQV/zzdZp8nK2HDarYvgO8Tj8ZeeO8SOoAecWl3UzgBsDTmHvt9TXTm0xFRUWEb+GDWGzTK1vN5klK76fGW3GM79Ul/zAyOy4q3atRVR4uKgH8ohzxoGmdIqinv5B7ib55KZ6/L4mAAvQJFoS2cGKs/L2c9zAziBifxSZjJ2KtUl+ZeOlLQOnalgFlUunsv9kxmYHx2YiIAgEGoHA4nAL2i0pz1ivScuAQeOzGSBHpDd5eu6mhlmWB2V+U6WWeLpEZtTmIaKpqHZkrk37Sqs6k+cmXDuBNCGtmBrSXmt+PiU2LDAABUvZ+PCCegkR3YXmrOWRW1kR9OBABoL1BdrLi5ss5Yvqsgp3Z1ViY3jB8dTbT0a3RNFZfOC3RzE0sAANpL9mwrmVEO965Y9SvOrYfUgHBqAACAu/yfp9vsE6qqv2ta6xfkhcff4+sHoJpRqQgyzxYFBATYP2axWAqFYr5qc4cKf+u53Czc2Sc/OCSaPDGCTI1H8pufPAEFT739NZr6R1zaXTR34iyMghuxpQqFmcD3Ak1z1XiDOQgyQ8seXL0SZNUSFEsQV3d3DXY5hZyedjSbJKlQtyt7bsBiTlJ4PMNYtbe8cma3dMwnIvPFS5nrJjxPxVi6bf8+4USvInPHg/lg9oub6cqi3aVjFmggiKtB4WSMfmlzZXNECI8b5UPCTEaNvLVwu+iIo21d7ngm1bGt+cUTvmwxKCd8DZk7+MgnXnmC3vh/uz8pUaBZeMT1obkTBJk3eDx+YABFEmSBQHMnCDJvUCxBFhIUThAEQZBZgMIJgiAIMgtQOEEQBEFmAQonCIIgyCxAC4URZH4QiEvIi0Y8Yzb3GAbnqTYIMmMonCDIfHAL3rr6wCOL7Z/qKfnPlgNds70RG4LcLndTOCGkpwn2cW5uhF61+6+vHp3aye1DMF7iZ8djyYKTv9sun9H/fUb0wW+Tw4Yf9c48Q2dQuO9UpcZB/dv3F5fdLScYUp8u3ZYxfOIAKC/nJJY23hmf3dJ4Qny6+WcAABg0q3tQLEFcmMuEE6/Mc89tYdS+GnOuihLxbtX6+0RFKU/KpvS/zyy+kr9XgQF4xsVlOjxE6zbpaj21t6QMwI0e/FgW87YVixEBTNM+R90VGf5zuOQnCgDRJzEnOmjidISU1KKDXGXuBzl5hrC3njuYZTm5Kf9wzRzW7Gd1s/o/5WiAC1kQXCaczAZ561l5KwAso0Rs5s93ZQDApC0v0AIAxluSksWcuwOhRtDL8x87dhp0sjvj8vy2MDYWVjcCAJEdku0onCAIMgN3VThBAACM7RWt7fNdCQRBFpwFFU5wQVmJ257mBjFIVo1aXFiar1p1eB9Hunv/K0eNk7/7FlJYNv/xRzkcBtkdjBp5a9kx0bFCbf+oVETSiqzkLZmc+9hk0Gt/OHPpo7317XaX/LSk6A1JgeGRVJqvFxmMvUp1nfDKsTxZ+yx3C7wyzj23Fao/qaelbqSR9aozr5TI1ibnpNM99drSPScPCGwnuGO85KPHo2lDD0yyPfcXXRxVEyJ7V1XGA/KSrFd061/jP8SjeoNFLa47srv04sgTJMmR3KycuF9FUX0oYNbo5GLJqdzL5fIpTUSRUk/vzGHXv71JEvga/2EezRMMHWJZcW7p2ZoR+RDY7Kwdq9fwaDQKmDW6porak7mXq0fuWelMmtnln/z6q0+EEa6d/WD3iXq0UQqCACyo+05W5GS+91Z0iKdOXHi5tMLgn5Xx16dp7pO/bxRSzL6t770WHeGpE5+5fFao6mdw0vdt/WsObdRh5u5RiXte43jIZeeP1tZ1kaOzUnPzuT72+WQmp/K9BpVq8ZnLZwobG/TU+Jy0D0/HBhFh1mGh4RsY6nKhqt+HmZG/9XmesbJQpiDS1r2+Onq4OGuz5Mjuc4f2lldpHGbFCN75adpDvjrxGUml3ELjxe7K5wfb1dmTn3jwROomHklTITl7tPqi2Ejj8986nZEaOvV6U5hPfZq2kW0Un7l8XqQj86Kf/ywzwy4fLDT6L6czMpKo1nrJ+aN1VUpSSEri3uPrE3ymlma2sRKSIn3xeK+gpMQodMg7ggxxmd6JoSy3qIOok5sA9IqT24u+1Iw82tYn4ukcOlkvP7Tp5Fk5AAAhkp93In6qxWCRcdvSqQRN7e5158o1AABYaPR7J5LDcxLXCY4V213wEnygalfB7kIDAACx+plzW9P5/M38+uETG41Ve/PLpNreW+/ARe/b9m766vSk6rcF01lR5oiptXB7yVkN+TrjhWcjLZV7iw6JIAzoB7NogQyoHupbaFSlR1UAVN9H42MoE2flw/Q+euzp3a0GAACv9NPbnonk/g9P1Dj0uSjMp96NZell+zcXCYe7LGRe4ofHY7fs4F58sr53omzHR/Yxlb+4SdSoBwA4kZ72932cx3Zwv3qyvhsAgJS4gx9NsTTmffZirtYMACCK2Zf9TnrEMzvqK3e1mp1N4yxzTeX+7Y1GqREA2gUle2osCvm4CbuuNnVZ6b5YX1PDNdQ3QZAhLtM7sbSLZBeF6m4AMOnqBLKyCoP9y57JnHAiqEsunR/+/2+uqRSIp9xqs1M4/gBNheXlw5fwVmn1yRIDEOnxSaQRSZX1/zozXAeT+tTnKjN4xayl31wxpR6OJRgR58kg+zBI1xvU/UDyD/Wa/VVV+htqPQAYtF1GAF2HEgBAozFYgXyP71Tzaj13uHX4g+kqK7RW8PJn2z67e/KqBB9QnKkUm8g+DNs/d2WzWA7kqMCwKXe8LOLDlY3D55JpzlSWacCdF2aLdhR2PI8Eetm/8rTDUcFY9VFlgwloDwTfR3Q6jfOU6nKBrFpuAYDeGvlFQati/DPT+r77+E/Pv/Tan7bt+Qode4UgNi7TO5kEK4RKAEt7g9p66zmjXKqz8qhTyQbHYngBGOQ1Iw7LkjWozcBetoKKgepm/mb59Va7uYdeqVoDTBrbhwwqWxRh0B/ZwU/k0f19RqzKdSeODEuzwmgdakzNJguAxWwCALCaLAA4wlSbVI22za6J7NUbAYBIJAEYAYAdQiMDkLO3/it77DtJnkSAqc0MaeX1dtNaJq2iGYDntZwLUAEY22cZEaxSZZN9nl2qq10QxqAyKFCtcSrN3Bi4rmiao6wRxDUtlHDiTiIBQP/IoRaDfkoz8ACAc/fEARiNI9tEc6/RCkAgkTCAW+HEZLTaJ+rtNwKAJ9EdoBcAKOznj2esYxgVoupjldqOrhtmACw0bmc2E+Zg7gTAMlQZW5WMt37Gplqc0TI2ItzsxHp6kgAsdQXFxdIxPT+ToWnKqwws/fqRD00WABJpqM6eJHcAMBpH9ENNlv+aAABH8gTQOJcGQZDbYaGEk36jEcDLw3PEk2TKVPsBlv5eu+ZsGMGThAGYjRb7+EEgkkaMWXm6kwCg1zS0AMx7Y1wiA9qPnnx29605HrLnKle/edBgNAKQLarWcsFUQ/W4cO6UkQ+JOACjceiyoNdiBgASiQxwa1kdEfcLIgBYppBmTuB9WXSsS3G9b+6KQBDX4jJzJ5NQNGjNAAEhdLv1VyQWe/xZCqvJAgAE4thYamlT6gDI7MgR98xzQmgEgI4W7Yhwwr6Xab/eKZTmA6CRa4Yuk5fQyRhY2mvUdlPBuLBIGgFgnCoZLdbx6zMXLCYTTGcQDAAAFA3afsBx1rI9J0/rDGpQlF3IJ1JZgQAm3TU5AIBVfr3DBBibEWQfcnzpK30BNFql3tk0doZiD27G/UOPVc/+b9777+flv5445akpBFmoFko46RXJ6kzgkxy3bnhrJkJk9Abe+A10t1xnAPCPpI+9Ef3qV/IOgKB0/s1lplhodEYyGUytFcIRAyrA4P5u43AGRNpvH6UTQFf5lW1ypUdjsAKOFUe/uVLZnbc6M4kMw4Nm9qxKndoE7qGMuVhDPIahXWkEIi1sgi/Hsd4zV8o1QObzn08fEao9I7mZWbSp971w4ZlxYcORwGdjXIIPGCokVUNhQC8vr7AAhfO7bOrwVQIp5o9xIUTQXGz8weR0mptMOpUSwIcexoaZ8eUE+WIA4BHEXY4WCiPIkIUy2AXK2sMF4WE57G2ns8POyNVEakwyE1PqgD3O3lxm0ZWLSm5qUuqB/Po6pdEC/Q2fXy4fuiKuuJRfyH4znfv6ea+Ei6puEjWcz2ZRjI15pV+MvC2uX2kJeSs7b61M1oXReMFxbFy3UFRYYXu1+8yV8mzmA+kZf2dIqqR9GIMew6dbRbKmJA7bZ7E7wIgFrJpGoWhtTFLsmyfIZfU6swk0lZXFolkZTRrLUvV5vTopOvHdre5rW9V6C+gVxXmtzk4x6OX5r1xenh+bsG9b0KMycb3BTCQv4zLDQ8lm4cnCo2CdPAt7hm7P2L+eo5dXqPs96fFJdE996z9yh1YJA4BRmFv6QFRyeE723yMlYrnVk8uJjySDpj7/o5srgJ1Jc5NO9Ln8d2+xN+dn0kSqXhMMqhqPHlVPfd9FRZmwhvdEGOGasFSCFgojyJAFE04AWnKP7dQn/TEzOC4r3qpRVx0tKgL+oRzyoGnspLHqH9uKsddWJ/CjNxEBQHe20hZOAIyVuz57tYWf8SgnZiOdAEaNXHb6mOizQu2oRkctLPqrKuLZp7nrkkig11Yf/eKjvbJbjbJGtn9zUc9rq/m8iA1Rxm6lqir32JGjlkfOcYK4zDBKbfmIcRhj2Ssn80zJj/C5qZEAAC0myVmRcYpNs7P6RaV/3gU5f+TGpccSAEAJZQWtGqdn0XtFpTnrFek5cQk8dmIkCfSG7i5d1dHKMoFq6u2y7uz2S4ufTnx4Y6wnGDsqqo/llp6V3nrZKq1+dbMhKyeOzwvbwMOZNdoGQeWoO96dSXOT+mjxbkrys1mcxCwmBmCt0BVNJ5xAe8mebSVTfxuCLGSLAgIC7B+zWCyFQjFftZll4W89l5uFO/vkB8O3FiJ3DlLq6Z05kaqP13x2ei53Q7ljuQX//oEDj5CuHLj4wXfDOwqj47MQl7aAeicYBUfQW24t76EwE/heoKmtEs9jpRDEEfyqFx8+MfwAHZ+FuLYFFE7I6WlHs0mSCnW7sucGLOYkhcczjFV7yyvHv7HZFRCZL17KXDfh3lPG0m379wlvZ4WcgUv8dOcu/oR/WB1HC7buVs/ROJ4LGWwvqX1Har8RHDo+C3FxCyic9EubK5sjQnjcKB8SZjJq5K2F20VHBLrJ33nHMqmObc0vnvBli+FOHCaylO8ueDp3wpfNXToUSwAA+tp/+g86KABZSBb03AmCIAhyuyyU+04QBEGQeYXCCYIgCDIL7vRwwmKx5rsKCIIgyOTu9HCCIAiCuAQUThAEQZBZsIAWCt9mBJ+fCSP3vzd3LTJP+cAPBHEdRPgF5ecRz5gW/dd17+tCZhkKJ9NDHPz11+bwEWd1uJX/lnChZr4qhCBzzi1p4E+HrPYXUYNy3McP4bTzViPkjoLCyUxosNJ3MNv/JRNo5I5TjxX18KY/B5tLCr/4x/XJE3t4L41y7/62w9FGw86kQcZH4ex7MiKorerx4pbJj8TCkcJWevfJfrzmYIstZ9K4lsEKXOEfMFubQRxMOGRZOr8VQu4saO5kBgaNi9qEbk0CtyaBW5PQrXtMr//eiL9tz/gwfgkA0GOSil9M/SNjmkXhWTF/35KQxnKfYZo5sTjw7ZyM4s2hdEeJKI9lZhTnJCR72D3ntvSFP2YUpwf6wfB3xaNM9P6Zms2yyCmbNrz9P8vpjv73OJNmLmBh/N8Uv5j6ApvgIJHHSt4/X8z4G59qf1iL7U80AAAIyakZxX+KXzP6alOzSCF0a7b9W3QDDe0iI6Bw4iIwnKPmwfk0sw8LiuKEEcyXq5tVEyfyWMF9yAc6G2UXFsJhuG5kwqQnhTmTZg54MNNCyaC5KrjmYPsvcnI03cPcWSLWosNakFmEwgkyMx70tFAyaJuL5A7brxi6l0VbcqUTtV9zKiiSE0Ywi680Oxhhw7NC1tEwXZP0SzSJjswqNHdyB8CRo2LDN4f5MTwws6GnsqLyHw0GW7O7LPqz9MCbB0rSY5KKY2w/6yQXt5Z2OpsGsDXrN73A7vzHESkhNiJ5xRI/zNrZqSwprxN0jA0DhKi1CS9wKT3y6neEbZ0O6778fm4U0Sz+5qqj9iuAs+5eTCeVXnCF9ovss2LLWk6cH8UDjKr2q/8olUpspx4QkjdteubWFneMF/6U8cLQj4PaI5+UCm44mQbAO/TDrPvwdRff+XHpMzwmxwsP/fofGqRHKpWqMWe9gXfgnzfedx++R3Cu7HiHw+0z3QPSuBTolhVddRTafx3D9LJoj6PQjsw2FE7mmxsuKJ6/xr1PfK3tmvuSaDb1of9J6Os+f0QNAADdLZ991UMAwPsu3xpB7Wv54XO5cQAAwGLu7rXl4EwaW1neKb9N8Mb0lQ3NNcQlkewVWzZ5LykqPXJ9ZCOFuzf5PqoHDjw4K1dfbjvlYE9mIiPtfgroZIImB5P/pIeil3sN9hy/8qMLDHR5Ln/5t2S43lHZqPFjMMPY972yyJAjaNMBAFgl1RUfyXDgRor95X1R5J4LXzc3DQXRnw0yW8hxJo2NNzv6L/eRDG3KC62DvoyAqFXxK5ZU7Do7On4vD1kZ5UUA8EsO8/u840cHMWD5/cFR7lZJeWOTg9DO4CTfi+lk0hJX3mobuTOhcDKXulsKvtSCVg8AnVdrP9BhqnGWVJKWE2Vv/rNWYgYAoEcmHlhLjQ2mHlFrAQD6e76V9gAA3uS3NYJq+OnHEmnP6AycSTNclh+0vHO0SmwCAPAIiM5NDfz12sALJ2Ujpj0sPZJOc9QywoBO22Rw9Pno94dGuVslFY2SsdfUw/D3BqcwsD65tKR7zGuD3V8Ky8Xmnm64+V3NWcRxsixvSl/pV29KDAAABNULTySsCWDGubeV9AOAVdXWpgIAoPiF3xdFNkgaW74d/cGdSWODp5CU33z1Zo0BAMBNlrLp11vYkZtZqg8UI6J7Z4emc5Di52aWKbsd9ScIS1PuXwL65qLGSUK7H/Scqh4ntNv+RLsAwFxzufwDieGHiX+tCDIWCidzyaQXX7WN7wzoOr+d4Hqw6ftGyfDghOqaUrmGutzb02NuWtamuh/Ew+tx+tquXvop8BE/RixFdmrEMJReUPSF2NdjQNvT6aBBISxNi1iCv9EicNh+JcQs9wO94DvleB/H2NSibBr60e67mhvOlXWjTdA4HELNP1YqzWtCKAxvgI45qFGfUvDDcFmDhi9rVWmMgKiVfnjFiC5In6LquU+bl7v1NekcHa5Fvz80zsPa9I3MUWinBacEYH3XGs+Pd6eI/Z9o53Wl40FOBBkLTcXPO6NSa9ccmwb6AICAJ89JWYZrGvumX9/ykxncKIx7xiQcNKvUDmMJgB83NM7Deq2uQeyglfNZmcIi9Cnqz2imW+XbTNfbYvep+0xmAILHHC2Y0/5kX9aAtrdzEDy8Kd5jEg7oexzHEiD4pYRT8X2tZ+oddCcJcTHL/UB/oaoNDXQhcwGFk/k2aBm4bUMKg4PmkR2JgYFBAIyAn/qSVpzfI5FUfJ+q6HtH7deaXwbSwfBtlcpl2i/L4G2boB6wWEb02AbMAwCAxzwmSO+AX3BowmK4Viu77CDoUAPTlhMG2mRn1FMvAEGcgMLJ3cSN4DFymzE83g3Aah4Ys17IjUD3oXhNPBTqFcxJoIDq+3pH7Zd3YAqbMKCUCa6j43zHgScQPEY+xgPAgHXsqCB+MWW518RdJBw1JcoP398m+N7BaCEhNmYl3c1QVt3qMqEdcTVo7sRF/AwOBzucTENi+JBBebM/QVlxDwEGtdd+GpWMnLLp4S0MwoBW+pcTP4wzFu+2ZGPUUrxJWeSo/cJiY1YudzNeqL624EbhB01WAMAcjoE5kcZ7yQociIe/XjzV088N+rp7Ri1Z8GBF56YE+oFRXFryjnScaSqvoNA1XqCqavzWwV3qXsvT2KSBjupTShTakbmCeieuYeC//YZB8POmOBgJcSZNUGRI1PAmLB4BK1ffAwOdysujggLunrB7CQCA9/YLGm8Ox4sT+pA3dP4grewf51UbSuDGlaSB642Ctllov3zjn977v/mH/rwpbBojQbPPrOu3ApDpS2aWxoOZdh/Fts2JG/nXEXQPMIqvjr5T3W+Zn58bgBuJw/DGj83EbcnGVUs9TD8KaidazgcAWNSq4OU4Y2XV7Qrt7kEbXn4/P+/9ZxN8b0+ByJ0A9U5chOZHiYHz0PLINx72rNb0D/wMfVrlBaVximnMukXMVx73rJRr+4hLItl+foM9gm+aRzcxluslP2g5XErPtauXxo6MuFHWRTM8zD8er+mZeJoBC1sVGIQzfnvF0c4rTvONXZcctAxgWVoG/2vJuXkfrTFLWrUDLL9fr0sgNHR2Dlhh0CiRKq9ZppjmRr/fmsQDDKWkd3AJIyDWB9PJvzuhGB19rzVcFa+MuA+vLZGMc+Ohx8rQh7yhs0Za5mAhIGV5WhBpQP1D0ZjM5wie+2DKL1leAA9mPXKp/GMJ6hHdHVA4cRGWziOCKljLiQ4MfSwUAEAn0Y8OJ5OmGTSW/X/VhtCIdSGBXpi1s7PlSHndeBMbZvE3pY9/M35FPJZzk6nQ+b3U0e5bi5lpwWTQ/CCQz0pD0lXzn5pkVqQvHr/Ezw9g3sMJdNZWHHCPTgvxe4i3FO8GMKg9ck157cbU0gx0/vCXq95bYpc/xCJAf4/4StWRyvGW53Y3v/Np8wQVoWxcxfAwdx53tPsWFhbFCZpsU7XZNdB0ubI19iGmB36xry8JwAXuX0VmAQonM+BG+tmD8TN5eMR66sdnib86nfrVyKf6W9482DJu4j5Ny0dF47/kfJqB/3ae+lJ4akq1HIGcHEP3sHQWXXG0e2BQVIht56jpFzSC6tyebV/Fbv9kJ13vYEhnZvSyXQdlo56TiL5IFY2b2ni5ovxyheMcJ00zqJTVvimrnVI17Q1trKmTSC/ccJCImRZKBq3U4aZqTiIC2ffnmz87aDz0NYd3ZAnT3j/0ScJPTQAAD+BJREFUG13fzItFXAQKJzPhY824cPPy+244Psu2e6BU5mj3QPeAtFDyZDtHTZkX78FIgkp4pWsW83Rxto01He++FRTBCSOYxWJHm6o5yy1pIGfU8VkTJ8YHPchj9X0vkKCtwe4aKJxMj2lRxcuERqL9M9M4PsvlDCiqth6omiRRf9s7H7XNarF43/gnXn4qrOerPYLWWc3YtRlOnfx80o5mU/n51PJZKnCwAlf0Bwxn92c/qF807oUFJWjDsy8nU2r+78QlNNB190DhZJoWdQkXoQvl24Od9vozYaozez7+twS1TfNKs6hFuGjyZB6r//ByCrnyozf/75ITx4wiC8aigIAA+8csFkuhUMxXbca60+qDzAc8Hj8wgMZMXAgeD+gXdvdB950gdz4US1wN+oXdlVA4QRAEQWYBCicIgiDILEDhBEEQBJkFKJwgCIIgswAtFJ4ugs/PhJG7vU/9rngEcSlE+AXl5xHPmBb9d07P0ERcCQon00Mc/PXX5nCK/VN3w13xyF3NLWngT6PuipfjPn4IN95RwchdCIWTmdBgpe9gtv9L07krPurhTX8ONpcUfvEPJ+728vBeGuXe/W2Hg4PZnUqDjI/C2fdkRFBb1ePFLZPfLIkjha307pP96GjnEmfSuJbBClzhHzBbm0EcTDhkWTq/FULuLGjuZAYGjYvahG5NArcmgVuT0K17TK//3oi/bc/4MH4JANBjkopfTP0jY5pF4Vkxf9+SkMZyn2GaObE48O2cjOLNoXRHiSiPZWYU5yQk2x9Y4rb0hT9mFKcH+sHwd8WjTPT+mZrNssgpmza8/T/L6Y7+9ziTZi5gYfzfFL+Y+gLb0cFdHit5/3wx4298qv0BKrY/0QAAICSnZhT/KX7N6KtNzSKF0K3Z9m/RDTS0i4yAwomLwHAOz/5zOs3sw4KiOGGT7X8+tPdtZ6PM0bb2LsONTMBmI80cGNo/WHNVcM3B/pvk5Gi6h7mzxNG29ggyZSicIDPjQU8LJYO22eH+57a9b0sc7n2LzFxQJMd2NMDEI2y2baGbpI62hUaQqUNzJ3cAHDkqNnxzmB/DAzMbeiorKv/RYLA1u8uiP0sP9BpOSI9JKo6x/ayTXNxa2ulsGsDWrN/0ArvzH0ekhNiI5BVL/DBrZ6eypLxO0DE2DBCi1ia8wKX0yKvfEbY5Pg52+f3cKKJZ/I2j/c/xAZx192I6qfSCK7RfZJ8VW9Zy4vwoHmBUtV/9R6lUYjvDmJC8adMzt7a4Y7zwp4wXhn4c1B75pFRww8k0AN6hH2bdh6+7+M6PS5/hMTleeOjX/9AgPVKpVI040nEoceCfN953H75HcK7seIfD48jcA9K4lMmOBiD/OoY56bb2CDINKJzMNzdcUDx/jXuf+FrbNfcl0WzqQ/+T0Nd9/ogaAAC6Wz77qocAgPddvjWC2tfyw+dy4wAAgMXc3WvLwZk0trK8U36b4I3pKxuaa4hLItkrtmzyXlJUemTUgYy4e5Pvo3rgwIOzcvXltlMODj8kMtLup4BOJmhyMPlPeih6uddgz/ErP7rAQJfn8pd/S4brHZWNGj8GM4x93yuLDDmCNh0AgFVSXfGRDAdupNhf3hdF7rnwdXPTUBD92SCzhRxn0th4s6P/ch/J0Ka80DroywiIWhW/YknFrrOj4/fykJVRXgQAv+Qwv887fnQQA5bfHxzlbpWUNzY5CO0MTvK9mE4mLZn/My2RhQaFk7nU3VLwpRa0egDovFr7gQ5TjbOkkrScKHvzn7USMwAAPTLxwFpqbDD1iFoLANDf8620BwDwJr+tEVTDTz+WSMccR+hMmuGy/KDlnaNVYhMAgEdAdG5q4K/XBl44KRsx7WHpkXSao5YRBnTaJoOjz0e/PzTK3SqpaJSMvaYehr83OIWB9cmlJd1jXhvs/lJYLjb3dMPN72rOIo6TZXlT+kq/elNiAAAgqF54ImFNADPOva2kHwCsqrY2FQAAxS/8viiyQdLY8u3oD+5MGhs8haT85qs3awwAAG6ylE2/3sKO3MxSfTDyRPfODk3nIMXPzSxTdjvqTxCWpty/BPTNRY2ThHY/6DlVPU5ot/2JdgGAueZy+QcSww8T/1oRZCwUTuaSSS++ahvfGdB1fjvB9WDT942S4cEJ1TWlcg11ubenx9y0rE11P4iH1+P0tV299FPgI36MWIrs1IhhKL2g6Auxr8eAtqfTQYNCWJoWsQR/o0XgsP1KiFnuB3rBd8rxPo6xqUXZNPSj3Xc1N5wr60aboHE4hJp/rFSa14RQGN4AHXNQoz6l4IfhsgYNX9aq0hgBUSv98IoRXZA+RdVznzYvd+tr0jk63ZJ+f2ich7XpG5mj0E4LTgnA+q41nh/vThH7P9HO6+OdWo8gDqGp+HlnVGrtmmPTQB8AEPDkOSnLcE1j3/TrW34ygxuFcc+YhINmldphLAHw44bGeViv1TWIHbRyPitTWIQ+Rf0ZzXSrfJvpelvsPnWfyQxA8JijBXPan+zLGtD2dg6ChzfFe0zCAX2P41gCBL+UcCq+r/VMvYPuJCEuZrkf6C9UtaGBLmQuoHAy3wYtA7dtSGFw0DyyIzEwMAiAEfBTX9KK83skkorvUxV976j9WvPLQDoYvq1SuUz7ZRm8bRPUAxbLiB7bgHkAAPCYxwTpHfALDk1YDNdqZZcdBB1qYNpywkCb7Ix66gUgiBNQOLmbuBE8Rm4zhse7AVjNA2PWC7kR6D4Ur4mHQr2COQkUUH1f76j98g5MYRP+//buNbap847j+OPLcZLZOE6AWINYuTSJ3biploSgqOtYuyVilBfAumjqVm2dtlWbtGqTpnWXMt4U9mpjdFK3V6xoUtm0sImopcAKKxQINDcgniEF5yazMCcuSXPBN3yyF0tY4jjHuZw6OfD9vEqOHx3/FVn+5TzPef4n5u9quq14P9LDSjKZzLN/l4QQsfjcWUFpjbXYNv8lknHdjmq7FOpvuqowW2iq3VyWrx8/29anmWiH1rB2ohGTQnGyY4FjMh3rLcJ//3rC+shak5CDPR8lDLPseHbrCw5TLOh99XBnkrl4fc7O6g1SxN+o9P1lqN1cVqwPn2rreeBm4eVIXAhhUJwDW8CY3JxHjKJ9+s8rrcu268XEneGEWxbMRZt+s6PULsLt7x7f602yTGVzurfYxK2W6+8r7FK3FTeUZMb+3XbET7Tjk8LViTbE7obGZWHPtSrMhCxkjLOqvHq6CYu5oOxza0Us4L+UEArGtRWfNgkhpFy7M9kajs3lrssVgU7vxVCSV6dYS3eWZcZuX2/qV+H7K+/J7/zqd394bfezFUuYCVJfdCQUF8KSn7O8MebChsetU21O9JZnKvPNItx+I3Gnun2j3a4XQp/pcuRKc0+iz9lZs8EcGWi6PN/tfEIIQ3XNo8XG8MWWBy/asYpwdaIRQwOecVddcdUvt2a3DYVik2Ii6D/lDy9yTHREV/jT57Mv+oITGTlVJXa7PNx05mbiV8y928c7g67HrMM9N87NnRnRW7dvcpijA292DM+/zGCoqCl1GsPvtyp1XlmwvNrt25wbhdjY8NzTpz1vr/hsTdTTF4wV2Z/Z/nnTtUAgFhdy2OP199xb5JixkH1L/X6H3/OxnOMoqF1vGPF9cLg3MX17rt1oL6t8XAoe9yTZeGguc9flikCH96zCjYDW4gZnZuw/nY1zTg6oiDjRiHuBQ00t4inXplL3191CCDHiGU2Mk5Rj5PDZf7SNuyu3l5faDPFAoPvQ+SvJFjai7Wfeff5M8kLMxY9tWycCV71K3bfWFDY8ahFDnU0+Vb6/BjsudGwrqsqTpBy7XYgVjxMRuNy8P2tTQ7m97okNkl4IOXiox98ztrgxsUDnqzdyX6gtrisyidBwe2vLoYvJbs+9c3PvH2/OU4h1Z43DHA28qdR9y1BR7XKmaqoGLB9xsgz6zEmzY9IyPWO9+MdntZ/8266Tsw+Fuvcc6E46eGKo+/XG5C8tfEzsbuDIOyeOLKrKWSzbNueb7wUaW5W6Bzqry6c6Ry39jWa59fa+75+s/dHBn+SPKkzpLM9o188OdCUc87z31q73ko4OX2o+f6lZ+Ywpx8j+rst7ui4vqsyZ/tdYc8TjPTWmMKiwwW0RQa9iU7UFyhCWvMn7P/Plgdn4RCzH+vhzp+7/+/0wPD5rqnugt0upe2BWQYPbkqpz1KLZnvhilenWidZBFc+pcVONNZW7bzkrXRWmaHu7UlO1hdJ/KfaDhMdnLfuceIAQJ0sT0TW/bLqeMfPIEh6fpTmx3pZv7W9JMSjUv/f1flXfVsp78psvf7ti+OS+pj5VT6xt40f+/NeUF5ofnj+267xKbyg3Gxu/ZzDO+NjLozottPVEehAnS6QbPKHjH+X0KGl45cWKW0f3/f7vHg00kXyQDem6T+hWugisWrqCgoKZvxcVFfX29q5UNXOttnqwEiRJisVopw6sbuw7wepHlgAaQJwAAFSw2uOEmS4A0ITVHicAAE0gTgAAKtDMjcImyWzRz2zPGh2PTKi5TQ4AsAwaiRP9Z3+8dfcXZvZTlf2H//niGwq9JQAAaaSROJGvNH6w5/TUzJyp0rn7K0q9wQEA6aaROBETvqHW6Z9NlgJmuQBgdWEpHgCgAuIEAKAC4gQAoALiBACgAuIEAKAC4gQAoALiBACgAuIEAKAC4gQAoALiBACgAuIEAKAC4gQAoALiBACgAq10FDZZMs3TD8/KsBCCALDKaCRO9DUv1SU8PmvFagEAzKWROJGvNbbsPWeYeWTcF1qxcgAACTQSJ2LYN3jBt9JFAADmwyoEAEAFxAkAQAXECQBABbqCgoKVrgEAoHlcnQAAVECcAABUME+cZMmOHNlqSP4iAAAJku87ce8aPPaNiBC60b5P/elg7q9buYgBACgx2Gy2uUdHPzL5vFkdA8K1eaL+M+Lqsay+ePprAwBoRvI4iY8ZPuyXOq5k3XWO1ZdMDl2wnBtOf20AAM1QnsXSDQ7rhUG2JkkcAAD+byGLIpOfeBUAAI1jjR0AoIJUcRLXCSEyTSlGAQAeciniZHBUL0TcXRZLTzUAAI1KfmfXfUNjcn19yFUecemMd8b0QqeLhHXcMwwASJC6BaTjqTtv/HCsJEsIIcRA9te+a2smTwAAs6V6GmPh+GsvjZWYjN7Ta45elQaD0r/IEgDAHCnixL1lvMqs8zXmffmgFElPRQAADUqxFJ+XIwth8HrJEgCAkpT7TiaFEOFoGioBAGgY2xgBACpIESfWrEkhdBGuTgAAiuZZis+SS3LkvMK7X62Mi2iGz5/eogAAWqP8+Cwhosbmv2Qf/TitNQEANCf5NsaMDdGnC+XIqMHXLflD6a8KAKAxqXfFAwCQEnd2AQBUQJwAAFRAnAAAVJB4Z9dvD+wXQvzi56+sRDEAAK36L/K87TAND5aGAAAAAElFTkSuQmCC;" vertex="1" parent="1">
          <mxGeometry x="336" y="1700" width="538" height="245" as="geometry" />
        </mxCell>
        <mxCell id="6Ha6fiWHf-EiZPGUzSEU-109" value="" style="shape=image;verticalLabelPosition=bottom;labelBackgroundColor=default;verticalAlign=top;aspect=fixed;imageAspect=0;image=data:image/png,iVBORw0KGgoAAAANSUhEUgAAAfIAAADaCAIAAADSe1doAAAACXBIWXMAAA7EAAAOxAGVKw4bAAAgAElEQVR4nO3de1xT9/0/8LecXJsYAoQQhRgCUaIQC+FSYCrFyoRpvcxaZjuZ1kt/drjS2XtrO9fZajtn3VztqradrrVWrWJR6BeRqhQVIVABBQwESJCrEGLS3PH3B/erEC5CfD8f/SOcfM7nfIj0dU4+53M+n0kCgQAQQgjZC4cH3QCEEEIjCWMdIYTsCsY6QgjZlaHEOnHP1anFlT5qbUEIITRspMEUcpVqPtx4N9zTQgWQH5u66CDZONrtQgghZJNBxDrF+PKLTZEccuYxl8RbpDoFCTMdIYTGrUHE+lRjIAeggPXiQWb96DcIIYTQcNy/b53q2EIlQNNEaMagOQghhIZnMLdM79EAACaNcksQQgiNABzgiBBCdmUQsU4AAIB1lBuCEEJoJNw/1llTLSyA5ka8rkcIoQmg35EwVEYLi3KPK9JvXqmnWinpVyk4rhEhhMa//mLduuGDqpdn3AMAMJFT9rpuLxjDRiGEELIVwWaz+9o+qVFBy8xiXJITLjP0c0PMk3KZmXfGunEIIYSGqv9YbyDJleTCG/RMs+nZMAPf8MjXOQTeN0UIoXHu/jdC65RkDYAjq2UMWoMQQmiYBjG+pfUSnRjlhiCEEBoJOGwRIYTsyiBi3TjJAECltVBHvzUIIYSGqb9bpp2s5pZ5i38Rce+RVJRqExAtDr9YxqZtCCGEhuz+sQ5GUj1hnveofu78u3HLNfMJxtFcHBKDEELj1CSBQDCognSrr7eFz7pnVFLTlTibI0IIjVODjnWEEEITAY6EQQghu4KxjhBCdgVjHSGE7ErfsS4UCse4HQghhEYEXq0jhJBdwVhHCCG7grGOEEJ2BWMdIYTsip3GOhG9+Jhia/JXAY6DKk5b8tXWNMXaWNEoNwshhEbdBIt19uqkrWk/Lw6hArgG7FRsTf5cTOmrHAFkAoCgEcOYJn6wxxo5rF+teu/4zk+Ob1nS5/mFzg1ev/aN/X/Zc3z7ri+2vPB8MJ9hUz0IIbvW3xLVE5wpM/2t53KpdTWND7olg0aXLkt40d+FaF+3pAfy1AVbN/52Jl1fUXRNdpc13c8v+ikf0eS/v3leaR5KPQghe2ensQ4a9c109YNuxOCRZ8yP/3MYz1RXo+PyJvdRwOXXi5+cSdfnn/lo28UaKwBxPvy1P/0++InfLcn76ETj4OtBCNm9CdYJc3/Ttmz4P8XWNMXWNMXW/zsR5NxnIRYnetuqA1lvJCveOJa6auNSNnkYR6T7rNh28Jv/7XtrsdDGahji37+xUOhwO2Xn8aymPks4B8zzJsPd3O8yaxh+az9eFcxozDx+rQZIwl/584jB14MQsn92d7XemJ6+VzOZoHou3+LH67sIe/m+tfHhtObCotRkNcEXLdq5Squx+YBk8RO/8WOTAaTRT3glHyi2oetDJz+XdK258szpG5Oj+yxAn+bFB9BXFBRbYLbET+ADEtK1rFKlZh7PQ+DFgBrN4OpBCD0EJlisay/sOlZFVcuNABrFkYRjZ+tVph4lZPLTMgA+EdFPrDvGRq0Jp2kzkzc/l11lBIDU4/Fr/7WFacOxAADAXFlcpnlCygJ1SYHKxu5si/LEcSUAEP30m3CdXSgAdY3NJmBxnehA5/BY0NJYfQdA6MzjAmgGVw9C6CEwwWLdUpleVNn60qjOS7Sh95wUslDEBEPq4bwqY9smxaHLWRtWRrBsPNadtO0vFvvwTKqSOt3Q2zMoVDqZADDo9QBkCgAAnU4D612LGQDo5N5nJITQQ8zu+tbvhy3gkwAabhV2WZBVU3NLOaxKNari0ct0AADo6LX/5a7eDKDXG0bzaAihCexhi3UqjUYFAIOhuetWg8HYT/nxwaj/xQpAo9MB9OV1d6z6hhoNEHQSGQD0Zu2Dbh5CaDx52GLdaNAaAYBG6/b4aWvW247BFXpyhzOa5j7qGu+YANjOjhSA0msXUi/+KLOAg/MUFwDz3Zq60TswQmjisddYN1iNAEAl9XouVK2QGwA403273FVg8abzbT+UyxOv/HPf33ft++efQvt56nPY9JVlSgC6wM+HBNa6C/85r9ADCL35LIDbFWWj2vuDEJpo7DXWNfW364Hg8yWuPd6w5P1Y3gy0sNX+7u1X6MK44JCe90sHjzzNR8wGAODO8PMYxlwFA2rMzSg1w+SA34bzWr8UEM7hTwXzwKK4dK3GluE3DOmzf9mzb9/7a6XskW0pQuhBI9jsPv6/dnJyUqsn0EOavVk1apZP1FzPwEg3N5Hbo+HCWc7qwmLDPQCjvA7CJWEhM+dHurn7uM+Je2LjCqa6icZiaHIO5xUOebaBlmYNc0bg9Mman0/9L6lY3WJLa52D1y9bOF8SEDZrljeHSXVgcvlewb4BoQJy+a3bWgAAvaIaHn3Ub9askBA+VygK/d2Tv/alm+U/fv5JQZdD3r+eNvTQ515d6sNicLy9LNdS8if0PzVCqDt7jXWAO7KSCqrrzMe8AkM8JYHThMaS71LUVgCw/lKYUnZ3qtuMR6dJQ6Y6W+vOvnviLNV3vthgU6yD5U7+j6ePf3fmUoltmQ5AcEPXPTl3Fs99GodJAQAyk8d1n8ZzF0y+c/Gnm3cAAKDlrvxySROV7T5dIBK7cx2ab/6Y/OU/L1YYhlhPW5sNwPcPdGcRBHHn56QrVTY2HCE0Dk0SCAS9twqFQoVCMfatQWNq5vp92wJz3t104OaDbglCaOTYa986ui+GdH4g907OVfmDbghCaERhrD+UCLb02bcS5sKlw8fzzfcvjhCaQCbY5AFoRHBjXk2YY0rZ9e7X1yb4HRSEUC/Yt/5QIshkqxkv0xGyS9gJ81DCTEfIfmGsI4SQXcFYRwghu4KxjhBCdgVjHSGE7ArGOkII2RWMdYQQsisY6wghZFcmWKyzVydtTft5cQgVwDVgp2Jr8ufiXgtljDuSbZvTFJs2SqGt/VkxQcNbjGkAUwI+TVj1rzlOAOAREn3yz8v/OIwFQsaIw9SX/rjqZOx0N2hvf7jt098jhCZYrCOEEBoYxjpCCNkV+5rqi5BGfXEi1Lp//6uXPTduCQ4RsSlGdWl6xu53cks1HaWYkjj/6MenzxKxnblMOmhrClUZ36Z/fbShbf0gVsAHPy+elpia7hq8LJCpl+ftfS1/2pvLnwpkWpVFXyacPF3YURXJfWnourgAf182k2rRKmvy068d2lXQ5VhDwZCu25YQxW26+t/tu9NGad3pwIUr3p7Z9OXnmbV+QSt93fgMwqRuuJiZ9VlJl8WTWG5LZwsCp7nyHRlsKuh0ujJl+dkrRVfU7cvr8QI+/Z24Lju7aZpfGMehsfz67kzTgl9LI7hkXVXR3qTrOfqOuig+j85eOZsvdqIxwKRWN2UXFH4lq8UJxhAaPfZ4te4cHrX94zBBneLCqYLiZubMpYu3/9WT3vE21WP5m5FzRFAnL884deX0qfJ6V1Hsjg0fb/NkdqmEtzTMv77ofI6W6Rv0yolVUSBPTamxivzWxYvbi5F8tqz+5OPIML72Rkr2qUN5OUpmYNzyPV/PmWlT1zldGhMlZJAZHmExc6cM49e/P0bYwqg/+9LryisuyJvMbLeY30Ss4XV5WyBeI+U7WbVFirLknFuXq038GbNfe3b+U93XhZX4z2BUl19uADdR0HuxUq/G8nNlOgbfd82jHT3jtHkLF773xHQx0ZhTWJR4XVlqcVzw+Pzdv+HjAqoIjZ4JdrWuvbDrWBVVLTcCaBRHEo6drVeZehVi+nKyEvZvT9QCAPD9/pa0PCwyIIRafsEIAABG1eFnPtouM3Su7EzlrU/asCp2btSB8pPKtm3WwssfJlypZFU7Zy0PM5Z/uSn5vIbdLNq8xpfPpxbdNAIhnftKvAfIUuPXXmm/PCd5b1m9N37u83EFCfs7L0grE5O3yywKeWf7bxn7+N1Miny5TjqTYa7JL2mw9QNqLN1/tgEaNABQW5K7W02oelflwPRhFL1zKDffCADgJo361+Oc0JmcL2vaiprKczf/R6Pq0kYGP2jXiunLgvmJZ5Udc4Tp5Lk702+bXa1ez/p6aEp2pxSqSLWM5yPCpjgxQKMDYIuDNvoyG/MvvJ56u/3ToIRGL3xtVtCzhbf/XdH+D9DSeDYlI8fU1NjZfp2tvz9CaKLFuqUyvaiy9aVRnZfY93d5qzzvm8T2PgWl/HKBJSycIxTBhbbOE61C1vYmhUVjOpII0N4q1IKIIxQBdMR6nbYGAIzq+joAaKg2AoC2vhmAz3QBAICAp/2FoE45VKBxZLo6tu2lSb9VGu/h87iQuT+3o1ejWSY/L+vV/t7NVp3e9ieZ0MmkVNTZPL+iUZNT0naOMatrL/bT2ZGfezO/PbVry5TKeRwvZ0dGe5qa72pUre85EAwqmewA0FyvskwPdGHxAcraK2nSaM0AoNE1AbhptLUA0KJv0gGZznQC0AEtQjKVYak9ldsIDFrH5bmirFY9y1syjQUVTe3bDMWlyuJe7UcI2WaCxfqgmJTVys6fLFoNAJAecezc5CgNWB0fFBbI43UbSGegd/nRZLS07q4HsBrNJmP7RiqJAgDAnunHBIDoj1+K7tUAqyPVGUDba/t9mdWqkjHodjbUNnZZ2dpo1gEAhcwEaL9IpkkCZq+UuIudaeSuvXRkCtkBoH05a5OlBQDAajEBgLUFAKDFam4BIBEUAHBw9uISQHJ7Nm75s71aoGPQydCEkwMjNBrsMdatbYncN0p45Eefz/EGddap9O9uqBuaDVYg8ZfGrI8kEUAC6Ni3/YURoDPLAAAIAKDSJrMAoObk6+l5XSKyTX1D/fB/jVHTYjEP+AEFPhH19qNMXb3y7E+1qmad1gowifObaF+JAwzhIQESmUEG0Cm/SitT3ev5plnTgJmO0Cixx1gfEClsdZA3VZuasH9HYmceh0U+ObRqjJZfjAAAzQXyjML7FR40guEh5GorFOoHmHl0/lJfJjQWvXckt7gj/SnkBUO9ud7SYrYAkFpU5bevDHQWQQiNMHscCTMgGodLA2gozuxyjU3lBUhpQzzFqYsLtQCcxyJHbFAH4bFk2749O//+6Yd/kJBHqtKhYzCcHMDc0FDWJYvJ7m7eJGj9njJYlqbSOwBUt0D3oeyFEBq2hy7WDQ11BgCOJJzWvoUkjItayAcAEt1xgB17sOR8W1AJpJkbYlb4dj0fkIRLQ5dH2vIliCKUiBgAQHaXzODYsP8I0emaWoDMdeuclYHi9HSYJxsAyA5DmalBe+76bR3QIiICAuldNjvQJBLxPJtOhtw569//5749b6+QMGzZHaGHxEPXCWPJ+javMjo0YueGj6OLbijB2Vc0J5yWn6KSRHu4uLIJaLDevxIAAFNm+od7edvjRS+c2ByZeatIaSQc2dOlopl8Uva7eSdhyB0PellyqsInitt0NfnSKD2MNKhmKM+WzJbMmr71GcaF8ibdJKbY28OrRXWlRhDKZXKpAPr719FKXXj1M48n4n2nv/2cW35prUpnJU9mifluHnR98tGi/kbp9I8buijGxx3AfeWqyLT8JHykCaG+PXSxDvr01Fc36TfFBwRGh/oYtTWFt77a9OMJud8/oj28pXxHaGgcbE2Wm7sOPy8LWr0+IDBQsiQSTBptvbL8zN781PTed1EHQSc7+HLcQVv2HFGmK+dSd+v8V86ausDfTafTFJXlvpd5SxfoFMpzEk8lkksHed4DAMPFH1JUFb4rH+WLRV4SEuh0+toGVaK8/NwdGxpWJ/tJFiOUcslkJzc3AIx1hPo2SSAQ9N4qFAoVCsXYtwah+yCHJhx8xeP7TS8fe4DfaBAa1x66vnU0obHDn5BSVLJrmOkI9QtjHU0UZO6c9W+vkzT9cCCx/EG3BaFx7OHrW0cTlGjlWxslqlPbP/kuH6eMQWgA2LeOJgoymWw248OpCN0PdsKgiQIzHaFBwVhHCCG7grGOEEJ2BWMdIYTsCsY6QgjZFYx1hBCyKxjrCCFkVzDWB0RELz6m2Jr8VcAQpuxFCKEHaYI9ZcpenbR5DT/3jZCkLFbAzqzFs9OPLX2uyDRqxyOATAAQNGI4S0FItm3+OM5ydMW+z2Ts1Umb13CzX5ubnG28/442mBLwaazYnJ2yOaPJIyT6X3Po546d/HeXlV0Do5a/LaH1sWNLw5cHUxMt3n99PkQywLm+tdjd9h8prHlBfr+Z4ebFopEdrDp1U7685NS1iuKOX85h6kubIuY1ZP+/o7dqW9uWdWZzJi5CjdAommCxPtZMmelvPZdLrasZ9Gy9E4K6Rlmkbum2qaVZZQK413y9qELXHutklymBrhRz4+2cOnO3Yq1YgpeeemwemzBrGq7Lq3RAd+NyQkOk2oqKYiUghB4UjPWBadQ30+1vYm9lYdbOn/v8jtNwPKWh4wePkOhAV0pj6fWdl5p6lWQ9teixeWwok1147+Lt9nMEweZ7iO/2KosQGkP2GOsE3/OpP4Y9Md+D70ojjIaaQnlG4uWjh2qaO4vQJBsif/+0WMxn0sFQLy+/cDj98NGGruv+TNuy4UA8r7XvxSpL/t2K7B4X7IQ06osTodb9+1+97LlxS3CIiE0xqkvTM3a/k1tqWycDQ7puW0IUt+nqf7fvThvnM8+SvcWLphDQUPjvzkwHAKtaWXHlATYLIWSHsU7xDXrv65gglqW+UH4+Wa2nUnl+05e/SZIfPXa+rceXFrJj7bZYDlGvyjhV0Ejj+EeKY3d4znI9/Oremo5L2Mb09L2ayQTVc/kWP17/h3MOj9oey4GcWxcKyNPCxZKli7dD09qE8kGvDNeJLo2JEjLIwAiLmftN2onqodcwdojZIj4boKyorKzl/qURQmNpgsW69sKuY1VUtdwIoFEcSTh2tl7VvS+BE7szKohlyN71xV/2dlx9k9yjPSjtd/EIadimWA6lPvfdRUkZ9QAAhG/Qh1/H+MdHLUo8fLK9V1grk5+WAfCJiAFjnenLyUrYvz1RCwDA9/tb0vKwyIAQavmFLndEKxOTt8ssCnln+2/1db/UpMiX66QzGeaa/JKGPt4flMbS/WcboEEDALUlubvVhKqvqrx8Q17jd9+kLvtPxu1BdzfRhS4UAJOqXnufgi2NZ1MyckxNjZ1tw1l1ERpdEyzWLZXpRZWtL43qvMSeMUSEB0T5kqyF6f/c27VHxVKVUt7xg2ipeBpA8dGM1kwHAGth9pHkuf6xHnOiaSf3D20ZUqs875vE9mxTyi8XWMLCOUIRXCjsLNMsk5+X9Wp/76pUp7f9SSZ0MikVdTZPVWjU5JS0dQGZ1bX9LQPN4PFDe5yrahq+gkHHugPN+RGAFpPu/h+WobhUWdyrbQih0TPBYv0+nH15PICqzPKafouQhHw2gFYu6xZhRTdqTCBy9+YQoBr8CswAYFJWdxn1YdFqAID0iK2j3M1qVclY3KDNTzvxTt+3TBFCE559PY7EZNEAQKcx9B/NJLojCcBg6N4NYmo2WAEoNNpQx6dbjZahN3PCazHofgFwoDD6GgGPEHqw7CvWtRoDADBYA6SzRd9sAaDRqN22UhxpBIDJYBnSpfqIIxgeIiGb/EDbMCj60kYTAMXDlfmgW4IQ6sm+Yr2xsKYGwD3c073fIpYKpRqAKZKyu24Vz+JRAKpKG3rGusFqBAAqiTIKre2B8Fiybd+enX//9MM/SMZ7slvzy6p1AF5iLy/7+gtCyA7Y1/+U1szc1EIL4Tv3j/GcrkHMi/QUtr8u+UFeBeATGxnh2raF8A1aFcMEY3lmSq+BHZr62/VA8PkS157vjDiKUCJiAADZXTKDM+pHGyadvCC5xgoc8UsRU9ld/ojYfEEou//d+seds/79f+7b8/YKCWOk2ojQQ8q+bpkCNBx9J93/i6igLRsORctzctQ6KnWq3/RAkeqjR8sVRgAAa+alfUdF78T6vXWGHXFe1Ujj+EeKhCzDzb2p3/d+5t2oSjlaEx0vjv965azMBr0R9IW5XyeqR6OvRi9LTlX4RHGbriZfGuWHkfi+Ia+59xhwbrqelZ08+IGVLZqvkq56PBUeGhDxmXfD9dvNOqC4cd18nFvOHau4MuT7vtzQRTE+7gDuK1dFpuUn2d+DvQiNHXuLdTDJrry6uOapLWFR4Z7z42iE0VAvV6XsupzXeY/UcPn1L94ojVz1tDhkmQcFDPXyohOH07842tDn2JDivUe2U59cFytaFCcmAJoTFUdHJ9ZBJzv4ctzB0ai5J3bvAY5gMt0cSqwDgKZi51dNC4L9FojcxCIOw8GqUzdduVKSbMs5qU72kyxGKOWSyU5ubgAY6wjZbpJAIOi9VSgUKhSKsW8NeqiRQxMOvuLx/aaXj43zqRMQGtfsq28dTWTs8CekFJXsGmY6QsOCsY7GAzJ3zvq310mafjiQWP6g24LQBGd3fetoIhKtfGujRHVq+yff5eOUMQgNE/ato/GATCabzTbPhIMQ6gI7YdB4gJmO0IjBWEcIIbuCsY4QQnYFYx0hhOwKxjpCCNkVjHWEELIrGOsIIWRXHuJYJ6IXH1NsTf4qwNYl6hBCaByaYE+ZslcnbV7Dz30jJCmLFbAza/Hs9GNLnyuybVVOAsgEAEEjhrrQ3VBJtm3+OM5ydMW+z2Ts1Umb13CzX5ubnG28/45D5PLY/AVzRV5eXA5nMt3Bom9qrCzITfv2YkF158J8LJFfyBMBATOnunBYLApo6qqKr2Qmn8ir0fdRIetXq155yd8F6lJe33VaPuLtRQiNigkW6yPJlJn+1nO51LqaxgfdkhEy5VfzIkLhTmVdZX6F3kp39Jjq8/hCn2Dx6b98liK3AAAQ3jGvrY7ggLmhTnVLXgn0KdMFwSsE/kHun7x1prj7Y/t06bKEF/1dCIAHuxAgQmiIHuJYB436Zro9TexdeuST1/9Vp+l8XJMufG5jwpOCqKf8LuzI0wMA6Guunv/iYmZeyd22UgzBb9/buEA4L3Z57l//d7tjT/KM+fF/DuOZ6mp0XN7ksf01EELDY0+xzgr44OfF0xJT012DlwUy9fK8va/lT3tz+VOBTKuy6MuEk6cL2wpO27LhQDyvte/FKkv+3YrsHhfshDTqixOh1v37X73suXFLcIiITTGqS9Mzdr+TW6rpWpDkvjR0XVyAvy+bSbVolTX56dcO7SroXmbQGNJ12xKiuE1X/7t9d5oNs9Pqq+u6d6XoFRfld56cyuM6PwKgBwDr7QsHbncroqtITpFHbBLzZgjocLttd4b4928sFDrcTvnglGntC0sw1hGaUOzulilvaZh/fdH5HC3TN+iVE6uiQJ6aUmMV+a2LFzPbyzSmp+99P2nvroKqAatyDo/a/nGYoE5x4VRBcTNz5tLF2//qSe98n+SzZfUnH0eG8bU3UrJPHcrLUTID45bv+XrOTKotLadLY6KEDDLDIyxm7hRbKuiFJAwXuQBoblUMcJ6xmAAAzAZ9Zwe8Tn4u6dq53Z+dvtFXjztCaHybYFfr2gu7jlVR1XIjgEZxJOHY2XpVj/ul1sLLHyZcqWRVO2ctDzOWf7kp+byG3SzavMaXz6cW3TQCAGhl8tMyAD4RscWv59pvXTB9OVkJ+7cnagEA+H5/S1oeFhkQQi2/YAQAIKRzX4n3AFlq/Nor7ZfnJO8tq/fGz30+riBhf2f3TmVi8naZRSHvbP+tvu6XmhT5cp10JsNck18ypMXnunOZuyhGyiKTaSxPgY87+c61M58fKu1/Hi26f6iADJYCWdcyFuWJ40oAIPBCHaGJZ4LFuqUyvaiy9aVRnZfYR8+4tU5bAwBGdX0dADRUGwFAW98MwGe6DPFgVnneN62ZDgBK+eUCS1g4RyiCC4UAAAFP+wtBnXKoQOPIdG0fI6lJv1Ua7+HzuJC5P7d9T2iWyc/LerW/9+FUp7f9SSZ0MikVdcOYzpDl4xf+uHPra31F3k8pBYr+pzBn/WrZkiC6ueTMd6l3bT8kQmg8mWCxfn8mY2tngkUPYDWaTcb2jVQSZahVKauVnT9ZtBoAID3SluDsmX5MAIj++KXoXjtaHanOANpe2+/LrFaVDPcmruLAzhcOANAn8/wCYv6wcMlWb6//fPJJSh/Dfcgz5j//R3+XO3mffXSxBoe7IGQv7C7WAdr7iI0AAC1d3hjq+HSr0dLve1TaZBYA1Jx8PT3P0Ovd+ob6IR5rxOnv1ly7+IUKOHsW+cXO90s7XtD9GwBZNO+FtxYKdQX/++uRvGH0+SCExhs7jPUxYbT8YgQAaC6QZxTer/CgEQwPIVdboVCP1JoSdfLi2yD0cPeYCgUVnZvJwnkvbF3k01J09G9HMge+b4wQmmjsbiTMEBisRgAbOmcAAEBdXKgF4DwWyR6p5hAeS7bt27Pz759++AcJeYTqdGC5OAKA2dJlSAtZELbhnUU+hoL/vf3FhYr+v5AghCamhznWNfW364Hg8yWuNuxsyfm2oBJIMzfErPDt+pWHJFwaujzSli9BFKFExAAAsrtkBmfou9MFwYvELl3GXwIx2e+5Rf5sAFVp8Z22bWRh2Ia/LPPR53229fCIXKdz56x//5/79ry9QsIYgdoQQsP3MHfCGFUpR2ui48XxX6+cldmgN4K+MPfrRPUgbx6aMtM/3MvbHi964cTmyMxbRUoj4cieLhXN5JOy3807CUO+DNbLklMVPlHcpqvJl2x4GIk8NXztsrV/0N+puF3dpAdiMsfLnccmgf52ysE0ZesvRfb+7ZvL/NiWO0pSQNyqgK67N948/Xlee/g7B69f6McGABqfC0BM9n92tYvOAi2agiNnrlV33Y0buijGxx3AfeWqyLT8JHt6aBehiephjnWA4r1HtlOfXBcrWhQnJgCaExVHBx3rAJabuw4/LwtavT4gMFCyJBJMGm29svzM3vzU9N53UQdBJzv4ctxBW/YEANAVp317We8n4POn+gjpZLDomxqLf8y9cPxiXlX7KTM+hkEAABbISURBVIbk7OIEACQXiV/P0Z7VmnP/zbvT+rsTk/lS/+DOR6LoPP/W8f2NzUk9Yr1O9pMsRijlkslObm4AGOsIPXiTBAJB761CoVChUIx9a9CERA5NOPiKx/ebXj5mw7cMhNAIe5j71tHIYIc/IaWoZNcw0xEaFzDW0XCQuXPWv71O0vTDgcTyB90WhBAAPOx962iYRCvf2ihRndr+yXf5/c9QgBAaU9i3joaDTCabzSP18BRCaCRgJwwaDsx0hMYdjHWEELIrGOsIIWRXMNYRQsiuYKwjhJBdwVhHCCG7grGOEEJ2BR9Hug+SMDYqfr3YR8SkAwDI//HokTOa7kVY7JAYdtXRclyPoj90p3nukCNvwkeWEBoDE+xqnb06aWvaz4tDqACuATsVW5M/F9u0CMZgEeFz39kRJHFUZxzKOLw3/fDe/CJj9xJU3sakzR+86edO7bcSybbNaYpNG6Xt7c+KCeq/8DBNCfg0YdW/5jgBgEdI9Mk/L/8jf7QONVhUwdvrol8K5DBH+0AOU1/646qTsdPdoP1zCGeN9jERGofwan1A08JE7mDJ2nV4x9H+5k8n0Wlj2qQJx4FEwb8yhMbQBLtaH2tMFo0Ai7YZl4ZDCE0UdngdRfPfELnqabGYz6SDRatRV+bIU/enn5F1jWaaZEPk79vKGOrl5RcOpx8+2tCx4Oe0LRsOxPOI9h+j9m2NanvZ0bfOWZO6abWoo8KAD4raFxsyFu149Fhqj76awWBI121LiOI2Xf3v9t1poznLLeHmLX7G33M2j8EmE2a9pqi8/FxO0cWGtgVEAheueHumKfno9591rJhB9/7r8yGS2tz/d6SotqMaEnNeyOzfiN28WDSyxaT+RVeqLE++UpRzt/Vd/mv/b05oRxeZe9Cnfw5qe91QuOXQ9bIu9YSGzF4mnuLFooDFUFtddS7reqKyfSUSXsCnvxPXZWc3TfML4zg0ll/fnWla8GtpBJesqyram3Q9p8syrQghsMNYn/nm6g828KzK8sunCuqNJFc+xyc8KKbw8hmZtr0ILWTH2m2xHKJelXGqoJHG8Y8Ux+7wnOV6+NW9NSYAAGhMSd9TPxkA3BcuiA0n3TyUklzaum9TXlteqy/tTap3BAD2/C1z/Kmqk+/ntc+N1pRvQ6YD0KUxUUIGGRhhMXO/STtRff89bEL4hM7fGs5hmLTF5WWXm61kBkvsNXutpfZiWsNQ6qHNi456aQZNV6O8UKbRTaK5sZ3FPjNDS9pj3VJ/9nxmziQSUFyWRnh7aCq+ulrbtniSobHz3ODAjHly4UYhRdd4+/LPGhOdEyTyXrPCzev7H3aXmjpKSfxn5BSWXwaveaKg9/gGZWn5Oe3UBSLfNY+W51zpcQcboYfdBIt17YVdx6qoarkRQKM4knDsbL3K1PV9qsevl/EomqIdK46l1ndsZLpzO1ehI6Rhm2I5lPrcdxclZdQDABC+QR9+HeMfH7Uo8fBJJQCAtlB+phAAQOI9JzacprqceyalR0sspYm5pQBA9RDFz/GH+qyjuVn9pHllYvJ2mUUh72z/rb5KmhT5cp10JsNck18ypIDtqrF0/9kGaNAAQG1J7m41oepeFXnK7JdCOQxNxb+/zTzXkYcUVqhby9AORHdf4EWD+sJ3vrle1rErlenWWcKQf6MiHwDoMC/C20NXf6mwtLZXNQyx/7NCirkq950TRWUWAACGIGjX8unzImefq8jOb/+GpZPn7ky/bXa1ej3r66Ep2Z1SqCLVMp6PCJvixABN2wCblsazKRk5pqbGzs8Bh96gh9EEi3VLZXpRZetLozovsffSmSQKFQAspq65adRWKTt/Ei0VTwMoPpqR0Z771sLsI8lz/WM95kTTTu63aRnSATXL5Odlvdrfi1V1etufZEInk1JRZ/O0iEZNTklbWpvVtRd7fkBE4KNebg7WnMvZ57pe45o0V5QwNCQHigOA1WrqejowansH94CIsOlTGWC6mH2rrCPBKwqSq7zW8KeETYH89lY1abRmANDomgDcNNpaAGjRN+mATGc6AbSHt6G4VFnc1pLOzwGhh42d3TI1qjLStcDyeyVp9evbQhct9RC69jhxkYR8NoBWLuuWeEU3akxAcvfmEPAgmdWqEkXdKHYWM7y5FGhpyq803b/swO5WZ1dbgTf7vWfmbAydPk/g5GbDSFMHlocTAS1NZTVd1wU3FNXoAZgezp01miwtAABWiwkArC0AAC1WcwsAiRjVAa4ITUQT7Gr9viyXX/viXWXk75aK5sd5RsUBgKVGlv3Za6kX5K0FSHRHEoDB0L0bxNRssAJQaDQCwNq7VnvhQGFQAMCkG4Ezh/b4qVRd+OzfzJgaE86PAYAWk6rk+t5zt4qHcMogGGQAsOq6/2vozGYAYFAoAMM+/SD08LG3WAcwqjN2nczYBRRX9qxw8fy4sGhp6Cvbmoqfza4BALDomy0ANFr3B4IojjQCwGSwPNhMJxgeQq62QqEepbUpWkw6EwBQGHSAuwOV67nBwaGPi2JjU3L6heR0IDNYsz09Y4LFgeKgl/RNm9MbBt18q84MAASDCtBloBKDTAYAnQkzHSFb2FknTBemenVe4pV/PPP9+Xqg+/F92nLcUqFUAzBFUnbXwuJZPApAVWmDDbFuNQAADL/3hvBYsm3fnp1///TDP0jIw66tb7rSOhM4OEmmDdR1YTJZwIHCeKRzC9nZ0a3/vxSzTpNTeP1vJ64Xt4DbFDe3Hm+3niMc+vqAWjSqJis4OHnxur5LE/PoAIbaRox1hGxhb7HOlkSy6V038Cc7sQCatR3jwEt+kFcB+MRGRri2bSF8g1bFMMFYnpmihaEyaps1ACzXadzhNRyAIpSIGABAdpfM4Ay3sn5Yc/LLaluIwPCgBV2fqycxA907n+1XNujMQJktmspo/dmBuSBIwO5eEdBZEk63cwOZRWcDmPXaph4lzfomMwCT5dHHN0Nr9q1aM1DCQsRe7e8yBH4x7gRolBdHa4gncOesf/+f+/a8vULCGK1DIPQA2VknDNUjdt9yf01Nfo5KqTQ4cHmzI0XeVEP24Wsl7d231sxL+46K3on1e+sMO+K8qpHG8Y8UCVmGm3tTvx/qcBAAAHVWZs1qX49nPl/uklJda7SAUX1lv9yGab/0suRUhU8Ut+lq8qVRexjJXHX931mcraGCP8a5zCurVt21AoPlI3Bzlp9fW9V2UlPLS6/PcQv0nbOLqcpXW5zc+d76hrKWqV5dK2J6bnzW10ldm1/VVKu3UpgcqcjNrUWTnK3qOaiwpSGnwjRvhnf80pZzimbtPQB9w7mitmm/1EW5X83krBHM3vF7zuVyje4RTpiIwwbtxR8L8kfr0V5u6KIYH3cA95WrItPyk3oPp0JoYrOzWDeqUvdnQ7inMNw/kEUCo7amsODIofRDieouvSuGy69/8UZp5KqnxSHLPChgqJcXnTic/sXRBtu+9BfvOvYRNSY2RvRkvB8FAIxFmkPyKhueSNLJDr4cd9CmNgyBNT/z/J9rxSulnrO9pktIYNZryqpufXW9y3BAfcXu0/T4iJmBfEEEV1NUkvdehjZmTfdY1yjP5jDD+E7iGZxQKmE2apVVt768cj2xunc3luli2gWuJWCB0OspAQEA0FCYX9TU9pRpiyYx8YemkNlLxVPC/KeSLQZVdemZK9ePK0d+oGm7OtlPshihlEsmO7m5AWCsI3szSSAQ9N4qFAoVCkXv7QjZCXJowsFXPL7f9PKx0ZymAaEHwd761hEaDHb4E1KKSnYNMx3ZIYx19LAhc+esf3udpOmHA4nlD7otCI0CO+tbR+h+RCvf2ihRndr+yXf5OGUMskvYt44eNmQy2WwepQe+EBoHsBMGPWww05Gdw1hHCCG7grGOEEJ2BWMdIYTsCsY6QgjZFYx1hBCyKxjrCCFkV/BxpL5QYlcm7hB3zDub9e4HbxzqOZ/gYMoMEU241NNRVpRny0SSCCHUaoLFOnt10uY1/Nw3QpKyWAE7sxbPTj+29LmiEV9uwZRzbd/7CgLAMSxsdWTPqcYHX2ZIwj7e9LelhqMr+o11ybbNH8dZjq7Y95mMvTpp8xpu9mtzk7NtmCpysFi/WvXKS/4uUJfy+q7T8m5vkTkC//nBwcGCKVxnFwbomxorC3LTvr1YUN3l1CbwX7JEIhROncZj0ekks6axRl567fsfzuUNtDITQmiYJlisjxV5+Wl5OQC4swKeiRxGmSEgUag0gNGbjnao6NJlCS/6u/S9uCvJd/3GtY+RQNeoLJNXG8iOAoHP4wt9gsWn//JZirwt2ck+AdHzRfrqusriOr0Z6E5cL2nwb6XiGf/55JOUxrH9bRB6iGCsoz6QZ8yP/3MYz1RXo+PyJvd+36K/de30pcwLV+r0raFPTPZ74YUX5gtingu+9ublOwAAYM5K/OuVxpouE7mzHnvqldeD/WLn+6QdL8ZHPREaHXYT6yzxO5dWzqlLfz4qo4/JbKii17NWRTVfiY9KvWlkSuL8ox+fPkvEduYy6aCtKVRlfJv+9dGGoS95NyhMqV9cfNivAjmuLDDVq+U5+cd3Xclov6b137F5V2xHHw4n9sTW2LbX2pRNuz9KGfrxGNJ12xKiuE1X/7t9d5otM88yxL9/Y6HQ4XbKB6dMa19Y0kesQ/GJU8Vdf7beLTh+WRGxSOgp4pMv32mNbHVjTfe9NLKCYnVw+GRnFzoAxjpCo8NuYl2jKpRDhC9/FgsUmp5vEiKeiAXaTEWpEYDqsfzNyMA6VZG8/EamVg9MYbg4docoZNaRhHfLRzzZHSOjdu0LFYI6Pz3/cp2RwvUIiYzcFi7c+8zhk4UAAJWnU/9xgw4Aoqejl/gasvb/mKFq3VVfWWjLEenSmCghgwyMsJi536SdsGFFUJ38XNK15sozp29Mjh78Xq0xbdYPcN+Y7u/nMxlAVaHEuRMRGjUTLNa1F3Ydq6Kq5UYAjeJIwrGz9ar2+6XagpwGkPJ8AuFMes/dmIF8d7DckKlMAGBUHX7mo+0yQ2eXMZW3PmnDqti5UQfKT47sKBSW57qdoUJN0UfPHEtpv+fIDI/611eha7b4nX+uoBmgMbPoTCYAkCLCopf4GhQpuWdkfVdWmZi8XWZRyKHjc7jV1/1SkyJfrpPOZJhr8ksabGu2RXniuBIAiL4u1PvhEib2IEDzc0HP3hVhcOwS0SMEie421dvbGVR5/9uTpuyjvx4hNDImWKxbKtOLKltfGtV5id2WoVTIlM0QIJKyIV0NVI/1X8eE1GVv25RbBTB9Fo8C6puZrTcktYr23KSwaExHEgHaW4VaEHGEIoARjXV6THCEKyj2X84xMl357VuVt3LkocsDp0uoBRlDGcfSLJOfb2t5l8+hF6vq9LY/yYROJqWibsw6OqYExz7lTdYUHf1fUc9jckUhj/vTW19rKjJTM3MVo7X4NEIIJlysD8SUU3XLGODr60EHtSlw5jwpz93oF8LPPalkz/RjQv2t6+3Xy47SgNXxQWGBPB6rawUGOquPaodDNIvHBGBuWPvNht5v0hypAKMzPNGsVpWM4crLLHHsa8v86HXn3v8ms3df/tUjW5YfAYLEEorDVy1asv4FH9Hhj/YU9OopQwiNDDuKdahX3lRCkIjvQy1oDvN0lcvzuB6B4bSTyR4+IjDllN8wAgBQwiM/+nyON6izTqV/d0Pd0GywAom/NGZ9JIkAEsBIXkk6OtIALHn7T54s7FWtUVs8ikPOxw7Le8nW1RFTGzP3fPZdnr7fYlaLRl6QsqOR8tGL0Y8vXJBc8F3JGDYSoYeJPcU6NBTkaCGW58NnWsI5VenJZ/ir4h/3YNbxhVRQyFRaAABS2Oogb6o2NWH/jsTOQeJhkU+ORoO0BgMA06Iqz0gc0wHpBMNDyNVWKNSj3QnDECzZujpaoLn2r8/+99MgHjIy3y4uvRst4PK96FDS/zkAITQM9jUnTFFujR44s8LFQb7avB9VWT+WE4HT50h5rqAulrX2StA4XBpAQ3Fml5yl8gKktD5PcVajBQAo1IHOfgOUUdxo0ANJ/LjI8f5tt1hH6IsC4bFk2749O//+6Yd/kJBHpMZ+MATR76yNFtzN3PPJF5cG+eAo3YVNB7CYTTi8EaHRYl+xrs1RVALNZ3XwLI0iKwe05+VyluippTzCWJOf01rE0FBnAOBIwmntO5GEcVEL+QBAovdK30a5WgswTerB7P+gA5RpPnUtox6YkZEvxrKJLtsdpX6r43hEj8J1BgD2tOk0GB6KUCJiAADZXTKDM8y6+scQLHln7RJ+07kdn/RznT7Z59fBQm7Xkx3J5fFlMY+SwFxRWIB3TREaLXbVCQOgVN1QwnIRR5uSnm8EqFdkFS7eKAWrTHmj7RadJevbvMro0IidGz6OLrqhBGdf0ZxwWn6KShLt4eLKJqCh69g7U/q180q/5dHL/7GvIE9psID+xrdXMrpPjzJQGY1832tXvPaFRuzY5PN0UU6B1kRluvt5+vsyTSlHjh7q9lx+8Y/y+rigkDdXve59U6GxWIzWipTc7KGPzNHLklMVPlHcpqvJl2x5GAkAnIPXL/RjAwCNzwUgJvs/u9pFZ4EWTcGRM9eqAYDuv3lt9Ay6vqKCM3/Z2vlddm1pvHbghwINAEEXRj+1ZNMyTVVVde1dvZXu6DFVOIUOoC/+6lQfd1YRQiOEYLP7mKXKyclJrR7DoRQjxvoLMyR4nghyDqT8X6EFwPAL32dRCLMm9fzXP2rvAQCApbwss7jFVTRlVrjIz49Na1Kc+ut3n5xxeCzO29NSe+a7mm5dvlZNXlYjy3PKrHBRQMg0v0CXuz9mXS3vcdCByhjLy35IuW1xdHT3m+Yf7jlj2iMUozo/6erRr0vk1d0uWa3l5fm/MPk+7tLImaHh04PnTrVmXcnsfgoZFHN17v+dPH4y5YpCd2/oewMAwQ1d9+TcWTz3aRwmBQDITB7XfRrPXTD5zsWfbt4BAJbf0sdnOgOZzeFN47l3/c/DQfnDtTIdwD2j1jiJTJCozs5TBHw+35l57+7twoK0A4ePpDe12NQuhNBgTBIIBL23CoVChaKPZ/ARQgiNc/bVt44QQg89jHWEELIrGOsIIWRXMNYRQsiuYKwjhJBdwVhHCCG70vcAR4QQQhMUXq0jhJBdwVhHCCG7MmCs01v4Ti0sYqAiCCGExpWBpvryXV53Js4IMElT/sihg85/v4aX9gghNN71PdVXK80diryQLrsN4hBdlD/8fIZejisLI4TQ+DZQrFvvEsUVZFke/Refu1Gie/U/MS81jWXbEEIIDdlg+lUm1TU5ANHC6jf/EUIIjReD7y63bepuhBBCYwrvgiKEkF0ZXKxbJwEAjTK6TUEIITR8g4r1Oo0DgNV3Bq4WjxBC491AI2E61N9tiYrSi2cZxZNIjXcdYNIko2ESjnVECKFxaLBTffEfb/zixbsiOgAA3HZ8ZgM7E3MdIYTGn4GeMu3kqd2z+a6IQipMm3zqZ3JdA7kAMx0hhMalQcW67zytlDFJfoz724Nk42i3CCGE0DAM6pYp16kFgCgsxExHCKHxbpDj1u8BgME0qi1BCCE0AvBxJIQQsiuDinUW/R7AJCNerSOE0Lg34C1TeovIqYXr+UtsgBVMVLlyrBqFEELIVoNZRgPARMr8xvFU8xi1CSGEkM0GehyJOtUU6dli1BDyUrJSP5atQgghZKPBPmWKEEJoQsCRMAghZFcw1hFCyK5grCOEkF3peyTM7o//AQBvvvHW2DYGIYTQcP1/HYsczHVC1ncAAAAASUVORK5CYII=;" vertex="1" parent="1">
          <mxGeometry x="340" y="1041" width="498" height="218" as="geometry" />
        </mxCell>
        <mxCell id="6Ha6fiWHf-EiZPGUzSEU-110" value="登陆时使用用户名称查重" style="text;html=1;align=center;verticalAlign=middle;resizable=0;points=[];autosize=1;strokeColor=none;fillColor=none;" vertex="1" parent="1">
          <mxGeometry x="75" y="280" width="160" height="30" as="geometry" />
        </mxCell>
        <mxCell id="6Ha6fiWHf-EiZPGUzSEU-111" value="" style="shape=image;verticalLabelPosition=bottom;labelBackgroundColor=default;verticalAlign=top;aspect=fixed;imageAspect=0;image=data:image/png,iVBORw0KGgoAAAANSUhEUgAAAhUAAACMCAIAAABEcMyLAAAACXBIWXMAAA7EAAAOxAGVKw4bAAAfaElEQVR4nO3de1xT5/0H8C8kJ5cmhnALUUJDIAIKWG4yYCiiMqG2WmetU6vWtvb3a2dbWtfatbXOrhftZteuXdlqrfaizqJTrAj9oWWiRUW5VEABAxESkEuAEJPmjr8/AOUaw0lQQr7vl3/E8M1zHkM8n5zzPOc8LkKhEBBCCKFRcr3XHUAIIeSQMD8QQgiRgfmBEEKIDMwPhBBCZGB+IIQQIsMe+UG56e3e7c20Q0sIIYQcBdWWF3tHqT545kaCv4kOIMmcsnAXobdXvxBCCI1vNuQHTf+HFzuTvYjCTM+sq9RWKRXDAyGEnIcN+TFFH+0FUMF5cRe7zX4dQggh5BDIj3/Q3brpFFB1UlR27A5CCCEHYcv4+U0GAICLnXqCEELIkeD8XYQQQmTYkB8UAAAw26kjCCGEHAr5/OBMMXEAujrwCAYhhJzRqOdf0VndHNpNnlj7/DIt3UzLP0/DabsIIeSERpsf5vXvN/4h6CYAgIHI/dT73Yox6BRCCKFxj8LlckdT79IhZRQWsU5LKJ5B2lmxRpdSdmH7WHUOIYTQuDX6/FBQJTKi8jKz0GhYFa/z0923r5iCg+gIIeRsyI9+t8oIFYAbp9uOvUEIIeQobJg91XPQQbFTRxBCCDkUnH2LEEKIDBvyQ++iA6Azuun26w1CCCFHMdrx89vMxu7ZD/0i5t2kymnXDUDpdv3FZN++IYQQGr/I5wfoqW0U4+wHtLPm3lizRDWXwjpQihOxEELIWbgIhUKbGmCaQwNNfpybehk9X4b34kUIIWdhc34ghBBySjj/CiGEEBmYHwghhMjA/EAIIUTG6PJDJBKNUT8QQgg5Fjz+QAghRAbmB0IIITIwPxBCCJGB+YEQQogMJ8sPSupDmdLNOXsj3awqZyzau/mkdN1y8Rh3CyGEHM9o1z8fp7irjz3/hF/pH2OPFXEitxc9NCM/c/GTVYYhdRQgKAAUBsWGZUus3ZbNPH81d/4scUAAz8trEtPVpO3saKgoPfldQcX12zeq5IjDYudFRk6b4unF4dBA1dpYfa4w51BZs3aYBjm/XvHKSxGe0Jr72o6jEvt3GCHkVCZIfljLUJj/xpOl9NbmjnvdEytM/vXspDhob2htKK/XmpluginBcxYEzww5+qfPcyUmAABKYNqm1UleYFS0yq9KGoA5eapw5lJhRIzvZ29kV2sGtMaMeiT9xQhPSt/CXwghZBsnyw9QKa/kK+91J6xUu/+z1z5pVRlvPcEUPflM+sPClEfDTm0r0wIAaJvP/7i7oLCs5kZvFUv42z8/M180e/mS0re/bbr1SiJo7oaX4/mG1mYNjz/p7v4zEEITlNPkx/0b13+xgd9z2spckvO7pReHOQTheKVuTHk0zd/XG9SSa3mf5rfbsEVm8NLXXl0WaCj/9wcfHJMa7/yCwbTXWweehdJKCyTtD0/h8zzuA9ACgLnp1BdNA0o09Tm5kqRnQ/hBQiY09b6cFfL4HxeIXJty3z9iWPfcIswPhJA9OE1+dOTnf6qaRKH7L9kYxh++hLskY92GBEZXZVVejpLiJ164fYVaRXqDRMi8B8O4BEBU6ryAnC+q7XDWiCpKEHsCqK7WW+iWyQAAYNRpbw+SaCQnjl3oasg+enlSqu29QAghAJgw+aE+tSOzka6U6AFU0v3pmcfb5IMGtNUlkqMlAH6UpBHyw215yhMJDHVhzvNPXmzUA0DewQ3rPtnIJrEtAAAwNlTXqeZFcUBZUyG3ITw8Zy1Mi+IQBIPjLwz2JdovZH/5de3IRzPMiDghAaaKkv41JtmhgzIAoOChB0LIbiZIfpga8qsaeh7qlWVZJEY4qLELxGzQ5X1T1qjvfUr69dmi9cuSOCS31X7y3Rerg/kGeU2rZqQaK3CCwxLmePQ81taX/ZRbIR25Oc6vH1kUwzTWZP8n74YN20QIoTubIPlhO67QjwrQfLWy3yLuquarMkgKJd+oSl5N/gRYL+kX25/7AoA5iR8WmbZ2waLNgQH/+uyz3GFGb4iguf/z+wjP9rLP/1LQjJOsEEJjzMmuHxwRncGgA4BO19X/WZ1OP0L9Xae90XyhYPe7P0iNk8KWzw0jBv+cEM9+7o0FIk3Ft2/vL1Pcix4ihJwM5kcPvU6tBwAGY8CF6T2hQh6LJ/LnDdnV26BVUt0EMMlXMGXA04Ro9nObFwZ3Vx14Z39hox23hxBCI3K2/NCZ9QBAp9IG/0AplegAvKaG9jujx+FP9SO/Kc95r/w94687Mv7+QhyLfCsDuXI83QDAaOo3sZcQxq9/a2GwruLbN3efqjeN+FqEELIrZ8sPVVtTG1D8/MK9B/3AVPbfa13AiF8d4dt3zCFaMzN28OC59Yj7g0O4AAC8oDABidulMIUzF4Z4Mvs9Q5kU9uTCCC6AvLa678IUQhS//k+PBGvLPt/8jT2OPFhRq/70cUbGe+uiuLY3hhCa0Jxt/Fwvzz3QnLohZMO+ZdMLFVo9aCtL92UpzQBdR/IPPOb/TELaJ4dEZ4qVFD//xARGRxv4Dk4aKxmrTp6siF4UaCjPPVlHYjSbmJKw7pF1a7Xt9U3XO7VAmeQV4MvnUkHblLvrpKynQSLwt68/EsY1tcuokWtWRPZ/eceVo1+W9aWMx8ynF4RxAYDhxwOgTIpYtdpTY4JuVcX+7AvX+72KGZX2cLiAAEhb+2B+yb5rpP7lCCHn4Gz5AVD96f536Q8/tVy8cE0IBaArS3ogS2kGAL3iwLpvDG+nPZosXhgKHZJr36dnVqaue2cxyQ1pq/dteWof6X5qqk9+d1YbJvTzmxIsYhJg0nZ2VP+39NTBgrLGvpNUVA9PdwCgeoaHeQ56+XXVia/K2ntihjLJLypi5uRbP2PyI3qugenoOjYwP7TVBefl4fECguLO8yHgGomr5hFCzsJFKBRaXy0SiaRS6dj1Bo0L057O2BpdvOXZL67c654ghMYxZxv/QHfEipobzWsvPo83eEcIWYT5gfqhcKNWvZE+C05/c7Acz10hhCxyvvEPNDJe2qvpiYbcHVv2XXCUm9wjhO4ZHP9A/VAIwmzEAw+EkDXw/BXqB8MDIWQ1zA+EEEJkYH4ghBAiA/MDIYQQGZgfCCGEyMD5u46PwvIgBt5P2KzpMA63pi5CEwWNymJT+n/sDQaTRo3Lpt1dmB8OjzZ504GZMwc81f7F6oJDzfeoPwiNPVZq7MHnfQY8VVa28hVp5z3qj5PC/BgN2vJlWdtCbn3pKdry/h+/HicLbjTXf/av632L2uprh1ne1qLoBUvfnGbIOfD959fvXMzymBLN7Cho1FkqYrrP9oViSacta787KU7Iticjg+uLHj9ce+d3j8oID/LQVDXVddtW42A0Zyrfaq7t/Yvn5PUvi2xYqgeRNUHGP7irj20++fNDsXQA78jt0s05X4YMWSHKDgzFFzLey/n0vZxv8i1fn32X+tOPWl125vpPvX86mgefvZoc+c/0FZ8kugOAIDb18MtLfk/2vxshiv3XE0nLRExLRXThm0+lvhTtxSa5EdI4q1avOLwhKc3Sil3D1bhOeen3Kw4vn+oDfe9VAvmlX+6ElrZkxeH0xNnUvu0um0p2tRX24qWL3v5NgMDS/2NrasYEKyjh25dX/DPZy8ISnMPW9H5EhdD7Xr2QOHvIF92OrgtFLb1/zt9Q27/3yAp4/DEqkmtHJdcAwJcTuTL5XnfmHqEMXbxxCFcq7V58sliBYfO9oeXnqhMjf2+3psZxuLJpd1ybzJqascBOixGwDC2ZxYqRL0q1pgaNXxPk+AMhAHZarIBrUuRcaLG0w7pzDbIDQjR9IZ+irK48rrKpBo1nznH8QYlK2X0ozi13/7JnJX1ndqhJGa+8lao8tCrjs8K+stDEjGPJrK93r/sUlryRsiiZ780BbZuibOfht3cqxmRqByvqqa3pKbzO81+9+7eTrWOxhVGhsqPjIlaG+/ixKAZ159nCs59fVvfuZ31jdi+/fZpFEJt6OLb3sbL8x3V5LQAAVL9N/5sYd+vwxDfmny/H9D5WVG78+lIdAABwH5i7e557wdEfCrwiVoZPCWCBRqk4W1y6p3yYwRKfkNg35/m7d9Z9evjiOe2QH/dDCEMWTqYoKytPWNhhWVEzfrC9A5+YExLvw2GBTt5Q83leZXnvO0BLW7r0mds3rvN76YUVL/U87Fbs2ZWXdcPKGgBXr98/lTJfc2ljni5tzvT4yWyaWS2rr9t3qrL4xpAO0bweXTzrMR/TpZ9ObS9VWQxg9oOx/lyTYq/FLLeiBo1rzpEfo8LmTX1mX9winrqmQiLRMyaHCcJDuRQYk/xgRqWliFgEsOLTZv375CErxq7HkCs1ODF5NlNTXFdfx3SPEXvN/02SpiN7T89Ero7a3T900gAIXsC6SC9N7aXvJDojAIDJ0NHV24Kp7fiPhcUuVKB5Lk4KFKjq955v6R0o0nW0DNgYbUZicjwbqq5ezTEwA8TC+Slz/Yi810oG7dcZcQ8ECugA/IAHA0rPVVr4HTDmxwRwuzv3Xmga+byUNTXjhlvAq79lw/XGs1fafPz8w8UzNrmoN2TVKwEAzOUXC/9RRQVXRtyvZkSzO0+cvFrdMzZ+U13VmzHW1PRxD3j1USa9q+nsJTm4TYkPmvEmn7V9b9GgwCYmByz0YxAA0ZGBAT+XVo88Gk/4haRNpiirKnNGHie0pgaNcxMkP9SndmQ20pUSPYBKuj8983ibnPT1D+zkuKTK0y8uPXOld1/GEIVSR9matf0xSMslmqhpLGNzeY2CbIet0VG787gCFCoAaKkp/ZuSIh9mc4wAetVb35aWGwAABFEpH87xipvmtadZAQCg7Syo7AQAQu+zLtJL3d6UUzl0rqSu/HJ9OQAwYXZSoEDTdrqytmVIUQ8ux5j1Xd6eZjMAQFHjpscT4hIi5185dWLAPktX1agy+nIIQ+elFksBTkyettiPopFU5ow888xSTXfH8dwzxYbODrj1Xo1dxBhKzp35W7n2kgkAOo7nninWDTdLzYOjyfvhrXI1AABN/tLapNlC/3hmfY4WAMzy+no5AADHJ2JGNFtdfqW2YPBEQGtq+tDZdEnhS0d7wunSicSUbbGBT8RcPXd6wK/YqGip1QRGs0DZ2CK3NJWLMT8mwAc6D168Q5aPVNP7EW2FvvdKfWmcTHNEA02Q/DA15Fc19DzUK8uybPxC03xw063wAACdtHKs+mOWH936QonI3SCTto7pMbxeVVzT+y8yKlsKRuhQ9c9XyvtyTl4nk832CvBwY43NrtRYfyWzuS8SNPXHa2bERfrEiWgnLg9I2uozuc9Uczx+UdVZ6gQjKTbAB1RZ52UWdlgWa3TVtbLqnof93qsx0nJd1her/bY7yI36rCt904oMTWdlhtnTOX4eAI1j0KFu1ami+r4Phbm69Gp5VGx4oH/wT50DDjI09e/saQ92B3mz2sJvg+BPWyykaOquZI/8lchyTf+PaL/3Co07OH4+hFly5cxdXLvVqJTXSFstntm/W3QyRb9LOvRGDQDQiDGag9vSMuBLd51CBUAReA6deGtWtnXWaSyePfQOWiyiaaQVR9psqxlXlF21/b50a/QGABprjGaBmzrr+u/HtV3yXwA4HL+hXy/16mqL4QFAi48N8AHViduBRK4GOQDMj6G61KO9+m5i6DYZ7+JZAo1hwHGGwWg2AtDJzDSlzf7VVAGoC4rkFnZYVtSMM6buuzeqbDRp+h9ndBs0BgBXCmHhwo2ReE1dFkAz1lcdsXD/A2tqkCNwlvwwDf3+SqOPUKuHu3kXHQpLIBZxSfxHdXAs2oDv0jSCQgDoDUPfegrXw11g4WpFj6mLxTSjrCrr+si/NmtqnBlBZfXfE7jSWDSA7uFWE6OxA7wYI39aaXGxQQJX9amL1yxkuRU1yDFMkPGPO9EbjQA0ziQaQN+3Xq5wmKNza5n1JgCg0akANn1lpwgWbX1v7TSWseHou69+Ve4Q0xhvwp0nE/R8mXW1dDDh4+POAtWtMyEBXhwAs7x98MBDcELKn+PcCb1i7/68g8McF1LiYoMCXHUnLtaNfJbcmhoH1a03AwDF4mktK2qo7gFeUHDraIDpJrgPQNUpG/ThZgk3PZ4Qx4KWylMbfxhubJwbsEzMMDZePCgbOaetqUEOwjmOP8wShVwFtLCQpL67dngsnjVfTL7BDolSDXB/lMDGwQGaKFzMAgDCNzzIy7am7hbjL1p1N/h4cCzdIsSo7TQCsDmCkSOaEE5bNrkvYFjCB4PYoG86Jx20T2GE+LkTAEB3nzF5uDTiTH0kiGG8fiWrfuSdkTU11rt/Xvr2jIwdr6T5j4djRoNSawZgC9xtq3HlzI8V9t2NkBIcOTWcCvJa2aAZuoSXTwgLAMDH12e4u6FQomdOC6DqzhZZynIrauyLFbXqTx9nZLy3LorsTWLQiJzl+EOSm69MWizecGhd9I/NWp4gNhrqSnTeUSTbM+Rf+FEWtiR1yYcZFWUynQm0l787R2LUXVuSkycNTuF1ns85fe+vHrROW1O5OmR+QNTmBW4X27TGm6BRyE7IBt5LsVtRXG+YHRS4YXH3CWmX+iaAVnGiasCAufIX4sGlDwZclcsNzACxMJhlqP7vpROD5xHozv1cO9/L372z7njdMKe2wmdODabqCi5clY/YXWtqRkGUtGiWmAfAW/tY3IkPTt/rI0ZD+TWFUeTz4MIk2uWWFqMZunXllbI60yhrDGqjb8KOlX5nmzTgNiU+kAPK2r0XB8/PNl6vOyHzXexjulRaO8ytGDkBy4IZxuZLmYO/BIyyxr6YUWkPhwsIgLS1D+aX7Lt2lzbrJJwkP8BU9Fbmx5C2MlWQ+IhXm0Ry8Nm8sjmrI8nmB+jlnz97mPL6rKTkmKV0AFAePUsmP0BTsusPa3aR7cU9YWrZk1UEc0JipoauCgUAUJarBucHGApOnuKZIueLAh4VUgAAFJXlVZ11/SpaSs4cYYSuCp8azgSNsuVEXume8mFmzbZUFT1fVTR8Tyb5L5vGhrZLWZKRd0bW1IyG/OL56jk+wVyC8OT5ANglk2zRUlr4ITNm2XSf+QlTCFeAbsWeOlndjVHWGFv+dfRy9Ozp8TP8aGa1rObSvlOVxUPnBBoUezMP7x2+I5Tw6JBgmuHcRYtZfucae9NWF5yXh8cLCIo7z4eAa/c68ScWF6FQeOeqPiKRSCqVjl1vEAk0wdvZM2c21Lz2Sm3vJSfjfP0o7gNzd8/zqc4//FqpxTvA30nwnIe3RdGKj3//TtWI/1hrakaPlfbWrrWw86m3TzrAdeyW9dy/xPXqOzsvFttyd3dW4NvrYsNVlRu/vTTiXeKtqbEajXBn953R9Lj/zxmhgZbW/5j2dMbW6OItz35xxdbtov6c5fhjwrs/aNuBoL6/OMP6UUzhslA2dFRl1owcDNbUkOA7b1YQVO0rd/jwsJ/gyJBwmqG4uMZCMFhTYzVW6sx9g9aPslAcNTea1158/i5e1uUkMD8cnkGx/41zPwyYXTP69aMcj7b+nX/U26FmlFj+89a/vFIgy9yS5ygDVndD9ZnsJWfsUGM1zZkrb3VIB3zqO5TDHXxQuFG/ezV9Fpz++0HHmN/oUDA/HJ/uStG9vfGi8yCi1m5aK7jy1ZZdOVLcGd1THZ0XrAkjXtqr6YmG3B1b9l3Aq03sD8c/EBoFgiCMw1xWh8YrCkEMdx0ksgvnuP4DITvB8HAwGB5jCfMDIYQQGZgfCCGEyMD8QAghRAbmB0IIITIwPxBCCJGB+YEQQogMzI+hONzY5f6+46cdhBAajyZIfnBXH9t88ueHYukA3pHbpZtzvgwhuVI0nf/Msefffz3Md6TVCe9yO1YI3/r8Semzz0RB7/tQlBYzthvl/HrFnw9u/+zgxkU2LKGCEHJ0EyQ/7IjKZIyrdsYbZtQj6S9GeJJYpxwhNLFgfqBRIILmbng5nm9obcabCSHk9Jzo/omMiPXJKx4LCfFjM8GkVikbiiV5O/OzS3rWYfN6Iu/Z1bdPx0S+XxXZ+1Bfte2BzDx9z1/Y4WsiUudMnS7mevDYTFA3V8rPfJe/74BC3VttXTt08WtFK1K6zqWn5JX3tgxu61dnvu4v2fHJc5/e3jnzUxOfWB8eHcp1o4NWpW6pkF/8Ln9XlpLMYkisqKe2pqfwOs9/9e7fTpK5eSwr5PE/LhC5NuW+f8Sw7rlFk0g0gRCaOJwmP6a9vvr99Xyz7NrZIxVteqq3n1dwQkxa5dnskp49v/L0p8fa3ACAO3djYgRdfvi9sr4bRXbe2sUDXbDk9eToVnmV5NrlQrUW2KKEkOXbxLHT96dvuaa2vh3rsFPTdmTE8FWKotyLsi5g8byEoSFLFl/dQyo/mFFpKSIWAaz4tFn/PnmIxC17NZITxy50NWQfvTwpdfSvRghNMBMkP9SndmQ20pUSPYBKuj8983ibfMCKQXTBbx7h01RV25Zm5rXdepLty7u1AJ6pNqu0FgDoAvGGxAhoKzpQWjR0d6+Xf7PyL++W6G7vvun8p4+tX7F8VsoX1w7LrG7HKtToxWF8UGan7/ww/9Zi1VRfMXXQYkgNWTnvlpikktvvw9XhtmiQlks0UdNYxubyGgW5Hplkhw7KAICChx4IoYmSH6aG/KrexVv1yrKsoSfnqTQ6AJgM/XesenWjbLQbUktLeh/ROAy2G5UC6quVahB7icQAo27tDmh0KgAMPNQwNUpMg8q6SiQ/9vaq3/swhFl+dOsLJSJ3g0zairckRQjZbILkx53o5Wfy1amLw145xo7Pv1peIr9c2CxtG7wjtoZbVOTqDTHx0Xw+p//TOiZnpFeQZir777WuZPHCj9bzc6oulsouF8trJDoyIx99jEp5DQ58I4Tsw0nyA0xnN+3eIkv+3WLx3DX+KWsAwNRccvHzTXmnRrMmMi0h+S9fJgaCsuhI/n8uKxVdOjNQ/RanPZ1MpQAVgEwgWdD2deYr+uQ1q0OilyfGLgcA0MokB7cc3pOvu9NLEUJorDlLfgDolWd2HD6zA2je3OkJIXPXxKdGxb2ytbN61cVma5ugxq+OCaSr89J3bsu6vQePT36YdKf6X0VBG+aXYao9kLflQB7QGaIEceJj8Y+mild/lNYw6/CPKlKbYwlEPHW9VInnrxBCNnO+6z8MbcqyrHMfrvz+xzZghvkFD7lU26wDGLhn78Pw4jEAFNWF/b7+0/mRUYxhc3jkdgBAp9UDuLHZ/Z4SBnJHvChPr5PmV3zz7DcZ+SbgCKaHjVRnCUWwaGvGx9v/+s8P1oYTZBpACKH+nCU/uOHJXGb/J/wmuXMAutSDr4PQq7tUABzv+3lDG9EpWnUAXuEJt64sp4rWpCzwAwAq0836dgD0ioarJuD4J6b2NkURxyxLYw8soooS+N79443O5vOoAOp2MhdvAE0ULmYBAOEbHuRFpgGEEOrPSc5f0QXLM5ZEqJrLi+Uymc6Vx5+RLA6k6y5+c6Fm8FRXZVFh8+pQwcovl3jmXm/Rm0CvPLdT0ggAYCr6rqwhNS5p+/qPUqsuy8AjVJyYwCjPlYenCjy9uRRQmK1qBwB0p45KVieEpGxf750qadRzpyfzuyqazQn8fj1hxG5c/5RYWVMsvSrTaIEVmDwtxg/acs/+MJoxm1u0JTl50uAUXuf5nNOkAgjAY+bTC8K4AMDw4wFQJkWsWu2pMUG3qmJ/9gUSF5QghBwZhcvlWl/t7u6uVDriBB6zwUynsNw8/B/wj07wDxbRdNU12dsPfbRPOXTIu72orpnjKQrzj0kOjkuYOjOWqN55uc4MAGC6VldY3e0tnjw9QRwWxmV0So+8/Z/Psl1/tSbQ39SS/Z9mrXXtAIC2sq7a7CkO4Qc/wOez1MX/yProLGfBQ5N/OVuUXdRzfqxb5+Jy3333TQ4TRiQEhIW439fRfGb399vek7SRm4NlvF76f4cPHs49J9XcJNUAhRf31MOzpvN97/di0wCAYPN5vvfzfYWT2gt+utJOqk2EkMNyEQqF1leLRCKpVHrnOoQQQhOds4x/IIQQsi/MD4QQQmRgfiCEECID8wMhhBAZmB8IIYTIwPxACCFExujm7yKEEEI98PgDIYQQGZgfCCGEyCCVH8xuP/duzog3i0UIITTxkbl/YuiS1uw1egAX1bX7vt7l8dcLeBCDEEJOZ3T3T+yhaqdJKpklTRASq0mJgJ+zmddsWVQVIYSQAyKTH+YblOp6oqSM+UvwjRTxzbaf2Kc7x6JvCCGExi9bTj25tHa6AqWbM+oAQggh5PBsH7ogt5QEQgghx4ZD3wghhMiwLT/MLgDAoNmnKwghhByITfnRqnIFMIcGGe3VG4QQQo6CzPyrW9pudKekaEOm60NcqB03XMHFRa9zwam8CCHkDGy9f6LfnI7dL94QMwEAoMlt5XpuIQYIQgg5ATLXn9/mr/74+RtiGrXy5KQjPxOtCqICwwMhhJyDTfkROlsdxXKRZPJ+u4vQ26tHCCGEHIFN4+c8924ASmUlhgdCCDkdG6//uAkAOoNdeoIQQsiR4PWDCCGEyLApPzjMmwAuejz+QAgh50Nq/JzZLXbv5vn/sjzSDAa6RGbvTiGEEBr3bFk/CsBALfy325EuO/cJIYTQ+Efm+kH6FEOyf7deRZHUEjLtWPQKIYTQeGfr9ecIIYScE86/QgghRAbmB0IIITIwPxBCCJExuvlXTCZzjPqBEELIseDxB0IIITL+HzC3o/+HvVs6AAAAAElFTkSuQmCC;" vertex="1" parent="1">
          <mxGeometry x="369.3" y="1521.25" width="533" height="140" as="geometry" />
        </mxCell>
      </root>
    </mxGraphModel>
  </diagram>
</mxfile>
